<?xml version="1.0" encoding="utf-8" standalone="no"?>
<!DOCTYPE svg PUBLIC "-//W3C//DTD SVG 1.1//EN"
  "http://www.w3.org/Graphics/SVG/1.1/DTD/svg11.dtd">
<svg xmlns:xlink="http://www.w3.org/1999/xlink" width="348.181875pt" height="180.72pt" viewBox="0 0 348.181875 180.72" xmlns="http://www.w3.org/2000/svg" version="1.1">
 <metadata>
  <rdf:RDF xmlns:dc="http://purl.org/dc/elements/1.1/" xmlns:cc="http://creativecommons.org/ns#" xmlns:rdf="http://www.w3.org/1999/02/22-rdf-syntax-ns#">
   <cc:Work>
    <dc:type rdf:resource="http://purl.org/dc/dcmitype/StillImage"/>
    <dc:date>2025-09-13T08:42:26.406158</dc:date>
    <dc:format>image/svg+xml</dc:format>
    <dc:creator>
     <cc:Agent>
      <dc:title>Matplotlib v3.10.3, https://matplotlib.org/</dc:title>
     </cc:Agent>
    </dc:creator>
   </cc:Work>
  </rdf:RDF>
 </metadata>
 <defs>
  <style type="text/css">*{stroke-linejoin: round; stroke-linecap: butt}</style>
 </defs>
 <g id="figure_1">
  <g id="patch_1">
   <path d="M 0 180.72 
L 348.181875 180.72 
L 348.181875 0 
L 0 0 
z
" style="fill: #ffffff"/>
  </g>
  <g id="axes_1">
   <g id="FillBetweenPolyCollection_1">
    <defs>
     <path id="m362d8bde8f" d="M 17.345455 -79.477903 
L 17.345455 -47.118952 
L 18.365098 -48.454703 
L 19.384742 -49.842297 
L 20.404386 -51.279751 
L 21.424029 -52.764817 
L 22.443673 -54.294985 
L 23.463317 -55.86748 
L 24.48296 -57.479267 
L 25.502604 -59.127056 
L 26.522248 -60.807313 
L 27.541891 -62.516273 
L 28.561535 -64.249962 
L 29.581179 -66.004225 
L 30.600822 -67.774758 
L 31.620466 -69.557157 
L 32.64011 -71.346963 
L 33.659753 -73.139729 
L 34.679397 -74.931077 
L 35.699041 -76.716762 
L 36.718684 -78.492729 
L 37.738328 -80.255153 
L 38.757972 -82.000459 
L 39.777615 -83.725317 
L 40.797259 -85.426612 
L 41.816903 -87.101387 
L 42.836546 -88.746769 
L 43.85619 -90.359891 
L 44.875834 -91.937817 
L 45.895477 -93.477472 
L 46.915121 -94.9756 
L 47.934765 -96.428734 
L 48.954408 -97.833191 
L 49.974052 -99.185085 
L 50.993696 -100.480354 
L 52.013339 -101.714801 
L 53.032983 -102.884141 
L 54.052627 -103.984053 
L 55.07227 -105.010238 
L 56.091914 -105.958473 
L 57.111558 -106.824668 
L 58.131201 -107.604915 
L 59.150845 -108.29554 
L 60.170489 -108.893149 
L 61.190132 -109.394668 
L 62.209776 -109.797382 
L 63.22942 -110.098967 
L 64.249063 -110.297519 
L 65.268707 -110.391573 
L 66.288351 -110.380129 
L 67.307995 -110.26266 
L 68.327638 -110.039126 
L 69.347282 -109.709977 
L 70.366926 -109.276157 
L 71.386569 -108.739105 
L 72.406213 -108.100745 
L 73.425857 -107.363486 
L 74.4455 -106.530207 
L 75.465144 -105.60425 
L 76.484788 -104.589402 
L 77.504431 -103.489882 
L 78.524075 -102.310324 
L 79.543719 -101.055758 
L 80.563362 -99.731591 
L 81.583006 -98.343583 
L 82.60265 -96.897827 
L 83.622293 -95.400724 
L 84.641937 -93.858959 
L 85.661581 -92.279471 
L 86.681224 -90.669432 
L 87.700868 -89.036208 
L 88.720512 -87.387339 
L 89.740155 -85.730499 
L 90.759799 -84.073467 
L 91.779443 -82.424094 
L 92.799086 -80.790264 
L 93.81873 -79.17986 
L 94.838374 -77.600728 
L 95.858017 -76.060638 
L 96.877661 -74.567247 
L 97.897305 -73.128059 
L 98.916948 -71.750393 
L 99.936592 -70.441338 
L 100.956236 -69.207724 
L 101.975879 -68.056082 
L 102.995523 -66.992613 
L 104.015167 -66.023154 
L 105.03481 -65.153149 
L 106.054454 -64.387622 
L 107.074098 -63.73115 
L 108.093741 -63.187842 
L 109.113385 -62.761315 
L 110.133029 -62.454684 
L 111.152672 -62.270542 
L 112.172316 -62.210948 
L 113.19196 -62.277427 
L 114.211603 -62.470956 
L 115.231247 -62.791967 
L 116.250891 -63.240348 
L 117.270534 -63.815443 
L 118.290178 -64.516064 
L 119.309822 -65.340498 
L 120.329466 -66.286518 
L 121.349109 -67.351398 
L 122.368753 -68.531929 
L 123.388397 -69.82444 
L 124.40804 -71.224814 
L 125.427684 -72.728515 
L 126.447328 -74.330607 
L 127.466971 -76.025785 
L 128.486615 -77.808394 
L 129.506259 -79.672463 
L 130.525902 -81.61173 
L 131.545546 -83.619674 
L 132.56519 -85.689541 
L 133.584833 -87.814379 
L 134.604477 -89.987067 
L 135.624121 -92.200346 
L 136.643764 -94.446851 
L 137.663408 -96.719144 
L 138.683052 -99.009742 
L 139.702695 -101.311152 
L 140.722339 -103.615899 
L 141.741983 -105.91656 
L 142.761626 -108.205788 
L 143.78127 -110.476345 
L 144.800914 -112.72113 
L 145.820557 -114.933205 
L 146.840201 -117.105818 
L 147.859845 -119.232433 
L 148.879488 -121.306749 
L 149.899132 -123.322722 
L 150.918776 -125.274589 
L 151.938419 -127.156881 
L 152.958063 -128.964445 
L 153.977707 -130.692459 
L 154.99735 -132.336443 
L 156.016994 -133.892277 
L 157.036638 -135.356207 
L 158.056281 -136.724857 
L 159.075925 -137.99524 
L 160.095569 -139.164759 
L 161.115212 -140.231217 
L 162.134856 -141.192818 
L 163.1545 -142.048172 
L 164.174143 -142.796293 
L 165.193787 -143.436597 
L 166.213431 -143.968903 
L 167.233074 -144.393426 
L 168.252718 -144.710769 
L 169.272362 -144.921914 
L 170.292005 -145.028213 
L 171.311649 -145.03137 
L 172.331293 -144.933429 
L 173.350937 -144.736749 
L 174.37058 -144.443988 
L 175.390224 -144.058073 
L 176.409868 -143.582177 
L 177.429511 -143.019685 
L 178.449155 -142.37416 
L 179.468799 -141.649312 
L 180.488442 -140.848955 
L 181.508086 -139.976966 
L 182.52773 -139.037245 
L 183.547373 -138.033667 
L 184.567017 -136.970034 
L 185.586661 -135.85003 
L 186.606304 -134.677172 
L 187.625948 -133.454762 
L 188.645592 -132.18585 
L 189.665235 -130.873192 
L 190.684879 -129.519228 
L 191.704523 -128.126069 
L 192.724166 -126.695505 
L 193.74381 -125.229029 
L 194.763454 -123.727896 
L 195.783097 -122.193193 
L 196.802741 -120.625939 
L 197.822385 -119.027187 
L 198.842028 -117.398133 
L 199.861672 -115.740213 
L 200.881316 -114.055164 
L 201.900959 -112.345071 
L 202.920603 -110.612368 
L 203.940247 -108.859811 
L 204.95989 -107.090432 
L 205.979534 -105.307478 
L 206.999178 -103.51434 
L 208.018821 -101.714491 
L 209.038465 -99.911427 
L 210.058109 -98.108615 
L 211.077752 -96.309457 
L 212.097396 -94.517257 
L 213.11704 -92.735197 
L 214.136683 -90.966324 
L 215.156327 -89.213538 
L 216.175971 -87.479585 
L 217.195614 -85.767051 
L 218.215258 -84.078365 
L 219.234902 -82.415795 
L 220.254545 -80.781449 
L 220.254545 -113.462782 
L 220.254545 -113.462782 
L 219.234902 -113.677911 
L 218.215258 -113.942525 
L 217.195614 -114.258164 
L 216.175971 -114.626235 
L 215.156327 -115.048002 
L 214.136683 -115.524574 
L 213.11704 -116.056896 
L 212.097396 -116.645731 
L 211.077752 -117.291655 
L 210.058109 -117.995031 
L 209.038465 -118.755996 
L 208.018821 -119.574428 
L 206.999178 -120.449919 
L 205.979534 -121.381733 
L 204.95989 -122.368755 
L 203.940247 -123.409439 
L 202.920603 -124.501746 
L 201.900959 -125.643081 
L 200.881316 -126.830243 
L 199.861672 -128.059383 
L 198.842028 -129.32599 
L 197.822385 -130.624913 
L 196.802741 -131.950411 
L 195.783097 -133.296241 
L 194.763454 -134.655769 
L 193.74381 -136.022102 
L 192.724166 -137.388211 
L 191.704523 -138.747056 
L 190.684879 -140.091683 
L 189.665235 -141.415308 
L 188.645592 -142.711374 
L 187.625948 -143.973586 
L 186.606304 -145.195932 
L 185.586661 -146.372693 
L 184.567017 -147.498437 
L 183.547373 -148.568017 
L 182.52773 -149.576557 
L 181.508086 -150.519446 
L 180.488442 -151.392325 
L 179.468799 -152.191078 
L 178.449155 -152.911826 
L 177.429511 -153.550923 
L 176.409868 -154.104952 
L 175.390224 -154.570725 
L 174.37058 -154.945286 
L 173.350937 -155.225912 
L 172.331293 -155.410123 
L 171.311649 -155.495685 
L 170.292005 -155.480624 
L 169.272362 -155.363231 
L 168.252718 -155.142077 
L 167.233074 -154.816025 
L 166.213431 -154.38424 
L 165.193787 -153.846205 
L 164.174143 -153.201732 
L 163.1545 -152.450974 
L 162.134856 -151.594439 
L 161.115212 -150.632997 
L 160.095569 -149.567891 
L 159.075925 -148.400743 
L 158.056281 -147.133563 
L 157.036638 -145.768748 
L 156.016994 -144.309089 
L 154.99735 -142.757766 
L 153.977707 -141.118344 
L 152.958063 -139.394774 
L 151.938419 -137.59138 
L 150.918776 -135.71285 
L 149.899132 -133.764224 
L 148.879488 -131.750882 
L 147.859845 -129.678523 
L 146.840201 -127.553149 
L 145.820557 -125.381045 
L 144.800914 -123.168754 
L 143.78127 -120.923054 
L 142.761626 -118.650932 
L 141.741983 -116.359556 
L 140.722339 -114.056246 
L 139.702695 -111.748445 
L 138.683052 -109.443684 
L 137.663408 -107.149553 
L 136.643764 -104.873667 
L 135.624121 -102.623631 
L 134.604477 -100.407006 
L 133.584833 -98.231275 
L 132.56519 -96.103805 
L 131.545546 -94.031818 
L 130.525902 -92.022352 
L 129.506259 -90.082228 
L 128.486615 -88.218018 
L 127.466971 -86.436012 
L 126.447328 -84.742189 
L 125.427684 -83.142186 
L 124.40804 -81.641269 
L 123.388397 -80.244312 
L 122.368753 -78.955767 
L 121.349109 -77.779647 
L 120.329466 -76.719505 
L 119.309822 -75.778414 
L 118.290178 -74.958959 
L 117.270534 -74.263216 
L 116.250891 -73.692751 
L 115.231247 -73.248607 
L 114.211603 -72.931301 
L 113.19196 -72.740823 
L 112.172316 -72.676633 
L 111.152672 -72.737669 
L 110.133029 -72.922348 
L 109.113385 -73.228575 
L 108.093741 -73.65375 
L 107.074098 -74.194785 
L 106.054454 -74.848112 
L 105.03481 -75.609703 
L 104.015167 -76.475085 
L 102.995523 -77.43936 
L 101.975879 -78.497228 
L 100.956236 -79.643008 
L 99.936592 -80.870661 
L 98.916948 -82.173821 
L 97.897305 -83.545819 
L 96.877661 -84.979712 
L 95.858017 -86.468317 
L 94.838374 -88.004238 
L 93.81873 -89.579905 
L 92.799086 -91.187605 
L 91.779443 -92.819518 
L 90.759799 -94.467756 
L 89.740155 -96.124397 
L 88.720512 -97.781527 
L 87.700868 -99.431276 
L 86.681224 -101.065857 
L 85.661581 -102.677605 
L 84.641937 -104.259015 
L 83.622293 -105.802777 
L 82.60265 -107.301817 
L 81.583006 -108.749324 
L 80.563362 -110.138789 
L 79.543719 -111.464035 
L 78.524075 -112.719239 
L 77.504431 -113.898966 
L 76.484788 -114.998183 
L 75.465144 -116.012287 
L 74.4455 -116.937113 
L 73.425857 -117.768953 
L 72.406213 -118.504563 
L 71.386569 -119.14117 
L 70.366926 -119.676478 
L 69.347282 -120.108664 
L 68.327638 -120.436381 
L 67.307995 -120.658752 
L 66.288351 -120.775363 
L 65.268707 -120.786259 
L 64.249063 -120.691932 
L 63.22942 -120.493316 
L 62.209776 -120.191774 
L 61.190132 -119.789094 
L 60.170489 -119.287474 
L 59.150845 -118.689523 
L 58.131201 -117.998247 
L 57.111558 -117.21705 
L 56.091914 -116.349728 
L 55.07227 -115.400468 
L 54.052627 -114.373846 
L 53.032983 -113.27483 
L 52.013339 -112.10878 
L 50.993696 -110.881448 
L 49.974052 -109.59898 
L 48.954408 -108.26791 
L 47.934765 -106.895152 
L 46.915121 -105.487982 
L 45.895477 -104.05401 
L 44.875834 -102.601137 
L 43.85619 -101.137493 
L 42.836546 -99.671357 
L 41.816903 -98.211057 
L 40.797259 -96.764855 
L 39.777615 -95.340819 
L 38.757972 -93.946701 
L 37.738328 -92.589819 
L 36.718684 -91.276958 
L 35.699041 -90.014303 
L 34.679397 -88.807394 
L 33.659753 -87.661118 
L 32.64011 -86.579719 
L 31.620466 -85.566829 
L 30.600822 -84.625502 
L 29.581179 -83.758266 
L 28.561535 -82.967159 
L 27.541891 -82.253769 
L 26.522248 -81.619271 
L 25.502604 -81.064453 
L 24.48296 -80.589742 
L 23.463317 -80.195222 
L 22.443673 -79.880654 
L 21.424029 -79.645491 
L 20.404386 -79.48889 
L 19.384742 -79.409726 
L 18.365098 -79.406612 
L 17.345455 -79.477903 
z
"/>
    </defs>
    <g clip-path="url(#pf813a1f877)">
     <use xlink:href="#m362d8bde8f" x="0" y="180.72" style="fill: #dc143c; fill-opacity: 0.2"/>
    </g>
   </g>
   <g id="FillBetweenPolyCollection_2">
    <defs>
     <path id="mf25a1b872c" d="M 17.345455 -95.657379 
L 17.345455 -30.939476 
L 18.365098 -32.978748 
L 19.384742 -35.058582 
L 20.404386 -37.175181 
L 21.424029 -39.32448 
L 22.443673 -41.50215 
L 23.463317 -43.703609 
L 24.48296 -45.924029 
L 25.502604 -48.158357 
L 26.522248 -50.401334 
L 27.541891 -52.647525 
L 28.561535 -54.891364 
L 29.581179 -57.127204 
L 30.600822 -59.349386 
L 31.620466 -61.552321 
L 32.64011 -63.730585 
L 33.659753 -65.879034 
L 34.679397 -67.992918 
L 35.699041 -70.067992 
L 36.718684 -72.100615 
L 37.738328 -74.08782 
L 38.757972 -76.027338 
L 39.777615 -77.917566 
L 40.797259 -79.757491 
L 41.816903 -81.546552 
L 42.836546 -83.284474 
L 43.85619 -84.97109 
L 44.875834 -86.606156 
L 45.895477 -88.189203 
L 46.915121 -89.719409 
L 47.934765 -91.195525 
L 48.954408 -92.615832 
L 49.974052 -93.978138 
L 50.993696 -95.279808 
L 52.013339 -96.517812 
L 53.032983 -97.688796 
L 54.052627 -98.789156 
L 55.07227 -99.815123 
L 56.091914 -100.762846 
L 57.111558 -101.628477 
L 58.131201 -102.408249 
L 59.150845 -103.098549 
L 60.170489 -103.695986 
L 61.190132 -104.197455 
L 62.209776 -104.600186 
L 63.22942 -104.901793 
L 64.249063 -105.100312 
L 65.268707 -105.19423 
L 66.288351 -105.182512 
L 67.307995 -105.064614 
L 68.327638 -104.840498 
L 69.347282 -104.510633 
L 70.366926 -104.075997 
L 71.386569 -103.538072 
L 72.406213 -102.898836 
L 73.425857 -102.160753 
L 74.4455 -101.326755 
L 75.465144 -100.400232 
L 76.484788 -99.385011 
L 77.504431 -98.28534 
L 78.524075 -97.105866 
L 79.543719 -95.85162 
L 80.563362 -94.527992 
L 81.583006 -93.140712 
L 82.60265 -91.695832 
L 83.622293 -90.199697 
L 84.641937 -88.65893 
L 85.661581 -87.080404 
L 86.681224 -85.471219 
L 87.700868 -83.838674 
L 88.720512 -82.190245 
L 89.740155 -80.53355 
L 90.759799 -78.876323 
L 91.779443 -77.226382 
L 92.799086 -75.591593 
L 93.81873 -73.979838 
L 94.838374 -72.398973 
L 95.858017 -70.856799 
L 96.877661 -69.361014 
L 97.897305 -67.919179 
L 98.916948 -66.538678 
L 99.936592 -65.226676 
L 100.956236 -63.990082 
L 101.975879 -62.835509 
L 102.995523 -61.769239 
L 104.015167 -60.797188 
L 105.03481 -59.924872 
L 106.054454 -59.157377 
L 107.074098 -58.499333 
L 108.093741 -57.954888 
L 109.113385 -57.527686 
L 110.133029 -57.220853 
L 111.152672 -57.036978 
L 112.172316 -56.978106 
L 113.19196 -57.04573 
L 114.211603 -57.240784 
L 115.231247 -57.563648 
L 116.250891 -58.014146 
L 117.270534 -58.591556 
L 118.290178 -59.294617 
L 119.309822 -60.12154 
L 120.329466 -61.070025 
L 121.349109 -62.137273 
L 122.368753 -63.32001 
L 123.388397 -64.614504 
L 124.40804 -66.016586 
L 125.427684 -67.521679 
L 126.447328 -69.124817 
L 127.466971 -70.820671 
L 128.486615 -72.603582 
L 129.506259 -74.46758 
L 130.525902 -76.406419 
L 131.545546 -78.413601 
L 132.56519 -80.482408 
L 133.584833 -82.605931 
L 134.604477 -84.777097 
L 135.624121 -86.988704 
L 136.643764 -89.233443 
L 137.663408 -91.503939 
L 138.683052 -93.792771 
L 139.702695 -96.092505 
L 140.722339 -98.395726 
L 141.741983 -100.695062 
L 142.761626 -102.983215 
L 143.78127 -105.25299 
L 144.800914 -107.497318 
L 145.820557 -109.709284 
L 146.840201 -111.882152 
L 147.859845 -114.009388 
L 148.879488 -116.084682 
L 149.899132 -118.101971 
L 150.918776 -120.055458 
L 151.938419 -121.939631 
L 152.958063 -123.749281 
L 153.977707 -125.479516 
L 154.99735 -127.125782 
L 156.016994 -128.683871 
L 157.036638 -130.149936 
L 158.056281 -131.520505 
L 159.075925 -132.792489 
L 160.095569 -133.963193 
L 161.115212 -135.030327 
L 162.134856 -135.992008 
L 163.1545 -136.846771 
L 164.174143 -137.593573 
L 165.193787 -138.231793 
L 166.213431 -138.761235 
L 167.233074 -139.182127 
L 168.252718 -139.495115 
L 169.272362 -139.701256 
L 170.292005 -139.802008 
L 171.311649 -139.799213 
L 172.331293 -139.695081 
L 173.350937 -139.492167 
L 174.37058 -139.193339 
L 175.390224 -138.801747 
L 176.409868 -138.32079 
L 177.429511 -137.754066 
L 178.449155 -137.105327 
L 179.468799 -136.37843 
L 180.488442 -135.57727 
L 181.508086 -134.705726 
L 182.52773 -133.76759 
L 183.547373 -132.766492 
L 184.567017 -131.705833 
L 185.586661 -130.588699 
L 186.606304 -129.417791 
L 187.625948 -128.195351 
L 188.645592 -126.923088 
L 189.665235 -125.602134 
L 190.684879 -124.233001 
L 191.704523 -122.815576 
L 192.724166 -121.349151 
L 193.74381 -119.832493 
L 194.763454 -118.263959 
L 195.783097 -116.64167 
L 196.802741 -114.963703 
L 197.822385 -113.228324 
L 198.842028 -111.434205 
L 199.861672 -109.580628 
L 200.881316 -107.667624 
L 201.900959 -105.696067 
L 202.920603 -103.667679 
L 203.940247 -101.584997 
L 204.95989 -99.451271 
L 205.979534 -97.270351 
L 206.999178 -95.04655 
L 208.018821 -92.784522 
L 209.038465 -90.489142 
L 210.058109 -88.165407 
L 211.077752 -85.818358 
L 212.097396 -83.453019 
L 213.11704 -81.074347 
L 214.136683 -78.687199 
L 215.156327 -76.296306 
L 216.175971 -73.90626 
L 217.195614 -71.521495 
L 218.215258 -69.146286 
L 219.234902 -66.784737 
L 220.254545 -64.440783 
L 220.254545 -129.803448 
L 220.254545 -129.803448 
L 219.234902 -129.308969 
L 218.215258 -128.874605 
L 217.195614 -128.50372 
L 216.175971 -128.19956 
L 215.156327 -127.965234 
L 214.136683 -127.803699 
L 213.11704 -127.717745 
L 212.097396 -127.709968 
L 211.077752 -127.782754 
L 210.058109 -127.93824 
L 209.038465 -128.178281 
L 208.018821 -128.504397 
L 206.999178 -128.917709 
L 205.979534 -129.41886 
L 204.95989 -130.007916 
L 203.940247 -130.684253 
L 202.920603 -131.446434 
L 201.900959 -132.292086 
L 200.881316 -133.217783 
L 199.861672 -134.218968 
L 198.842028 -135.289918 
L 197.822385 -136.423776 
L 196.802741 -137.612647 
L 195.783097 -138.847764 
L 194.763454 -140.119706 
L 193.74381 -141.418638 
L 192.724166 -142.734564 
L 191.704523 -144.057549 
L 190.684879 -145.37791 
L 189.665235 -146.686366 
L 188.645592 -147.974136 
L 187.625948 -149.232998 
L 186.606304 -150.455313 
L 185.586661 -151.634025 
L 184.567017 -152.762639 
L 183.547373 -153.835191 
L 182.52773 -154.846213 
L 181.508086 -155.790687 
L 180.488442 -156.664011 
L 179.468799 -157.461961 
L 178.449155 -158.180659 
L 177.429511 -158.816543 
L 176.409868 -159.36634 
L 175.390224 -159.827051 
L 174.37058 -160.195935 
L 173.350937 -160.470493 
L 172.331293 -160.64847 
L 171.311649 -160.727843 
L 170.292005 -160.706829 
L 169.272362 -160.583889 
L 168.252718 -160.357731 
L 167.233074 -160.027324 
L 166.213431 -159.591908 
L 165.193787 -159.051009 
L 164.174143 -158.404451 
L 163.1545 -157.652375 
L 162.134856 -156.79525 
L 161.115212 -155.833887 
L 160.095569 -154.769456 
L 159.075925 -153.603494 
L 158.056281 -152.337915 
L 157.036638 -150.975019 
L 156.016994 -149.517496 
L 154.99735 -147.968427 
L 153.977707 -146.331287 
L 152.958063 -144.609939 
L 151.938419 -142.80863 
L 150.918776 -140.93198 
L 149.899132 -138.984975 
L 148.879488 -136.972948 
L 147.859845 -134.901568 
L 146.840201 -132.776815 
L 145.820557 -130.604965 
L 144.800914 -128.392566 
L 143.78127 -126.146408 
L 142.761626 -123.873504 
L 141.741983 -121.581054 
L 140.722339 -119.27642 
L 139.702695 -116.967091 
L 138.683052 -114.660654 
L 137.663408 -112.364757 
L 136.643764 -110.087075 
L 135.624121 -107.835273 
L 134.604477 -105.616976 
L 133.584833 -103.439722 
L 132.56519 -101.310937 
L 131.545546 -99.237891 
L 130.525902 -97.227664 
L 129.506259 -95.287111 
L 128.486615 -93.42283 
L 127.466971 -91.641126 
L 126.447328 -89.94798 
L 125.427684 -88.349022 
L 124.40804 -86.849497 
L 123.388397 -85.454248 
L 122.368753 -84.167686 
L 121.349109 -82.993772 
L 120.329466 -81.935998 
L 119.309822 -80.997372 
L 118.290178 -80.180406 
L 117.270534 -79.487103 
L 116.250891 -78.918953 
L 115.231247 -78.476927 
L 114.211603 -78.161474 
L 113.19196 -77.97252 
L 112.172316 -77.909475 
L 111.152672 -77.971233 
L 110.133029 -78.15618 
L 109.113385 -78.462204 
L 108.093741 -78.886704 
L 107.074098 -79.426602 
L 106.054454 -80.078357 
L 105.03481 -80.83798 
L 104.015167 -81.70105 
L 102.995523 -82.662734 
L 101.975879 -83.717802 
L 100.956236 -84.86065 
L 99.936592 -86.085323 
L 98.916948 -87.385536 
L 97.897305 -88.754699 
L 96.877661 -90.185945 
L 95.858017 -91.672156 
L 94.838374 -93.205993 
L 93.81873 -94.779927 
L 92.799086 -96.386275 
L 91.779443 -98.01723 
L 90.759799 -99.6649 
L 89.740155 -101.321346 
L 88.720512 -102.978621 
L 87.700868 -104.62881 
L 86.681224 -106.26407 
L 85.661581 -107.876673 
L 84.641937 -109.459043 
L 83.622293 -111.003804 
L 82.60265 -112.503812 
L 81.583006 -113.952194 
L 80.563362 -115.342389 
L 79.543719 -116.668173 
L 78.524075 -117.923697 
L 77.504431 -119.103508 
L 76.484788 -120.202574 
L 75.465144 -121.216305 
L 74.4455 -122.140565 
L 73.425857 -122.971686 
L 72.406213 -123.706471 
L 71.386569 -124.342203 
L 70.366926 -124.876638 
L 69.347282 -125.308008 
L 68.327638 -125.635009 
L 67.307995 -125.856798 
L 66.288351 -125.97298 
L 65.268707 -125.983602 
L 64.249063 -125.889139 
L 63.22942 -125.69049 
L 62.209776 -125.388971 
L 61.190132 -124.986307 
L 60.170489 -124.484637 
L 59.150845 -123.886514 
L 58.131201 -123.194913 
L 57.111558 -122.413241 
L 56.091914 -121.545356 
L 55.07227 -120.595583 
L 54.052627 -119.568743 
L 53.032983 -118.470175 
L 52.013339 -117.305769 
L 50.993696 -116.081995 
L 49.974052 -114.805928 
L 48.954408 -113.48527 
L 47.934765 -112.128361 
L 46.915121 -110.744173 
L 45.895477 -109.342279 
L 44.875834 -107.932797 
L 43.85619 -106.526294 
L 42.836546 -105.133652 
L 41.816903 -103.765893 
L 40.797259 -102.433976 
L 39.777615 -101.14857 
L 38.757972 -99.919822 
L 37.738328 -98.757152 
L 36.718684 -97.669073 
L 35.699041 -96.663073 
L 34.679397 -95.745552 
L 33.659753 -94.921812 
L 32.64011 -94.196098 
L 31.620466 -93.571665 
L 30.600822 -93.050874 
L 29.581179 -92.635287 
L 28.561535 -92.325757 
L 27.541891 -92.122517 
L 26.522248 -92.02525 
L 25.502604 -92.033151 
L 24.48296 -92.144979 
L 23.463317 -92.359093 
L 22.443673 -92.673489 
L 21.424029 -93.085828 
L 20.404386 -93.593459 
L 19.384742 -94.193441 
L 18.365098 -94.882567 
L 17.345455 -95.657379 
z
"/>
    </defs>
    <g clip-path="url(#pf813a1f877)">
     <use xlink:href="#mf25a1b872c" x="0" y="180.72" style="fill: #dc143c; fill-opacity: 0.2"/>
    </g>
   </g>
   <g id="FillBetweenPolyCollection_3">
    <defs>
     <path id="m44c4ea702c" d="M 17.345455 -111.836855 
L 17.345455 -14.76 
L 18.365098 -17.502793 
L 19.384742 -20.274868 
L 20.404386 -23.070612 
L 21.424029 -25.884143 
L 22.443673 -28.709315 
L 23.463317 -31.539738 
L 24.48296 -34.368792 
L 25.502604 -37.189659 
L 26.522248 -39.995355 
L 27.541891 -42.778777 
L 28.561535 -45.532766 
L 29.581179 -48.250184 
L 30.600822 -50.924014 
L 31.620466 -53.547485 
L 32.64011 -56.114207 
L 33.659753 -58.61834 
L 34.679397 -61.05476 
L 35.699041 -63.419221 
L 36.718684 -65.7085 
L 37.738328 -67.920487 
L 38.757972 -70.054216 
L 39.777615 -72.109815 
L 40.797259 -74.08837 
L 41.816903 -75.991716 
L 42.836546 -77.82218 
L 43.85619 -79.582289 
L 44.875834 -81.274496 
L 45.895477 -82.900934 
L 46.915121 -84.463218 
L 47.934765 -85.962316 
L 48.954408 -87.398472 
L 49.974052 -88.77119 
L 50.993696 -90.079261 
L 52.013339 -91.320823 
L 53.032983 -92.493451 
L 54.052627 -93.594259 
L 55.07227 -94.620008 
L 56.091914 -95.567219 
L 57.111558 -96.432286 
L 58.131201 -97.211583 
L 59.150845 -97.901557 
L 60.170489 -98.498823 
L 61.190132 -99.000242 
L 62.209776 -99.40299 
L 63.22942 -99.704619 
L 64.249063 -99.903105 
L 65.268707 -99.996887 
L 66.288351 -99.984895 
L 67.307995 -99.866568 
L 68.327638 -99.64187 
L 69.347282 -99.311289 
L 70.366926 -98.875837 
L 71.386569 -98.337039 
L 72.406213 -97.696928 
L 73.425857 -96.958019 
L 74.4455 -96.123302 
L 75.465144 -95.196214 
L 76.484788 -94.18062 
L 77.504431 -93.080798 
L 78.524075 -91.901409 
L 79.543719 -90.647482 
L 80.563362 -89.324392 
L 81.583006 -87.937842 
L 82.60265 -86.493836 
L 83.622293 -84.99867 
L 84.641937 -83.458902 
L 85.661581 -81.881337 
L 86.681224 -80.273006 
L 87.700868 -78.64114 
L 88.720512 -76.993151 
L 89.740155 -75.336601 
L 90.759799 -73.679179 
L 91.779443 -72.02867 
L 92.799086 -70.392923 
L 93.81873 -68.779815 
L 94.838374 -67.197218 
L 95.858017 -65.65296 
L 96.877661 -64.154781 
L 97.897305 -62.710299 
L 98.916948 -61.326964 
L 99.936592 -60.012015 
L 100.956236 -58.77244 
L 101.975879 -57.614936 
L 102.995523 -56.545865 
L 104.015167 -55.571222 
L 105.03481 -54.696595 
L 106.054454 -53.927132 
L 107.074098 -53.267516 
L 108.093741 -52.721933 
L 109.113385 -52.294056 
L 110.133029 -51.987021 
L 111.152672 -51.803414 
L 112.172316 -51.745264 
L 113.19196 -51.814032 
L 114.211603 -52.010611 
L 115.231247 -52.335328 
L 116.250891 -52.787944 
L 117.270534 -53.367669 
L 118.290178 -54.07317 
L 119.309822 -54.902582 
L 120.329466 -55.853532 
L 121.349109 -56.923148 
L 122.368753 -58.108091 
L 123.388397 -59.404568 
L 124.40804 -60.808359 
L 125.427684 -62.314844 
L 126.447328 -63.919026 
L 127.466971 -65.615557 
L 128.486615 -67.398769 
L 129.506259 -69.262697 
L 130.525902 -71.201108 
L 131.545546 -73.207529 
L 132.56519 -75.275276 
L 133.584833 -77.397483 
L 134.604477 -79.567128 
L 135.624121 -81.777061 
L 136.643764 -84.020036 
L 137.663408 -86.288735 
L 138.683052 -88.5758 
L 139.702695 -90.873859 
L 140.722339 -93.175553 
L 141.741983 -95.473564 
L 142.761626 -97.760643 
L 143.78127 -100.029636 
L 144.800914 -102.273506 
L 145.820557 -104.485364 
L 146.840201 -106.658487 
L 147.859845 -108.786343 
L 148.879488 -110.862615 
L 149.899132 -112.88122 
L 150.918776 -114.836328 
L 151.938419 -116.722381 
L 152.958063 -118.534116 
L 153.977707 -120.266574 
L 154.99735 -121.915121 
L 156.016994 -123.475465 
L 157.036638 -124.943665 
L 158.056281 -126.316152 
L 159.075925 -127.589737 
L 160.095569 -128.761627 
L 161.115212 -129.829437 
L 162.134856 -130.791197 
L 163.1545 -131.64537 
L 164.174143 -132.390853 
L 165.193787 -133.026989 
L 166.213431 -133.553567 
L 167.233074 -133.970828 
L 168.252718 -134.279461 
L 169.272362 -134.480598 
L 170.292005 -134.575802 
L 171.311649 -134.567055 
L 172.331293 -134.456734 
L 173.350937 -134.247586 
L 174.37058 -133.942689 
L 175.390224 -133.545421 
L 176.409868 -133.059403 
L 177.429511 -132.488446 
L 178.449155 -131.836494 
L 179.468799 -131.107547 
L 180.488442 -130.305585 
L 181.508086 -129.434486 
L 182.52773 -128.497934 
L 183.547373 -127.499317 
L 184.567017 -126.441631 
L 185.586661 -125.327367 
L 186.606304 -124.158411 
L 187.625948 -122.935939 
L 188.645592 -121.660327 
L 189.665235 -120.331077 
L 190.684879 -118.946774 
L 191.704523 -117.505083 
L 192.724166 -116.002798 
L 193.74381 -114.435956 
L 194.763454 -112.800023 
L 195.783097 -111.090146 
L 196.802741 -109.301467 
L 197.822385 -107.42946 
L 198.842028 -105.470277 
L 199.861672 -103.421043 
L 200.881316 -101.280085 
L 201.900959 -99.047062 
L 202.920603 -96.722991 
L 203.940247 -94.310183 
L 204.95989 -91.81211 
L 205.979534 -89.233223 
L 206.999178 -86.578761 
L 208.018821 -83.854554 
L 209.038465 -81.066857 
L 210.058109 -78.222198 
L 211.077752 -75.327259 
L 212.097396 -72.388782 
L 213.11704 -69.413498 
L 214.136683 -66.408074 
L 215.156327 -63.379075 
L 216.175971 -60.332935 
L 217.195614 -57.275939 
L 218.215258 -54.214206 
L 219.234902 -51.153679 
L 220.254545 -48.100116 
L 220.254545 -146.144114 
L 220.254545 -146.144114 
L 219.234902 -144.940028 
L 218.215258 -143.806685 
L 217.195614 -142.749276 
L 216.175971 -141.772885 
L 215.156327 -140.882465 
L 214.136683 -140.082824 
L 213.11704 -139.378594 
L 212.097396 -138.774206 
L 211.077752 -138.273853 
L 210.058109 -137.881448 
L 209.038465 -137.600565 
L 208.018821 -137.434365 
L 206.999178 -137.385499 
L 205.979534 -137.455987 
L 204.95989 -137.647077 
L 203.940247 -137.959067 
L 202.920603 -138.391123 
L 201.900959 -138.941091 
L 200.881316 -139.605322 
L 199.861672 -140.378552 
L 198.842028 -141.253846 
L 197.822385 -142.22264 
L 196.802741 -143.274883 
L 195.783097 -144.399288 
L 194.763454 -145.583642 
L 193.74381 -146.815175 
L 192.724166 -148.080918 
L 191.704523 -149.368042 
L 190.684879 -150.664137 
L 189.665235 -151.957424 
L 188.645592 -153.236898 
L 187.625948 -154.49241 
L 186.606304 -155.714693 
L 185.586661 -156.895356 
L 184.567017 -158.02684 
L 183.547373 -159.102366 
L 182.52773 -160.115869 
L 181.508086 -161.061927 
L 180.488442 -161.935696 
L 179.468799 -162.732844 
L 178.449155 -163.449493 
L 177.429511 -164.082162 
L 176.409868 -164.627727 
L 175.390224 -165.083377 
L 174.37058 -165.446584 
L 173.350937 -165.715075 
L 172.331293 -165.886817 
L 171.311649 -165.96 
L 170.292005 -165.933035 
L 169.272362 -165.804547 
L 168.252718 -165.573385 
L 167.233074 -165.238623 
L 166.213431 -164.799576 
L 165.193787 -164.255813 
L 164.174143 -163.607171 
L 163.1545 -162.853776 
L 162.134856 -161.99606 
L 161.115212 -161.034777 
L 160.095569 -159.971022 
L 159.075925 -158.806246 
L 158.056281 -157.542268 
L 157.036638 -156.18129 
L 156.016994 -154.725902 
L 154.99735 -153.179088 
L 153.977707 -151.544229 
L 152.958063 -149.825103 
L 151.938419 -148.025879 
L 150.918776 -146.151111 
L 149.899132 -144.205726 
L 148.879488 -142.195015 
L 147.859845 -140.124612 
L 146.840201 -138.00048 
L 145.820557 -135.828885 
L 144.800914 -133.616378 
L 143.78127 -131.369763 
L 142.761626 -129.096076 
L 141.741983 -126.802552 
L 140.722339 -124.496593 
L 139.702695 -122.185738 
L 138.683052 -119.877625 
L 137.663408 -117.579962 
L 136.643764 -115.300482 
L 135.624121 -113.046916 
L 134.604477 -110.826945 
L 133.584833 -108.64817 
L 132.56519 -106.51807 
L 131.545546 -104.443963 
L 130.525902 -102.432975 
L 129.506259 -100.491994 
L 128.486615 -98.627642 
L 127.466971 -96.84624 
L 126.447328 -95.153771 
L 125.427684 -93.555857 
L 124.40804 -92.057725 
L 123.388397 -90.664184 
L 122.368753 -89.379605 
L 121.349109 -88.207897 
L 120.329466 -87.152491 
L 119.309822 -86.21633 
L 118.290178 -85.401853 
L 117.270534 -84.71099 
L 116.250891 -84.145155 
L 115.231247 -83.705247 
L 114.211603 -83.391646 
L 113.19196 -83.204218 
L 112.172316 -83.142317 
L 111.152672 -83.204797 
L 110.133029 -83.390012 
L 109.113385 -83.695834 
L 108.093741 -84.119658 
L 107.074098 -84.658419 
L 106.054454 -85.308602 
L 105.03481 -86.066257 
L 104.015167 -86.927016 
L 102.995523 -87.886108 
L 101.975879 -88.938375 
L 100.956236 -90.078292 
L 99.936592 -91.299984 
L 98.916948 -92.59725 
L 97.897305 -93.963579 
L 96.877661 -95.392178 
L 95.858017 -96.875995 
L 94.838374 -98.407747 
L 93.81873 -99.97995 
L 92.799086 -101.584945 
L 91.779443 -103.214942 
L 90.759799 -104.862044 
L 89.740155 -106.518295 
L 88.720512 -108.175715 
L 87.700868 -109.826344 
L 86.681224 -111.462283 
L 85.661581 -113.07574 
L 84.641937 -114.659072 
L 83.622293 -116.204831 
L 82.60265 -117.705807 
L 81.583006 -119.155065 
L 80.563362 -120.545988 
L 79.543719 -121.872311 
L 78.524075 -123.128154 
L 77.504431 -124.308049 
L 76.484788 -125.406965 
L 75.465144 -126.420323 
L 74.4455 -127.344018 
L 73.425857 -128.174419 
L 72.406213 -128.90838 
L 71.386569 -129.543236 
L 70.366926 -130.076799 
L 69.347282 -130.507352 
L 68.327638 -130.833637 
L 67.307995 -131.054844 
L 66.288351 -131.170597 
L 65.268707 -131.180944 
L 64.249063 -131.086345 
L 63.22942 -130.887664 
L 62.209776 -130.586167 
L 61.190132 -130.18352 
L 60.170489 -129.6818 
L 59.150845 -129.083505 
L 58.131201 -128.391579 
L 57.111558 -127.609432 
L 56.091914 -126.740983 
L 55.07227 -125.790698 
L 54.052627 -124.76364 
L 53.032983 -123.66552 
L 52.013339 -122.502759 
L 50.993696 -121.282542 
L 49.974052 -120.012876 
L 48.954408 -118.70263 
L 47.934765 -117.36157 
L 46.915121 -116.000364 
L 45.895477 -114.630548 
L 44.875834 -113.264457 
L 43.85619 -111.915095 
L 42.836546 -110.595946 
L 41.816903 -109.320728 
L 40.797259 -108.103097 
L 39.777615 -106.956321 
L 38.757972 -105.892944 
L 37.738328 -104.924485 
L 36.718684 -104.061187 
L 35.699041 -103.311844 
L 34.679397 -102.683711 
L 33.659753 -102.182507 
L 32.64011 -101.812476 
L 31.620466 -101.576501 
L 30.600822 -101.476246 
L 29.581179 -101.512308 
L 28.561535 -101.684355 
L 27.541891 -101.991265 
L 26.522248 -102.431229 
L 25.502604 -103.00185 
L 24.48296 -103.700216 
L 23.463317 -104.522964 
L 22.443673 -105.466324 
L 21.424029 -106.526165 
L 20.404386 -107.698028 
L 19.384742 -108.977156 
L 18.365098 -110.358521 
L 17.345455 -111.836855 
z
"/>
    </defs>
    <g clip-path="url(#pf813a1f877)">
     <use xlink:href="#m44c4ea702c" x="0" y="180.72" style="fill: #dc143c; fill-opacity: 0.2"/>
    </g>
   </g>
   <g id="legend_1">
    <g id="patch_2">
     <path d="M 248.56 113.877188 
L 338.981875 113.877188 
Q 340.981875 113.877188 340.981875 111.877188 
L 340.981875 68.842813 
Q 340.981875 66.842813 338.981875 66.842813 
L 248.56 66.842813 
Q 246.56 66.842813 246.56 68.842813 
L 246.56 111.877188 
Q 246.56 113.877188 248.56 113.877188 
z
" style="fill: #ffffff; opacity: 0.8; stroke: #cccccc; stroke-linejoin: miter"/>
    </g>
    <g id="line2d_1">
     <path d="M 250.56 74.94125 
L 260.56 74.94125 
L 270.56 74.94125 
" style="fill: none; stroke: #dc143c; stroke-width: 2; stroke-linecap: square"/>
    </g>
    <g id="text_1">
     <!-- Prediction -->
     <g transform="translate(278.56 78.44125) scale(0.1 -0.1)">
      <defs>
       <path id="DejaVuSans-50" d="M 1259 4147 
L 1259 2394 
L 2053 2394 
Q 2494 2394 2734 2622 
Q 2975 2850 2975 3272 
Q 2975 3691 2734 3919 
Q 2494 4147 2053 4147 
L 1259 4147 
z
M 628 4666 
L 2053 4666 
Q 2838 4666 3239 4311 
Q 3641 3956 3641 3272 
Q 3641 2581 3239 2228 
Q 2838 1875 2053 1875 
L 1259 1875 
L 1259 0 
L 628 0 
L 628 4666 
z
" transform="scale(0.015625)"/>
       <path id="DejaVuSans-72" d="M 2631 2963 
Q 2534 3019 2420 3045 
Q 2306 3072 2169 3072 
Q 1681 3072 1420 2755 
Q 1159 2438 1159 1844 
L 1159 0 
L 581 0 
L 581 3500 
L 1159 3500 
L 1159 2956 
Q 1341 3275 1631 3429 
Q 1922 3584 2338 3584 
Q 2397 3584 2469 3576 
Q 2541 3569 2628 3553 
L 2631 2963 
z
" transform="scale(0.015625)"/>
       <path id="DejaVuSans-65" d="M 3597 1894 
L 3597 1613 
L 953 1613 
Q 991 1019 1311 708 
Q 1631 397 2203 397 
Q 2534 397 2845 478 
Q 3156 559 3463 722 
L 3463 178 
Q 3153 47 2828 -22 
Q 2503 -91 2169 -91 
Q 1331 -91 842 396 
Q 353 884 353 1716 
Q 353 2575 817 3079 
Q 1281 3584 2069 3584 
Q 2775 3584 3186 3129 
Q 3597 2675 3597 1894 
z
M 3022 2063 
Q 3016 2534 2758 2815 
Q 2500 3097 2075 3097 
Q 1594 3097 1305 2825 
Q 1016 2553 972 2059 
L 3022 2063 
z
" transform="scale(0.015625)"/>
       <path id="DejaVuSans-64" d="M 2906 2969 
L 2906 4863 
L 3481 4863 
L 3481 0 
L 2906 0 
L 2906 525 
Q 2725 213 2448 61 
Q 2172 -91 1784 -91 
Q 1150 -91 751 415 
Q 353 922 353 1747 
Q 353 2572 751 3078 
Q 1150 3584 1784 3584 
Q 2172 3584 2448 3432 
Q 2725 3281 2906 2969 
z
M 947 1747 
Q 947 1113 1208 752 
Q 1469 391 1925 391 
Q 2381 391 2643 752 
Q 2906 1113 2906 1747 
Q 2906 2381 2643 2742 
Q 2381 3103 1925 3103 
Q 1469 3103 1208 2742 
Q 947 2381 947 1747 
z
" transform="scale(0.015625)"/>
       <path id="DejaVuSans-69" d="M 603 3500 
L 1178 3500 
L 1178 0 
L 603 0 
L 603 3500 
z
M 603 4863 
L 1178 4863 
L 1178 4134 
L 603 4134 
L 603 4863 
z
" transform="scale(0.015625)"/>
       <path id="DejaVuSans-63" d="M 3122 3366 
L 3122 2828 
Q 2878 2963 2633 3030 
Q 2388 3097 2138 3097 
Q 1578 3097 1268 2742 
Q 959 2388 959 1747 
Q 959 1106 1268 751 
Q 1578 397 2138 397 
Q 2388 397 2633 464 
Q 2878 531 3122 666 
L 3122 134 
Q 2881 22 2623 -34 
Q 2366 -91 2075 -91 
Q 1284 -91 818 406 
Q 353 903 353 1747 
Q 353 2603 823 3093 
Q 1294 3584 2113 3584 
Q 2378 3584 2631 3529 
Q 2884 3475 3122 3366 
z
" transform="scale(0.015625)"/>
       <path id="DejaVuSans-74" d="M 1172 4494 
L 1172 3500 
L 2356 3500 
L 2356 3053 
L 1172 3053 
L 1172 1153 
Q 1172 725 1289 603 
Q 1406 481 1766 481 
L 2356 481 
L 2356 0 
L 1766 0 
Q 1100 0 847 248 
Q 594 497 594 1153 
L 594 3053 
L 172 3053 
L 172 3500 
L 594 3500 
L 594 4494 
L 1172 4494 
z
" transform="scale(0.015625)"/>
       <path id="DejaVuSans-6f" d="M 1959 3097 
Q 1497 3097 1228 2736 
Q 959 2375 959 1747 
Q 959 1119 1226 758 
Q 1494 397 1959 397 
Q 2419 397 2687 759 
Q 2956 1122 2956 1747 
Q 2956 2369 2687 2733 
Q 2419 3097 1959 3097 
z
M 1959 3584 
Q 2709 3584 3137 3096 
Q 3566 2609 3566 1747 
Q 3566 888 3137 398 
Q 2709 -91 1959 -91 
Q 1206 -91 779 398 
Q 353 888 353 1747 
Q 353 2609 779 3096 
Q 1206 3584 1959 3584 
z
" transform="scale(0.015625)"/>
       <path id="DejaVuSans-6e" d="M 3513 2113 
L 3513 0 
L 2938 0 
L 2938 2094 
Q 2938 2591 2744 2837 
Q 2550 3084 2163 3084 
Q 1697 3084 1428 2787 
Q 1159 2491 1159 1978 
L 1159 0 
L 581 0 
L 581 3500 
L 1159 3500 
L 1159 2956 
Q 1366 3272 1645 3428 
Q 1925 3584 2291 3584 
Q 2894 3584 3203 3211 
Q 3513 2838 3513 2113 
z
" transform="scale(0.015625)"/>
      </defs>
      <use xlink:href="#DejaVuSans-50"/>
      <use xlink:href="#DejaVuSans-72" transform="translate(58.552734 0)"/>
      <use xlink:href="#DejaVuSans-65" transform="translate(97.416016 0)"/>
      <use xlink:href="#DejaVuSans-64" transform="translate(158.939453 0)"/>
      <use xlink:href="#DejaVuSans-69" transform="translate(222.416016 0)"/>
      <use xlink:href="#DejaVuSans-63" transform="translate(250.199219 0)"/>
      <use xlink:href="#DejaVuSans-74" transform="translate(305.179688 0)"/>
      <use xlink:href="#DejaVuSans-69" transform="translate(344.388672 0)"/>
      <use xlink:href="#DejaVuSans-6f" transform="translate(372.171875 0)"/>
      <use xlink:href="#DejaVuSans-6e" transform="translate(433.353516 0)"/>
     </g>
    </g>
    <g id="patch_3">
     <path d="M 250.56 93.119375 
L 270.56 93.119375 
L 270.56 86.119375 
L 250.56 86.119375 
z
" style="fill: #dc143c; fill-opacity: 0.2"/>
    </g>
    <g id="text_2">
     <!-- Uncertainty -->
     <g transform="translate(278.56 93.119375) scale(0.1 -0.1)">
      <defs>
       <path id="DejaVuSans-55" d="M 556 4666 
L 1191 4666 
L 1191 1831 
Q 1191 1081 1462 751 
Q 1734 422 2344 422 
Q 2950 422 3222 751 
Q 3494 1081 3494 1831 
L 3494 4666 
L 4128 4666 
L 4128 1753 
Q 4128 841 3676 375 
Q 3225 -91 2344 -91 
Q 1459 -91 1007 375 
Q 556 841 556 1753 
L 556 4666 
z
" transform="scale(0.015625)"/>
       <path id="DejaVuSans-61" d="M 2194 1759 
Q 1497 1759 1228 1600 
Q 959 1441 959 1056 
Q 959 750 1161 570 
Q 1363 391 1709 391 
Q 2188 391 2477 730 
Q 2766 1069 2766 1631 
L 2766 1759 
L 2194 1759 
z
M 3341 1997 
L 3341 0 
L 2766 0 
L 2766 531 
Q 2569 213 2275 61 
Q 1981 -91 1556 -91 
Q 1019 -91 701 211 
Q 384 513 384 1019 
Q 384 1609 779 1909 
Q 1175 2209 1959 2209 
L 2766 2209 
L 2766 2266 
Q 2766 2663 2505 2880 
Q 2244 3097 1772 3097 
Q 1472 3097 1187 3025 
Q 903 2953 641 2809 
L 641 3341 
Q 956 3463 1253 3523 
Q 1550 3584 1831 3584 
Q 2591 3584 2966 3190 
Q 3341 2797 3341 1997 
z
" transform="scale(0.015625)"/>
       <path id="DejaVuSans-79" d="M 2059 -325 
Q 1816 -950 1584 -1140 
Q 1353 -1331 966 -1331 
L 506 -1331 
L 506 -850 
L 844 -850 
Q 1081 -850 1212 -737 
Q 1344 -625 1503 -206 
L 1606 56 
L 191 3500 
L 800 3500 
L 1894 763 
L 2988 3500 
L 3597 3500 
L 2059 -325 
z
" transform="scale(0.015625)"/>
      </defs>
      <use xlink:href="#DejaVuSans-55"/>
      <use xlink:href="#DejaVuSans-6e" transform="translate(73.193359 0)"/>
      <use xlink:href="#DejaVuSans-63" transform="translate(136.572266 0)"/>
      <use xlink:href="#DejaVuSans-65" transform="translate(191.552734 0)"/>
      <use xlink:href="#DejaVuSans-72" transform="translate(253.076172 0)"/>
      <use xlink:href="#DejaVuSans-74" transform="translate(294.189453 0)"/>
      <use xlink:href="#DejaVuSans-61" transform="translate(333.398438 0)"/>
      <use xlink:href="#DejaVuSans-69" transform="translate(394.677734 0)"/>
      <use xlink:href="#DejaVuSans-6e" transform="translate(422.460938 0)"/>
      <use xlink:href="#DejaVuSans-74" transform="translate(485.839844 0)"/>
      <use xlink:href="#DejaVuSans-79" transform="translate(525.048828 0)"/>
     </g>
    </g>
    <g id="line2d_2">
     <defs>
      <path id="m773da124f4" d="M 0 3 
C 0.795609 3 1.55874 2.683901 2.12132 2.12132 
C 2.683901 1.55874 3 0.795609 3 0 
C 3 -0.795609 2.683901 -1.55874 2.12132 -2.12132 
C 1.55874 -2.683901 0.795609 -3 0 -3 
C -0.795609 -3 -1.55874 -2.683901 -2.12132 -2.12132 
C -2.683901 -1.55874 -3 -0.795609 -3 0 
C -3 0.795609 -2.683901 1.55874 -2.12132 2.12132 
C -1.55874 2.683901 -0.795609 3 0 3 
z
" style="stroke: #000000; stroke-opacity: 0.5"/>
     </defs>
     <g>
      <use xlink:href="#m773da124f4" x="260.56" y="104.2975" style="fill-opacity: 0.5; stroke: #000000; stroke-opacity: 0.5"/>
     </g>
    </g>
    <g id="text_3">
     <!-- Data -->
     <g transform="translate(278.56 107.7975) scale(0.1 -0.1)">
      <defs>
       <path id="DejaVuSans-44" d="M 1259 4147 
L 1259 519 
L 2022 519 
Q 2988 519 3436 956 
Q 3884 1394 3884 2338 
Q 3884 3275 3436 3711 
Q 2988 4147 2022 4147 
L 1259 4147 
z
M 628 4666 
L 1925 4666 
Q 3281 4666 3915 4102 
Q 4550 3538 4550 2338 
Q 4550 1131 3912 565 
Q 3275 0 1925 0 
L 628 0 
L 628 4666 
z
" transform="scale(0.015625)"/>
      </defs>
      <use xlink:href="#DejaVuSans-44"/>
      <use xlink:href="#DejaVuSans-61" transform="translate(77.001953 0)"/>
      <use xlink:href="#DejaVuSans-74" transform="translate(138.28125 0)"/>
      <use xlink:href="#DejaVuSans-61" transform="translate(177.490234 0)"/>
     </g>
    </g>
   </g>
   <g id="line2d_3">
    <g clip-path="url(#pf813a1f877)">
     <use xlink:href="#m773da124f4" x="99.449543" y="102.76093" style="fill-opacity: 0.5; stroke: #000000; stroke-opacity: 0.5"/>
     <use xlink:href="#m773da124f4" x="191.088781" y="47.831722" style="fill-opacity: 0.5; stroke: #000000; stroke-opacity: 0.5"/>
     <use xlink:href="#m773da124f4" x="156.301788" y="40.288322" style="fill-opacity: 0.5; stroke: #000000; stroke-opacity: 0.5"/>
     <use xlink:href="#m773da124f4" x="135.095077" y="94.222115" style="fill-opacity: 0.5; stroke: #000000; stroke-opacity: 0.5"/>
     <use xlink:href="#m773da124f4" x="64.694183" y="67.29521" style="fill-opacity: 0.5; stroke: #000000; stroke-opacity: 0.5"/>
     <use xlink:href="#m773da124f4" x="64.690347" y="64.073704" style="fill-opacity: 0.5; stroke: #000000; stroke-opacity: 0.5"/>
     <use xlink:href="#m773da124f4" x="49.117832" y="71.610498" style="fill-opacity: 0.5; stroke: #000000; stroke-opacity: 0.5"/>
     <use xlink:href="#m773da124f4" x="177.643172" y="36.210796" style="fill-opacity: 0.5; stroke: #000000; stroke-opacity: 0.5"/>
     <use xlink:href="#m773da124f4" x="135.485782" y="86.809055" style="fill-opacity: 0.5; stroke: #000000; stroke-opacity: 0.5"/>
     <use xlink:href="#m773da124f4" x="152.497148" y="49.620621" style="fill-opacity: 0.5; stroke: #000000; stroke-opacity: 0.5"/>
     <use xlink:href="#m773da124f4" x="43.15368" y="84.538186" style="fill-opacity: 0.5; stroke: #000000; stroke-opacity: 0.5"/>
     <use xlink:href="#m773da124f4" x="194.14179" y="47.491794" style="fill-opacity: 0.5; stroke: #000000; stroke-opacity: 0.5"/>
     <use xlink:href="#m773da124f4" x="172.277932" y="33.94772" style="fill-opacity: 0.5; stroke: #000000; stroke-opacity: 0.5"/>
     <use xlink:href="#m773da124f4" x="73.65183" y="66.173832" style="fill-opacity: 0.5; stroke: #000000; stroke-opacity: 0.5"/>
     <use xlink:href="#m773da124f4" x="68.798622" y="65.878048" style="fill-opacity: 0.5; stroke: #000000; stroke-opacity: 0.5"/>
     <use xlink:href="#m773da124f4" x="69.049845" y="61.087888" style="fill-opacity: 0.5; stroke: #000000; stroke-opacity: 0.5"/>
     <use xlink:href="#m773da124f4" x="88.268821" y="91.264965" style="fill-opacity: 0.5; stroke: #000000; stroke-opacity: 0.5"/>
     <use xlink:href="#m773da124f4" x="123.341118" y="105.544162" style="fill-opacity: 0.5; stroke: #000000; stroke-opacity: 0.5"/>
     <use xlink:href="#m773da124f4" x="108.579667" y="112.742132" style="fill-opacity: 0.5; stroke: #000000; stroke-opacity: 0.5"/>
     <use xlink:href="#m773da124f4" x="86.199116" y="92.377088" style="fill-opacity: 0.5; stroke: #000000; stroke-opacity: 0.5"/>
     <use xlink:href="#m773da124f4" x="137.193619" y="76.969526" style="fill-opacity: 0.5; stroke: #000000; stroke-opacity: 0.5"/>
     <use xlink:href="#m773da124f4" x="62.065953" y="65.317357" style="fill-opacity: 0.5; stroke: #000000; stroke-opacity: 0.5"/>
     <use xlink:href="#m773da124f4" x="86.344725" y="84.391939" style="fill-opacity: 0.5; stroke: #000000; stroke-opacity: 0.5"/>
     <use xlink:href="#m773da124f4" x="98.148807" y="102.971757" style="fill-opacity: 0.5; stroke: #000000; stroke-opacity: 0.5"/>
     <use xlink:href="#m773da124f4" x="112.416689" y="119.045015" style="fill-opacity: 0.5; stroke: #000000; stroke-opacity: 0.5"/>
     <use xlink:href="#m773da124f4" x="164.760271" y="34.662356" style="fill-opacity: 0.5; stroke: #000000; stroke-opacity: 0.5"/>
     <use xlink:href="#m773da124f4" x="71.637437" y="69.591474" style="fill-opacity: 0.5; stroke: #000000; stroke-opacity: 0.5"/>
     <use xlink:href="#m773da124f4" x="121.667618" y="110.181755" style="fill-opacity: 0.5; stroke: #000000; stroke-opacity: 0.5"/>
     <use xlink:href="#m773da124f4" x="134.101996" y="86.094968" style="fill-opacity: 0.5; stroke: #000000; stroke-opacity: 0.5"/>
     <use xlink:href="#m773da124f4" x="47.267597" y="80.492315" style="fill-opacity: 0.5; stroke: #000000; stroke-opacity: 0.5"/>
     <use xlink:href="#m773da124f4" x="136.508434" y="69.568997" style="fill-opacity: 0.5; stroke: #000000; stroke-opacity: 0.5"/>
     <use xlink:href="#m773da124f4" x="67.001248" y="65.073351" style="fill-opacity: 0.5; stroke: #000000; stroke-opacity: 0.5"/>
     <use xlink:href="#m773da124f4" x="50.226074" y="76.790086" style="fill-opacity: 0.5; stroke: #000000; stroke-opacity: 0.5"/>
     <use xlink:href="#m773da124f4" x="190.797919" y="46.265893" style="fill-opacity: 0.5; stroke: #000000; stroke-opacity: 0.5"/>
     <use xlink:href="#m773da124f4" x="193.461412" y="59.362043" style="fill-opacity: 0.5; stroke: #000000; stroke-opacity: 0.5"/>
     <use xlink:href="#m773da124f4" x="168.453582" y="31.086732" style="fill-opacity: 0.5; stroke: #000000; stroke-opacity: 0.5"/>
     <use xlink:href="#m773da124f4" x="88.327911" y="87.097118" style="fill-opacity: 0.5; stroke: #000000; stroke-opacity: 0.5"/>
     <use xlink:href="#m773da124f4" x="55.414296" y="57.935679" style="fill-opacity: 0.5; stroke: #000000; stroke-opacity: 0.5"/>
     <use xlink:href="#m773da124f4" x="148.705519" y="54.956466" style="fill-opacity: 0.5; stroke: #000000; stroke-opacity: 0.5"/>
     <use xlink:href="#m773da124f4" x="109.885047" y="109.249199" style="fill-opacity: 0.5; stroke: #000000; stroke-opacity: 0.5"/>
     <use xlink:href="#m773da124f4" x="59.289674" y="68.496334" style="fill-opacity: 0.5; stroke: #000000; stroke-opacity: 0.5"/>
     <use xlink:href="#m773da124f4" x="118.63656" y="115.070754" style="fill-opacity: 0.5; stroke: #000000; stroke-opacity: 0.5"/>
     <use xlink:href="#m773da124f4" x="45.34918" y="79.516629" style="fill-opacity: 0.5; stroke: #000000; stroke-opacity: 0.5"/>
     <use xlink:href="#m773da124f4" x="184.505171" y="34.959523" style="fill-opacity: 0.5; stroke: #000000; stroke-opacity: 0.5"/>
     <use xlink:href="#m773da124f4" x="81.038148" y="72.459488" style="fill-opacity: 0.5; stroke: #000000; stroke-opacity: 0.5"/>
     <use xlink:href="#m773da124f4" x="145.252474" y="66.076574" style="fill-opacity: 0.5; stroke: #000000; stroke-opacity: 0.5"/>
     <use xlink:href="#m773da124f4" x="89.456722" y="81.326364" style="fill-opacity: 0.5; stroke: #000000; stroke-opacity: 0.5"/>
     <use xlink:href="#m773da124f4" x="122.595436" y="112.465166" style="fill-opacity: 0.5; stroke: #000000; stroke-opacity: 0.5"/>
     <use xlink:href="#m773da124f4" x="126.832829" y="95.415873" style="fill-opacity: 0.5; stroke: #000000; stroke-opacity: 0.5"/>
     <use xlink:href="#m773da124f4" x="69.280456" y="54.340445" style="fill-opacity: 0.5; stroke: #000000; stroke-opacity: 0.5"/>
     <use xlink:href="#m773da124f4" x="194.090064" y="54.81001" style="fill-opacity: 0.5; stroke: #000000; stroke-opacity: 0.5"/>
     <use xlink:href="#m773da124f4" x="163.162932" y="36.516195" style="fill-opacity: 0.5; stroke: #000000; stroke-opacity: 0.5"/>
     <use xlink:href="#m773da124f4" x="189.305002" y="43.68334" style="fill-opacity: 0.5; stroke: #000000; stroke-opacity: 0.5"/>
     <use xlink:href="#m773da124f4" x="182.200083" y="39.744064" style="fill-opacity: 0.5; stroke: #000000; stroke-opacity: 0.5"/>
     <use xlink:href="#m773da124f4" x="134.974438" y="92.035598" style="fill-opacity: 0.5; stroke: #000000; stroke-opacity: 0.5"/>
     <use xlink:href="#m773da124f4" x="186.501831" y="40.844797" style="fill-opacity: 0.5; stroke: #000000; stroke-opacity: 0.5"/>
     <use xlink:href="#m773da124f4" x="53.954299" y="79.25791" style="fill-opacity: 0.5; stroke: #000000; stroke-opacity: 0.5"/>
     <use xlink:href="#m773da124f4" x="71.050405" y="64.706173" style="fill-opacity: 0.5; stroke: #000000; stroke-opacity: 0.5"/>
     <use xlink:href="#m773da124f4" x="47.073062" y="88.198201" style="fill-opacity: 0.5; stroke: #000000; stroke-opacity: 0.5"/>
     <use xlink:href="#m773da124f4" x="91.622835" y="83.807278" style="fill-opacity: 0.5; stroke: #000000; stroke-opacity: 0.5"/>
     <use xlink:href="#m773da124f4" x="101.698029" y="110.088925" style="fill-opacity: 0.5; stroke: #000000; stroke-opacity: 0.5"/>
     <use xlink:href="#m773da124f4" x="83.037228" y="81.391527" style="fill-opacity: 0.5; stroke: #000000; stroke-opacity: 0.5"/>
     <use xlink:href="#m773da124f4" x="171.688639" y="26.342909" style="fill-opacity: 0.5; stroke: #000000; stroke-opacity: 0.5"/>
     <use xlink:href="#m773da124f4" x="96.620593" y="106.546213" style="fill-opacity: 0.5; stroke: #000000; stroke-opacity: 0.5"/>
     <use xlink:href="#m773da124f4" x="84.561777" y="80.505241" style="fill-opacity: 0.5; stroke: #000000; stroke-opacity: 0.5"/>
     <use xlink:href="#m773da124f4" x="126.19438" y="92.393032" style="fill-opacity: 0.5; stroke: #000000; stroke-opacity: 0.5"/>
     <use xlink:href="#m773da124f4" x="62.293449" y="75.665357" style="fill-opacity: 0.5; stroke: #000000; stroke-opacity: 0.5"/>
     <use xlink:href="#m773da124f4" x="167.467427" y="30.134174" style="fill-opacity: 0.5; stroke: #000000; stroke-opacity: 0.5"/>
     <use xlink:href="#m773da124f4" x="51.736877" y="74.669589" style="fill-opacity: 0.5; stroke: #000000; stroke-opacity: 0.5"/>
     <use xlink:href="#m773da124f4" x="196.841958" y="47.501093" style="fill-opacity: 0.5; stroke: #000000; stroke-opacity: 0.5"/>
     <use xlink:href="#m773da124f4" x="162.703593" y="40.611536" style="fill-opacity: 0.5; stroke: #000000; stroke-opacity: 0.5"/>
     <use xlink:href="#m773da124f4" x="71.485053" y="74.965649" style="fill-opacity: 0.5; stroke: #000000; stroke-opacity: 0.5"/>
     <use xlink:href="#m773da124f4" x="40.758042" y="90.925837" style="fill-opacity: 0.5; stroke: #000000; stroke-opacity: 0.5"/>
     <use xlink:href="#m773da124f4" x="169.577108" y="29.142998" style="fill-opacity: 0.5; stroke: #000000; stroke-opacity: 0.5"/>
     <use xlink:href="#m773da124f4" x="152.303867" y="45.754998" style="fill-opacity: 0.5; stroke: #000000; stroke-opacity: 0.5"/>
     <use xlink:href="#m773da124f4" x="155.826748" y="39.549632" style="fill-opacity: 0.5; stroke: #000000; stroke-opacity: 0.5"/>
     <use xlink:href="#m773da124f4" x="162.548614" y="37.623204" style="fill-opacity: 0.5; stroke: #000000; stroke-opacity: 0.5"/>
     <use xlink:href="#m773da124f4" x="51.6564" y="74.932297" style="fill-opacity: 0.5; stroke: #000000; stroke-opacity: 0.5"/>
     <use xlink:href="#m773da124f4" x="96.892947" y="98.397295" style="fill-opacity: 0.5; stroke: #000000; stroke-opacity: 0.5"/>
     <use xlink:href="#m773da124f4" x="58.30848" y="73.017613" style="fill-opacity: 0.5; stroke: #000000; stroke-opacity: 0.5"/>
     <use xlink:href="#m773da124f4" x="177.154463" y="22.584956" style="fill-opacity: 0.5; stroke: #000000; stroke-opacity: 0.5"/>
     <use xlink:href="#m773da124f4" x="139.013958" y="71.994411" style="fill-opacity: 0.5; stroke: #000000; stroke-opacity: 0.5"/>
     <use xlink:href="#m773da124f4" x="92.508364" y="100.451772" style="fill-opacity: 0.5; stroke: #000000; stroke-opacity: 0.5"/>
     <use xlink:href="#m773da124f4" x="49.988577" y="74.905908" style="fill-opacity: 0.5; stroke: #000000; stroke-opacity: 0.5"/>
     <use xlink:href="#m773da124f4" x="89.340816" y="94.429711" style="fill-opacity: 0.5; stroke: #000000; stroke-opacity: 0.5"/>
     <use xlink:href="#m773da124f4" x="91.599454" y="88.033317" style="fill-opacity: 0.5; stroke: #000000; stroke-opacity: 0.5"/>
     <use xlink:href="#m773da124f4" x="155.922019" y="34.874047" style="fill-opacity: 0.5; stroke: #000000; stroke-opacity: 0.5"/>
     <use xlink:href="#m773da124f4" x="141.281875" y="74.222456" style="fill-opacity: 0.5; stroke: #000000; stroke-opacity: 0.5"/>
     <use xlink:href="#m773da124f4" x="180.988997" y="30.472539" style="fill-opacity: 0.5; stroke: #000000; stroke-opacity: 0.5"/>
     <use xlink:href="#m773da124f4" x="114.984507" y="108.297782" style="fill-opacity: 0.5; stroke: #000000; stroke-opacity: 0.5"/>
     <use xlink:href="#m773da124f4" x="58.900963" y="63.986084" style="fill-opacity: 0.5; stroke: #000000; stroke-opacity: 0.5"/>
     <use xlink:href="#m773da124f4" x="153.319776" y="34.821059" style="fill-opacity: 0.5; stroke: #000000; stroke-opacity: 0.5"/>
     <use xlink:href="#m773da124f4" x="160.88095" y="36.674423" style="fill-opacity: 0.5; stroke: #000000; stroke-opacity: 0.5"/>
     <use xlink:href="#m773da124f4" x="129.149665" y="98.991633" style="fill-opacity: 0.5; stroke: #000000; stroke-opacity: 0.5"/>
     <use xlink:href="#m773da124f4" x="162.500396" y="38.832147" style="fill-opacity: 0.5; stroke: #000000; stroke-opacity: 0.5"/>
     <use xlink:href="#m773da124f4" x="118.416865" y="113.266334" style="fill-opacity: 0.5; stroke: #000000; stroke-opacity: 0.5"/>
     <use xlink:href="#m773da124f4" x="123.019268" y="104.548632" style="fill-opacity: 0.5; stroke: #000000; stroke-opacity: 0.5"/>
     <use xlink:href="#m773da124f4" x="107.87922" y="108.365924" style="fill-opacity: 0.5; stroke: #000000; stroke-opacity: 0.5"/>
     <use xlink:href="#m773da124f4" x="43.922618" y="86.778791" style="fill-opacity: 0.5; stroke: #000000; stroke-opacity: 0.5"/>
     <use xlink:href="#m773da124f4" x="57.039656" y="65.481052" style="fill-opacity: 0.5; stroke: #000000; stroke-opacity: 0.5"/>
    </g>
   </g>
   <g id="line2d_4">
    <path d="M 17.345455 117.421572 
L 19.384742 116.093988 
L 21.424029 114.514846 
L 23.463317 112.688649 
L 25.502604 110.624246 
L 28.561535 107.11144 
L 31.620466 103.158007 
L 34.679397 98.850765 
L 39.777615 91.186932 
L 45.895477 81.954259 
L 48.954408 77.669449 
L 52.013339 73.808209 
L 54.052627 71.541051 
L 56.091914 69.565899 
L 58.131201 67.918419 
L 60.170489 66.629688 
L 62.209776 65.725422 
L 64.249063 65.225275 
L 66.288351 65.142254 
L 68.327638 65.482246 
L 70.366926 66.243682 
L 72.406213 67.417346 
L 74.4455 68.98634 
L 76.484788 70.926207 
L 78.524075 73.205218 
L 80.563362 75.78481 
L 83.622293 80.118249 
L 87.700868 86.486258 
L 94.838374 97.917517 
L 97.897305 102.383061 
L 99.936592 105.064 
L 101.975879 107.443345 
L 104.015167 109.470881 
L 106.054454 111.102133 
L 108.093741 112.299204 
L 110.133029 113.031484 
L 111.152672 113.215895 
L 112.172316 113.276209 
L 113.19196 113.210875 
L 114.211603 113.018871 
L 115.231247 112.699713 
L 116.250891 112.25345 
L 118.290178 110.982489 
L 120.329466 109.216989 
L 122.368753 106.976152 
L 124.40804 104.286958 
L 126.447328 101.183602 
L 128.486615 97.706794 
L 131.545546 91.894254 
L 134.604477 85.522963 
L 139.702695 74.190202 
L 145.820557 60.562875 
L 148.879488 54.191185 
L 151.938419 48.34587 
L 153.977707 44.814598 
L 156.016994 41.619317 
L 158.056281 38.79079 
L 160.095569 36.353675 
L 162.134856 34.326371 
L 164.174143 32.720988 
L 166.213431 31.543428 
L 168.252718 30.793577 
L 170.292005 30.465582 
L 172.331293 30.548224 
L 174.37058 31.025363 
L 176.409868 31.876435 
L 178.449155 33.077007 
L 180.488442 34.59936 
L 182.52773 36.413099 
L 184.567017 38.485764 
L 187.625948 42.005826 
L 190.684879 45.914545 
L 194.763454 51.528167 
L 206.999178 68.73787 
L 211.077752 73.919444 
L 214.136683 77.474551 
L 217.195614 80.707393 
L 220.254545 83.597885 
L 220.254545 83.597885 
" clip-path="url(#pf813a1f877)" style="fill: none; stroke: #dc143c; stroke-width: 2; stroke-linecap: square"/>
   </g>
  </g>
 </g>
 <defs>
  <clipPath id="pf813a1f877">
   <rect x="7.2" y="7.2" width="223.2" height="166.32"/>
  </clipPath>
 </defs>
</svg>
