<?xml version="1.0" encoding="utf-8" standalone="no"?>
<!DOCTYPE svg PUBLIC "-//W3C//DTD SVG 1.1//EN"
  "http://www.w3.org/Graphics/SVG/1.1/DTD/svg11.dtd">
<svg xmlns:xlink="http://www.w3.org/1999/xlink" width="348.181875pt" height="180.72pt" viewBox="0 0 348.181875 180.72" xmlns="http://www.w3.org/2000/svg" version="1.1">
 <metadata>
  <rdf:RDF xmlns:dc="http://purl.org/dc/elements/1.1/" xmlns:cc="http://creativecommons.org/ns#" xmlns:rdf="http://www.w3.org/1999/02/22-rdf-syntax-ns#">
   <cc:Work>
    <dc:type rdf:resource="http://purl.org/dc/dcmitype/StillImage"/>
    <dc:date>2025-09-13T08:42:25.927397</dc:date>
    <dc:format>image/svg+xml</dc:format>
    <dc:creator>
     <cc:Agent>
      <dc:title>Matplotlib v3.10.3, https://matplotlib.org/</dc:title>
     </cc:Agent>
    </dc:creator>
   </cc:Work>
  </rdf:RDF>
 </metadata>
 <defs>
  <style type="text/css">*{stroke-linejoin: round; stroke-linecap: butt}</style>
 </defs>
 <g id="figure_1">
  <g id="patch_1">
   <path d="M 0 180.72 
L 348.181875 180.72 
L 348.181875 0 
L 0 0 
z
" style="fill: #ffffff"/>
  </g>
  <g id="axes_1">
   <g id="FillBetweenPolyCollection_1">
    <defs>
     <path id="mfc16f3268b" d="M 17.345455 -72.718631 
L 17.345455 -48.996449 
L 18.365098 -48.996449 
L 19.384742 -48.996449 
L 20.404386 -48.996449 
L 21.424029 -48.996449 
L 22.443673 -48.996449 
L 23.463317 -48.996449 
L 24.48296 -48.996449 
L 25.502604 -48.996449 
L 26.522248 -48.996449 
L 27.541891 -48.996449 
L 28.561535 -48.996449 
L 29.581179 -48.996449 
L 30.600822 -48.996449 
L 31.620466 -48.996449 
L 32.64011 -48.996453 
L 33.659753 -48.99653 
L 34.679397 -48.997605 
L 35.699041 -49.007754 
L 36.718684 -49.077561 
L 37.738328 -49.476319 
L 38.757972 -51.25344 
L 39.777615 -56.065266 
L 40.797259 -61.640364 
L 41.816903 -63.748881 
L 42.836546 -66.921138 
L 43.85619 -70.465 
L 44.875834 -73.194203 
L 45.895477 -72.071331 
L 46.915121 -71.291957 
L 47.934765 -76.259858 
L 48.954408 -82.677492 
L 49.974052 -84.320307 
L 50.993696 -83.470005 
L 52.013339 -80.332613 
L 53.032983 -75.276889 
L 54.052627 -81.526907 
L 55.07227 -96.386306 
L 56.091914 -101.785857 
L 57.111558 -94.755235 
L 58.131201 -90.221337 
L 59.150845 -92.576456 
L 60.170489 -92.279396 
L 61.190132 -90.067001 
L 62.209776 -88.562393 
L 63.22942 -87.041333 
L 64.249063 -92.17033 
L 65.268707 -95.671294 
L 66.288351 -94.507591 
L 67.307995 -93.682753 
L 68.327638 -97.691328 
L 69.347282 -103.496125 
L 70.366926 -99.447734 
L 71.386569 -90.652292 
L 72.406213 -87.255826 
L 73.425857 -90.766735 
L 74.4455 -85.047043 
L 75.465144 -69.430029 
L 76.484788 -57.182364 
L 77.504431 -53.44419 
L 78.524075 -57.991456 
L 79.543719 -69.588532 
L 80.563362 -81.379009 
L 81.583006 -81.98654 
L 82.60265 -76.834111 
L 83.622293 -74.493902 
L 84.641937 -72.778449 
L 85.661581 -68.658505 
L 86.681224 -64.71739 
L 87.700868 -63.231952 
L 88.720512 -64.726406 
L 89.740155 -68.877634 
L 90.759799 -71.597814 
L 91.779443 -64.599453 
L 92.799086 -49.142524 
L 93.81873 -38.290877 
L 94.838374 -37.703193 
L 95.858017 -42.970593 
L 96.877661 -47.003333 
L 97.897305 -47.478342 
L 98.916948 -46.920443 
L 99.936592 -43.389874 
L 100.956236 -38.817585 
L 101.975879 -37.947756 
L 102.995523 -39.250157 
L 104.015167 -43.291682 
L 105.03481 -46.071225 
L 106.054454 -45.23123 
L 107.074098 -41.580967 
L 108.093741 -37.236221 
L 109.113385 -35.774401 
L 110.133029 -36.367266 
L 111.152672 -31.834787 
L 112.172316 -27.425856 
L 113.19196 -27.024363 
L 114.211603 -33.345401 
L 115.231247 -40.058472 
L 116.250891 -38.329625 
L 117.270534 -34.198698 
L 118.290178 -32.526266 
L 119.309822 -31.363813 
L 120.329466 -33.057846 
L 121.349109 -35.371172 
L 122.368753 -37.295453 
L 123.388397 -43.677988 
L 124.40804 -51.172649 
L 125.427684 -57.140443 
L 126.447328 -58.401113 
L 127.466971 -53.573665 
L 128.486615 -50.876105 
L 129.506259 -51.301502 
L 130.525902 -51.488543 
L 131.545546 -56.170301 
L 132.56519 -62.862634 
L 133.584833 -64.299773 
L 134.604477 -62.429995 
L 135.624121 -69.612918 
L 136.643764 -82.083673 
L 137.663408 -86.065422 
L 138.683052 -85.044602 
L 139.702695 -84.405145 
L 140.722339 -83.561791 
L 141.741983 -79.492883 
L 142.761626 -73.931325 
L 143.78127 -77.754796 
L 144.800914 -88.393134 
L 145.820557 -92.489365 
L 146.840201 -93.336831 
L 147.859845 -100.780491 
L 148.879488 -104.693228 
L 149.899132 -97.0639 
L 150.918776 -96.634467 
L 151.938419 -111.64171 
L 152.958063 -127.778364 
L 153.977707 -134.31638 
L 154.99735 -135.494137 
L 156.016994 -131.244183 
L 157.036638 -112.386359 
L 158.056281 -93.24689 
L 159.075925 -94.589636 
L 160.095569 -114.53499 
L 161.115212 -130.14842 
L 162.134856 -132.774399 
L 163.1545 -132.08929 
L 164.174143 -132.41058 
L 165.193787 -131.383186 
L 166.213431 -131.005553 
L 167.233074 -136.913842 
L 168.252718 -141.010584 
L 169.272362 -141.284288 
L 170.292005 -143.016815 
L 171.311649 -145.250947 
L 172.331293 -134.540291 
L 173.350937 -108.589089 
L 174.37058 -93.368922 
L 175.390224 -106.476769 
L 176.409868 -132.803986 
L 177.429511 -140.868931 
L 178.449155 -126.436887 
L 179.468799 -120.917002 
L 180.488442 -131.485708 
L 181.508086 -135.062856 
L 182.52773 -127.581101 
L 183.547373 -125.583387 
L 184.567017 -131.53215 
L 185.586661 -131.400906 
L 186.606304 -123.746829 
L 187.625948 -114.944018 
L 188.645592 -116.823247 
L 189.665235 -123.133996 
L 190.684879 -121.331636 
L 191.704523 -109.729972 
L 192.724166 -102.725237 
L 193.74381 -109.259992 
L 194.763454 -117.055713 
L 195.783097 -119.776931 
L 196.802741 -115.198566 
L 197.822385 -95.772231 
L 198.842028 -72.251273 
L 199.861672 -57.034304 
L 200.881316 -50.894943 
L 201.900959 -49.298037 
L 202.920603 -49.028359 
L 203.940247 -48.99869 
L 204.95989 -48.996554 
L 205.979534 -48.996453 
L 206.999178 -48.996449 
L 208.018821 -48.996449 
L 209.038465 -48.996449 
L 210.058109 -48.996449 
L 211.077752 -48.996449 
L 212.097396 -48.996449 
L 213.11704 -48.996449 
L 214.136683 -48.996449 
L 215.156327 -48.996449 
L 216.175971 -48.996449 
L 217.195614 -48.996449 
L 218.215258 -48.996449 
L 219.234902 -48.996449 
L 220.254545 -48.996449 
L 220.254545 -72.718631 
L 220.254545 -72.718631 
L 219.234902 -72.718631 
L 218.215258 -72.718631 
L 217.195614 -72.718631 
L 216.175971 -72.718631 
L 215.156327 -72.718631 
L 214.136683 -72.718631 
L 213.11704 -72.718631 
L 212.097396 -72.718631 
L 211.077752 -72.718631 
L 210.058109 -72.718631 
L 209.038465 -72.718631 
L 208.018821 -72.718631 
L 206.999178 -72.718631 
L 205.979534 -72.718634 
L 204.95989 -72.718736 
L 203.940247 -72.720872 
L 202.920603 -72.750536 
L 201.900959 -73.019801 
L 200.881316 -74.600788 
L 199.861672 -80.475164 
L 198.842028 -93.784423 
L 197.822385 -111.355382 
L 196.802741 -125.511104 
L 195.783097 -132.784504 
L 194.763454 -128.20197 
L 193.74381 -118.057587 
L 192.724166 -114.368972 
L 191.704523 -120.526248 
L 190.684879 -130.442893 
L 189.665235 -133.014278 
L 188.645592 -128.750925 
L 187.625948 -128.227636 
L 186.606304 -134.110007 
L 185.586661 -142.357304 
L 184.567017 -141.753219 
L 183.547373 -137.146548 
L 182.52773 -138.192715 
L 181.508086 -144.593356 
L 180.488442 -143.257572 
L 179.468799 -136.70581 
L 178.449155 -140.065161 
L 177.429511 -150.0217 
L 176.409868 -146.741383 
L 175.390224 -126.46248 
L 174.37058 -114.229989 
L 173.350937 -124.618283 
L 172.331293 -144.327707 
L 171.311649 -155.605473 
L 170.292005 -154.047407 
L 169.272362 -150.841341 
L 168.252718 -150.33626 
L 167.233074 -147.37252 
L 166.213431 -143.989206 
L 165.193787 -142.420629 
L 164.174143 -142.407994 
L 163.1545 -140.92849 
L 162.134856 -141.789737 
L 161.115212 -140.06892 
L 160.095569 -128.171205 
L 159.075925 -114.165887 
L 158.056281 -112.918664 
L 157.036638 -126.129146 
L 156.016994 -139.887336 
L 154.99735 -147.144397 
L 153.977707 -145.905465 
L 152.958063 -136.790034 
L 151.938419 -122.179403 
L 150.918776 -112.808336 
L 149.899132 -113.094333 
L 148.879488 -115.260931 
L 147.859845 -114.992512 
L 146.840201 -110.664945 
L 145.820557 -104.955309 
L 144.800914 -100.247811 
L 143.78127 -95.987163 
L 142.761626 -91.959029 
L 141.741983 -91.259719 
L 140.722339 -94.628842 
L 139.702695 -95.737286 
L 138.683052 -95.20004 
L 137.663408 -96.134074 
L 136.643764 -91.114664 
L 135.624121 -78.343728 
L 134.604477 -71.182118 
L 133.584833 -76.359791 
L 132.56519 -81.245858 
L 131.545546 -77.577117 
L 130.525902 -69.627228 
L 129.506259 -62.579934 
L 128.486615 -62.339707 
L 127.466971 -65.084635 
L 126.447328 -67.60454 
L 125.427684 -69.7047 
L 124.40804 -64.317275 
L 123.388397 -52.959915 
L 122.368753 -46.200349 
L 121.349109 -46.241959 
L 120.329466 -47.665046 
L 119.309822 -43.692982 
L 118.290178 -42.098329 
L 117.270534 -49.957333 
L 116.250891 -54.512397 
L 115.231247 -50.834189 
L 114.211603 -45.683663 
L 113.19196 -39.288727 
L 112.172316 -37.938924 
L 111.152672 -44.46556 
L 110.133029 -46.915004 
L 109.113385 -45.378273 
L 108.093741 -46.525792 
L 107.074098 -55.593984 
L 106.054454 -65.551838 
L 105.03481 -69.061939 
L 104.015167 -65.635736 
L 102.995523 -56.929965 
L 101.975879 -48.881868 
L 100.956236 -50.171128 
L 99.936592 -54.326347 
L 98.916948 -56.532968 
L 97.897305 -57.142047 
L 96.877661 -55.966917 
L 95.858017 -56.059866 
L 94.838374 -56.089419 
L 93.81873 -54.907902 
L 92.799086 -60.121024 
L 91.779443 -73.37121 
L 90.759799 -81.734384 
L 89.740155 -78.277674 
L 88.720512 -73.336384 
L 87.700868 -72.819232 
L 86.681224 -74.015669 
L 85.661581 -78.075275 
L 84.641937 -82.728849 
L 83.622293 -84.347917 
L 82.60265 -87.393139 
L 81.583006 -92.574639 
L 80.563362 -93.232428 
L 79.543719 -88.403194 
L 78.524075 -80.758694 
L 77.504431 -77.048061 
L 76.484788 -80.414632 
L 75.465144 -89.974988 
L 74.4455 -98.97028 
L 73.425857 -101.010269 
L 72.406213 -97.863462 
L 71.386569 -99.303291 
L 70.366926 -109.565876 
L 69.347282 -112.371109 
L 68.327638 -107.368912 
L 67.307995 -103.836265 
L 66.288351 -105.729893 
L 65.268707 -105.902714 
L 64.249063 -102.126071 
L 63.22942 -98.86941 
L 62.209776 -97.669183 
L 61.190132 -102.659194 
L 60.170489 -104.903144 
L 59.150845 -101.577698 
L 58.131201 -99.45461 
L 57.111558 -104.498308 
L 56.091914 -111.81207 
L 55.07227 -106.216301 
L 54.052627 -91.485348 
L 53.032983 -86.202954 
L 52.013339 -89.740684 
L 50.993696 -92.559771 
L 49.974052 -93.11634 
L 48.954408 -92.4634 
L 47.934765 -86.181713 
L 46.915121 -80.431443 
L 45.895477 -82.124467 
L 44.875834 -83.013854 
L 43.85619 -79.75805 
L 42.836546 -77.436141 
L 41.816903 -76.038111 
L 40.797259 -71.929723 
L 39.777615 -71.544441 
L 38.757972 -72.722282 
L 37.738328 -72.906083 
L 36.718684 -72.782674 
L 35.699041 -72.729498 
L 34.679397 -72.719781 
L 33.659753 -72.718712 
L 32.64011 -72.718635 
L 31.620466 -72.718631 
L 30.600822 -72.718631 
L 29.581179 -72.718631 
L 28.561535 -72.718631 
L 27.541891 -72.718631 
L 26.522248 -72.718631 
L 25.502604 -72.718631 
L 24.48296 -72.718631 
L 23.463317 -72.718631 
L 22.443673 -72.718631 
L 21.424029 -72.718631 
L 20.404386 -72.718631 
L 19.384742 -72.718631 
L 18.365098 -72.718631 
L 17.345455 -72.718631 
z
"/>
    </defs>
    <g clip-path="url(#pb9a179a66f)">
     <use xlink:href="#mfc16f3268b" x="0" y="180.72" style="fill: #dc143c; fill-opacity: 0.2"/>
    </g>
   </g>
   <g id="FillBetweenPolyCollection_2">
    <defs>
     <path id="m2d622fc081" d="M 17.345455 -84.579722 
L 17.345455 -37.135358 
L 18.365098 -37.135358 
L 19.384742 -37.135358 
L 20.404386 -37.135358 
L 21.424029 -37.135358 
L 22.443673 -37.135358 
L 23.463317 -37.135358 
L 24.48296 -37.135358 
L 25.502604 -37.135358 
L 26.522248 -37.135358 
L 27.541891 -37.135358 
L 28.561535 -37.135358 
L 29.581179 -37.135358 
L 30.600822 -37.135358 
L 31.620466 -37.135359 
L 32.64011 -37.135362 
L 33.659753 -37.135439 
L 34.679397 -37.136516 
L 35.699041 -37.146882 
L 36.718684 -37.225005 
L 37.738328 -37.761436 
L 38.757972 -40.519018 
L 39.777615 -48.325678 
L 40.797259 -56.495684 
L 41.816903 -57.604266 
L 42.836546 -61.663636 
L 43.85619 -65.818474 
L 44.875834 -68.284377 
L 45.895477 -67.044763 
L 46.915121 -66.722215 
L 47.934765 -71.29893 
L 48.954408 -77.784538 
L 49.974052 -79.92229 
L 50.993696 -78.925122 
L 52.013339 -75.628577 
L 53.032983 -69.813857 
L 54.052627 -76.547687 
L 55.07227 -91.471308 
L 56.091914 -96.77275 
L 57.111558 -89.883699 
L 58.131201 -85.604701 
L 59.150845 -88.075835 
L 60.170489 -85.967521 
L 61.190132 -83.770905 
L 62.209776 -84.008999 
L 63.22942 -81.127295 
L 64.249063 -87.19246 
L 65.268707 -90.555585 
L 66.288351 -88.89644 
L 67.307995 -88.605996 
L 68.327638 -92.852536 
L 69.347282 -99.058633 
L 70.366926 -94.388663 
L 71.386569 -86.326793 
L 72.406213 -81.952009 
L 73.425857 -85.644968 
L 74.4455 -78.085425 
L 75.465144 -59.157549 
L 76.484788 -45.566229 
L 77.504431 -41.642254 
L 78.524075 -46.607837 
L 79.543719 -60.181202 
L 80.563362 -75.4523 
L 81.583006 -76.692491 
L 82.60265 -71.554597 
L 83.622293 -69.566895 
L 84.641937 -67.803249 
L 85.661581 -63.950121 
L 86.681224 -60.068251 
L 87.700868 -58.438312 
L 88.720512 -60.421416 
L 89.740155 -64.177614 
L 90.759799 -66.529529 
L 91.779443 -60.213575 
L 92.799086 -43.653274 
L 93.81873 -29.982364 
L 94.838374 -28.51008 
L 95.858017 -36.425957 
L 96.877661 -42.521542 
L 97.897305 -42.646489 
L 98.916948 -42.114181 
L 99.936592 -37.921637 
L 100.956236 -33.140813 
L 101.975879 -32.4807 
L 102.995523 -30.410252 
L 104.015167 -32.119656 
L 105.03481 -34.575868 
L 106.054454 -35.070926 
L 107.074098 -34.574458 
L 108.093741 -32.591436 
L 109.113385 -30.972465 
L 110.133029 -31.093397 
L 111.152672 -25.5194 
L 112.172316 -22.169322 
L 113.19196 -20.892182 
L 114.211603 -27.17627 
L 115.231247 -34.670614 
L 116.250891 -30.238239 
L 117.270534 -26.31938 
L 118.290178 -27.740234 
L 119.309822 -25.199229 
L 120.329466 -25.754245 
L 121.349109 -29.935778 
L 122.368753 -32.843005 
L 123.388397 -39.037025 
L 124.40804 -44.600337 
L 125.427684 -50.858314 
L 126.447328 -53.799399 
L 127.466971 -47.818181 
L 128.486615 -45.144303 
L 129.506259 -45.662286 
L 130.525902 -42.419201 
L 131.545546 -45.466893 
L 132.56519 -53.671021 
L 133.584833 -58.269764 
L 134.604477 -58.053933 
L 135.624121 -65.247513 
L 136.643764 -77.568177 
L 137.663408 -81.031096 
L 138.683052 -79.966883 
L 139.702695 -78.739074 
L 140.722339 -78.028266 
L 141.741983 -73.609466 
L 142.761626 -64.917474 
L 143.78127 -68.638613 
L 144.800914 -82.465796 
L 145.820557 -86.256393 
L 146.840201 -84.672775 
L 147.859845 -93.67448 
L 148.879488 -99.409376 
L 149.899132 -89.048684 
L 150.918776 -88.547532 
L 151.938419 -106.372864 
L 152.958063 -123.272529 
L 153.977707 -128.521837 
L 154.99735 -129.669007 
L 156.016994 -126.922606 
L 157.036638 -105.514966 
L 158.056281 -83.411003 
L 159.075925 -84.801511 
L 160.095569 -107.716882 
L 161.115212 -125.188171 
L 162.134856 -128.26673 
L 163.1545 -127.66969 
L 164.174143 -127.411873 
L 165.193787 -125.864465 
L 166.213431 -124.513727 
L 167.233074 -131.684503 
L 168.252718 -136.347746 
L 169.272362 -136.505761 
L 170.292005 -137.501519 
L 171.311649 -140.073683 
L 172.331293 -129.646582 
L 173.350937 -100.574492 
L 174.37058 -82.938388 
L 175.390224 -96.483914 
L 176.409868 -125.835288 
L 177.429511 -136.292547 
L 178.449155 -119.62275 
L 179.468799 -113.022599 
L 180.488442 -125.599776 
L 181.508086 -130.297606 
L 182.52773 -122.275294 
L 183.547373 -119.801807 
L 184.567017 -126.421616 
L 185.586661 -125.922706 
L 186.606304 -118.56524 
L 187.625948 -108.302208 
L 188.645592 -110.859408 
L 189.665235 -118.193855 
L 190.684879 -116.776007 
L 191.704523 -104.331834 
L 192.724166 -96.903369 
L 193.74381 -104.861194 
L 194.763454 -111.482585 
L 195.783097 -113.273145 
L 196.802741 -110.042296 
L 197.822385 -87.980655 
L 198.842028 -61.484698 
L 199.861672 -45.313874 
L 200.881316 -39.04202 
L 201.900959 -37.437155 
L 202.920603 -37.16727 
L 203.940247 -37.137599 
L 204.95989 -37.135463 
L 205.979534 -37.135362 
L 206.999178 -37.135359 
L 208.018821 -37.135358 
L 209.038465 -37.135358 
L 210.058109 -37.135358 
L 211.077752 -37.135358 
L 212.097396 -37.135358 
L 213.11704 -37.135358 
L 214.136683 -37.135358 
L 215.156327 -37.135358 
L 216.175971 -37.135358 
L 217.195614 -37.135358 
L 218.215258 -37.135358 
L 219.234902 -37.135358 
L 220.254545 -37.135358 
L 220.254545 -84.579722 
L 220.254545 -84.579722 
L 219.234902 -84.579722 
L 218.215258 -84.579722 
L 217.195614 -84.579722 
L 216.175971 -84.579722 
L 215.156327 -84.579722 
L 214.136683 -84.579722 
L 213.11704 -84.579722 
L 212.097396 -84.579722 
L 211.077752 -84.579722 
L 210.058109 -84.579722 
L 209.038465 -84.579722 
L 208.018821 -84.579722 
L 206.999178 -84.579722 
L 205.979534 -84.579725 
L 204.95989 -84.579826 
L 203.940247 -84.581963 
L 202.920603 -84.611625 
L 201.900959 -84.880683 
L 200.881316 -86.453711 
L 199.861672 -92.195594 
L 198.842028 -104.550997 
L 197.822385 -119.146957 
L 196.802741 -130.667373 
L 195.783097 -139.288291 
L 194.763454 -133.775098 
L 193.74381 -122.456385 
L 192.724166 -120.19084 
L 191.704523 -125.924387 
L 190.684879 -134.998521 
L 189.665235 -137.954419 
L 188.645592 -134.714764 
L 187.625948 -134.869445 
L 186.606304 -139.291595 
L 185.586661 -147.835503 
L 184.567017 -146.863754 
L 183.547373 -142.928128 
L 182.52773 -143.498522 
L 181.508086 -149.358606 
L 180.488442 -149.143504 
L 179.468799 -144.600213 
L 178.449155 -146.879297 
L 177.429511 -154.598084 
L 176.409868 -153.710081 
L 175.390224 -136.455335 
L 174.37058 -124.660522 
L 173.350937 -132.632881 
L 172.331293 -149.221415 
L 171.311649 -160.782737 
L 170.292005 -159.562703 
L 169.272362 -155.619867 
L 168.252718 -154.999097 
L 167.233074 -152.601859 
L 166.213431 -150.481032 
L 165.193787 -147.93935 
L 164.174143 -147.406702 
L 163.1545 -145.34809 
L 162.134856 -146.297406 
L 161.115212 -145.02917 
L 160.095569 -134.989312 
L 159.075925 -123.954012 
L 158.056281 -122.754551 
L 157.036638 -133.000539 
L 156.016994 -144.208913 
L 154.99735 -152.969527 
L 153.977707 -151.700008 
L 152.958063 -141.295869 
L 151.938419 -127.44825 
L 150.918776 -120.895271 
L 149.899132 -121.109549 
L 148.879488 -120.544783 
L 147.859845 -122.098523 
L 146.840201 -119.329002 
L 145.820557 -111.188281 
L 144.800914 -106.175149 
L 143.78127 -105.103346 
L 142.761626 -100.97288 
L 141.741983 -97.143136 
L 140.722339 -100.162367 
L 139.702695 -101.403357 
L 138.683052 -100.277759 
L 137.663408 -101.168401 
L 136.643764 -95.63016 
L 135.624121 -82.709133 
L 134.604477 -75.55818 
L 133.584833 -82.3898 
L 132.56519 -90.437471 
L 131.545546 -88.280525 
L 130.525902 -78.69657 
L 129.506259 -68.21915 
L 128.486615 -68.071509 
L 127.466971 -70.840119 
L 126.447328 -72.206253 
L 125.427684 -75.986829 
L 124.40804 -70.889587 
L 123.388397 -57.600878 
L 122.368753 -50.652797 
L 121.349109 -51.677352 
L 120.329466 -54.968647 
L 119.309822 -49.857567 
L 118.290178 -46.884361 
L 117.270534 -57.83665 
L 116.250891 -62.603783 
L 115.231247 -56.222047 
L 114.211603 -51.852794 
L 113.19196 -45.420909 
L 112.172316 -43.195458 
L 111.152672 -50.780947 
L 110.133029 -52.188873 
L 109.113385 -50.180208 
L 108.093741 -51.170577 
L 107.074098 -62.600492 
L 106.054454 -75.712142 
L 105.03481 -80.557297 
L 104.015167 -76.807763 
L 102.995523 -65.769869 
L 101.975879 -54.348924 
L 100.956236 -55.847899 
L 99.936592 -59.794584 
L 98.916948 -61.33923 
L 97.897305 -61.9739 
L 96.877661 -60.448708 
L 95.858017 -62.604502 
L 94.838374 -65.282532 
L 93.81873 -63.216414 
L 92.799086 -65.610273 
L 91.779443 -77.757088 
L 90.759799 -86.802669 
L 89.740155 -82.977695 
L 88.720512 -77.641374 
L 87.700868 -77.612872 
L 86.681224 -78.664808 
L 85.661581 -82.78366 
L 84.641937 -87.70405 
L 83.622293 -89.274924 
L 82.60265 -92.672653 
L 81.583006 -97.868689 
L 80.563362 -99.159137 
L 79.543719 -97.810525 
L 78.524075 -92.142313 
L 77.504431 -88.849997 
L 76.484788 -92.030767 
L 75.465144 -100.247467 
L 74.4455 -105.931899 
L 73.425857 -106.132037 
L 72.406213 -103.16728 
L 71.386569 -103.62879 
L 70.366926 -114.624947 
L 69.347282 -116.8086 
L 68.327638 -112.207704 
L 67.307995 -108.913021 
L 66.288351 -111.341044 
L 65.268707 -111.018424 
L 64.249063 -107.103941 
L 63.22942 -104.783448 
L 62.209776 -102.222578 
L 61.190132 -108.95529 
L 60.170489 -111.215019 
L 59.150845 -106.078319 
L 58.131201 -104.071247 
L 57.111558 -109.369844 
L 56.091914 -116.825176 
L 55.07227 -111.131298 
L 54.052627 -96.464568 
L 53.032983 -91.665987 
L 52.013339 -94.44472 
L 50.993696 -97.104655 
L 49.974052 -97.514357 
L 48.954408 -97.356354 
L 47.934765 -91.142641 
L 46.915121 -85.001185 
L 45.895477 -87.151035 
L 44.875834 -87.92368 
L 43.85619 -84.404576 
L 42.836546 -82.693643 
L 41.816903 -82.182726 
L 40.797259 -77.074402 
L 39.777615 -79.284029 
L 38.757972 -83.456703 
L 37.738328 -84.620965 
L 36.718684 -84.63523 
L 35.699041 -84.59037 
L 34.679397 -84.58087 
L 33.659753 -84.579802 
L 32.64011 -84.579726 
L 31.620466 -84.579722 
L 30.600822 -84.579722 
L 29.581179 -84.579722 
L 28.561535 -84.579722 
L 27.541891 -84.579722 
L 26.522248 -84.579722 
L 25.502604 -84.579722 
L 24.48296 -84.579722 
L 23.463317 -84.579722 
L 22.443673 -84.579722 
L 21.424029 -84.579722 
L 20.404386 -84.579722 
L 19.384742 -84.579722 
L 18.365098 -84.579722 
L 17.345455 -84.579722 
z
"/>
    </defs>
    <g clip-path="url(#pb9a179a66f)">
     <use xlink:href="#m2d622fc081" x="0" y="180.72" style="fill: #dc143c; fill-opacity: 0.2"/>
    </g>
   </g>
   <g id="FillBetweenPolyCollection_3">
    <defs>
     <path id="m4757c46edc" d="M 17.345455 -96.440813 
L 17.345455 -25.274268 
L 18.365098 -25.274268 
L 19.384742 -25.274268 
L 20.404386 -25.274268 
L 21.424029 -25.274268 
L 22.443673 -25.274268 
L 23.463317 -25.274268 
L 24.48296 -25.274268 
L 25.502604 -25.274268 
L 26.522248 -25.274268 
L 27.541891 -25.274268 
L 28.561535 -25.274268 
L 29.581179 -25.274268 
L 30.600822 -25.274268 
L 31.620466 -25.274268 
L 32.64011 -25.274271 
L 33.659753 -25.274348 
L 34.679397 -25.275428 
L 35.699041 -25.286009 
L 36.718684 -25.372448 
L 37.738328 -26.046554 
L 38.757972 -29.784597 
L 39.777615 -40.586091 
L 40.797259 -51.351005 
L 41.816903 -51.459651 
L 42.836546 -56.406134 
L 43.85619 -61.171949 
L 44.875834 -63.374552 
L 45.895477 -62.018195 
L 46.915121 -62.152472 
L 47.934765 -66.338002 
L 48.954408 -72.891584 
L 49.974052 -75.524273 
L 50.993696 -74.380239 
L 52.013339 -70.924542 
L 53.032983 -64.350824 
L 54.052627 -71.568467 
L 55.07227 -86.556311 
L 56.091914 -91.759644 
L 57.111558 -85.012163 
L 58.131201 -80.988064 
L 59.150845 -83.575215 
L 60.170489 -79.655647 
L 61.190132 -77.474809 
L 62.209776 -79.455604 
L 63.22942 -75.213256 
L 64.249063 -82.214589 
L 65.268707 -85.439875 
L 66.288351 -83.285289 
L 67.307995 -83.52924 
L 68.327638 -88.013744 
L 69.347282 -94.621141 
L 70.366926 -89.329593 
L 71.386569 -82.001294 
L 72.406213 -76.648191 
L 73.425857 -80.523201 
L 74.4455 -71.123807 
L 75.465144 -48.88507 
L 76.484788 -33.950095 
L 77.504431 -29.840319 
L 78.524075 -35.224219 
L 79.543719 -50.773871 
L 80.563362 -69.52559 
L 81.583006 -71.398441 
L 82.60265 -66.275083 
L 83.622293 -64.639887 
L 84.641937 -62.828049 
L 85.661581 -59.241736 
L 86.681224 -55.419112 
L 87.700868 -53.644672 
L 88.720512 -56.116427 
L 89.740155 -59.477593 
L 90.759799 -61.461243 
L 91.779443 -55.827697 
L 92.799086 -38.164025 
L 93.81873 -21.673852 
L 94.838374 -19.316967 
L 95.858017 -29.881321 
L 96.877661 -38.03975 
L 97.897305 -37.814636 
L 98.916948 -37.307919 
L 99.936592 -32.4534 
L 100.956236 -27.464041 
L 101.975879 -27.013644 
L 102.995523 -21.570348 
L 104.015167 -20.947629 
L 105.03481 -23.08051 
L 106.054454 -24.910621 
L 107.074098 -27.56795 
L 108.093741 -27.946651 
L 109.113385 -26.170529 
L 110.133029 -25.819528 
L 111.152672 -19.204013 
L 112.172316 -16.912788 
L 113.19196 -14.76 
L 114.211603 -21.007139 
L 115.231247 -29.282755 
L 116.250891 -22.146853 
L 117.270534 -18.440063 
L 118.290178 -22.954202 
L 119.309822 -19.034644 
L 120.329466 -18.450645 
L 121.349109 -24.500385 
L 122.368753 -28.390557 
L 123.388397 -34.396062 
L 124.40804 -38.028024 
L 125.427684 -44.576185 
L 126.447328 -49.197685 
L 127.466971 -42.062696 
L 128.486615 -39.412502 
L 129.506259 -40.023071 
L 130.525902 -33.349859 
L 131.545546 -34.763485 
L 132.56519 -44.479409 
L 133.584833 -52.239755 
L 134.604477 -53.677872 
L 135.624121 -60.882108 
L 136.643764 -73.052681 
L 137.663408 -75.996769 
L 138.683052 -74.889164 
L 139.702695 -73.073003 
L 140.722339 -72.494741 
L 141.741983 -67.726048 
L 142.761626 -55.903622 
L 143.78127 -59.522429 
L 144.800914 -76.538457 
L 145.820557 -80.023421 
L 146.840201 -76.008718 
L 147.859845 -86.56847 
L 148.879488 -94.125524 
L 149.899132 -81.033467 
L 150.918776 -80.460597 
L 151.938419 -101.104017 
L 152.958063 -118.766694 
L 153.977707 -122.727294 
L 154.99735 -123.843877 
L 156.016994 -122.60103 
L 157.036638 -98.643573 
L 158.056281 -73.575116 
L 159.075925 -75.013386 
L 160.095569 -100.898775 
L 161.115212 -120.227921 
L 162.134856 -123.759061 
L 163.1545 -123.250091 
L 164.174143 -122.413166 
L 165.193787 -120.345743 
L 166.213431 -118.021901 
L 167.233074 -126.455164 
L 168.252718 -131.684909 
L 169.272362 -131.727235 
L 170.292005 -131.986223 
L 171.311649 -134.89642 
L 172.331293 -124.752874 
L 173.350937 -92.559895 
L 174.37058 -72.507855 
L 175.390224 -86.491059 
L 176.409868 -118.866589 
L 177.429511 -131.716163 
L 178.449155 -112.808614 
L 179.468799 -105.128195 
L 180.488442 -119.713844 
L 181.508086 -125.532356 
L 182.52773 -116.969487 
L 183.547373 -114.020226 
L 184.567017 -121.311081 
L 185.586661 -120.444507 
L 186.606304 -113.383652 
L 187.625948 -101.660399 
L 188.645592 -104.895569 
L 189.665235 -113.253714 
L 190.684879 -112.220379 
L 191.704523 -98.933695 
L 192.724166 -91.081501 
L 193.74381 -100.462396 
L 194.763454 -105.909457 
L 195.783097 -106.769358 
L 196.802741 -104.886027 
L 197.822385 -80.18908 
L 198.842028 -50.718123 
L 199.861672 -33.593444 
L 200.881316 -27.189097 
L 201.900959 -25.576273 
L 202.920603 -25.306182 
L 203.940247 -25.276508 
L 204.95989 -25.274372 
L 205.979534 -25.274271 
L 206.999178 -25.274268 
L 208.018821 -25.274268 
L 209.038465 -25.274268 
L 210.058109 -25.274268 
L 211.077752 -25.274268 
L 212.097396 -25.274268 
L 213.11704 -25.274268 
L 214.136683 -25.274268 
L 215.156327 -25.274268 
L 216.175971 -25.274268 
L 217.195614 -25.274268 
L 218.215258 -25.274268 
L 219.234902 -25.274268 
L 220.254545 -25.274268 
L 220.254545 -96.440813 
L 220.254545 -96.440813 
L 219.234902 -96.440813 
L 218.215258 -96.440813 
L 217.195614 -96.440813 
L 216.175971 -96.440813 
L 215.156327 -96.440813 
L 214.136683 -96.440813 
L 213.11704 -96.440813 
L 212.097396 -96.440813 
L 211.077752 -96.440813 
L 210.058109 -96.440813 
L 209.038465 -96.440813 
L 208.018821 -96.440813 
L 206.999178 -96.440813 
L 205.979534 -96.440816 
L 204.95989 -96.440917 
L 203.940247 -96.443054 
L 202.920603 -96.472713 
L 201.900959 -96.741565 
L 200.881316 -98.306634 
L 199.861672 -103.916024 
L 198.842028 -115.317572 
L 197.822385 -126.938533 
L 196.802741 -135.823642 
L 195.783097 -145.792077 
L 194.763454 -139.348226 
L 193.74381 -126.855183 
L 192.724166 -126.012708 
L 191.704523 -131.322525 
L 190.684879 -139.554149 
L 189.665235 -142.89456 
L 188.645592 -140.678603 
L 187.625948 -141.511255 
L 186.606304 -144.473184 
L 185.586661 -153.313702 
L 184.567017 -151.974288 
L 183.547373 -148.709708 
L 182.52773 -148.804329 
L 181.508086 -154.123856 
L 180.488442 -155.029436 
L 179.468799 -152.494617 
L 178.449155 -153.693434 
L 177.429511 -159.174468 
L 176.409868 -160.678779 
L 175.390224 -146.44819 
L 174.37058 -135.091055 
L 173.350937 -140.647478 
L 172.331293 -154.115124 
L 171.311649 -165.96 
L 170.292005 -165.077999 
L 169.272362 -160.398394 
L 168.252718 -159.661935 
L 167.233074 -157.831198 
L 166.213431 -156.972858 
L 165.193787 -153.458072 
L 164.174143 -152.405409 
L 163.1545 -149.76769 
L 162.134856 -150.805075 
L 161.115212 -149.989419 
L 160.095569 -141.80742 
L 159.075925 -133.742138 
L 158.056281 -132.590438 
L 157.036638 -139.871932 
L 156.016994 -148.530489 
L 154.99735 -158.794658 
L 153.977707 -157.494551 
L 152.958063 -145.801704 
L 151.938419 -132.717097 
L 150.918776 -128.982206 
L 149.899132 -129.124766 
L 148.879488 -125.828635 
L 147.859845 -129.204533 
L 146.840201 -127.993058 
L 145.820557 -117.421253 
L 144.800914 -112.102488 
L 143.78127 -114.21953 
L 142.761626 -109.986732 
L 141.741983 -103.026554 
L 140.722339 -105.695892 
L 139.702695 -107.069427 
L 138.683052 -105.355477 
L 137.663408 -106.202727 
L 136.643764 -100.145656 
L 135.624121 -87.074538 
L 134.604477 -79.934242 
L 133.584833 -88.419809 
L 132.56519 -99.629083 
L 131.545546 -98.983933 
L 130.525902 -87.765912 
L 129.506259 -73.858366 
L 128.486615 -73.80331 
L 127.466971 -76.595604 
L 126.447328 -76.807967 
L 125.427684 -82.268957 
L 124.40804 -77.4619 
L 123.388397 -62.241841 
L 122.368753 -55.105246 
L 121.349109 -57.112746 
L 120.329466 -62.272247 
L 119.309822 -56.022151 
L 118.290178 -51.670392 
L 117.270534 -65.715967 
L 116.250891 -70.69517 
L 115.231247 -61.609905 
L 114.211603 -58.021925 
L 113.19196 -51.55309 
L 112.172316 -48.451992 
L 111.152672 -57.096334 
L 110.133029 -57.462742 
L 109.113385 -54.982144 
L 108.093741 -55.815362 
L 107.074098 -69.607001 
L 106.054454 -85.872447 
L 105.03481 -92.052654 
L 104.015167 -87.979789 
L 102.995523 -74.609774 
L 101.975879 -59.81598 
L 100.956236 -61.524671 
L 99.936592 -65.262821 
L 98.916948 -66.145492 
L 97.897305 -66.805753 
L 96.877661 -64.9305 
L 95.858017 -69.149138 
L 94.838374 -74.475646 
L 93.81873 -71.524927 
L 92.799086 -71.099523 
L 91.779443 -82.142966 
L 90.759799 -91.870955 
L 89.740155 -87.677715 
L 88.720512 -81.946363 
L 87.700868 -82.406511 
L 86.681224 -83.313947 
L 85.661581 -87.492044 
L 84.641937 -92.67925 
L 83.622293 -94.201931 
L 82.60265 -97.952167 
L 81.583006 -103.162738 
L 80.563362 -105.085847 
L 79.543719 -107.217856 
L 78.524075 -103.525932 
L 77.504431 -100.651932 
L 76.484788 -103.646901 
L 75.465144 -110.519947 
L 74.4455 -112.893517 
L 73.425857 -111.253804 
L 72.406213 -108.471098 
L 71.386569 -107.954289 
L 70.366926 -119.684018 
L 69.347282 -121.246092 
L 68.327638 -117.046496 
L 67.307995 -113.989777 
L 66.288351 -116.952195 
L 65.268707 -116.134134 
L 64.249063 -112.081812 
L 63.22942 -110.697486 
L 62.209776 -106.775973 
L 61.190132 -115.251387 
L 60.170489 -117.526893 
L 59.150845 -110.578939 
L 58.131201 -108.687883 
L 57.111558 -114.241381 
L 56.091914 -121.838283 
L 55.07227 -116.046296 
L 54.052627 -101.443788 
L 53.032983 -97.129019 
L 52.013339 -99.148755 
L 50.993696 -101.649538 
L 49.974052 -101.912374 
L 48.954408 -102.249309 
L 47.934765 -96.103569 
L 46.915121 -89.570928 
L 45.895477 -92.177604 
L 44.875834 -92.833505 
L 43.85619 -89.051101 
L 42.836546 -87.951145 
L 41.816903 -88.327342 
L 40.797259 -82.219082 
L 39.777615 -87.023616 
L 38.757972 -94.191124 
L 37.738328 -96.335847 
L 36.718684 -96.487787 
L 35.699041 -96.451242 
L 34.679397 -96.441958 
L 33.659753 -96.440893 
L 32.64011 -96.440817 
L 31.620466 -96.440813 
L 30.600822 -96.440813 
L 29.581179 -96.440813 
L 28.561535 -96.440813 
L 27.541891 -96.440813 
L 26.522248 -96.440813 
L 25.502604 -96.440813 
L 24.48296 -96.440813 
L 23.463317 -96.440813 
L 22.443673 -96.440813 
L 21.424029 -96.440813 
L 20.404386 -96.440813 
L 19.384742 -96.440813 
L 18.365098 -96.440813 
L 17.345455 -96.440813 
z
"/>
    </defs>
    <g clip-path="url(#pb9a179a66f)">
     <use xlink:href="#m4757c46edc" x="0" y="180.72" style="fill: #dc143c; fill-opacity: 0.2"/>
    </g>
   </g>
   <g id="legend_1">
    <g id="patch_2">
     <path d="M 248.56 113.877188 
L 338.981875 113.877188 
Q 340.981875 113.877188 340.981875 111.877188 
L 340.981875 68.842813 
Q 340.981875 66.842813 338.981875 66.842813 
L 248.56 66.842813 
Q 246.56 66.842813 246.56 68.842813 
L 246.56 111.877188 
Q 246.56 113.877188 248.56 113.877188 
z
" style="fill: #ffffff; opacity: 0.8; stroke: #cccccc; stroke-linejoin: miter"/>
    </g>
    <g id="line2d_1">
     <path d="M 250.56 74.94125 
L 260.56 74.94125 
L 270.56 74.94125 
" style="fill: none; stroke: #dc143c; stroke-width: 2; stroke-linecap: square"/>
    </g>
    <g id="text_1">
     <!-- Prediction -->
     <g transform="translate(278.56 78.44125) scale(0.1 -0.1)">
      <defs>
       <path id="DejaVuSans-50" d="M 1259 4147 
L 1259 2394 
L 2053 2394 
Q 2494 2394 2734 2622 
Q 2975 2850 2975 3272 
Q 2975 3691 2734 3919 
Q 2494 4147 2053 4147 
L 1259 4147 
z
M 628 4666 
L 2053 4666 
Q 2838 4666 3239 4311 
Q 3641 3956 3641 3272 
Q 3641 2581 3239 2228 
Q 2838 1875 2053 1875 
L 1259 1875 
L 1259 0 
L 628 0 
L 628 4666 
z
" transform="scale(0.015625)"/>
       <path id="DejaVuSans-72" d="M 2631 2963 
Q 2534 3019 2420 3045 
Q 2306 3072 2169 3072 
Q 1681 3072 1420 2755 
Q 1159 2438 1159 1844 
L 1159 0 
L 581 0 
L 581 3500 
L 1159 3500 
L 1159 2956 
Q 1341 3275 1631 3429 
Q 1922 3584 2338 3584 
Q 2397 3584 2469 3576 
Q 2541 3569 2628 3553 
L 2631 2963 
z
" transform="scale(0.015625)"/>
       <path id="DejaVuSans-65" d="M 3597 1894 
L 3597 1613 
L 953 1613 
Q 991 1019 1311 708 
Q 1631 397 2203 397 
Q 2534 397 2845 478 
Q 3156 559 3463 722 
L 3463 178 
Q 3153 47 2828 -22 
Q 2503 -91 2169 -91 
Q 1331 -91 842 396 
Q 353 884 353 1716 
Q 353 2575 817 3079 
Q 1281 3584 2069 3584 
Q 2775 3584 3186 3129 
Q 3597 2675 3597 1894 
z
M 3022 2063 
Q 3016 2534 2758 2815 
Q 2500 3097 2075 3097 
Q 1594 3097 1305 2825 
Q 1016 2553 972 2059 
L 3022 2063 
z
" transform="scale(0.015625)"/>
       <path id="DejaVuSans-64" d="M 2906 2969 
L 2906 4863 
L 3481 4863 
L 3481 0 
L 2906 0 
L 2906 525 
Q 2725 213 2448 61 
Q 2172 -91 1784 -91 
Q 1150 -91 751 415 
Q 353 922 353 1747 
Q 353 2572 751 3078 
Q 1150 3584 1784 3584 
Q 2172 3584 2448 3432 
Q 2725 3281 2906 2969 
z
M 947 1747 
Q 947 1113 1208 752 
Q 1469 391 1925 391 
Q 2381 391 2643 752 
Q 2906 1113 2906 1747 
Q 2906 2381 2643 2742 
Q 2381 3103 1925 3103 
Q 1469 3103 1208 2742 
Q 947 2381 947 1747 
z
" transform="scale(0.015625)"/>
       <path id="DejaVuSans-69" d="M 603 3500 
L 1178 3500 
L 1178 0 
L 603 0 
L 603 3500 
z
M 603 4863 
L 1178 4863 
L 1178 4134 
L 603 4134 
L 603 4863 
z
" transform="scale(0.015625)"/>
       <path id="DejaVuSans-63" d="M 3122 3366 
L 3122 2828 
Q 2878 2963 2633 3030 
Q 2388 3097 2138 3097 
Q 1578 3097 1268 2742 
Q 959 2388 959 1747 
Q 959 1106 1268 751 
Q 1578 397 2138 397 
Q 2388 397 2633 464 
Q 2878 531 3122 666 
L 3122 134 
Q 2881 22 2623 -34 
Q 2366 -91 2075 -91 
Q 1284 -91 818 406 
Q 353 903 353 1747 
Q 353 2603 823 3093 
Q 1294 3584 2113 3584 
Q 2378 3584 2631 3529 
Q 2884 3475 3122 3366 
z
" transform="scale(0.015625)"/>
       <path id="DejaVuSans-74" d="M 1172 4494 
L 1172 3500 
L 2356 3500 
L 2356 3053 
L 1172 3053 
L 1172 1153 
Q 1172 725 1289 603 
Q 1406 481 1766 481 
L 2356 481 
L 2356 0 
L 1766 0 
Q 1100 0 847 248 
Q 594 497 594 1153 
L 594 3053 
L 172 3053 
L 172 3500 
L 594 3500 
L 594 4494 
L 1172 4494 
z
" transform="scale(0.015625)"/>
       <path id="DejaVuSans-6f" d="M 1959 3097 
Q 1497 3097 1228 2736 
Q 959 2375 959 1747 
Q 959 1119 1226 758 
Q 1494 397 1959 397 
Q 2419 397 2687 759 
Q 2956 1122 2956 1747 
Q 2956 2369 2687 2733 
Q 2419 3097 1959 3097 
z
M 1959 3584 
Q 2709 3584 3137 3096 
Q 3566 2609 3566 1747 
Q 3566 888 3137 398 
Q 2709 -91 1959 -91 
Q 1206 -91 779 398 
Q 353 888 353 1747 
Q 353 2609 779 3096 
Q 1206 3584 1959 3584 
z
" transform="scale(0.015625)"/>
       <path id="DejaVuSans-6e" d="M 3513 2113 
L 3513 0 
L 2938 0 
L 2938 2094 
Q 2938 2591 2744 2837 
Q 2550 3084 2163 3084 
Q 1697 3084 1428 2787 
Q 1159 2491 1159 1978 
L 1159 0 
L 581 0 
L 581 3500 
L 1159 3500 
L 1159 2956 
Q 1366 3272 1645 3428 
Q 1925 3584 2291 3584 
Q 2894 3584 3203 3211 
Q 3513 2838 3513 2113 
z
" transform="scale(0.015625)"/>
      </defs>
      <use xlink:href="#DejaVuSans-50"/>
      <use xlink:href="#DejaVuSans-72" transform="translate(58.552734 0)"/>
      <use xlink:href="#DejaVuSans-65" transform="translate(97.416016 0)"/>
      <use xlink:href="#DejaVuSans-64" transform="translate(158.939453 0)"/>
      <use xlink:href="#DejaVuSans-69" transform="translate(222.416016 0)"/>
      <use xlink:href="#DejaVuSans-63" transform="translate(250.199219 0)"/>
      <use xlink:href="#DejaVuSans-74" transform="translate(305.179688 0)"/>
      <use xlink:href="#DejaVuSans-69" transform="translate(344.388672 0)"/>
      <use xlink:href="#DejaVuSans-6f" transform="translate(372.171875 0)"/>
      <use xlink:href="#DejaVuSans-6e" transform="translate(433.353516 0)"/>
     </g>
    </g>
    <g id="patch_3">
     <path d="M 250.56 93.119375 
L 270.56 93.119375 
L 270.56 86.119375 
L 250.56 86.119375 
z
" style="fill: #dc143c; fill-opacity: 0.2"/>
    </g>
    <g id="text_2">
     <!-- Uncertainty -->
     <g transform="translate(278.56 93.119375) scale(0.1 -0.1)">
      <defs>
       <path id="DejaVuSans-55" d="M 556 4666 
L 1191 4666 
L 1191 1831 
Q 1191 1081 1462 751 
Q 1734 422 2344 422 
Q 2950 422 3222 751 
Q 3494 1081 3494 1831 
L 3494 4666 
L 4128 4666 
L 4128 1753 
Q 4128 841 3676 375 
Q 3225 -91 2344 -91 
Q 1459 -91 1007 375 
Q 556 841 556 1753 
L 556 4666 
z
" transform="scale(0.015625)"/>
       <path id="DejaVuSans-61" d="M 2194 1759 
Q 1497 1759 1228 1600 
Q 959 1441 959 1056 
Q 959 750 1161 570 
Q 1363 391 1709 391 
Q 2188 391 2477 730 
Q 2766 1069 2766 1631 
L 2766 1759 
L 2194 1759 
z
M 3341 1997 
L 3341 0 
L 2766 0 
L 2766 531 
Q 2569 213 2275 61 
Q 1981 -91 1556 -91 
Q 1019 -91 701 211 
Q 384 513 384 1019 
Q 384 1609 779 1909 
Q 1175 2209 1959 2209 
L 2766 2209 
L 2766 2266 
Q 2766 2663 2505 2880 
Q 2244 3097 1772 3097 
Q 1472 3097 1187 3025 
Q 903 2953 641 2809 
L 641 3341 
Q 956 3463 1253 3523 
Q 1550 3584 1831 3584 
Q 2591 3584 2966 3190 
Q 3341 2797 3341 1997 
z
" transform="scale(0.015625)"/>
       <path id="DejaVuSans-79" d="M 2059 -325 
Q 1816 -950 1584 -1140 
Q 1353 -1331 966 -1331 
L 506 -1331 
L 506 -850 
L 844 -850 
Q 1081 -850 1212 -737 
Q 1344 -625 1503 -206 
L 1606 56 
L 191 3500 
L 800 3500 
L 1894 763 
L 2988 3500 
L 3597 3500 
L 2059 -325 
z
" transform="scale(0.015625)"/>
      </defs>
      <use xlink:href="#DejaVuSans-55"/>
      <use xlink:href="#DejaVuSans-6e" transform="translate(73.193359 0)"/>
      <use xlink:href="#DejaVuSans-63" transform="translate(136.572266 0)"/>
      <use xlink:href="#DejaVuSans-65" transform="translate(191.552734 0)"/>
      <use xlink:href="#DejaVuSans-72" transform="translate(253.076172 0)"/>
      <use xlink:href="#DejaVuSans-74" transform="translate(294.189453 0)"/>
      <use xlink:href="#DejaVuSans-61" transform="translate(333.398438 0)"/>
      <use xlink:href="#DejaVuSans-69" transform="translate(394.677734 0)"/>
      <use xlink:href="#DejaVuSans-6e" transform="translate(422.460938 0)"/>
      <use xlink:href="#DejaVuSans-74" transform="translate(485.839844 0)"/>
      <use xlink:href="#DejaVuSans-79" transform="translate(525.048828 0)"/>
     </g>
    </g>
    <g id="line2d_2">
     <defs>
      <path id="m8428c5e628" d="M 0 3 
C 0.795609 3 1.55874 2.683901 2.12132 2.12132 
C 2.683901 1.55874 3 0.795609 3 0 
C 3 -0.795609 2.683901 -1.55874 2.12132 -2.12132 
C 1.55874 -2.683901 0.795609 -3 0 -3 
C -0.795609 -3 -1.55874 -2.683901 -2.12132 -2.12132 
C -2.683901 -1.55874 -3 -0.795609 -3 0 
C -3 0.795609 -2.683901 1.55874 -2.12132 2.12132 
C -1.55874 2.683901 -0.795609 3 0 3 
z
" style="stroke: #000000; stroke-opacity: 0.5"/>
     </defs>
     <g>
      <use xlink:href="#m8428c5e628" x="260.56" y="104.2975" style="fill-opacity: 0.5; stroke: #000000; stroke-opacity: 0.5"/>
     </g>
    </g>
    <g id="text_3">
     <!-- Data -->
     <g transform="translate(278.56 107.7975) scale(0.1 -0.1)">
      <defs>
       <path id="DejaVuSans-44" d="M 1259 4147 
L 1259 519 
L 2022 519 
Q 2988 519 3436 956 
Q 3884 1394 3884 2338 
Q 3884 3275 3436 3711 
Q 2988 4147 2022 4147 
L 1259 4147 
z
M 628 4666 
L 1925 4666 
Q 3281 4666 3915 4102 
Q 4550 3538 4550 2338 
Q 4550 1131 3912 565 
Q 3275 0 1925 0 
L 628 0 
L 628 4666 
z
" transform="scale(0.015625)"/>
      </defs>
      <use xlink:href="#DejaVuSans-44"/>
      <use xlink:href="#DejaVuSans-61" transform="translate(77.001953 0)"/>
      <use xlink:href="#DejaVuSans-74" transform="translate(138.28125 0)"/>
      <use xlink:href="#DejaVuSans-61" transform="translate(177.490234 0)"/>
     </g>
    </g>
   </g>
   <g id="line2d_3">
    <g clip-path="url(#pb9a179a66f)">
     <use xlink:href="#m8428c5e628" x="99.449543" y="129.767812" style="fill-opacity: 0.5; stroke: #000000; stroke-opacity: 0.5"/>
     <use xlink:href="#m8428c5e628" x="191.088781" y="56.003705" style="fill-opacity: 0.5; stroke: #000000; stroke-opacity: 0.5"/>
     <use xlink:href="#m8428c5e628" x="156.301788" y="45.873718" style="fill-opacity: 0.5; stroke: #000000; stroke-opacity: 0.5"/>
     <use xlink:href="#m8428c5e628" x="135.095077" y="118.301088" style="fill-opacity: 0.5; stroke: #000000; stroke-opacity: 0.5"/>
     <use xlink:href="#m8428c5e628" x="64.694183" y="82.141107" style="fill-opacity: 0.5; stroke: #000000; stroke-opacity: 0.5"/>
     <use xlink:href="#m8428c5e628" x="64.690347" y="77.814966" style="fill-opacity: 0.5; stroke: #000000; stroke-opacity: 0.5"/>
     <use xlink:href="#m8428c5e628" x="49.117832" y="87.936082" style="fill-opacity: 0.5; stroke: #000000; stroke-opacity: 0.5"/>
     <use xlink:href="#m8428c5e628" x="177.643172" y="40.398033" style="fill-opacity: 0.5; stroke: #000000; stroke-opacity: 0.5"/>
     <use xlink:href="#m8428c5e628" x="135.485782" y="108.346134" style="fill-opacity: 0.5; stroke: #000000; stroke-opacity: 0.5"/>
     <use xlink:href="#m8428c5e628" x="152.497148" y="58.406007" style="fill-opacity: 0.5; stroke: #000000; stroke-opacity: 0.5"/>
     <use xlink:href="#m8428c5e628" x="43.15368" y="105.296597" style="fill-opacity: 0.5; stroke: #000000; stroke-opacity: 0.5"/>
     <use xlink:href="#m8428c5e628" x="194.14179" y="55.547218" style="fill-opacity: 0.5; stroke: #000000; stroke-opacity: 0.5"/>
     <use xlink:href="#m8428c5e628" x="172.277932" y="37.358962" style="fill-opacity: 0.5; stroke: #000000; stroke-opacity: 0.5"/>
     <use xlink:href="#m8428c5e628" x="73.65183" y="80.635215" style="fill-opacity: 0.5; stroke: #000000; stroke-opacity: 0.5"/>
     <use xlink:href="#m8428c5e628" x="68.798622" y="80.238009" style="fill-opacity: 0.5; stroke: #000000; stroke-opacity: 0.5"/>
     <use xlink:href="#m8428c5e628" x="69.049845" y="73.805332" style="fill-opacity: 0.5; stroke: #000000; stroke-opacity: 0.5"/>
     <use xlink:href="#m8428c5e628" x="88.268821" y="114.329949" style="fill-opacity: 0.5; stroke: #000000; stroke-opacity: 0.5"/>
     <use xlink:href="#m8428c5e628" x="123.341118" y="133.505397" style="fill-opacity: 0.5; stroke: #000000; stroke-opacity: 0.5"/>
     <use xlink:href="#m8428c5e628" x="108.579667" y="143.171509" style="fill-opacity: 0.5; stroke: #000000; stroke-opacity: 0.5"/>
     <use xlink:href="#m8428c5e628" x="86.199116" y="115.823413" style="fill-opacity: 0.5; stroke: #000000; stroke-opacity: 0.5"/>
     <use xlink:href="#m8428c5e628" x="137.193619" y="95.132689" style="fill-opacity: 0.5; stroke: #000000; stroke-opacity: 0.5"/>
     <use xlink:href="#m8428c5e628" x="62.065953" y="79.48506" style="fill-opacity: 0.5; stroke: #000000; stroke-opacity: 0.5"/>
     <use xlink:href="#m8428c5e628" x="86.344725" y="105.100203" style="fill-opacity: 0.5; stroke: #000000; stroke-opacity: 0.5"/>
     <use xlink:href="#m8428c5e628" x="98.148807" y="130.05093" style="fill-opacity: 0.5; stroke: #000000; stroke-opacity: 0.5"/>
     <use xlink:href="#m8428c5e628" x="112.416689" y="151.635613" style="fill-opacity: 0.5; stroke: #000000; stroke-opacity: 0.5"/>
     <use xlink:href="#m8428c5e628" x="164.760271" y="38.318642" style="fill-opacity: 0.5; stroke: #000000; stroke-opacity: 0.5"/>
     <use xlink:href="#m8428c5e628" x="71.637437" y="85.224747" style="fill-opacity: 0.5; stroke: #000000; stroke-opacity: 0.5"/>
     <use xlink:href="#m8428c5e628" x="121.667618" y="139.733194" style="fill-opacity: 0.5; stroke: #000000; stroke-opacity: 0.5"/>
     <use xlink:href="#m8428c5e628" x="134.101996" y="107.38719" style="fill-opacity: 0.5; stroke: #000000; stroke-opacity: 0.5"/>
     <use xlink:href="#m8428c5e628" x="47.267597" y="99.863422" style="fill-opacity: 0.5; stroke: #000000; stroke-opacity: 0.5"/>
     <use xlink:href="#m8428c5e628" x="136.508434" y="85.194562" style="fill-opacity: 0.5; stroke: #000000; stroke-opacity: 0.5"/>
     <use xlink:href="#m8428c5e628" x="67.001248" y="79.157387" style="fill-opacity: 0.5; stroke: #000000; stroke-opacity: 0.5"/>
     <use xlink:href="#m8428c5e628" x="50.226074" y="94.891719" style="fill-opacity: 0.5; stroke: #000000; stroke-opacity: 0.5"/>
     <use xlink:href="#m8428c5e628" x="190.797919" y="53.900963" style="fill-opacity: 0.5; stroke: #000000; stroke-opacity: 0.5"/>
     <use xlink:href="#m8428c5e628" x="193.461412" y="71.487704" style="fill-opacity: 0.5; stroke: #000000; stroke-opacity: 0.5"/>
     <use xlink:href="#m8428c5e628" x="168.453582" y="33.516958" style="fill-opacity: 0.5; stroke: #000000; stroke-opacity: 0.5"/>
     <use xlink:href="#m8428c5e628" x="88.327911" y="108.732972" style="fill-opacity: 0.5; stroke: #000000; stroke-opacity: 0.5"/>
     <use xlink:href="#m8428c5e628" x="55.414296" y="69.572249" style="fill-opacity: 0.5; stroke: #000000; stroke-opacity: 0.5"/>
     <use xlink:href="#m8428c5e628" x="148.705519" y="65.571481" style="fill-opacity: 0.5; stroke: #000000; stroke-opacity: 0.5"/>
     <use xlink:href="#m8428c5e628" x="109.885047" y="138.48087" style="fill-opacity: 0.5; stroke: #000000; stroke-opacity: 0.5"/>
     <use xlink:href="#m8428c5e628" x="59.289674" y="83.75409" style="fill-opacity: 0.5; stroke: #000000; stroke-opacity: 0.5"/>
     <use xlink:href="#m8428c5e628" x="118.63656" y="146.298601" style="fill-opacity: 0.5; stroke: #000000; stroke-opacity: 0.5"/>
     <use xlink:href="#m8428c5e628" x="45.34918" y="98.553179" style="fill-opacity: 0.5; stroke: #000000; stroke-opacity: 0.5"/>
     <use xlink:href="#m8428c5e628" x="184.505171" y="38.717705" style="fill-opacity: 0.5; stroke: #000000; stroke-opacity: 0.5"/>
     <use xlink:href="#m8428c5e628" x="81.038148" y="89.076185" style="fill-opacity: 0.5; stroke: #000000; stroke-opacity: 0.5"/>
     <use xlink:href="#m8428c5e628" x="145.252474" y="80.504608" style="fill-opacity: 0.5; stroke: #000000; stroke-opacity: 0.5"/>
     <use xlink:href="#m8428c5e628" x="89.456722" y="100.98346" style="fill-opacity: 0.5; stroke: #000000; stroke-opacity: 0.5"/>
     <use xlink:href="#m8428c5e628" x="122.595436" y="142.799572" style="fill-opacity: 0.5; stroke: #000000; stroke-opacity: 0.5"/>
     <use xlink:href="#m8428c5e628" x="126.832829" y="119.904179" style="fill-opacity: 0.5; stroke: #000000; stroke-opacity: 0.5"/>
     <use xlink:href="#m8428c5e628" x="69.280456" y="64.74423" style="fill-opacity: 0.5; stroke: #000000; stroke-opacity: 0.5"/>
     <use xlink:href="#m8428c5e628" x="194.090064" y="65.374807" style="fill-opacity: 0.5; stroke: #000000; stroke-opacity: 0.5"/>
     <use xlink:href="#m8428c5e628" x="163.162932" y="40.808152" style="fill-opacity: 0.5; stroke: #000000; stroke-opacity: 0.5"/>
     <use xlink:href="#m8428c5e628" x="189.305002" y="50.432867" style="fill-opacity: 0.5; stroke: #000000; stroke-opacity: 0.5"/>
     <use xlink:href="#m8428c5e628" x="182.200083" y="45.142837" style="fill-opacity: 0.5; stroke: #000000; stroke-opacity: 0.5"/>
     <use xlink:href="#m8428c5e628" x="134.974438" y="115.364827" style="fill-opacity: 0.5; stroke: #000000; stroke-opacity: 0.5"/>
     <use xlink:href="#m8428c5e628" x="186.501831" y="46.621005" style="fill-opacity: 0.5; stroke: #000000; stroke-opacity: 0.5"/>
     <use xlink:href="#m8428c5e628" x="53.954299" y="98.205746" style="fill-opacity: 0.5; stroke: #000000; stroke-opacity: 0.5"/>
     <use xlink:href="#m8428c5e628" x="71.050405" y="78.664304" style="fill-opacity: 0.5; stroke: #000000; stroke-opacity: 0.5"/>
     <use xlink:href="#m8428c5e628" x="47.073062" y="110.21161" style="fill-opacity: 0.5; stroke: #000000; stroke-opacity: 0.5"/>
     <use xlink:href="#m8428c5e628" x="91.622835" y="104.315065" style="fill-opacity: 0.5; stroke: #000000; stroke-opacity: 0.5"/>
     <use xlink:href="#m8428c5e628" x="101.698029" y="139.608533" style="fill-opacity: 0.5; stroke: #000000; stroke-opacity: 0.5"/>
     <use xlink:href="#m8428c5e628" x="83.037228" y="101.070967" style="fill-opacity: 0.5; stroke: #000000; stroke-opacity: 0.5"/>
     <use xlink:href="#m8428c5e628" x="171.688639" y="27.146507" style="fill-opacity: 0.5; stroke: #000000; stroke-opacity: 0.5"/>
     <use xlink:href="#m8428c5e628" x="96.620593" y="134.851046" style="fill-opacity: 0.5; stroke: #000000; stroke-opacity: 0.5"/>
     <use xlink:href="#m8428c5e628" x="84.561777" y="99.880779" style="fill-opacity: 0.5; stroke: #000000; stroke-opacity: 0.5"/>
     <use xlink:href="#m8428c5e628" x="126.19438" y="115.844823" style="fill-opacity: 0.5; stroke: #000000; stroke-opacity: 0.5"/>
     <use xlink:href="#m8428c5e628" x="62.293449" y="93.381328" style="fill-opacity: 0.5; stroke: #000000; stroke-opacity: 0.5"/>
     <use xlink:href="#m8428c5e628" x="167.467427" y="32.237773" style="fill-opacity: 0.5; stroke: #000000; stroke-opacity: 0.5"/>
     <use xlink:href="#m8428c5e628" x="51.736877" y="92.044117" style="fill-opacity: 0.5; stroke: #000000; stroke-opacity: 0.5"/>
     <use xlink:href="#m8428c5e628" x="196.841958" y="55.559705" style="fill-opacity: 0.5; stroke: #000000; stroke-opacity: 0.5"/>
     <use xlink:href="#m8428c5e628" x="162.703593" y="46.307761" style="fill-opacity: 0.5; stroke: #000000; stroke-opacity: 0.5"/>
     <use xlink:href="#m8428c5e628" x="71.485053" y="92.441695" style="fill-opacity: 0.5; stroke: #000000; stroke-opacity: 0.5"/>
     <use xlink:href="#m8428c5e628" x="40.758042" y="113.874535" style="fill-opacity: 0.5; stroke: #000000; stroke-opacity: 0.5"/>
     <use xlink:href="#m8428c5e628" x="169.577108" y="30.906729" style="fill-opacity: 0.5; stroke: #000000; stroke-opacity: 0.5"/>
     <use xlink:href="#m8428c5e628" x="152.303867" y="53.214884" style="fill-opacity: 0.5; stroke: #000000; stroke-opacity: 0.5"/>
     <use xlink:href="#m8428c5e628" x="155.826748" y="44.881736" style="fill-opacity: 0.5; stroke: #000000; stroke-opacity: 0.5"/>
     <use xlink:href="#m8428c5e628" x="162.548614" y="42.294747" style="fill-opacity: 0.5; stroke: #000000; stroke-opacity: 0.5"/>
     <use xlink:href="#m8428c5e628" x="51.6564" y="92.396906" style="fill-opacity: 0.5; stroke: #000000; stroke-opacity: 0.5"/>
     <use xlink:href="#m8428c5e628" x="96.892947" y="123.907912" style="fill-opacity: 0.5; stroke: #000000; stroke-opacity: 0.5"/>
     <use xlink:href="#m8428c5e628" x="58.30848" y="89.825688" style="fill-opacity: 0.5; stroke: #000000; stroke-opacity: 0.5"/>
     <use xlink:href="#m8428c5e628" x="177.154463" y="22.099973" style="fill-opacity: 0.5; stroke: #000000; stroke-opacity: 0.5"/>
     <use xlink:href="#m8428c5e628" x="139.013958" y="88.451636" style="fill-opacity: 0.5; stroke: #000000; stroke-opacity: 0.5"/>
     <use xlink:href="#m8428c5e628" x="92.508364" y="126.666857" style="fill-opacity: 0.5; stroke: #000000; stroke-opacity: 0.5"/>
     <use xlink:href="#m8428c5e628" x="49.988577" y="92.361469" style="fill-opacity: 0.5; stroke: #000000; stroke-opacity: 0.5"/>
     <use xlink:href="#m8428c5e628" x="89.340816" y="118.579867" style="fill-opacity: 0.5; stroke: #000000; stroke-opacity: 0.5"/>
     <use xlink:href="#m8428c5e628" x="91.599454" y="109.990188" style="fill-opacity: 0.5; stroke: #000000; stroke-opacity: 0.5"/>
     <use xlink:href="#m8428c5e628" x="155.922019" y="38.60292" style="fill-opacity: 0.5; stroke: #000000; stroke-opacity: 0.5"/>
     <use xlink:href="#m8428c5e628" x="141.281875" y="91.443665" style="fill-opacity: 0.5; stroke: #000000; stroke-opacity: 0.5"/>
     <use xlink:href="#m8428c5e628" x="180.988997" y="32.692162" style="fill-opacity: 0.5; stroke: #000000; stroke-opacity: 0.5"/>
     <use xlink:href="#m8428c5e628" x="114.984507" y="137.203218" style="fill-opacity: 0.5; stroke: #000000; stroke-opacity: 0.5"/>
     <use xlink:href="#m8428c5e628" x="58.900963" y="77.697301" style="fill-opacity: 0.5; stroke: #000000; stroke-opacity: 0.5"/>
     <use xlink:href="#m8428c5e628" x="153.319776" y="38.531763" style="fill-opacity: 0.5; stroke: #000000; stroke-opacity: 0.5"/>
     <use xlink:href="#m8428c5e628" x="160.88095" y="41.020634" style="fill-opacity: 0.5; stroke: #000000; stroke-opacity: 0.5"/>
     <use xlink:href="#m8428c5e628" x="129.149665" y="124.706045" style="fill-opacity: 0.5; stroke: #000000; stroke-opacity: 0.5"/>
     <use xlink:href="#m8428c5e628" x="162.500396" y="43.91823" style="fill-opacity: 0.5; stroke: #000000; stroke-opacity: 0.5"/>
     <use xlink:href="#m8428c5e628" x="118.416865" y="143.875456" style="fill-opacity: 0.5; stroke: #000000; stroke-opacity: 0.5"/>
     <use xlink:href="#m8428c5e628" x="123.019268" y="132.168506" style="fill-opacity: 0.5; stroke: #000000; stroke-opacity: 0.5"/>
     <use xlink:href="#m8428c5e628" x="107.87922" y="137.294725" style="fill-opacity: 0.5; stroke: #000000; stroke-opacity: 0.5"/>
     <use xlink:href="#m8428c5e628" x="43.922618" y="108.305493" style="fill-opacity: 0.5; stroke: #000000; stroke-opacity: 0.5"/>
     <use xlink:href="#m8428c5e628" x="57.039656" y="79.704886" style="fill-opacity: 0.5; stroke: #000000; stroke-opacity: 0.5"/>
    </g>
   </g>
   <g id="line2d_4">
    <path d="M 17.345455 119.86246 
L 36.718684 119.789883 
L 37.738328 119.528799 
L 38.757972 118.732139 
L 39.777615 116.915146 
L 41.816903 110.826504 
L 42.836546 108.541361 
L 44.875834 102.615971 
L 45.895477 103.622101 
L 46.915121 104.8583 
L 47.934765 99.499215 
L 48.954408 93.149554 
L 49.974052 92.001677 
L 50.993696 92.705112 
L 52.013339 95.683352 
L 53.032983 99.980078 
L 54.052627 94.213872 
L 55.07227 79.418697 
L 56.091914 73.921037 
L 57.111558 81.093228 
L 58.131201 85.882026 
L 59.150845 83.642923 
L 60.170489 82.12873 
L 61.190132 84.356902 
L 62.209776 87.604212 
L 63.22942 87.764629 
L 64.249063 83.5718 
L 65.268707 79.932996 
L 66.288351 80.601258 
L 67.307995 81.960491 
L 68.327638 78.18988 
L 69.347282 72.786383 
L 70.366926 76.213195 
L 71.386569 85.742208 
L 72.406213 88.160356 
L 73.425857 84.831498 
L 74.4455 88.711338 
L 75.465144 101.017492 
L 76.484788 111.921502 
L 77.504431 115.473874 
L 78.524075 111.344925 
L 79.543719 101.724137 
L 80.563362 93.414281 
L 81.583006 93.43941 
L 82.60265 98.606375 
L 83.622293 101.299091 
L 84.641937 102.966351 
L 86.681224 111.353471 
L 87.700868 112.694408 
L 88.720512 111.688605 
L 89.740155 107.142346 
L 90.759799 104.053901 
L 91.779443 111.734669 
L 92.799086 126.088226 
L 93.81873 134.120611 
L 94.838374 133.823694 
L 95.858017 131.204771 
L 96.877661 129.234875 
L 97.897305 128.409805 
L 98.916948 128.993294 
L 99.936592 131.861889 
L 100.956236 136.225644 
L 101.975879 137.305188 
L 102.995523 132.629939 
L 104.015167 126.256291 
L 105.03481 123.153418 
L 106.054454 125.328466 
L 108.093741 138.838994 
L 109.113385 140.143663 
L 110.133029 139.078865 
L 111.152672 142.569827 
L 112.172316 148.03761 
L 113.19196 147.563455 
L 115.231247 135.27367 
L 116.250891 134.298989 
L 118.290178 143.407703 
L 119.309822 143.191602 
L 120.329466 140.358554 
L 121.349109 139.913435 
L 122.368753 138.972099 
L 123.388397 132.401049 
L 124.40804 122.975038 
L 125.427684 117.297429 
L 126.447328 117.717174 
L 127.466971 121.39085 
L 128.486615 124.112094 
L 129.506259 123.779282 
L 130.525902 120.162114 
L 131.545546 113.846291 
L 132.56519 108.665754 
L 133.584833 110.390218 
L 134.604477 113.913943 
L 135.624121 106.741677 
L 136.643764 94.120832 
L 137.663408 89.620252 
L 138.683052 90.597679 
L 139.702695 90.648785 
L 140.722339 91.624683 
L 141.741983 95.343699 
L 142.761626 97.774823 
L 143.78127 93.849021 
L 144.800914 86.399528 
L 145.820557 81.997663 
L 146.840201 78.719112 
L 147.859845 72.833498 
L 148.879488 70.74292 
L 149.899132 75.640883 
L 150.918776 75.998598 
L 151.938419 63.809443 
L 152.958063 48.435801 
L 153.977707 40.609078 
L 154.99735 39.400733 
L 156.016994 45.154241 
L 158.056281 77.637223 
L 159.075925 76.342238 
L 160.095569 59.366903 
L 161.115212 45.61133 
L 162.134856 43.437932 
L 163.1545 44.21111 
L 164.174143 43.310713 
L 165.193787 43.818093 
L 166.213431 43.222621 
L 167.233074 38.576819 
L 168.252718 35.046578 
L 169.272362 34.657186 
L 170.292005 32.187889 
L 171.311649 30.29179 
L 172.331293 41.286001 
L 173.350937 64.116314 
L 174.37058 76.920545 
L 175.390224 64.250376 
L 176.409868 40.947316 
L 177.429511 35.274685 
L 178.449155 47.468976 
L 179.468799 51.908594 
L 180.488442 43.34836 
L 181.508086 40.891894 
L 182.52773 47.833092 
L 183.547373 49.355033 
L 184.567017 44.077315 
L 185.586661 43.840895 
L 187.625948 59.134173 
L 188.645592 57.932914 
L 189.665235 52.645863 
L 190.684879 54.832736 
L 191.704523 65.59189 
L 192.724166 72.172896 
L 193.74381 67.061211 
L 194.763454 58.091159 
L 195.783097 54.439282 
L 196.802741 60.365165 
L 197.822385 77.156194 
L 198.842028 97.702152 
L 199.861672 111.965266 
L 200.881316 117.972135 
L 201.900959 119.561081 
L 202.920603 119.830552 
L 206.999178 119.86246 
L 220.254545 119.86246 
L 220.254545 119.86246 
" clip-path="url(#pb9a179a66f)" style="fill: none; stroke: #dc143c; stroke-width: 2; stroke-linecap: square"/>
   </g>
  </g>
 </g>
 <defs>
  <clipPath id="pb9a179a66f">
   <rect x="7.2" y="7.2" width="223.2" height="166.32"/>
  </clipPath>
 </defs>
</svg>
