<?xml version="1.0" encoding="utf-8" standalone="no"?>
<!DOCTYPE svg PUBLIC "-//W3C//DTD SVG 1.1//EN"
  "http://www.w3.org/Graphics/SVG/1.1/DTD/svg11.dtd">
<svg xmlns:xlink="http://www.w3.org/1999/xlink" width="213.542188pt" height="207.398125pt" viewBox="0 0 213.542188 207.398125" xmlns="http://www.w3.org/2000/svg" version="1.1">
 <metadata>
  <rdf:RDF xmlns:dc="http://purl.org/dc/elements/1.1/" xmlns:cc="http://creativecommons.org/ns#" xmlns:rdf="http://www.w3.org/1999/02/22-rdf-syntax-ns#">
   <cc:Work>
    <dc:type rdf:resource="http://purl.org/dc/dcmitype/StillImage"/>
    <dc:date>2025-09-13T14:45:41.709395</dc:date>
    <dc:format>image/svg+xml</dc:format>
    <dc:creator>
     <cc:Agent>
      <dc:title>Matplotlib v3.10.3, https://matplotlib.org/</dc:title>
     </cc:Agent>
    </dc:creator>
   </cc:Work>
  </rdf:RDF>
 </metadata>
 <defs>
  <style type="text/css">*{stroke-linejoin: round; stroke-linecap: butt}</style>
 </defs>
 <g id="figure_1">
  <g id="patch_1">
   <path d="M 0 207.398125 
L 213.542188 207.398125 
L 213.542188 0 
L 0 0 
z
" style="fill: #ffffff"/>
  </g>
  <g id="axes_1">
   <g id="patch_2">
    <path d="M 38.942188 173.52 
L 206.342187 173.52 
L 206.342187 7.2 
L 38.942188 7.2 
z
" style="fill: #ffffff"/>
   </g>
   <g id="matplotlib.axis_1">
    <g id="xtick_1">
     <g id="line2d_1">
      <defs>
       <path id="m7f3c3ee29f" d="M 0 0 
L 0 3.5 
" style="stroke: #000000; stroke-width: 0.8"/>
      </defs>
      <g>
       <use xlink:href="#m7f3c3ee29f" x="46.551278" y="183.52" style="stroke: #000000; stroke-width: 0.8"/>
      </g>
     </g>
     <g id="text_1">
      <!-- 0 -->
      <g transform="translate(43.370028 198.118438) scale(0.1 -0.1)">
       <defs>
        <path id="DejaVuSans-30" d="M 2034 4250 
Q 1547 4250 1301 3770 
Q 1056 3291 1056 2328 
Q 1056 1369 1301 889 
Q 1547 409 2034 409 
Q 2525 409 2770 889 
Q 3016 1369 3016 2328 
Q 3016 3291 2770 3770 
Q 2525 4250 2034 4250 
z
M 2034 4750 
Q 2819 4750 3233 4129 
Q 3647 3509 3647 2328 
Q 3647 1150 3233 529 
Q 2819 -91 2034 -91 
Q 1250 -91 836 529 
Q 422 1150 422 2328 
Q 422 3509 836 4129 
Q 1250 4750 2034 4750 
z
" transform="scale(0.015625)"/>
       </defs>
       <use xlink:href="#DejaVuSans-30"/>
      </g>
     </g>
    </g>
    <g id="xtick_2">
     <g id="line2d_2">
      <g>
       <use xlink:href="#m7f3c3ee29f" x="97.278551" y="183.52" style="stroke: #000000; stroke-width: 0.8"/>
      </g>
     </g>
     <g id="text_2">
      <!-- 2 -->
      <g transform="translate(94.097301 198.118438) scale(0.1 -0.1)">
       <defs>
        <path id="DejaVuSans-32" d="M 1228 531 
L 3431 531 
L 3431 0 
L 469 0 
L 469 531 
Q 828 903 1448 1529 
Q 2069 2156 2228 2338 
Q 2531 2678 2651 2914 
Q 2772 3150 2772 3378 
Q 2772 3750 2511 3984 
Q 2250 4219 1831 4219 
Q 1534 4219 1204 4116 
Q 875 4013 500 3803 
L 500 4441 
Q 881 4594 1212 4672 
Q 1544 4750 1819 4750 
Q 2544 4750 2975 4387 
Q 3406 4025 3406 3419 
Q 3406 3131 3298 2873 
Q 3191 2616 2906 2266 
Q 2828 2175 2409 1742 
Q 1991 1309 1228 531 
z
" transform="scale(0.015625)"/>
       </defs>
       <use xlink:href="#DejaVuSans-32"/>
      </g>
     </g>
    </g>
    <g id="xtick_3">
     <g id="line2d_3">
      <g>
       <use xlink:href="#m7f3c3ee29f" x="148.005824" y="183.52" style="stroke: #000000; stroke-width: 0.8"/>
      </g>
     </g>
     <g id="text_3">
      <!-- 4 -->
      <g transform="translate(144.824574 198.118438) scale(0.1 -0.1)">
       <defs>
        <path id="DejaVuSans-34" d="M 2419 4116 
L 825 1625 
L 2419 1625 
L 2419 4116 
z
M 2253 4666 
L 3047 4666 
L 3047 1625 
L 3713 1625 
L 3713 1100 
L 3047 1100 
L 3047 0 
L 2419 0 
L 2419 1100 
L 313 1100 
L 313 1709 
L 2253 4666 
z
" transform="scale(0.015625)"/>
       </defs>
       <use xlink:href="#DejaVuSans-34"/>
      </g>
     </g>
    </g>
    <g id="xtick_4">
     <g id="line2d_4">
      <g>
       <use xlink:href="#m7f3c3ee29f" x="198.733097" y="183.52" style="stroke: #000000; stroke-width: 0.8"/>
      </g>
     </g>
     <g id="text_4">
      <!-- 6 -->
      <g transform="translate(195.551847 198.118438) scale(0.1 -0.1)">
       <defs>
        <path id="DejaVuSans-36" d="M 2113 2584 
Q 1688 2584 1439 2293 
Q 1191 2003 1191 1497 
Q 1191 994 1439 701 
Q 1688 409 2113 409 
Q 2538 409 2786 701 
Q 3034 994 3034 1497 
Q 3034 2003 2786 2293 
Q 2538 2584 2113 2584 
z
M 3366 4563 
L 3366 3988 
Q 3128 4100 2886 4159 
Q 2644 4219 2406 4219 
Q 1781 4219 1451 3797 
Q 1122 3375 1075 2522 
Q 1259 2794 1537 2939 
Q 1816 3084 2150 3084 
Q 2853 3084 3261 2657 
Q 3669 2231 3669 1497 
Q 3669 778 3244 343 
Q 2819 -91 2113 -91 
Q 1303 -91 875 529 
Q 447 1150 447 2328 
Q 447 3434 972 4092 
Q 1497 4750 2381 4750 
Q 2619 4750 2861 4703 
Q 3103 4656 3366 4563 
z
" transform="scale(0.015625)"/>
       </defs>
       <use xlink:href="#DejaVuSans-36"/>
      </g>
     </g>
    </g>
   </g>
   <g id="matplotlib.axis_2">
    <g id="ytick_1">
     <g id="line2d_5">
      <defs>
       <path id="m35ce95569a" d="M 0 0 
L -3.5 0 
" style="stroke: #000000; stroke-width: 0.8"/>
      </defs>
      <g>
       <use xlink:href="#m35ce95569a" x="28.942188" y="149.12824" style="stroke: #000000; stroke-width: 0.8"/>
      </g>
     </g>
     <g id="text_5">
      <!-- −2 -->
      <g transform="translate(7.2 152.927459) scale(0.1 -0.1)">
       <defs>
        <path id="DejaVuSans-2212" d="M 678 2272 
L 4684 2272 
L 4684 1741 
L 678 1741 
L 678 2272 
z
" transform="scale(0.015625)"/>
       </defs>
       <use xlink:href="#DejaVuSans-2212"/>
       <use xlink:href="#DejaVuSans-32" transform="translate(83.789062 0)"/>
      </g>
     </g>
    </g>
    <g id="ytick_2">
     <g id="line2d_6">
      <g>
       <use xlink:href="#m35ce95569a" x="28.942188" y="120.053638" style="stroke: #000000; stroke-width: 0.8"/>
      </g>
     </g>
     <g id="text_6">
      <!-- −1 -->
      <g transform="translate(7.2 123.852857) scale(0.1 -0.1)">
       <defs>
        <path id="DejaVuSans-31" d="M 794 531 
L 1825 531 
L 1825 4091 
L 703 3866 
L 703 4441 
L 1819 4666 
L 2450 4666 
L 2450 531 
L 3481 531 
L 3481 0 
L 794 0 
L 794 531 
z
" transform="scale(0.015625)"/>
       </defs>
       <use xlink:href="#DejaVuSans-2212"/>
       <use xlink:href="#DejaVuSans-31" transform="translate(83.789062 0)"/>
      </g>
     </g>
    </g>
    <g id="ytick_3">
     <g id="line2d_7">
      <g>
       <use xlink:href="#m35ce95569a" x="28.942188" y="90.979037" style="stroke: #000000; stroke-width: 0.8"/>
      </g>
     </g>
     <g id="text_7">
      <!-- 0 -->
      <g transform="translate(15.579688 94.778256) scale(0.1 -0.1)">
       <use xlink:href="#DejaVuSans-30"/>
      </g>
     </g>
    </g>
    <g id="ytick_4">
     <g id="line2d_8">
      <g>
       <use xlink:href="#m35ce95569a" x="28.942188" y="61.904436" style="stroke: #000000; stroke-width: 0.8"/>
      </g>
     </g>
     <g id="text_8">
      <!-- 1 -->
      <g transform="translate(15.579688 65.703655) scale(0.1 -0.1)">
       <use xlink:href="#DejaVuSans-31"/>
      </g>
     </g>
    </g>
    <g id="ytick_5">
     <g id="line2d_9">
      <g>
       <use xlink:href="#m35ce95569a" x="28.942188" y="32.829834" style="stroke: #000000; stroke-width: 0.8"/>
      </g>
     </g>
     <g id="text_9">
      <!-- 2 -->
      <g transform="translate(15.579688 36.629053) scale(0.1 -0.1)">
       <use xlink:href="#DejaVuSans-32"/>
      </g>
     </g>
    </g>
   </g>
   <g id="line2d_10">
    <path d="M 46.551278 76.537271 
L 48.995966 72.112172 
L 52.662998 64.887832 
L 57.552374 55.325928 
L 59.997062 51.098037 
L 61.830577 48.342861 
L 63.664093 46.034673 
L 64.886437 44.769358 
L 66.108781 43.746743 
L 67.331125 42.979324 
L 68.553469 42.46764 
L 69.775813 42.224659 
L 70.998157 42.248524 
L 72.220501 42.550597 
L 73.442845 43.115878 
L 74.665189 43.927086 
L 75.887533 44.987583 
L 77.721048 47.018523 
L 79.554564 49.502601 
L 81.38808 52.394829 
L 83.832768 56.717615 
L 87.4998 63.815378 
L 91.778003 72.145255 
L 94.222691 76.507388 
L 96.056207 79.451188 
L 97.889723 82.024095 
L 99.723239 84.182425 
L 100.945583 85.36739 
L 102.167927 86.322783 
L 103.390271 87.058082 
L 104.612615 87.563776 
L 105.834959 87.831752 
L 107.057303 87.867133 
L 108.279646 87.676995 
L 109.50199 87.26192 
L 110.724334 86.629039 
L 111.946678 85.789475 
L 113.169022 84.760475 
L 115.002538 82.895039 
L 116.836054 80.684347 
L 119.280742 77.322131 
L 122.336602 72.671967 
L 129.670665 61.34341 
L 132.115353 58.004018 
L 134.560041 55.06911 
L 136.393557 53.167868 
L 138.227072 51.55279 
L 140.060588 50.22979 
L 141.894104 49.206692 
L 143.72762 48.488055 
L 145.561136 48.074393 
L 147.394652 47.95094 
L 149.228168 48.126785 
L 151.061684 48.59482 
L 152.8952 49.344285 
L 154.728715 50.391534 
L 156.562231 51.7178 
L 158.395747 53.330158 
L 160.229263 55.216411 
L 162.062779 57.369708 
L 164.507467 60.628611 
L 166.952155 64.286509 
L 170.008014 69.281777 
L 179.175594 84.589998 
L 181.620282 87.966096 
L 183.453798 90.092632 
L 185.287313 91.807442 
L 186.509657 92.695967 
L 187.732001 93.363739 
L 188.954345 93.808169 
L 190.176689 94.019687 
L 191.399033 94.008773 
L 192.621377 93.764971 
L 193.843721 93.296963 
L 195.066065 92.624709 
L 196.288409 91.746892 
L 198.121925 90.097822 
L 198.733097 89.473812 
L 198.733097 89.473812 
" clip-path="url(#p30d72fbe91)" style="fill: none; stroke: #000000; stroke-width: 1.5; stroke-linecap: square"/>
   </g>
   <g id="line2d_11">
    <path d="M 46.551278 94.999017 
L 48.995966 95.556014 
L 53.27417 96.234657 
L 59.38589 97.260634 
L 61.830577 97.882235 
L 64.886437 98.923056 
L 67.942297 100.258197 
L 71.609329 102.168087 
L 80.776908 107.216493 
L 83.832768 108.569694 
L 86.888628 109.647568 
L 89.944488 110.436851 
L 93.000347 110.990601 
L 97.889723 111.621661 
L 101.556755 112.133383 
L 104.612615 112.751139 
L 107.057303 113.452064 
L 109.50199 114.392913 
L 111.946678 115.597851 
L 114.391366 117.099688 
L 116.836054 118.92922 
L 119.280742 121.072738 
L 121.72543 123.524562 
L 124.170117 126.264804 
L 127.225977 129.995519 
L 137.615901 143.229001 
L 140.060588 145.766169 
L 141.894104 147.354175 
L 143.116448 148.230058 
L 144.949964 149.219759 
L 146.172308 149.653872 
L 147.394652 149.899212 
L 148.616996 149.946266 
L 149.83934 149.782173 
L 151.061684 149.415513 
L 152.284028 148.850715 
L 154.117543 147.628823 
L 155.951059 145.989754 
L 157.784575 144.006989 
L 160.229263 140.916038 
L 163.896295 135.741541 
L 167.563327 130.598045 
L 170.008014 127.573171 
L 171.84153 125.65524 
L 173.675046 124.116602 
L 174.89739 123.319174 
L 176.119734 122.732264 
L 177.342078 122.35365 
L 178.564422 122.180925 
L 179.786766 122.217822 
L 181.00911 122.455766 
L 182.231454 122.878383 
L 183.453798 123.482606 
L 185.287313 124.681088 
L 187.120829 126.156919 
L 189.565517 128.449015 
L 196.288409 134.987832 
L 198.733097 136.903025 
L 198.733097 136.903025 
" clip-path="url(#p30d72fbe91)" style="fill: none; stroke: #000000; stroke-width: 1.5; stroke-linecap: square"/>
   </g>
   <g id="line2d_12">
    <path d="M 46.551278 72.147751 
L 48.384794 72.727372 
L 50.21831 73.552111 
L 52.051826 74.631601 
L 53.885342 75.97173 
L 55.718858 77.575926 
L 57.552374 79.448561 
L 59.38589 81.563516 
L 61.830577 84.743475 
L 64.886437 89.188832 
L 69.164641 95.998491 
L 74.665189 104.894188 
L 77.721048 109.452097 
L 80.165736 112.698474 
L 81.999252 114.844871 
L 83.832768 116.67622 
L 85.666284 118.17846 
L 87.4998 119.307859 
L 88.722144 119.829279 
L 89.944488 120.17603 
L 91.166832 120.337836 
L 92.389175 120.299249 
L 93.611519 120.066162 
L 94.833863 119.636693 
L 96.056207 119.012808 
L 97.889723 117.70542 
L 99.723239 115.98205 
L 101.556755 113.845806 
L 103.390271 111.345095 
L 105.834959 107.484145 
L 108.279646 103.121746 
L 111.335506 97.118736 
L 115.61371 88.040718 
L 128.448321 60.322321 
L 132.726525 51.841593 
L 135.782385 46.236766 
L 138.227072 42.109616 
L 140.67176 38.37741 
L 142.505276 35.87978 
L 144.338792 33.693202 
L 146.172308 31.832169 
L 148.005824 30.337911 
L 149.228168 29.560482 
L 150.450512 28.962193 
L 151.672856 28.543619 
L 152.8952 28.314213 
L 154.117543 28.264844 
L 155.339887 28.411642 
L 156.562231 28.732579 
L 157.784575 29.234418 
L 159.618091 30.302967 
L 161.451607 31.72822 
L 163.285123 33.472608 
L 165.118639 35.499655 
L 167.563327 38.584729 
L 170.008014 42.011633 
L 173.063874 46.632236 
L 177.95325 54.549231 
L 184.06497 64.832434 
L 194.454893 82.29822 
L 198.733097 89.040683 
L 198.733097 89.040683 
" clip-path="url(#p30d72fbe91)" style="fill: none; stroke: #000000; stroke-width: 1.5; stroke-linecap: square"/>
   </g>
   <g id="line2d_13">
    <path d="M 46.551278 88.090684 
L 51.440654 86.286515 
L 56.33003 84.526958 
L 59.997062 83.427779 
L 63.052921 82.748124 
L 66.108781 82.337816 
L 68.553469 82.220482 
L 70.998157 82.295578 
L 74.054017 82.666965 
L 77.109876 83.307591 
L 80.776908 84.354386 
L 86.888628 86.468605 
L 92.389175 88.300659 
L 95.445035 89.120183 
L 98.500895 89.706972 
L 101.556755 90.026671 
L 104.001443 90.07924 
L 106.446131 89.961133 
L 109.50199 89.571787 
L 113.169022 88.801977 
L 117.447226 87.632791 
L 126.614805 84.868459 
L 132.115353 83.546765 
L 135.782385 82.930663 
L 138.838244 82.584553 
L 142.505276 82.405687 
L 144.949964 82.404781 
L 148.616996 82.605693 
L 152.8952 83.147237 
L 157.173403 84.003698 
L 161.451607 85.150628 
L 167.563327 87.160144 
L 173.675046 89.239948 
L 177.342078 90.313397 
L 180.397938 90.988814 
L 182.842626 91.350744 
L 185.287313 91.541527 
L 187.732001 91.541489 
L 190.787861 91.299326 
L 193.843721 90.799203 
L 197.510753 89.969736 
L 198.733097 89.653355 
L 198.733097 89.653355 
" clip-path="url(#p30d72fbe91)" style="fill: none; stroke: #ff0000; stroke-width: 1.5; stroke-linecap: square"/>
   </g>
   <g id="line2d_14">
    <path d="M 46.551278 91.783033 
L 52.051826 92.178647 
L 55.718858 92.61646 
L 72.831673 95.128318 
L 77.721048 95.363509 
L 81.999252 95.287203 
L 86.888628 94.963002 
L 96.056207 94.178061 
L 100.334411 93.992115 
L 104.001443 94.023196 
L 107.668474 94.259116 
L 111.335506 94.711248 
L 115.61371 95.514701 
L 119.891914 96.574995 
L 125.392461 98.206332 
L 133.948869 100.783949 
L 138.227072 101.755712 
L 141.282932 102.211452 
L 143.72762 102.390315 
L 146.172308 102.409213 
L 148.616996 102.253441 
L 151.672856 101.819916 
L 154.728715 101.176464 
L 159.618091 99.882758 
L 165.729811 98.292534 
L 169.396842 97.614341 
L 172.452702 97.306645 
L 174.89739 97.230914 
L 177.95325 97.381591 
L 180.397938 97.643584 
L 184.676141 98.354552 
L 193.232549 99.969075 
L 197.510753 100.484607 
L 198.733097 100.57426 
L 198.733097 100.57426 
" clip-path="url(#p30d72fbe91)" style="fill: none; stroke: #ff0000; stroke-width: 1.5; stroke-linecap: square"/>
   </g>
   <g id="line2d_15">
    <path d="M 46.551278 87.212779 
L 50.21831 87.518822 
L 53.885342 88.121502 
L 56.941202 88.84432 
L 60.608234 89.961834 
L 66.719953 92.298042 
L 75.887533 95.977334 
L 79.554564 97.15717 
L 82.610424 97.88964 
L 85.055112 98.29386 
L 87.4998 98.501594 
L 89.944488 98.493391 
L 92.389175 98.291638 
L 94.833863 97.884178 
L 97.889723 97.114837 
L 100.945583 96.092376 
L 104.612615 94.5996 
L 108.890818 92.623732 
L 125.392461 84.713548 
L 130.893009 82.44763 
L 135.782385 80.732165 
L 139.449416 79.701987 
L 142.505276 79.044698 
L 145.561136 78.609562 
L 148.616996 78.401316 
L 151.672856 78.433696 
L 154.728715 78.690431 
L 158.395747 79.259703 
L 162.062779 80.062775 
L 165.729811 81.049831 
L 171.230358 82.729128 
L 182.842626 86.640476 
L 192.621377 89.903411 
L 197.510753 91.379721 
L 198.733097 91.724201 
L 198.733097 91.724201 
" clip-path="url(#p30d72fbe91)" style="fill: none; stroke: #ff0000; stroke-width: 1.5; stroke-linecap: square"/>
   </g>
   <g id="line2d_16">
    <path d="M 46.551278 76.537271 
L 48.384794 68.150294 
L 53.27417 43.949488 
L 54.496514 39.383066 
L 55.107686 37.571469 
L 55.718858 36.126515 
L 56.33003 35.068548 
L 56.941202 34.42972 
L 57.552374 34.210665 
L 58.163546 34.432066 
L 58.774718 35.08766 
L 59.38589 36.176371 
L 59.997062 37.6746 
L 60.608234 39.57096 
L 61.830577 44.421876 
L 63.052921 50.448949 
L 64.886437 60.952017 
L 68.553469 82.753675 
L 70.386985 91.980297 
L 71.609329 97.043573 
L 72.831673 101.16264 
L 74.054017 104.350667 
L 75.276361 106.672589 
L 76.498704 108.260332 
L 77.721048 109.248287 
L 78.943392 109.75942 
L 80.165736 109.890525 
L 81.38808 109.699676 
L 82.610424 109.162568 
L 83.832768 108.219595 
L 85.055112 106.774332 
L 86.277456 104.711935 
L 87.4998 101.948672 
L 88.722144 98.457229 
L 89.944488 94.251661 
L 91.778003 86.887865 
L 96.667379 66.142448 
L 97.889723 61.926034 
L 99.112067 58.39578 
L 100.334411 55.560015 
L 101.556755 53.376109 
L 102.779099 51.741085 
L 104.001443 50.523273 
L 105.223787 49.622851 
L 107.057303 48.654042 
L 108.890818 48.062015 
L 110.113162 47.908855 
L 111.335506 48.009702 
L 112.55785 48.421971 
L 113.780194 49.177277 
L 115.002538 50.305346 
L 116.224882 51.782528 
L 117.447226 53.568499 
L 119.280742 56.659392 
L 126.003633 68.592259 
L 127.837149 71.065752 
L 129.059493 72.323865 
L 130.281837 73.193114 
L 131.504181 73.611986 
L 132.115353 73.629333 
L 132.726525 73.521059 
L 133.337697 73.290248 
L 134.560041 72.461506 
L 135.782385 71.196808 
L 137.615901 68.759918 
L 139.449416 66.25515 
L 140.67176 64.968711 
L 141.282932 64.539086 
L 141.894104 64.300827 
L 142.505276 64.297817 
L 143.116448 64.529163 
L 143.72762 65.046269 
L 144.338792 65.862281 
L 144.949964 66.989996 
L 145.561136 68.446201 
L 146.78348 72.316671 
L 148.005824 77.408287 
L 149.228168 83.50797 
L 151.672856 97.495507 
L 154.117543 111.149258 
L 155.339887 116.894721 
L 156.562231 121.537354 
L 157.784575 124.926946 
L 158.395747 126.149134 
L 159.006919 127.05002 
L 159.618091 127.661396 
L 160.229263 127.988164 
L 160.840435 128.044672 
L 161.451607 127.862209 
L 162.062779 127.471451 
L 162.673951 126.881393 
L 163.896295 125.209992 
L 165.118639 122.977644 
L 166.340983 120.27056 
L 167.563327 117.112726 
L 168.785671 113.489019 
L 170.008014 109.3441 
L 171.84153 102.05546 
L 173.675046 93.475609 
L 176.119734 80.454064 
L 179.786766 60.446287 
L 181.620282 51.951787 
L 182.842626 47.35195 
L 184.06497 43.798116 
L 184.676141 42.433275 
L 185.287313 41.368278 
L 185.898485 40.596668 
L 186.509657 40.115501 
L 187.120829 39.925176 
L 187.732001 40.011667 
L 188.343173 40.3703 
L 188.954345 40.989495 
L 189.565517 41.857596 
L 190.176689 42.949879 
L 191.399033 45.79443 
L 192.621377 49.388128 
L 193.843721 53.6098 
L 195.677237 60.867636 
L 198.733097 74.302199 
L 198.733097 74.302199 
" clip-path="url(#p30d72fbe91)" style="fill: none; stroke: #0000ff; stroke-width: 1.5; stroke-linecap: square"/>
   </g>
   <g id="line2d_17">
    <path d="M 46.551278 94.999017 
L 47.773622 95.672133 
L 48.995966 95.880099 
L 51.440654 95.907522 
L 52.662998 96.245938 
L 53.27417 96.582026 
L 54.496514 97.699514 
L 55.718858 99.437389 
L 56.941202 101.80735 
L 58.163546 104.700185 
L 60.608234 111.404735 
L 62.441749 116.301053 
L 63.664093 119.022749 
L 64.886437 121.049146 
L 65.497609 121.743802 
L 66.108781 122.194977 
L 66.719953 122.406161 
L 67.331125 122.361467 
L 67.942297 122.04598 
L 68.553469 121.484015 
L 69.164641 120.671328 
L 69.775813 119.621286 
L 70.998157 116.876071 
L 72.220501 113.41941 
L 74.054017 107.4155 
L 76.498704 99.253283 
L 77.721048 95.680289 
L 78.943392 92.741428 
L 80.165736 90.600398 
L 80.776908 89.869016 
L 81.38808 89.367471 
L 81.999252 89.09634 
L 82.610424 89.06246 
L 83.221596 89.258284 
L 83.832768 89.669539 
L 84.44394 90.285506 
L 85.666284 92.076462 
L 86.888628 94.493759 
L 88.110972 97.370163 
L 90.55566 103.881381 
L 93.611519 111.985977 
L 95.445035 116.121264 
L 96.667379 118.374767 
L 97.889723 120.128736 
L 99.112067 121.300803 
L 99.723239 121.681086 
L 100.334411 121.90596 
L 100.945583 121.989155 
L 101.556755 121.947856 
L 102.779099 121.532144 
L 104.612615 120.413418 
L 105.834959 119.683843 
L 107.057303 119.276984 
L 107.668474 119.282853 
L 108.279646 119.462939 
L 108.890818 119.850813 
L 109.50199 120.462648 
L 110.113162 121.308453 
L 110.724334 122.398814 
L 111.946678 125.311973 
L 113.169022 129.109417 
L 115.002538 135.990645 
L 118.058398 147.946985 
L 119.280742 151.916759 
L 120.503086 154.983476 
L 121.114258 156.126848 
L 121.72543 156.988004 
L 122.336602 157.552998 
L 122.947773 157.820899 
L 123.558945 157.800921 
L 124.170117 157.502011 
L 124.781289 156.918185 
L 125.392461 156.067796 
L 126.003633 154.967903 
L 127.225977 152.055744 
L 128.448321 148.330507 
L 129.670665 143.91345 
L 131.504181 136.318963 
L 134.560041 122.159858 
L 138.227072 105.236556 
L 140.060588 97.702506 
L 141.894104 91.10551 
L 143.72762 85.552683 
L 144.949964 82.444988 
L 146.172308 79.803131 
L 147.394652 77.643885 
L 148.616996 76.00656 
L 149.83934 74.945325 
L 150.450512 74.658433 
L 151.061684 74.554 
L 151.672856 74.647764 
L 152.284028 74.96071 
L 152.8952 75.493521 
L 153.506372 76.287001 
L 154.117543 77.342478 
L 154.728715 78.675618 
L 155.951059 82.217409 
L 157.173403 86.992429 
L 158.395747 92.971342 
L 159.618091 100.07451 
L 161.451607 112.422245 
L 166.340983 147.550384 
L 167.563327 154.610322 
L 168.785671 160.187597 
L 169.396842 162.316883 
L 170.008014 163.981456 
L 170.619186 165.141643 
L 171.230358 165.807496 
L 171.84153 165.96 
L 172.452702 165.611865 
L 173.063874 164.764236 
L 173.675046 163.45923 
L 174.286218 161.710569 
L 175.508562 157.033107 
L 176.730906 151.08417 
L 178.564422 140.717709 
L 181.620282 123.190917 
L 182.842626 117.196046 
L 184.06497 112.209341 
L 185.287313 108.346739 
L 186.509657 105.642448 
L 187.120829 104.699822 
L 187.732001 104.008282 
L 188.343173 103.55193 
L 188.954345 103.291792 
L 189.565517 103.208958 
L 190.787861 103.41823 
L 194.454893 104.786081 
L 195.677237 104.833948 
L 196.899581 104.516257 
L 198.121925 103.885362 
L 198.733097 103.480901 
L 198.733097 103.480901 
" clip-path="url(#p30d72fbe91)" style="fill: none; stroke: #0000ff; stroke-width: 1.5; stroke-linecap: square"/>
   </g>
   <g id="line2d_18">
    <path d="M 46.551278 72.147751 
L 47.773622 73.170336 
L 48.995966 74.767098 
L 50.21831 76.99599 
L 51.440654 79.892878 
L 52.662998 83.441606 
L 53.885342 87.631629 
L 55.718858 94.985676 
L 57.552374 103.352614 
L 62.441749 126.370011 
L 63.664093 131.093621 
L 64.886437 134.952658 
L 66.108781 137.79793 
L 66.719953 138.808846 
L 67.331125 139.537967 
L 67.942297 139.986824 
L 68.553469 140.179633 
L 69.164641 140.092535 
L 69.775813 139.776839 
L 70.386985 139.231725 
L 70.998157 138.479364 
L 72.220501 136.434456 
L 73.442845 133.819697 
L 75.276361 129.121973 
L 77.109876 123.782584 
L 79.554564 115.949251 
L 83.832768 101.085637 
L 86.277456 92.877374 
L 88.722144 85.553994 
L 95.445035 66.834447 
L 99.723239 53.50036 
L 100.945583 50.491669 
L 101.556755 49.295851 
L 102.167927 48.353643 
L 102.779099 47.690389 
L 103.390271 47.32231 
L 104.001443 47.254089 
L 104.612615 47.502308 
L 105.223787 48.057763 
L 105.834959 48.89699 
L 107.057303 51.330761 
L 108.279646 54.501466 
L 110.724334 61.317805 
L 111.946678 63.994851 
L 112.55785 64.947704 
L 113.169022 65.578776 
L 113.780194 65.850665 
L 114.391366 65.73291 
L 115.002538 65.20097 
L 115.61371 64.247366 
L 116.224882 62.875146 
L 116.836054 61.099875 
L 118.058398 56.41079 
L 119.280742 50.484657 
L 121.72543 36.713624 
L 123.558945 26.789218 
L 124.781289 21.355283 
L 126.003633 17.377852 
L 126.614805 16.032477 
L 127.225977 15.153054 
L 127.837149 14.76 
L 128.448321 14.858574 
L 129.059493 15.448095 
L 129.670665 16.515175 
L 130.281837 18.04069 
L 130.893009 19.996286 
L 132.115353 25.07933 
L 133.337697 31.400347 
L 135.171213 42.357142 
L 138.227072 60.88745 
L 139.449416 67.311372 
L 140.67176 72.790211 
L 141.894104 77.219233 
L 143.116448 80.592485 
L 144.338792 83.015284 
L 145.561136 84.658395 
L 146.78348 85.697103 
L 148.005824 86.321392 
L 149.228168 86.660468 
L 150.450512 86.800388 
L 151.672856 86.739998 
L 152.8952 86.440379 
L 154.117543 85.819234 
L 155.339887 84.823523 
L 156.562231 83.406988 
L 157.784575 81.607785 
L 159.618091 78.423122 
L 161.451607 75.233839 
L 162.673951 73.514342 
L 163.285123 72.889728 
L 163.896295 72.456489 
L 164.507467 72.245188 
L 165.118639 72.28241 
L 165.729811 72.599055 
L 166.340983 73.203441 
L 166.952155 74.112204 
L 167.563327 75.337147 
L 168.174499 76.873675 
L 169.396842 80.849311 
L 170.619186 85.955468 
L 172.452702 95.157236 
L 176.119734 114.661955 
L 177.342078 119.92742 
L 178.564422 123.923559 
L 179.175594 125.366765 
L 179.786766 126.395554 
L 180.397938 127.005988 
L 181.00911 127.191355 
L 181.620282 126.956162 
L 182.231454 126.334744 
L 182.842626 125.34108 
L 183.453798 124.015588 
L 184.676141 120.514795 
L 186.509657 113.985736 
L 188.343173 107.315246 
L 189.565517 103.49868 
L 190.787861 100.540633 
L 191.399033 99.446587 
L 192.010205 98.621633 
L 192.621377 98.063124 
L 193.232549 97.769412 
L 193.843721 97.711685 
L 194.454893 97.875364 
L 195.066065 98.232946 
L 196.288409 99.362522 
L 198.733097 102.40293 
L 198.733097 102.40293 
" clip-path="url(#p30d72fbe91)" style="fill: none; stroke: #0000ff; stroke-width: 1.5; stroke-linecap: square"/>
   </g>
   <g id="patch_3">
    <path d="M 28.942188 173.52 
L 28.942188 7.2 
" style="fill: none; stroke: #000000; stroke-width: 0.8; stroke-linejoin: miter; stroke-linecap: square"/>
   </g>
   <g id="patch_4">
    <path d="M 38.942188 183.52 
L 206.342187 183.52 
" style="fill: none; stroke: #000000; stroke-width: 0.8; stroke-linejoin: miter; stroke-linecap: square"/>
   </g>
  </g>
 </g>
 <defs>
  <clipPath id="p30d72fbe91">
   <rect x="38.942188" y="7.2" width="167.4" height="166.32"/>
  </clipPath>
 </defs>
</svg>
