<?xml version="1.0" encoding="utf-8" standalone="no"?>
<!DOCTYPE svg PUBLIC "-//W3C//DTD SVG 1.1//EN"
  "http://www.w3.org/Graphics/SVG/1.1/DTD/svg11.dtd">
<svg xmlns:xlink="http://www.w3.org/1999/xlink" width="384.69827pt" height="210.996563pt" viewBox="0 0 384.69827 210.996563" xmlns="http://www.w3.org/2000/svg" version="1.1">
 <metadata>
  <rdf:RDF xmlns:dc="http://purl.org/dc/elements/1.1/" xmlns:cc="http://creativecommons.org/ns#" xmlns:rdf="http://www.w3.org/1999/02/22-rdf-syntax-ns#">
   <cc:Work>
    <dc:type rdf:resource="http://purl.org/dc/dcmitype/StillImage"/>
    <dc:date>2025-09-08T15:01:09.511312</dc:date>
    <dc:format>image/svg+xml</dc:format>
    <dc:creator>
     <cc:Agent>
      <dc:title>Matplotlib v3.10.3, https://matplotlib.org/</dc:title>
     </cc:Agent>
    </dc:creator>
   </cc:Work>
  </rdf:RDF>
 </metadata>
 <defs>
  <style type="text/css">*{stroke-linejoin: round; stroke-linecap: butt}</style>
 </defs>
 <g id="figure_1">
  <g id="patch_1">
   <path d="M -0 210.996563 
L 384.69827 210.996563 
L 384.69827 0 
L -0 0 
z
" style="fill: #ffffff"/>
  </g>
  <g id="axes_1">
   <g id="patch_2">
    <path d="M 38.482813 187.118437 
L 190.664631 187.118437 
L 190.664631 20.798438 
L 38.482813 20.798438 
z
" style="fill: #ffffff"/>
   </g>
   <g id="FillBetweenPolyCollection_1">
    <defs>
     <path id="m0fd7a1e773" d="M 45.400168 -88.02657 
L 45.400168 -71.205971 
L 45.955779 -73.085236 
L 46.51139 -74.942161 
L 47.067 -76.770298 
L 47.622611 -78.563496 
L 48.178222 -80.316134 
L 48.733833 -82.023427 
L 49.289444 -83.68177 
L 49.845055 -85.289064 
L 50.400666 -86.844913 
L 50.956277 -88.350602 
L 51.511887 -89.808799 
L 52.067498 -91.223035 
L 52.623109 -92.597083 
L 53.17872 -93.934386 
L 53.734331 -95.237645 
L 54.289942 -96.508603 
L 54.845553 -97.748003 
L 55.401164 -98.955672 
L 55.956774 -100.130679 
L 56.512385 -101.271518 
L 57.067996 -102.376296 
L 57.623607 -103.442896 
L 58.179218 -104.469124 
L 58.734829 -105.452808 
L 59.29044 -106.391884 
L 59.846051 -107.28443 
L 60.401661 -108.128688 
L 60.957272 -108.923052 
L 61.512883 -109.666038 
L 62.068494 -110.356243 
L 62.624105 -110.992294 
L 63.179716 -111.572791 
L 63.735327 -112.09626 
L 64.290938 -112.561108 
L 64.846548 -112.965593 
L 65.402159 -113.307815 
L 65.95777 -113.585719 
L 66.513381 -113.797137 
L 67.068992 -113.939846 
L 67.624603 -114.01166 
L 68.180214 -114.010542 
L 68.735825 -113.934737 
L 69.291435 -113.782903 
L 69.847046 -113.554236 
L 70.402657 -113.248563 
L 70.958268 -112.866399 
L 71.513879 -112.408957 
L 72.06949 -111.878109 
L 72.625101 -111.276314 
L 73.180712 -110.606522 
L 73.736322 -109.872063 
L 74.291933 -109.076532 
L 74.847544 -108.223691 
L 75.403155 -107.317372 
L 75.958766 -106.361399 
L 76.514377 -105.359521 
L 77.069988 -104.315356 
L 77.625599 -103.232351 
L 78.181209 -102.113739 
L 78.73682 -100.962515 
L 79.292431 -99.781406 
L 79.848042 -98.572858 
L 80.403653 -97.339017 
L 80.959264 -96.081716 
L 81.514875 -94.802474 
L 82.070486 -93.502489 
L 82.626096 -92.182643 
L 83.181707 -90.843517 
L 83.737318 -89.485411 
L 84.292929 -88.10838 
L 84.84854 -86.712291 
L 85.404151 -85.296897 
L 85.959762 -83.86194 
L 86.515372 -82.407277 
L 87.070983 -80.933026 
L 87.626594 -79.439717 
L 88.182205 -77.928434 
L 88.737816 -76.400921 
L 89.293427 -74.859628 
L 89.849038 -73.307697 
L 90.404649 -71.748878 
L 90.960259 -70.187393 
L 91.51587 -68.627777 
L 92.071481 -67.074719 
L 92.627092 -65.532916 
L 93.182703 -64.00696 
L 93.738314 -62.501255 
L 94.293925 -61.019968 
L 94.849536 -59.567006 
L 95.405146 -58.146012 
L 95.960757 -56.760373 
L 96.516368 -55.413243 
L 97.071979 -54.107565 
L 97.62759 -52.846099 
L 98.183201 -51.631452 
L 98.738812 -50.466098 
L 99.294423 -49.352406 
L 99.850033 -48.29266 
L 100.405644 -47.289068 
L 100.961255 -46.343783 
L 101.516866 -45.4589 
L 102.072477 -44.636464 
L 102.628088 -43.878461 
L 103.183699 -43.186814 
L 103.73931 -42.563366 
L 104.29492 -42.009864 
L 104.850531 -41.527938 
L 105.406142 -41.119083 
L 105.961753 -40.784623 
L 106.517364 -40.525698 
L 107.072975 -40.343231 
L 107.628586 -40.23791 
L 108.184197 -40.210162 
L 108.739807 -40.260148 
L 109.295418 -40.387744 
L 109.851029 -40.592545 
L 110.40664 -40.873868 
L 110.962251 -41.230774 
L 111.517862 -41.662087 
L 112.073473 -42.166437 
L 112.629084 -42.742306 
L 113.184694 -43.388084 
L 113.740305 -44.10213 
L 114.295916 -44.882841 
L 114.851527 -45.728711 
L 115.407138 -46.63839 
L 115.962749 -47.610727 
L 116.51836 -48.644796 
L 117.073971 -49.739906 
L 117.629581 -50.895583 
L 118.185192 -52.111543 
L 118.740803 -53.387638 
L 119.296414 -54.723796 
L 119.852025 -56.119953 
L 120.407636 -57.575979 
L 120.963247 -59.091604 
L 121.518858 -60.666356 
L 122.074468 -62.299496 
L 122.630079 -63.989966 
L 123.18569 -65.736355 
L 123.741301 -67.536863 
L 124.296912 -69.389295 
L 124.852523 -71.291062 
L 125.408134 -73.239205 
L 125.963744 -75.230439 
L 126.519355 -77.261214 
L 127.074966 -79.327798 
L 127.630577 -81.426371 
L 128.186188 -83.553124 
L 128.741799 -85.704357 
L 129.29741 -87.876554 
L 129.853021 -90.066444 
L 130.408631 -92.271018 
L 130.964242 -94.487516 
L 131.519853 -96.713391 
L 132.075464 -98.946236 
L 132.631075 -101.183713 
L 133.186686 -103.423466 
L 133.742297 -105.663052 
L 134.297908 -107.899877 
L 134.853518 -110.131151 
L 135.409129 -112.353859 
L 135.96474 -114.564751 
L 136.520351 -116.760348 
L 137.075962 -118.936955 
L 137.631573 -121.090698 
L 138.187184 -123.217559 
L 138.742795 -125.313428 
L 139.298405 -127.374152 
L 139.854016 -129.395599 
L 140.409627 -131.373713 
L 140.965238 -133.304586 
L 141.520849 -135.184515 
L 142.07646 -137.010067 
L 142.632071 -138.778143 
L 143.187682 -140.486031 
L 143.743292 -142.131458 
L 144.298903 -143.712629 
L 144.854514 -145.228261 
L 145.410125 -146.677595 
L 145.965736 -148.0604 
L 146.521347 -149.376951 
L 147.076958 -150.627995 
L 147.632569 -151.814695 
L 148.188179 -152.938566 
L 148.74379 -154.001385 
L 149.299401 -155.005113 
L 149.855012 -155.951801 
L 150.410623 -156.843508 
L 150.966234 -157.682224 
L 151.521845 -158.469805 
L 152.077456 -159.207926 
L 152.633066 -159.898044 
L 153.188677 -160.54138 
L 153.744288 -161.138907 
L 154.299899 -161.691356 
L 154.85551 -162.19922 
L 155.411121 -162.662767 
L 155.966732 -163.082055 
L 156.522343 -163.456937 
L 157.077953 -163.787076 
L 157.633564 -164.071944 
L 158.189175 -164.310834 
L 158.744786 -164.502858 
L 159.300397 -164.646957 
L 159.856008 -164.741904 
L 160.411619 -164.786325 
L 160.96723 -164.778712 
L 161.52284 -164.717455 
L 162.078451 -164.600875 
L 162.634062 -164.427267 
L 163.189673 -164.194952 
L 163.745284 -163.902333 
L 164.300895 -163.547963 
L 164.856506 -163.130603 
L 165.412116 -162.649301 
L 165.967727 -162.103453 
L 166.523338 -161.492867 
L 167.078949 -160.817816 
L 167.63456 -160.079084 
L 168.190171 -159.277985 
L 168.745782 -158.416374 
L 169.301393 -157.496626 
L 169.857003 -156.521596 
L 170.412614 -155.494546 
L 170.968225 -154.41905 
L 171.523836 -153.29886 
L 172.079447 -152.137751 
L 172.635058 -150.939325 
L 173.190669 -149.706782 
L 173.74628 -148.442658 
L 174.30189 -147.148521 
L 174.857501 -145.824655 
L 175.413112 -144.469738 
L 175.968723 -143.080586 
L 176.524334 -141.652045 
L 177.079945 -140.177177 
L 177.635556 -138.64785 
L 178.191167 -137.055771 
L 178.746777 -135.393804 
L 179.302388 -133.65719 
L 179.857999 -131.844273 
L 180.41361 -129.956514 
L 180.969221 -127.997931 
L 181.524832 -125.974254 
L 182.080443 -123.892122 
L 182.636054 -121.758473 
L 183.191664 -119.58016 
L 183.747275 -117.363746 
L 183.747275 -136.797274 
L 183.747275 -136.797274 
L 183.191664 -137.379355 
L 182.636054 -138.029288 
L 182.080443 -138.751834 
L 181.524832 -139.551532 
L 180.969221 -140.432471 
L 180.41361 -141.39789 
L 179.857999 -142.449554 
L 179.302388 -143.586953 
L 178.746777 -144.806473 
L 178.191167 -146.100843 
L 177.635556 -147.459185 
L 177.079945 -148.867776 
L 176.524334 -150.311315 
L 175.968723 -151.774294 
L 175.413112 -153.242097 
L 174.857501 -154.701661 
L 174.30189 -156.141736 
L 173.74628 -157.55286 
L 173.190669 -158.927189 
L 172.635058 -160.258264 
L 172.079447 -161.54078 
L 171.523836 -162.770371 
L 170.968225 -163.943433 
L 170.412614 -165.05698 
L 169.857003 -166.108519 
L 169.301393 -167.095965 
L 168.745782 -168.01757 
L 168.190171 -168.871876 
L 167.63456 -169.657684 
L 167.078949 -170.374041 
L 166.523338 -171.02024 
L 165.967727 -171.595825 
L 165.412116 -172.100611 
L 164.856506 -172.534702 
L 164.300895 -172.898509 
L 163.745284 -173.192766 
L 163.189673 -173.418538 
L 162.634062 -173.577225 
L 162.078451 -173.670542 
L 161.52284 -173.700507 
L 160.96723 -173.6694 
L 160.411619 -173.579723 
L 159.856008 -173.434139 
L 159.300397 -173.235414 
L 158.744786 -172.986346 
L 158.189175 -172.689689 
L 157.633564 -172.348078 
L 157.077953 -171.963962 
L 156.522343 -171.539529 
L 155.966732 -171.076654 
L 155.411121 -170.576851 
L 154.85551 -170.04124 
L 154.299899 -169.470532 
L 153.744288 -168.865028 
L 153.188677 -168.224639 
L 152.633066 -167.548909 
L 152.077456 -166.837059 
L 151.521845 -166.088033 
L 150.966234 -165.300546 
L 150.410623 -164.47313 
L 149.855012 -163.604183 
L 149.299401 -162.691999 
L 148.74379 -161.734802 
L 148.188179 -160.730766 
L 147.632569 -159.67803 
L 147.076958 -158.574714 
L 146.521347 -157.418925 
L 145.965736 -156.208781 
L 145.410125 -154.942426 
L 144.854514 -153.618065 
L 144.298903 -152.234004 
L 143.743292 -150.788695 
L 143.187682 -149.280795 
L 142.632071 -147.709221 
L 142.07646 -146.073216 
L 141.520849 -144.372404 
L 140.965238 -142.606846 
L 140.409627 -140.777087 
L 139.854016 -138.884196 
L 139.298405 -136.929795 
L 138.742795 -134.916077 
L 138.187184 -132.845815 
L 137.631573 -130.722361 
L 137.075962 -128.54963 
L 136.520351 -126.332078 
L 135.96474 -124.074665 
L 135.409129 -121.782817 
L 134.853518 -119.46236 
L 134.297908 -117.119462 
L 133.742297 -114.760548 
L 133.186686 -112.392216 
L 132.631075 -110.021125 
L 132.075464 -107.653889 
L 131.519853 -105.29695 
L 130.964242 -102.956452 
L 130.408631 -100.638113 
L 129.853021 -98.347114 
L 129.29741 -96.088006 
L 128.741799 -93.86465 
L 128.186188 -91.680196 
L 127.630577 -89.537105 
L 127.074966 -87.437213 
L 126.519355 -85.381823 
L 125.963744 -83.371824 
L 125.408134 -81.407818 
L 124.852523 -79.490244 
L 124.296912 -77.619494 
L 123.741301 -75.796014 
L 123.18569 -74.020383 
L 122.630079 -72.293373 
L 122.074468 -70.615991 
L 121.518858 -68.989499 
L 120.963247 -67.415417 
L 120.407636 -65.89551 
L 119.852025 -64.431761 
L 119.296414 -63.026328 
L 118.740803 -61.681486 
L 118.185192 -60.399566 
L 117.629581 -59.182886 
L 117.073971 -58.033674 
L 116.51836 -56.954001 
L 115.962749 -55.945721 
L 115.407138 -55.010416 
L 114.851527 -54.149368 
L 114.295916 -53.36354 
L 113.740305 -52.653578 
L 113.184694 -52.01983 
L 112.629084 -51.46237 
L 112.073473 -50.98104 
L 111.517862 -50.575485 
L 110.962251 -50.245188 
L 110.40664 -49.989509 
L 109.851029 -49.807709 
L 109.295418 -49.698968 
L 108.739807 -49.662401 
L 108.184197 -49.697065 
L 107.628586 -49.801957 
L 107.072975 -49.976013 
L 106.517364 -50.218099 
L 105.961753 -50.527005 
L 105.406142 -50.901434 
L 104.850531 -51.339992 
L 104.29492 -51.841181 
L 103.73931 -52.403396 
L 103.183699 -53.024914 
L 102.628088 -53.703905 
L 102.072477 -54.438426 
L 101.516866 -55.226434 
L 100.961255 -56.065797 
L 100.405644 -56.954311 
L 99.850033 -57.889717 
L 99.294423 -58.869726 
L 98.738812 -59.892044 
L 98.183201 -60.954404 
L 97.62759 -62.054594 
L 97.071979 -63.190489 
L 96.516368 -64.360087 
L 95.960757 -65.56154 
L 95.405146 -66.793184 
L 94.849536 -68.05357 
L 94.293925 -69.341487 
L 93.738314 -70.655975 
L 93.182703 -71.996334 
L 92.627092 -73.36211 
L 92.071481 -74.753062 
L 91.51587 -76.169106 
L 90.960259 -77.610219 
L 90.404649 -79.076319 
L 89.849038 -80.567109 
L 89.293427 -82.081909 
L 88.737816 -83.619486 
L 88.182205 -85.177918 
L 87.626594 -86.754506 
L 87.070983 -88.345754 
L 86.515372 -89.94742 
L 85.959762 -91.554625 
L 85.404151 -93.162003 
L 84.84854 -94.763858 
L 84.292929 -96.354326 
L 83.737318 -97.927513 
L 83.181707 -99.477616 
L 82.626096 -100.999019 
L 82.070486 -102.486365 
L 81.514875 -103.934621 
L 80.959264 -105.339121 
L 80.403653 -106.695603 
L 79.848042 -108.00024 
L 79.292431 -109.24966 
L 78.73682 -110.440967 
L 78.181209 -111.571752 
L 77.625599 -112.640099 
L 77.069988 -113.644587 
L 76.514377 -114.584284 
L 75.958766 -115.458732 
L 75.403155 -116.267927 
L 74.847544 -117.012283 
L 74.291933 -117.692585 
L 73.736322 -118.309929 
L 73.180712 -118.865644 
L 72.625101 -119.361201 
L 72.06949 -119.798106 
L 71.513879 -120.177783 
L 70.958268 -120.501459 
L 70.402657 -120.770058 
L 69.847046 -120.984117 
L 69.291435 -121.143744 
L 68.735825 -121.248612 
L 68.180214 -121.298009 
L 67.624603 -121.290918 
L 67.068992 -121.226138 
L 66.513381 -121.102401 
L 65.95777 -120.918502 
L 65.402159 -120.673408 
L 64.846548 -120.366341 
L 64.290938 -119.996843 
L 63.735327 -119.564807 
L 63.179716 -119.070498 
L 62.624105 -118.514535 
L 62.068494 -117.897876 
L 61.512883 -117.221779 
L 60.957272 -116.48776 
L 60.401661 -115.697552 
L 59.846051 -114.853064 
L 59.29044 -113.956345 
L 58.734829 -113.00957 
L 58.179218 -112.015035 
L 57.623607 -110.975185 
L 57.067996 -109.892659 
L 56.512385 -108.770373 
L 55.956774 -107.611627 
L 55.401164 -106.420243 
L 54.845553 -105.200727 
L 54.289942 -103.958443 
L 53.734331 -102.69979 
L 53.17872 -101.432334 
L 52.623109 -100.164875 
L 52.067498 -98.907377 
L 51.511887 -97.670723 
L 50.956277 -96.466271 
L 50.400666 -95.305243 
L 49.845055 -94.198064 
L 49.289444 -93.153798 
L 48.733833 -92.179805 
L 48.178222 -91.281676 
L 47.622611 -90.463375 
L 47.067 -89.727523 
L 46.51139 -89.075687 
L 45.955779 -88.508646 
L 45.400168 -88.02657 
z
" style="stroke: #6495ed"/>
    </defs>
    <g clip-path="url(#p962bc8027a)">
     <use xlink:href="#m0fd7a1e773" x="0" y="210.996563" style="fill: #6495ed; stroke: #6495ed"/>
    </g>
   </g>
   <g id="matplotlib.axis_1">
    <g id="xtick_1">
     <g id="line2d_1">
      <defs>
       <path id="m994bebf227" d="M 0 0 
L 0 3.5 
" style="stroke: #000000; stroke-width: 0.8"/>
      </defs>
      <g>
       <use xlink:href="#m994bebf227" x="45.400168" y="187.118437" style="stroke: #000000; stroke-width: 0.8"/>
      </g>
     </g>
     <g id="text_1">
      <!-- 0.0 -->
      <g transform="translate(37.448605 201.716875) scale(0.1 -0.1)">
       <defs>
        <path id="DejaVuSans-30" d="M 2034 4250 
Q 1547 4250 1301 3770 
Q 1056 3291 1056 2328 
Q 1056 1369 1301 889 
Q 1547 409 2034 409 
Q 2525 409 2770 889 
Q 3016 1369 3016 2328 
Q 3016 3291 2770 3770 
Q 2525 4250 2034 4250 
z
M 2034 4750 
Q 2819 4750 3233 4129 
Q 3647 3509 3647 2328 
Q 3647 1150 3233 529 
Q 2819 -91 2034 -91 
Q 1250 -91 836 529 
Q 422 1150 422 2328 
Q 422 3509 836 4129 
Q 1250 4750 2034 4750 
z
" transform="scale(0.015625)"/>
        <path id="DejaVuSans-2e" d="M 684 794 
L 1344 794 
L 1344 0 
L 684 0 
L 684 794 
z
" transform="scale(0.015625)"/>
       </defs>
       <use xlink:href="#DejaVuSans-30"/>
       <use xlink:href="#DejaVuSans-2e" transform="translate(63.623047 0)"/>
       <use xlink:href="#DejaVuSans-30" transform="translate(95.410156 0)"/>
      </g>
     </g>
    </g>
    <g id="xtick_2">
     <g id="line2d_2">
      <g>
       <use xlink:href="#m994bebf227" x="79.986945" y="187.118437" style="stroke: #000000; stroke-width: 0.8"/>
      </g>
     </g>
     <g id="text_2">
      <!-- 2.5 -->
      <g transform="translate(72.035382 201.716875) scale(0.1 -0.1)">
       <defs>
        <path id="DejaVuSans-32" d="M 1228 531 
L 3431 531 
L 3431 0 
L 469 0 
L 469 531 
Q 828 903 1448 1529 
Q 2069 2156 2228 2338 
Q 2531 2678 2651 2914 
Q 2772 3150 2772 3378 
Q 2772 3750 2511 3984 
Q 2250 4219 1831 4219 
Q 1534 4219 1204 4116 
Q 875 4013 500 3803 
L 500 4441 
Q 881 4594 1212 4672 
Q 1544 4750 1819 4750 
Q 2544 4750 2975 4387 
Q 3406 4025 3406 3419 
Q 3406 3131 3298 2873 
Q 3191 2616 2906 2266 
Q 2828 2175 2409 1742 
Q 1991 1309 1228 531 
z
" transform="scale(0.015625)"/>
        <path id="DejaVuSans-35" d="M 691 4666 
L 3169 4666 
L 3169 4134 
L 1269 4134 
L 1269 2991 
Q 1406 3038 1543 3061 
Q 1681 3084 1819 3084 
Q 2600 3084 3056 2656 
Q 3513 2228 3513 1497 
Q 3513 744 3044 326 
Q 2575 -91 1722 -91 
Q 1428 -91 1123 -41 
Q 819 9 494 109 
L 494 744 
Q 775 591 1075 516 
Q 1375 441 1709 441 
Q 2250 441 2565 725 
Q 2881 1009 2881 1497 
Q 2881 1984 2565 2268 
Q 2250 2553 1709 2553 
Q 1456 2553 1204 2497 
Q 953 2441 691 2322 
L 691 4666 
z
" transform="scale(0.015625)"/>
       </defs>
       <use xlink:href="#DejaVuSans-32"/>
       <use xlink:href="#DejaVuSans-2e" transform="translate(63.623047 0)"/>
       <use xlink:href="#DejaVuSans-35" transform="translate(95.410156 0)"/>
      </g>
     </g>
    </g>
    <g id="xtick_3">
     <g id="line2d_3">
      <g>
       <use xlink:href="#m994bebf227" x="114.573722" y="187.118437" style="stroke: #000000; stroke-width: 0.8"/>
      </g>
     </g>
     <g id="text_3">
      <!-- 5.0 -->
      <g transform="translate(106.622159 201.716875) scale(0.1 -0.1)">
       <use xlink:href="#DejaVuSans-35"/>
       <use xlink:href="#DejaVuSans-2e" transform="translate(63.623047 0)"/>
       <use xlink:href="#DejaVuSans-30" transform="translate(95.410156 0)"/>
      </g>
     </g>
    </g>
    <g id="xtick_4">
     <g id="line2d_4">
      <g>
       <use xlink:href="#m994bebf227" x="149.160498" y="187.118437" style="stroke: #000000; stroke-width: 0.8"/>
      </g>
     </g>
     <g id="text_4">
      <!-- 7.5 -->
      <g transform="translate(141.208936 201.716875) scale(0.1 -0.1)">
       <defs>
        <path id="DejaVuSans-37" d="M 525 4666 
L 3525 4666 
L 3525 4397 
L 1831 0 
L 1172 0 
L 2766 4134 
L 525 4134 
L 525 4666 
z
" transform="scale(0.015625)"/>
       </defs>
       <use xlink:href="#DejaVuSans-37"/>
       <use xlink:href="#DejaVuSans-2e" transform="translate(63.623047 0)"/>
       <use xlink:href="#DejaVuSans-35" transform="translate(95.410156 0)"/>
      </g>
     </g>
    </g>
    <g id="xtick_5">
     <g id="line2d_5">
      <g>
       <use xlink:href="#m994bebf227" x="183.747275" y="187.118437" style="stroke: #000000; stroke-width: 0.8"/>
      </g>
     </g>
     <g id="text_5">
      <!-- 10.0 -->
      <g transform="translate(172.614463 201.716875) scale(0.1 -0.1)">
       <defs>
        <path id="DejaVuSans-31" d="M 794 531 
L 1825 531 
L 1825 4091 
L 703 3866 
L 703 4441 
L 1819 4666 
L 2450 4666 
L 2450 531 
L 3481 531 
L 3481 0 
L 794 0 
L 794 531 
z
" transform="scale(0.015625)"/>
       </defs>
       <use xlink:href="#DejaVuSans-31"/>
       <use xlink:href="#DejaVuSans-30" transform="translate(63.623047 0)"/>
       <use xlink:href="#DejaVuSans-2e" transform="translate(127.246094 0)"/>
       <use xlink:href="#DejaVuSans-30" transform="translate(159.033203 0)"/>
      </g>
     </g>
    </g>
   </g>
   <g id="matplotlib.axis_2">
    <g id="ytick_1">
     <g id="line2d_6">
      <defs>
       <path id="md36e05076c" d="M 0 0 
L -3.5 0 
" style="stroke: #000000; stroke-width: 0.8"/>
      </defs>
      <g>
       <use xlink:href="#md36e05076c" x="38.482813" y="181.465128" style="stroke: #000000; stroke-width: 0.8"/>
      </g>
     </g>
     <g id="text_6">
      <!-- −1.0 -->
      <g transform="translate(7.2 185.264347) scale(0.1 -0.1)">
       <defs>
        <path id="DejaVuSans-2212" d="M 678 2272 
L 4684 2272 
L 4684 1741 
L 678 1741 
L 678 2272 
z
" transform="scale(0.015625)"/>
       </defs>
       <use xlink:href="#DejaVuSans-2212"/>
       <use xlink:href="#DejaVuSans-31" transform="translate(83.789062 0)"/>
       <use xlink:href="#DejaVuSans-2e" transform="translate(147.412109 0)"/>
       <use xlink:href="#DejaVuSans-30" transform="translate(179.199219 0)"/>
      </g>
     </g>
    </g>
    <g id="ytick_2">
     <g id="line2d_7">
      <g>
       <use xlink:href="#md36e05076c" x="38.482813" y="160.372205" style="stroke: #000000; stroke-width: 0.8"/>
      </g>
     </g>
     <g id="text_7">
      <!-- −0.5 -->
      <g transform="translate(7.2 164.171424) scale(0.1 -0.1)">
       <use xlink:href="#DejaVuSans-2212"/>
       <use xlink:href="#DejaVuSans-30" transform="translate(83.789062 0)"/>
       <use xlink:href="#DejaVuSans-2e" transform="translate(147.412109 0)"/>
       <use xlink:href="#DejaVuSans-35" transform="translate(179.199219 0)"/>
      </g>
     </g>
    </g>
    <g id="ytick_3">
     <g id="line2d_8">
      <g>
       <use xlink:href="#md36e05076c" x="38.482813" y="139.279282" style="stroke: #000000; stroke-width: 0.8"/>
      </g>
     </g>
     <g id="text_8">
      <!-- 0.0 -->
      <g transform="translate(15.579688 143.078501) scale(0.1 -0.1)">
       <use xlink:href="#DejaVuSans-30"/>
       <use xlink:href="#DejaVuSans-2e" transform="translate(63.623047 0)"/>
       <use xlink:href="#DejaVuSans-30" transform="translate(95.410156 0)"/>
      </g>
     </g>
    </g>
    <g id="ytick_4">
     <g id="line2d_9">
      <g>
       <use xlink:href="#md36e05076c" x="38.482813" y="118.186359" style="stroke: #000000; stroke-width: 0.8"/>
      </g>
     </g>
     <g id="text_9">
      <!-- 0.5 -->
      <g transform="translate(15.579688 121.985578) scale(0.1 -0.1)">
       <use xlink:href="#DejaVuSans-30"/>
       <use xlink:href="#DejaVuSans-2e" transform="translate(63.623047 0)"/>
       <use xlink:href="#DejaVuSans-35" transform="translate(95.410156 0)"/>
      </g>
     </g>
    </g>
    <g id="ytick_5">
     <g id="line2d_10">
      <g>
       <use xlink:href="#md36e05076c" x="38.482813" y="97.093436" style="stroke: #000000; stroke-width: 0.8"/>
      </g>
     </g>
     <g id="text_10">
      <!-- 1.0 -->
      <g transform="translate(15.579688 100.892655) scale(0.1 -0.1)">
       <use xlink:href="#DejaVuSans-31"/>
       <use xlink:href="#DejaVuSans-2e" transform="translate(63.623047 0)"/>
       <use xlink:href="#DejaVuSans-30" transform="translate(95.410156 0)"/>
      </g>
     </g>
    </g>
    <g id="ytick_6">
     <g id="line2d_11">
      <g>
       <use xlink:href="#md36e05076c" x="38.482813" y="76.000513" style="stroke: #000000; stroke-width: 0.8"/>
      </g>
     </g>
     <g id="text_11">
      <!-- 1.5 -->
      <g transform="translate(15.579688 79.799732) scale(0.1 -0.1)">
       <use xlink:href="#DejaVuSans-31"/>
       <use xlink:href="#DejaVuSans-2e" transform="translate(63.623047 0)"/>
       <use xlink:href="#DejaVuSans-35" transform="translate(95.410156 0)"/>
      </g>
     </g>
    </g>
    <g id="ytick_7">
     <g id="line2d_12">
      <g>
       <use xlink:href="#md36e05076c" x="38.482813" y="54.90759" style="stroke: #000000; stroke-width: 0.8"/>
      </g>
     </g>
     <g id="text_12">
      <!-- 2.0 -->
      <g transform="translate(15.579688 58.706809) scale(0.1 -0.1)">
       <use xlink:href="#DejaVuSans-32"/>
       <use xlink:href="#DejaVuSans-2e" transform="translate(63.623047 0)"/>
       <use xlink:href="#DejaVuSans-30" transform="translate(95.410156 0)"/>
      </g>
     </g>
    </g>
    <g id="ytick_8">
     <g id="line2d_13">
      <g>
       <use xlink:href="#md36e05076c" x="38.482813" y="33.814667" style="stroke: #000000; stroke-width: 0.8"/>
      </g>
     </g>
     <g id="text_13">
      <!-- 2.5 -->
      <g transform="translate(15.579688 37.613886) scale(0.1 -0.1)">
       <use xlink:href="#DejaVuSans-32"/>
       <use xlink:href="#DejaVuSans-2e" transform="translate(63.623047 0)"/>
       <use xlink:href="#DejaVuSans-35" transform="translate(95.410156 0)"/>
      </g>
     </g>
    </g>
   </g>
   <g id="line2d_14">
    <defs>
     <path id="m554acf19e2" d="M 0 2 
C 0.530406 2 1.03916 1.789267 1.414214 1.414214 
C 1.789267 1.03916 2 0.530406 2 0 
C 2 -0.530406 1.789267 -1.03916 1.414214 -1.414214 
C 1.03916 -1.789267 0.530406 -2 0 -2 
C -0.530406 -2 -1.03916 -1.789267 -1.414214 -1.414214 
C -1.789267 -1.03916 -2 -0.530406 -2 0 
C -2 0.530406 -1.789267 1.03916 -1.414214 1.414214 
C -1.03916 1.789267 -0.530406 2 0 2 
z
" style="stroke: #000000; stroke-opacity: 0.5"/>
    </defs>
    <g clip-path="url(#p962bc8027a)">
     <use xlink:href="#m554acf19e2" x="97.21671" y="150.419971" style="fill-opacity: 0.5; stroke: #000000; stroke-opacity: 0.5"/>
     <use xlink:href="#m554acf19e2" x="176.928742" y="67.456443" style="fill-opacity: 0.5; stroke: #000000; stroke-opacity: 0.5"/>
     <use xlink:href="#m554acf19e2" x="146.669412" y="56.063104" style="fill-opacity: 0.5; stroke: #000000; stroke-opacity: 0.5"/>
     <use xlink:href="#m554acf19e2" x="128.222838" y="137.523186" style="fill-opacity: 0.5; stroke: #000000; stroke-opacity: 0.5"/>
     <use xlink:href="#m554acf19e2" x="66.984895" y="96.853546" style="fill-opacity: 0.5; stroke: #000000; stroke-opacity: 0.5"/>
     <use xlink:href="#m554acf19e2" x="66.981559" y="91.987875" style="fill-opacity: 0.5; stroke: #000000; stroke-opacity: 0.5"/>
     <use xlink:href="#m554acf19e2" x="53.435868" y="103.371236" style="fill-opacity: 0.5; stroke: #000000; stroke-opacity: 0.5"/>
     <use xlink:href="#m554acf19e2" x="165.233132" y="49.904523" style="fill-opacity: 0.5; stroke: #000000; stroke-opacity: 0.5"/>
     <use xlink:href="#m554acf19e2" x="128.562691" y="126.326709" style="fill-opacity: 0.5; stroke: #000000; stroke-opacity: 0.5"/>
     <use xlink:href="#m554acf19e2" x="143.359961" y="70.158345" style="fill-opacity: 0.5; stroke: #000000; stroke-opacity: 0.5"/>
     <use xlink:href="#m554acf19e2" x="48.247973" y="122.896852" style="fill-opacity: 0.5; stroke: #000000; stroke-opacity: 0.5"/>
     <use xlink:href="#m554acf19e2" x="179.58439" y="66.943025" style="fill-opacity: 0.5; stroke: #000000; stroke-opacity: 0.5"/>
     <use xlink:href="#m554acf19e2" x="160.566199" y="46.486437" style="fill-opacity: 0.5; stroke: #000000; stroke-opacity: 0.5"/>
     <use xlink:href="#m554acf19e2" x="74.77667" y="95.159848" style="fill-opacity: 0.5; stroke: #000000; stroke-opacity: 0.5"/>
     <use xlink:href="#m554acf19e2" x="70.555126" y="94.713105" style="fill-opacity: 0.5; stroke: #000000; stroke-opacity: 0.5"/>
     <use xlink:href="#m554acf19e2" x="70.773651" y="87.478183" style="fill-opacity: 0.5; stroke: #000000; stroke-opacity: 0.5"/>
     <use xlink:href="#m554acf19e2" x="87.491202" y="133.056789" style="fill-opacity: 0.5; stroke: #000000; stroke-opacity: 0.5"/>
     <use xlink:href="#m554acf19e2" x="117.998702" y="154.623686" style="fill-opacity: 0.5; stroke: #000000; stroke-opacity: 0.5"/>
     <use xlink:href="#m554acf19e2" x="105.158512" y="165.495298" style="fill-opacity: 0.5; stroke: #000000; stroke-opacity: 0.5"/>
     <use xlink:href="#m554acf19e2" x="85.690877" y="134.736509" style="fill-opacity: 0.5; stroke: #000000; stroke-opacity: 0.5"/>
     <use xlink:href="#m554acf19e2" x="130.048246" y="111.465361" style="fill-opacity: 0.5; stroke: #000000; stroke-opacity: 0.5"/>
     <use xlink:href="#m554acf19e2" x="64.69874" y="93.866253" style="fill-opacity: 0.5; stroke: #000000; stroke-opacity: 0.5"/>
     <use xlink:href="#m554acf19e2" x="85.817535" y="122.675964" style="fill-opacity: 0.5; stroke: #000000; stroke-opacity: 0.5"/>
     <use xlink:href="#m554acf19e2" x="96.085269" y="150.738398" style="fill-opacity: 0.5; stroke: #000000; stroke-opacity: 0.5"/>
     <use xlink:href="#m554acf19e2" x="108.496131" y="175.014994" style="fill-opacity: 0.5; stroke: #000000; stroke-opacity: 0.5"/>
     <use xlink:href="#m554acf19e2" x="154.026991" y="47.565803" style="fill-opacity: 0.5; stroke: #000000; stroke-opacity: 0.5"/>
     <use xlink:href="#m554acf19e2" x="73.024458" y="100.321759" style="fill-opacity: 0.5; stroke: #000000; stroke-opacity: 0.5"/>
     <use xlink:href="#m554acf19e2" x="116.543015" y="161.628176" style="fill-opacity: 0.5; stroke: #000000; stroke-opacity: 0.5"/>
     <use xlink:href="#m554acf19e2" x="127.35901" y="125.248171" style="fill-opacity: 0.5; stroke: #000000; stroke-opacity: 0.5"/>
     <use xlink:href="#m554acf19e2" x="51.826448" y="116.786082" style="fill-opacity: 0.5; stroke: #000000; stroke-opacity: 0.5"/>
     <use xlink:href="#m554acf19e2" x="129.452241" y="100.28781" style="fill-opacity: 0.5; stroke: #000000; stroke-opacity: 0.5"/>
     <use xlink:href="#m554acf19e2" x="68.991687" y="93.497714" style="fill-opacity: 0.5; stroke: #000000; stroke-opacity: 0.5"/>
     <use xlink:href="#m554acf19e2" x="54.399868" y="111.194339" style="fill-opacity: 0.5; stroke: #000000; stroke-opacity: 0.5"/>
     <use xlink:href="#m554acf19e2" x="176.675737" y="65.091459" style="fill-opacity: 0.5; stroke: #000000; stroke-opacity: 0.5"/>
     <use xlink:href="#m554acf19e2" x="178.992566" y="84.871514" style="fill-opacity: 0.5; stroke: #000000; stroke-opacity: 0.5"/>
     <use xlink:href="#m554acf19e2" x="157.239603" y="42.165282" style="fill-opacity: 0.5; stroke: #000000; stroke-opacity: 0.5"/>
     <use xlink:href="#m554acf19e2" x="87.542602" y="126.761791" style="fill-opacity: 0.5; stroke: #000000; stroke-opacity: 0.5"/>
     <use xlink:href="#m554acf19e2" x="58.912822" y="82.717175" style="fill-opacity: 0.5; stroke: #000000; stroke-opacity: 0.5"/>
     <use xlink:href="#m554acf19e2" x="140.061828" y="78.217455" style="fill-opacity: 0.5; stroke: #000000; stroke-opacity: 0.5"/>
     <use xlink:href="#m554acf19e2" x="106.293992" y="160.21967" style="fill-opacity: 0.5; stroke: #000000; stroke-opacity: 0.5"/>
     <use xlink:href="#m554acf19e2" x="62.283805" y="98.66769" style="fill-opacity: 0.5; stroke: #000000; stroke-opacity: 0.5"/>
     <use xlink:href="#m554acf19e2" x="113.906461" y="169.012382" style="fill-opacity: 0.5; stroke: #000000; stroke-opacity: 0.5"/>
     <use xlink:href="#m554acf19e2" x="50.15772" y="115.312434" style="fill-opacity: 0.5; stroke: #000000; stroke-opacity: 0.5"/>
     <use xlink:href="#m554acf19e2" x="171.202015" y="48.014635" style="fill-opacity: 0.5; stroke: #000000; stroke-opacity: 0.5"/>
     <use xlink:href="#m554acf19e2" x="81.20163" y="104.653526" style="fill-opacity: 0.5; stroke: #000000; stroke-opacity: 0.5"/>
     <use xlink:href="#m554acf19e2" x="137.05821" y="95.012952" style="fill-opacity: 0.5; stroke: #000000; stroke-opacity: 0.5"/>
     <use xlink:href="#m554acf19e2" x="88.524494" y="118.045806" style="fill-opacity: 0.5; stroke: #000000; stroke-opacity: 0.5"/>
     <use xlink:href="#m554acf19e2" x="117.350074" y="165.076976" style="fill-opacity: 0.5; stroke: #000000; stroke-opacity: 0.5"/>
     <use xlink:href="#m554acf19e2" x="121.035954" y="139.326204" style="fill-opacity: 0.5; stroke: #000000; stroke-opacity: 0.5"/>
     <use xlink:href="#m554acf19e2" x="70.974247" y="77.287034" style="fill-opacity: 0.5; stroke: #000000; stroke-opacity: 0.5"/>
     <use xlink:href="#m554acf19e2" x="179.539397" y="77.996252" style="fill-opacity: 0.5; stroke: #000000; stroke-opacity: 0.5"/>
     <use xlink:href="#m554acf19e2" x="152.637552" y="50.36579" style="fill-opacity: 0.5; stroke: #000000; stroke-opacity: 0.5"/>
     <use xlink:href="#m554acf19e2" x="175.377129" y="61.190843" style="fill-opacity: 0.5; stroke: #000000; stroke-opacity: 0.5"/>
     <use xlink:href="#m554acf19e2" x="169.196943" y="55.241071" style="fill-opacity: 0.5; stroke: #000000; stroke-opacity: 0.5"/>
     <use xlink:href="#m554acf19e2" x="128.1179" y="134.220731" style="fill-opacity: 0.5; stroke: #000000; stroke-opacity: 0.5"/>
     <use xlink:href="#m554acf19e2" x="172.938802" y="56.903587" style="fill-opacity: 0.5; stroke: #000000; stroke-opacity: 0.5"/>
     <use xlink:href="#m554acf19e2" x="57.64285" y="114.921671" style="fill-opacity: 0.5; stroke: #000000; stroke-opacity: 0.5"/>
     <use xlink:href="#m554acf19e2" x="72.51383" y="92.943137" style="fill-opacity: 0.5; stroke: #000000; stroke-opacity: 0.5"/>
     <use xlink:href="#m554acf19e2" x="51.657232" y="128.424835" style="fill-opacity: 0.5; stroke: #000000; stroke-opacity: 0.5"/>
     <use xlink:href="#m554acf19e2" x="90.408678" y="121.792909" style="fill-opacity: 0.5; stroke: #000000; stroke-opacity: 0.5"/>
     <use xlink:href="#m554acf19e2" x="99.172547" y="161.487968" style="fill-opacity: 0.5; stroke: #000000; stroke-opacity: 0.5"/>
     <use xlink:href="#m554acf19e2" x="82.940522" y="118.144226" style="fill-opacity: 0.5; stroke: #000000; stroke-opacity: 0.5"/>
     <use xlink:href="#m554acf19e2" x="160.053605" y="35.000345" style="fill-opacity: 0.5; stroke: #000000; stroke-opacity: 0.5"/>
     <use xlink:href="#m554acf19e2" x="94.755959" y="156.137156" style="fill-opacity: 0.5; stroke: #000000; stroke-opacity: 0.5"/>
     <use xlink:href="#m554acf19e2" x="84.266645" y="116.805605" style="fill-opacity: 0.5; stroke: #000000; stroke-opacity: 0.5"/>
     <use xlink:href="#m554acf19e2" x="120.480601" y="134.76059" style="fill-opacity: 0.5; stroke: #000000; stroke-opacity: 0.5"/>
     <use xlink:href="#m554acf19e2" x="64.896627" y="109.49558" style="fill-opacity: 0.5; stroke: #000000; stroke-opacity: 0.5"/>
     <use xlink:href="#m554acf19e2" x="156.3818" y="40.726564" style="fill-opacity: 0.5; stroke: #000000; stroke-opacity: 0.5"/>
     <use xlink:href="#m554acf19e2" x="55.714034" y="107.991601" style="fill-opacity: 0.5; stroke: #000000; stroke-opacity: 0.5"/>
     <use xlink:href="#m554acf19e2" x="181.933121" y="66.957069" style="fill-opacity: 0.5; stroke: #000000; stroke-opacity: 0.5"/>
     <use xlink:href="#m554acf19e2" x="152.237998" y="56.551277" style="fill-opacity: 0.5; stroke: #000000; stroke-opacity: 0.5"/>
     <use xlink:href="#m554acf19e2" x="72.891908" y="108.438762" style="fill-opacity: 0.5; stroke: #000000; stroke-opacity: 0.5"/>
     <use xlink:href="#m554acf19e2" x="46.164137" y="132.544579" style="fill-opacity: 0.5; stroke: #000000; stroke-opacity: 0.5"/>
     <use xlink:href="#m554acf19e2" x="158.216898" y="39.229521" style="fill-opacity: 0.5; stroke: #000000; stroke-opacity: 0.5"/>
     <use xlink:href="#m554acf19e2" x="143.191837" y="64.319816" style="fill-opacity: 0.5; stroke: #000000; stroke-opacity: 0.5"/>
     <use xlink:href="#m554acf19e2" x="146.256201" y="54.947407" style="fill-opacity: 0.5; stroke: #000000; stroke-opacity: 0.5"/>
     <use xlink:href="#m554acf19e2" x="152.103189" y="52.037784" style="fill-opacity: 0.5; stroke: #000000; stroke-opacity: 0.5"/>
     <use xlink:href="#m554acf19e2" x="55.644031" y="108.388387" style="fill-opacity: 0.5; stroke: #000000; stroke-opacity: 0.5"/>
     <use xlink:href="#m554acf19e2" x="94.992865" y="143.829259" style="fill-opacity: 0.5; stroke: #000000; stroke-opacity: 0.5"/>
     <use xlink:href="#m554acf19e2" x="61.430317" y="105.496502" style="fill-opacity: 0.5; stroke: #000000; stroke-opacity: 0.5"/>
     <use xlink:href="#m554acf19e2" x="164.80803" y="29.324438" style="fill-opacity: 0.5; stroke: #000000; stroke-opacity: 0.5"/>
     <use xlink:href="#m554acf19e2" x="131.631661" y="103.951087" style="fill-opacity: 0.5; stroke: #000000; stroke-opacity: 0.5"/>
     <use xlink:href="#m554acf19e2" x="91.178952" y="146.932284" style="fill-opacity: 0.5; stroke: #000000; stroke-opacity: 0.5"/>
     <use xlink:href="#m554acf19e2" x="54.193282" y="108.348531" style="fill-opacity: 0.5; stroke: #000000; stroke-opacity: 0.5"/>
     <use xlink:href="#m554acf19e2" x="88.423673" y="137.836732" style="fill-opacity: 0.5; stroke: #000000; stroke-opacity: 0.5"/>
     <use xlink:href="#m554acf19e2" x="90.38834" y="128.175799" style="fill-opacity: 0.5; stroke: #000000; stroke-opacity: 0.5"/>
     <use xlink:href="#m554acf19e2" x="146.339072" y="47.885535" style="fill-opacity: 0.5; stroke: #000000; stroke-opacity: 0.5"/>
     <use xlink:href="#m554acf19e2" x="133.6044" y="107.316264" style="fill-opacity: 0.5; stroke: #000000; stroke-opacity: 0.5"/>
     <use xlink:href="#m554acf19e2" x="168.143484" y="41.237622" style="fill-opacity: 0.5; stroke: #000000; stroke-opacity: 0.5"/>
     <use xlink:href="#m554acf19e2" x="110.729737" y="158.782676" style="fill-opacity: 0.5; stroke: #000000; stroke-opacity: 0.5"/>
     <use xlink:href="#m554acf19e2" x="61.945686" y="91.855535" style="fill-opacity: 0.5; stroke: #000000; stroke-opacity: 0.5"/>
     <use xlink:href="#m554acf19e2" x="144.075521" y="47.805503" style="fill-opacity: 0.5; stroke: #000000; stroke-opacity: 0.5"/>
     <use xlink:href="#m554acf19e2" x="150.652579" y="50.604772" style="fill-opacity: 0.5; stroke: #000000; stroke-opacity: 0.5"/>
     <use xlink:href="#m554acf19e2" x="123.051245" y="144.726931" style="fill-opacity: 0.5; stroke: #000000; stroke-opacity: 0.5"/>
     <use xlink:href="#m554acf19e2" x="152.061247" y="53.863738" style="fill-opacity: 0.5; stroke: #000000; stroke-opacity: 0.5"/>
     <use xlink:href="#m554acf19e2" x="113.71536" y="166.287037" style="fill-opacity: 0.5; stroke: #000000; stroke-opacity: 0.5"/>
     <use xlink:href="#m554acf19e2" x="117.718743" y="153.120065" style="fill-opacity: 0.5; stroke: #000000; stroke-opacity: 0.5"/>
     <use xlink:href="#m554acf19e2" x="104.549231" y="158.885596" style="fill-opacity: 0.5; stroke: #000000; stroke-opacity: 0.5"/>
     <use xlink:href="#m554acf19e2" x="48.916831" y="126.280999" style="fill-opacity: 0.5; stroke: #000000; stroke-opacity: 0.5"/>
     <use xlink:href="#m554acf19e2" x="60.326635" y="94.113494" style="fill-opacity: 0.5; stroke: #000000; stroke-opacity: 0.5"/>
    </g>
   </g>
   <g id="line2d_15">
    <path d="M 45.400168 131.380292 
L 47.622611 126.483127 
L 52.067498 115.931357 
L 55.401164 108.308605 
L 57.623607 103.787522 
L 59.29044 100.822448 
L 60.957272 98.291157 
L 62.624105 96.243148 
L 63.735327 95.166029 
L 64.846548 94.330595 
L 65.95777 93.744452 
L 67.068992 93.413571 
L 68.180214 93.342287 
L 69.291435 93.533239 
L 70.402657 93.987252 
L 71.513879 94.703192 
L 72.625101 95.677805 
L 73.736322 96.905567 
L 75.403155 99.203913 
L 77.069988 102.016591 
L 78.73682 105.294822 
L 80.959264 110.286144 
L 83.181707 115.835996 
L 86.515372 124.819214 
L 93.182703 142.994916 
L 95.960757 149.835606 
L 98.183201 154.703634 
L 99.850033 157.905374 
L 101.516866 160.653896 
L 103.183699 162.890698 
L 104.29492 164.07104 
L 105.406142 164.986304 
L 106.517364 165.624664 
L 107.628586 165.976629 
L 108.739807 166.035288 
L 109.851029 165.796436 
L 110.962251 165.258582 
L 112.073473 164.422824 
L 113.184694 163.292606 
L 114.295916 161.873372 
L 115.407138 160.172159 
L 117.073971 157.109773 
L 118.740803 153.462001 
L 120.407636 149.260818 
L 122.074468 144.538819 
L 124.296912 137.492168 
L 126.519355 129.675044 
L 129.29741 119.014282 
L 133.742297 100.784762 
L 137.631573 85.090033 
L 139.854016 76.856665 
L 142.07646 69.454921 
L 143.743292 64.536486 
L 145.410125 60.186552 
L 147.076958 56.395208 
L 148.74379 53.128469 
L 150.410623 50.338243 
L 152.077456 47.97407 
L 153.744288 45.994595 
L 155.411121 44.376753 
L 157.077953 43.121044 
L 158.189175 42.496301 
L 159.300397 42.055377 
L 160.411619 41.813539 
L 161.52284 41.787582 
L 162.634062 41.994317 
L 163.745284 42.449013 
L 164.856506 43.16391 
L 165.967727 44.146923 
L 167.078949 45.400634 
L 168.190171 46.921632 
L 169.857003 49.681505 
L 171.523836 52.961947 
L 173.74628 57.998804 
L 176.524334 65.014883 
L 183.747275 83.916053 
L 183.747275 83.916053 
" clip-path="url(#p962bc8027a)" style="fill: none; stroke: #000000; stroke-width: 2; stroke-linecap: square"/>
   </g>
   <g id="patch_3">
    <path d="M 38.482813 187.118438 
L 38.482813 20.798438 
" style="fill: none; stroke: #000000; stroke-width: 0.8; stroke-linejoin: miter; stroke-linecap: square"/>
   </g>
   <g id="patch_4">
    <path d="M 38.482813 187.118437 
L 190.664631 187.118437 
" style="fill: none; stroke: #000000; stroke-width: 0.8; stroke-linejoin: miter; stroke-linecap: square"/>
   </g>
   <g id="text_14">
    <!-- Latent uncertainty -->
    <g transform="translate(68.248722 14.798438) scale(0.1 -0.1)">
     <defs>
      <path id="DejaVuSans-4c" d="M 628 4666 
L 1259 4666 
L 1259 531 
L 3531 531 
L 3531 0 
L 628 0 
L 628 4666 
z
" transform="scale(0.015625)"/>
      <path id="DejaVuSans-61" d="M 2194 1759 
Q 1497 1759 1228 1600 
Q 959 1441 959 1056 
Q 959 750 1161 570 
Q 1363 391 1709 391 
Q 2188 391 2477 730 
Q 2766 1069 2766 1631 
L 2766 1759 
L 2194 1759 
z
M 3341 1997 
L 3341 0 
L 2766 0 
L 2766 531 
Q 2569 213 2275 61 
Q 1981 -91 1556 -91 
Q 1019 -91 701 211 
Q 384 513 384 1019 
Q 384 1609 779 1909 
Q 1175 2209 1959 2209 
L 2766 2209 
L 2766 2266 
Q 2766 2663 2505 2880 
Q 2244 3097 1772 3097 
Q 1472 3097 1187 3025 
Q 903 2953 641 2809 
L 641 3341 
Q 956 3463 1253 3523 
Q 1550 3584 1831 3584 
Q 2591 3584 2966 3190 
Q 3341 2797 3341 1997 
z
" transform="scale(0.015625)"/>
      <path id="DejaVuSans-74" d="M 1172 4494 
L 1172 3500 
L 2356 3500 
L 2356 3053 
L 1172 3053 
L 1172 1153 
Q 1172 725 1289 603 
Q 1406 481 1766 481 
L 2356 481 
L 2356 0 
L 1766 0 
Q 1100 0 847 248 
Q 594 497 594 1153 
L 594 3053 
L 172 3053 
L 172 3500 
L 594 3500 
L 594 4494 
L 1172 4494 
z
" transform="scale(0.015625)"/>
      <path id="DejaVuSans-65" d="M 3597 1894 
L 3597 1613 
L 953 1613 
Q 991 1019 1311 708 
Q 1631 397 2203 397 
Q 2534 397 2845 478 
Q 3156 559 3463 722 
L 3463 178 
Q 3153 47 2828 -22 
Q 2503 -91 2169 -91 
Q 1331 -91 842 396 
Q 353 884 353 1716 
Q 353 2575 817 3079 
Q 1281 3584 2069 3584 
Q 2775 3584 3186 3129 
Q 3597 2675 3597 1894 
z
M 3022 2063 
Q 3016 2534 2758 2815 
Q 2500 3097 2075 3097 
Q 1594 3097 1305 2825 
Q 1016 2553 972 2059 
L 3022 2063 
z
" transform="scale(0.015625)"/>
      <path id="DejaVuSans-6e" d="M 3513 2113 
L 3513 0 
L 2938 0 
L 2938 2094 
Q 2938 2591 2744 2837 
Q 2550 3084 2163 3084 
Q 1697 3084 1428 2787 
Q 1159 2491 1159 1978 
L 1159 0 
L 581 0 
L 581 3500 
L 1159 3500 
L 1159 2956 
Q 1366 3272 1645 3428 
Q 1925 3584 2291 3584 
Q 2894 3584 3203 3211 
Q 3513 2838 3513 2113 
z
" transform="scale(0.015625)"/>
      <path id="DejaVuSans-20" transform="scale(0.015625)"/>
      <path id="DejaVuSans-75" d="M 544 1381 
L 544 3500 
L 1119 3500 
L 1119 1403 
Q 1119 906 1312 657 
Q 1506 409 1894 409 
Q 2359 409 2629 706 
Q 2900 1003 2900 1516 
L 2900 3500 
L 3475 3500 
L 3475 0 
L 2900 0 
L 2900 538 
Q 2691 219 2414 64 
Q 2138 -91 1772 -91 
Q 1169 -91 856 284 
Q 544 659 544 1381 
z
M 1991 3584 
L 1991 3584 
z
" transform="scale(0.015625)"/>
      <path id="DejaVuSans-63" d="M 3122 3366 
L 3122 2828 
Q 2878 2963 2633 3030 
Q 2388 3097 2138 3097 
Q 1578 3097 1268 2742 
Q 959 2388 959 1747 
Q 959 1106 1268 751 
Q 1578 397 2138 397 
Q 2388 397 2633 464 
Q 2878 531 3122 666 
L 3122 134 
Q 2881 22 2623 -34 
Q 2366 -91 2075 -91 
Q 1284 -91 818 406 
Q 353 903 353 1747 
Q 353 2603 823 3093 
Q 1294 3584 2113 3584 
Q 2378 3584 2631 3529 
Q 2884 3475 3122 3366 
z
" transform="scale(0.015625)"/>
      <path id="DejaVuSans-72" d="M 2631 2963 
Q 2534 3019 2420 3045 
Q 2306 3072 2169 3072 
Q 1681 3072 1420 2755 
Q 1159 2438 1159 1844 
L 1159 0 
L 581 0 
L 581 3500 
L 1159 3500 
L 1159 2956 
Q 1341 3275 1631 3429 
Q 1922 3584 2338 3584 
Q 2397 3584 2469 3576 
Q 2541 3569 2628 3553 
L 2631 2963 
z
" transform="scale(0.015625)"/>
      <path id="DejaVuSans-69" d="M 603 3500 
L 1178 3500 
L 1178 0 
L 603 0 
L 603 3500 
z
M 603 4863 
L 1178 4863 
L 1178 4134 
L 603 4134 
L 603 4863 
z
" transform="scale(0.015625)"/>
      <path id="DejaVuSans-79" d="M 2059 -325 
Q 1816 -950 1584 -1140 
Q 1353 -1331 966 -1331 
L 506 -1331 
L 506 -850 
L 844 -850 
Q 1081 -850 1212 -737 
Q 1344 -625 1503 -206 
L 1606 56 
L 191 3500 
L 800 3500 
L 1894 763 
L 2988 3500 
L 3597 3500 
L 2059 -325 
z
" transform="scale(0.015625)"/>
     </defs>
     <use xlink:href="#DejaVuSans-4c"/>
     <use xlink:href="#DejaVuSans-61" transform="translate(55.712891 0)"/>
     <use xlink:href="#DejaVuSans-74" transform="translate(116.992188 0)"/>
     <use xlink:href="#DejaVuSans-65" transform="translate(156.201172 0)"/>
     <use xlink:href="#DejaVuSans-6e" transform="translate(217.724609 0)"/>
     <use xlink:href="#DejaVuSans-74" transform="translate(281.103516 0)"/>
     <use xlink:href="#DejaVuSans-20" transform="translate(320.3125 0)"/>
     <use xlink:href="#DejaVuSans-75" transform="translate(352.099609 0)"/>
     <use xlink:href="#DejaVuSans-6e" transform="translate(415.478516 0)"/>
     <use xlink:href="#DejaVuSans-63" transform="translate(478.857422 0)"/>
     <use xlink:href="#DejaVuSans-65" transform="translate(533.837891 0)"/>
     <use xlink:href="#DejaVuSans-72" transform="translate(595.361328 0)"/>
     <use xlink:href="#DejaVuSans-74" transform="translate(636.474609 0)"/>
     <use xlink:href="#DejaVuSans-61" transform="translate(675.683594 0)"/>
     <use xlink:href="#DejaVuSans-69" transform="translate(736.962891 0)"/>
     <use xlink:href="#DejaVuSans-6e" transform="translate(764.746094 0)"/>
     <use xlink:href="#DejaVuSans-74" transform="translate(828.125 0)"/>
     <use xlink:href="#DejaVuSans-79" transform="translate(867.333984 0)"/>
    </g>
   </g>
  </g>
  <g id="axes_2">
   <g id="patch_5">
    <path d="M 221.100994 187.118437 
L 373.282812 187.118437 
L 373.282812 20.798438 
L 221.100994 20.798438 
z
" style="fill: #ffffff"/>
   </g>
   <g id="FillBetweenPolyCollection_2">
    <defs>
     <path id="ma84b997e21" d="M 228.01835 -94.811705 
L 228.01835 -64.420836 
L 228.573961 -65.976735 
L 229.129571 -67.513847 
L 229.685182 -69.031297 
L 230.240793 -70.528805 
L 230.796404 -72.006556 
L 231.352015 -73.465043 
L 231.907626 -74.904903 
L 232.463237 -76.326758 
L 233.018848 -77.731076 
L 233.574458 -79.118059 
L 234.130069 -80.48757 
L 234.68568 -81.839081 
L 235.241291 -83.171665 
L 235.796902 -84.484008 
L 236.352513 -85.774439 
L 236.908124 -87.040982 
L 237.463735 -88.281417 
L 238.019345 -89.493335 
L 238.574956 -90.674212 
L 239.130567 -91.821464 
L 239.686178 -92.932507 
L 240.241789 -94.004801 
L 240.7974 -95.035895 
L 241.353011 -96.023454 
L 241.908622 -96.965278 
L 242.464232 -97.859312 
L 243.019843 -98.703653 
L 243.575454 -99.496533 
L 244.131065 -100.236319 
L 244.686676 -100.921487 
L 245.242287 -101.550607 
L 245.797898 -102.122326 
L 246.353509 -102.635349 
L 246.909119 -103.088424 
L 247.46473 -103.480336 
L 248.020341 -103.809902 
L 248.575952 -104.075976 
L 249.131563 -104.277456 
L 249.687174 -104.413306 
L 250.242785 -104.482576 
L 250.798395 -104.484427 
L 251.354006 -104.418167 
L 251.909617 -104.283278 
L 252.465228 -104.07945 
L 253.020839 -103.806609 
L 253.57645 -103.464941 
L 254.132061 -103.054912 
L 254.687672 -102.577274 
L 255.243282 -102.033072 
L 255.798893 -101.423631 
L 256.354504 -100.75055 
L 256.910115 -100.01567 
L 257.465726 -99.22105 
L 258.021337 -98.368932 
L 258.576948 -97.461702 
L 259.132559 -96.501855 
L 259.688169 -95.491949 
L 260.24378 -94.434576 
L 260.799391 -93.33232 
L 261.355002 -92.187734 
L 261.910613 -91.003314 
L 262.466224 -89.781477 
L 263.021835 -88.524552 
L 263.577446 -87.234774 
L 264.133056 -85.914287 
L 264.688667 -84.565145 
L 265.244278 -83.18933 
L 265.799889 -81.788767 
L 266.3555 -80.365346 
L 266.911111 -78.920943 
L 267.466722 -77.457448 
L 268.022333 -75.976787 
L 268.577943 -74.480945 
L 269.133554 -72.971988 
L 269.689165 -71.452076 
L 270.244776 -69.923477 
L 270.800387 -68.38857 
L 271.355998 -66.849845 
L 271.911609 -65.309901 
L 272.46722 -63.771429 
L 273.02283 -62.237207 
L 273.578441 -60.710072 
L 274.134052 -59.192911 
L 274.689663 -57.688636 
L 275.245274 -56.200167 
L 275.800885 -54.730414 
L 276.356496 -53.282263 
L 276.912107 -51.858564 
L 277.467717 -50.462122 
L 278.023328 -49.095687 
L 278.578939 -47.761955 
L 279.13455 -46.463565 
L 279.690161 -45.203099 
L 280.245772 -43.983083 
L 280.801383 -42.805991 
L 281.356994 -41.674249 
L 281.912604 -40.590232 
L 282.468215 -39.556271 
L 283.023826 -38.574648 
L 283.579437 -37.647596 
L 284.135048 -36.777296 
L 284.690659 -35.965867 
L 285.24627 -35.215361 
L 285.801881 -34.527751 
L 286.357491 -33.904918 
L 286.913102 -33.348637 
L 287.468713 -32.860565 
L 288.024324 -32.442218 
L 288.579935 -32.094966 
L 289.135546 -31.820007 
L 289.691157 -31.618362 
L 290.246767 -31.490859 
L 290.802378 -31.438125 
L 291.357989 -31.460582 
L 291.9136 -31.558445 
L 292.469211 -31.731722 
L 293.024822 -31.980227 
L 293.580433 -32.303584 
L 294.136044 -32.70125 
L 294.691654 -33.172529 
L 295.247265 -33.7166 
L 295.802876 -34.332537 
L 296.358487 -35.01934 
L 296.914098 -35.775956 
L 297.469709 -36.601312 
L 298.02532 -37.494332 
L 298.580931 -38.453955 
L 299.136541 -39.479158 
L 299.692152 -40.568954 
L 300.247763 -41.722405 
L 300.803374 -42.938613 
L 301.358985 -44.216713 
L 301.914596 -45.555861 
L 302.470207 -46.95521 
L 303.025818 -48.413892 
L 303.581428 -49.93099 
L 304.137039 -51.505511 
L 304.69265 -53.136365 
L 305.248261 -54.822332 
L 305.803872 -56.562049 
L 306.359483 -58.353982 
L 306.915094 -60.196421 
L 307.470705 -62.087467 
L 308.026315 -64.025028 
L 308.581926 -66.006823 
L 309.137537 -68.030387 
L 309.693148 -70.093083 
L 310.248759 -72.192114 
L 310.80437 -74.324541 
L 311.359981 -76.487297 
L 311.915592 -78.677203 
L 312.471202 -80.890981 
L 313.026813 -83.125268 
L 313.582424 -85.376617 
L 314.138035 -87.641508 
L 314.693646 -89.916345 
L 315.249257 -92.197455 
L 315.804868 -94.481087 
L 316.360479 -96.76341 
L 316.916089 -99.040509 
L 317.4717 -101.308391 
L 318.027311 -103.56299 
L 318.582922 -105.800177 
L 319.138533 -108.01578 
L 319.694144 -110.205605 
L 320.249755 -112.365468 
L 320.805366 -114.491232 
L 321.360976 -116.578844 
L 321.916587 -118.624384 
L 322.472198 -120.624111 
L 323.027809 -122.574513 
L 323.58342 -124.472352 
L 324.139031 -126.314714 
L 324.694642 -128.09905 
L 325.250253 -129.823207 
L 325.805863 -131.485463 
L 326.361474 -133.084537 
L 326.917085 -134.619607 
L 327.472696 -136.090297 
L 328.028307 -137.496673 
L 328.583918 -138.83921 
L 329.139529 -140.118765 
L 329.695139 -141.336525 
L 330.25075 -142.493963 
L 330.806361 -143.592774 
L 331.361972 -144.634819 
L 331.917583 -145.622061 
L 332.473194 -146.556501 
L 333.028805 -147.440117 
L 333.584416 -148.274812 
L 334.140026 -149.062359 
L 334.695637 -149.80436 
L 335.251248 -150.502204 
L 335.806859 -151.157042 
L 336.36247 -151.769759 
L 336.918081 -152.340966 
L 337.473692 -152.870987 
L 338.029303 -153.359859 
L 338.584913 -153.807335 
L 339.140524 -154.212896 
L 339.696135 -154.575764 
L 340.251746 -154.894918 
L 340.807357 -155.169117 
L 341.362968 -155.396925 
L 341.918579 -155.576736 
L 342.47419 -155.706809 
L 343.0298 -155.785298 
L 343.585411 -155.810288 
L 344.141022 -155.779837 
L 344.696633 -155.692018 
L 345.252244 -155.54496 
L 345.807855 -155.336899 
L 346.363466 -155.066224 
L 346.919077 -154.731524 
L 347.474687 -154.331639 
L 348.030298 -153.865703 
L 348.585909 -153.33319 
L 349.14152 -152.73395 
L 349.697131 -152.068236 
L 350.252742 -151.336736 
L 350.808353 -150.540574 
L 351.363964 -149.681321 
L 351.919574 -148.760974 
L 352.475185 -147.781936 
L 353.030796 -146.746974 
L 353.586407 -145.659164 
L 354.142018 -144.521826 
L 354.697629 -143.338438 
L 355.25324 -142.112551 
L 355.808851 -140.847684 
L 356.364461 -139.547218 
L 356.920072 -138.214284 
L 357.475683 -136.851655 
L 358.031294 -135.46164 
L 358.586905 -134.045988 
L 359.142516 -132.605812 
L 359.698127 -131.14153 
L 360.253738 -129.652846 
L 360.809348 -128.13876 
L 361.364959 -126.597632 
L 361.92057 -125.027288 
L 362.476181 -123.425175 
L 363.031792 -121.78856 
L 363.587403 -120.114756 
L 364.143014 -118.401357 
L 364.698625 -116.646458 
L 365.254235 -114.84885 
L 365.809846 -113.00814 
L 366.365457 -111.124833 
L 366.365457 -143.036186 
L 366.365457 -143.036186 
L 365.809846 -143.951375 
L 365.254235 -144.938912 
L 364.698625 -145.997497 
L 364.143014 -147.124429 
L 363.587403 -148.315646 
L 363.031792 -149.565844 
L 362.476181 -150.868651 
L 361.92057 -152.216856 
L 361.364959 -153.602645 
L 360.809348 -155.017854 
L 360.253738 -156.45419 
L 359.698127 -157.903423 
L 359.142516 -159.357548 
L 358.586905 -160.808891 
L 358.031294 -162.250195 
L 357.475683 -163.674661 
L 356.920072 -165.075973 
L 356.364461 -166.4483 
L 355.808851 -167.786287 
L 355.25324 -169.085038 
L 354.697629 -170.340093 
L 354.142018 -171.547405 
L 353.586407 -172.703319 
L 353.030796 -173.804552 
L 352.475185 -174.848179 
L 351.919574 -175.831617 
L 351.363964 -176.752623 
L 350.808353 -177.609286 
L 350.252742 -178.400032 
L 349.697131 -179.123621 
L 349.14152 -179.779157 
L 348.585909 -180.366088 
L 348.030298 -180.884209 
L 347.474687 -181.333666 
L 346.919077 -181.714947 
L 346.363466 -182.028875 
L 345.807855 -182.276591 
L 345.252244 -182.459531 
L 344.696633 -182.579399 
L 344.141022 -182.638125 
L 343.585411 -182.637825 
L 343.0298 -182.58075 
L 342.47419 -182.469234 
L 341.918579 -182.305635 
L 341.362968 -182.09228 
L 340.807357 -181.831405 
L 340.251746 -181.525104 
L 339.696135 -181.175273 
L 339.140524 -180.78357 
L 338.584913 -180.351374 
L 338.029303 -179.87976 
L 337.473692 -179.369472 
L 336.918081 -178.820921 
L 336.36247 -178.234176 
L 335.806859 -177.608977 
L 335.251248 -176.944749 
L 334.695637 -176.240625 
L 334.140026 -175.495479 
L 333.584416 -174.707958 
L 333.028805 -173.876522 
L 332.473194 -172.999484 
L 331.917583 -172.07505 
L 331.361972 -171.101367 
L 330.806361 -170.076558 
L 330.25075 -168.998763 
L 329.695139 -167.866183 
L 329.139529 -166.677111 
L 328.583918 -165.42997 
L 328.028307 -164.123348 
L 327.472696 -162.756029 
L 326.917085 -161.327026 
L 326.361474 -159.835616 
L 325.805863 -158.281363 
L 325.250253 -156.664157 
L 324.694642 -154.984233 
L 324.139031 -153.242204 
L 323.58342 -151.43908 
L 323.027809 -149.576288 
L 322.472198 -147.655684 
L 321.916587 -145.679563 
L 321.360976 -143.650661 
L 320.805366 -141.572143 
L 320.249755 -139.447591 
L 319.694144 -137.28098 
L 319.138533 -135.076645 
L 318.582922 -132.839239 
L 318.027311 -130.573686 
L 317.4717 -128.28512 
L 316.916089 -125.97883 
L 316.360479 -123.660191 
L 315.804868 -121.334595 
L 315.249257 -119.007383 
L 314.693646 -116.683781 
L 314.138035 -114.368833 
L 313.582424 -112.067351 
L 313.026813 -109.783863 
L 312.471202 -107.522577 
L 311.915592 -105.287358 
L 311.359981 -103.08171 
L 310.80437 -100.908779 
L 310.248759 -98.771362 
L 309.693148 -96.671928 
L 309.137537 -94.61265 
L 308.581926 -92.59544 
L 308.026315 -90.621995 
L 307.470705 -88.693838 
L 306.915094 -86.812367 
L 306.359483 -84.978895 
L 305.803872 -83.194689 
L 305.248261 -81.461007 
L 304.69265 -79.779122 
L 304.137039 -78.150344 
L 303.581428 -76.576032 
L 303.025818 -75.057597 
L 302.470207 -73.596505 
L 301.914596 -72.194263 
L 301.358985 -70.85241 
L 300.803374 -69.572496 
L 300.247763 -68.356064 
L 299.692152 -67.204626 
L 299.136541 -66.11964 
L 298.580931 -65.102493 
L 298.02532 -64.154475 
L 297.469709 -63.276767 
L 296.914098 -62.470425 
L 296.358487 -61.736369 
L 295.802876 -61.075376 
L 295.247265 -60.488076 
L 294.691654 -59.974948 
L 294.136044 -59.536322 
L 293.580433 -59.172378 
L 293.024822 -58.883151 
L 292.469211 -58.668531 
L 291.9136 -58.528267 
L 291.357989 -58.461967 
L 290.802378 -58.469102 
L 290.246767 -58.549008 
L 289.691157 -58.700882 
L 289.135546 -58.92379 
L 288.579935 -59.216662 
L 288.024324 -59.578298 
L 287.468713 -60.007366 
L 286.913102 -60.502408 
L 286.357491 -61.061844 
L 285.801881 -61.683978 
L 285.24627 -62.367005 
L 284.690659 -63.109022 
L 284.135048 -63.908038 
L 283.579437 -64.761983 
L 283.023826 -65.668731 
L 282.468215 -66.626106 
L 281.912604 -67.6319 
L 281.356994 -68.683893 
L 280.801383 -69.779865 
L 280.245772 -70.917611 
L 279.690161 -72.094955 
L 279.13455 -73.309765 
L 278.578939 -74.559958 
L 278.023328 -75.843509 
L 277.467717 -77.158455 
L 276.912107 -78.50289 
L 276.356496 -79.874967 
L 275.800885 -81.27288 
L 275.245274 -82.694859 
L 274.689663 -84.139144 
L 274.134052 -85.603971 
L 273.578441 -87.087539 
L 273.02283 -88.58799 
L 272.46722 -90.103377 
L 271.911609 -91.631636 
L 271.355998 -93.170561 
L 270.800387 -94.717782 
L 270.244776 -96.270746 
L 269.689165 -97.826703 
L 269.133554 -99.382709 
L 268.577943 -100.93562 
L 268.022333 -102.482113 
L 267.466722 -104.018701 
L 266.911111 -105.541763 
L 266.3555 -107.047578 
L 265.799889 -108.532366 
L 265.244278 -109.992332 
L 264.688667 -111.423709 
L 264.133056 -112.822808 
L 263.577446 -114.186063 
L 263.021835 -115.510068 
L 262.466224 -116.791622 
L 261.910613 -118.027752 
L 261.355002 -119.215747 
L 260.799391 -120.353171 
L 260.24378 -121.437874 
L 259.688169 -122.467994 
L 259.132559 -123.441949 
L 258.576948 -124.358429 
L 258.021337 -125.216368 
L 257.465726 -126.014925 
L 256.910115 -126.753448 
L 256.354504 -127.431442 
L 255.798893 -128.048535 
L 255.243282 -128.604444 
L 254.687672 -129.09894 
L 254.132061 -129.531828 
L 253.57645 -129.902917 
L 253.020839 -130.212012 
L 252.465228 -130.458903 
L 251.909617 -130.643369 
L 251.354006 -130.765182 
L 250.798395 -130.824123 
L 250.242785 -130.820002 
L 249.687174 -130.752677 
L 249.131563 -130.622081 
L 248.575952 -130.428245 
L 248.020341 -130.171321 
L 247.46473 -129.851599 
L 246.909119 -129.469526 
L 246.353509 -129.025719 
L 245.797898 -128.520963 
L 245.242287 -127.956222 
L 244.686676 -127.332633 
L 244.131065 -126.651497 
L 243.575454 -125.914278 
L 243.019843 -125.122588 
L 242.464232 -124.278181 
L 241.908622 -123.382951 
L 241.353011 -122.438924 
L 240.7974 -121.448263 
L 240.241789 -120.41328 
L 239.686178 -119.336448 
L 239.130567 -118.220427 
L 238.574956 -117.068094 
L 238.019345 -115.88258 
L 237.463735 -114.667313 
L 236.908124 -113.426064 
L 236.352513 -112.162997 
L 235.796902 -110.882713 
L 235.241291 -109.590293 
L 234.68568 -108.291331 
L 234.130069 -106.991952 
L 233.574458 -105.698814 
L 233.018848 -104.419081 
L 232.463237 -103.16037 
L 231.907626 -101.930664 
L 231.352015 -100.738188 
L 230.796404 -99.591253 
L 230.240793 -98.498066 
L 229.685182 -97.466523 
L 229.129571 -96.504001 
L 228.573961 -95.617147 
L 228.01835 -94.811705 
z
" style="stroke: #ffc0cb"/>
    </defs>
    <g clip-path="url(#p932e39dfff)">
     <use xlink:href="#ma84b997e21" x="0" y="210.996563" style="fill: #ffc0cb; stroke: #ffc0cb"/>
    </g>
   </g>
   <g id="matplotlib.axis_3">
    <g id="xtick_6">
     <g id="line2d_16">
      <g>
       <use xlink:href="#m994bebf227" x="228.01835" y="187.118437" style="stroke: #000000; stroke-width: 0.8"/>
      </g>
     </g>
     <g id="text_15">
      <!-- 0.0 -->
      <g transform="translate(220.066787 201.716875) scale(0.1 -0.1)">
       <use xlink:href="#DejaVuSans-30"/>
       <use xlink:href="#DejaVuSans-2e" transform="translate(63.623047 0)"/>
       <use xlink:href="#DejaVuSans-30" transform="translate(95.410156 0)"/>
      </g>
     </g>
    </g>
    <g id="xtick_7">
     <g id="line2d_17">
      <g>
       <use xlink:href="#m994bebf227" x="262.605127" y="187.118437" style="stroke: #000000; stroke-width: 0.8"/>
      </g>
     </g>
     <g id="text_16">
      <!-- 2.5 -->
      <g transform="translate(254.653564 201.716875) scale(0.1 -0.1)">
       <use xlink:href="#DejaVuSans-32"/>
       <use xlink:href="#DejaVuSans-2e" transform="translate(63.623047 0)"/>
       <use xlink:href="#DejaVuSans-35" transform="translate(95.410156 0)"/>
      </g>
     </g>
    </g>
    <g id="xtick_8">
     <g id="line2d_18">
      <g>
       <use xlink:href="#m994bebf227" x="297.191903" y="187.118437" style="stroke: #000000; stroke-width: 0.8"/>
      </g>
     </g>
     <g id="text_17">
      <!-- 5.0 -->
      <g transform="translate(289.240341 201.716875) scale(0.1 -0.1)">
       <use xlink:href="#DejaVuSans-35"/>
       <use xlink:href="#DejaVuSans-2e" transform="translate(63.623047 0)"/>
       <use xlink:href="#DejaVuSans-30" transform="translate(95.410156 0)"/>
      </g>
     </g>
    </g>
    <g id="xtick_9">
     <g id="line2d_19">
      <g>
       <use xlink:href="#m994bebf227" x="331.77868" y="187.118437" style="stroke: #000000; stroke-width: 0.8"/>
      </g>
     </g>
     <g id="text_18">
      <!-- 7.5 -->
      <g transform="translate(323.827118 201.716875) scale(0.1 -0.1)">
       <use xlink:href="#DejaVuSans-37"/>
       <use xlink:href="#DejaVuSans-2e" transform="translate(63.623047 0)"/>
       <use xlink:href="#DejaVuSans-35" transform="translate(95.410156 0)"/>
      </g>
     </g>
    </g>
    <g id="xtick_10">
     <g id="line2d_20">
      <g>
       <use xlink:href="#m994bebf227" x="366.365457" y="187.118437" style="stroke: #000000; stroke-width: 0.8"/>
      </g>
     </g>
     <g id="text_19">
      <!-- 10.0 -->
      <g transform="translate(355.232645 201.716875) scale(0.1 -0.1)">
       <use xlink:href="#DejaVuSans-31"/>
       <use xlink:href="#DejaVuSans-30" transform="translate(63.623047 0)"/>
       <use xlink:href="#DejaVuSans-2e" transform="translate(127.246094 0)"/>
       <use xlink:href="#DejaVuSans-30" transform="translate(159.033203 0)"/>
      </g>
     </g>
    </g>
   </g>
   <g id="matplotlib.axis_4">
    <g id="ytick_9">
     <g id="line2d_21">
      <g>
       <use xlink:href="#md36e05076c" x="221.100994" y="181.465128" style="stroke: #000000; stroke-width: 0.8"/>
      </g>
     </g>
    </g>
    <g id="ytick_10">
     <g id="line2d_22">
      <g>
       <use xlink:href="#md36e05076c" x="221.100994" y="160.372205" style="stroke: #000000; stroke-width: 0.8"/>
      </g>
     </g>
    </g>
    <g id="ytick_11">
     <g id="line2d_23">
      <g>
       <use xlink:href="#md36e05076c" x="221.100994" y="139.279282" style="stroke: #000000; stroke-width: 0.8"/>
      </g>
     </g>
    </g>
    <g id="ytick_12">
     <g id="line2d_24">
      <g>
       <use xlink:href="#md36e05076c" x="221.100994" y="118.186359" style="stroke: #000000; stroke-width: 0.8"/>
      </g>
     </g>
    </g>
    <g id="ytick_13">
     <g id="line2d_25">
      <g>
       <use xlink:href="#md36e05076c" x="221.100994" y="97.093436" style="stroke: #000000; stroke-width: 0.8"/>
      </g>
     </g>
    </g>
    <g id="ytick_14">
     <g id="line2d_26">
      <g>
       <use xlink:href="#md36e05076c" x="221.100994" y="76.000513" style="stroke: #000000; stroke-width: 0.8"/>
      </g>
     </g>
    </g>
    <g id="ytick_15">
     <g id="line2d_27">
      <g>
       <use xlink:href="#md36e05076c" x="221.100994" y="54.90759" style="stroke: #000000; stroke-width: 0.8"/>
      </g>
     </g>
    </g>
    <g id="ytick_16">
     <g id="line2d_28">
      <g>
       <use xlink:href="#md36e05076c" x="221.100994" y="33.814667" style="stroke: #000000; stroke-width: 0.8"/>
      </g>
     </g>
    </g>
   </g>
   <g id="line2d_29">
    <g clip-path="url(#p932e39dfff)">
     <use xlink:href="#m554acf19e2" x="279.834892" y="150.419971" style="fill-opacity: 0.5; stroke: #000000; stroke-opacity: 0.5"/>
     <use xlink:href="#m554acf19e2" x="359.546924" y="67.456443" style="fill-opacity: 0.5; stroke: #000000; stroke-opacity: 0.5"/>
     <use xlink:href="#m554acf19e2" x="329.287594" y="56.063104" style="fill-opacity: 0.5; stroke: #000000; stroke-opacity: 0.5"/>
     <use xlink:href="#m554acf19e2" x="310.841019" y="137.523186" style="fill-opacity: 0.5; stroke: #000000; stroke-opacity: 0.5"/>
     <use xlink:href="#m554acf19e2" x="249.603077" y="96.853546" style="fill-opacity: 0.5; stroke: #000000; stroke-opacity: 0.5"/>
     <use xlink:href="#m554acf19e2" x="249.59974" y="91.987875" style="fill-opacity: 0.5; stroke: #000000; stroke-opacity: 0.5"/>
     <use xlink:href="#m554acf19e2" x="236.054049" y="103.371236" style="fill-opacity: 0.5; stroke: #000000; stroke-opacity: 0.5"/>
     <use xlink:href="#m554acf19e2" x="347.851314" y="49.904523" style="fill-opacity: 0.5; stroke: #000000; stroke-opacity: 0.5"/>
     <use xlink:href="#m554acf19e2" x="311.180873" y="126.326709" style="fill-opacity: 0.5; stroke: #000000; stroke-opacity: 0.5"/>
     <use xlink:href="#m554acf19e2" x="325.978143" y="70.158345" style="fill-opacity: 0.5; stroke: #000000; stroke-opacity: 0.5"/>
     <use xlink:href="#m554acf19e2" x="230.866155" y="122.896852" style="fill-opacity: 0.5; stroke: #000000; stroke-opacity: 0.5"/>
     <use xlink:href="#m554acf19e2" x="362.202572" y="66.943025" style="fill-opacity: 0.5; stroke: #000000; stroke-opacity: 0.5"/>
     <use xlink:href="#m554acf19e2" x="343.184381" y="46.486437" style="fill-opacity: 0.5; stroke: #000000; stroke-opacity: 0.5"/>
     <use xlink:href="#m554acf19e2" x="257.394851" y="95.159848" style="fill-opacity: 0.5; stroke: #000000; stroke-opacity: 0.5"/>
     <use xlink:href="#m554acf19e2" x="253.173308" y="94.713105" style="fill-opacity: 0.5; stroke: #000000; stroke-opacity: 0.5"/>
     <use xlink:href="#m554acf19e2" x="253.391833" y="87.478183" style="fill-opacity: 0.5; stroke: #000000; stroke-opacity: 0.5"/>
     <use xlink:href="#m554acf19e2" x="270.109384" y="133.056789" style="fill-opacity: 0.5; stroke: #000000; stroke-opacity: 0.5"/>
     <use xlink:href="#m554acf19e2" x="300.616884" y="154.623686" style="fill-opacity: 0.5; stroke: #000000; stroke-opacity: 0.5"/>
     <use xlink:href="#m554acf19e2" x="287.776694" y="165.495298" style="fill-opacity: 0.5; stroke: #000000; stroke-opacity: 0.5"/>
     <use xlink:href="#m554acf19e2" x="268.309059" y="134.736509" style="fill-opacity: 0.5; stroke: #000000; stroke-opacity: 0.5"/>
     <use xlink:href="#m554acf19e2" x="312.666428" y="111.465361" style="fill-opacity: 0.5; stroke: #000000; stroke-opacity: 0.5"/>
     <use xlink:href="#m554acf19e2" x="247.316922" y="93.866253" style="fill-opacity: 0.5; stroke: #000000; stroke-opacity: 0.5"/>
     <use xlink:href="#m554acf19e2" x="268.435717" y="122.675964" style="fill-opacity: 0.5; stroke: #000000; stroke-opacity: 0.5"/>
     <use xlink:href="#m554acf19e2" x="278.703451" y="150.738398" style="fill-opacity: 0.5; stroke: #000000; stroke-opacity: 0.5"/>
     <use xlink:href="#m554acf19e2" x="291.114313" y="175.014994" style="fill-opacity: 0.5; stroke: #000000; stroke-opacity: 0.5"/>
     <use xlink:href="#m554acf19e2" x="336.645173" y="47.565803" style="fill-opacity: 0.5; stroke: #000000; stroke-opacity: 0.5"/>
     <use xlink:href="#m554acf19e2" x="255.64264" y="100.321759" style="fill-opacity: 0.5; stroke: #000000; stroke-opacity: 0.5"/>
     <use xlink:href="#m554acf19e2" x="299.161197" y="161.628176" style="fill-opacity: 0.5; stroke: #000000; stroke-opacity: 0.5"/>
     <use xlink:href="#m554acf19e2" x="309.977192" y="125.248171" style="fill-opacity: 0.5; stroke: #000000; stroke-opacity: 0.5"/>
     <use xlink:href="#m554acf19e2" x="234.44463" y="116.786082" style="fill-opacity: 0.5; stroke: #000000; stroke-opacity: 0.5"/>
     <use xlink:href="#m554acf19e2" x="312.070423" y="100.28781" style="fill-opacity: 0.5; stroke: #000000; stroke-opacity: 0.5"/>
     <use xlink:href="#m554acf19e2" x="251.609869" y="93.497714" style="fill-opacity: 0.5; stroke: #000000; stroke-opacity: 0.5"/>
     <use xlink:href="#m554acf19e2" x="237.018049" y="111.194339" style="fill-opacity: 0.5; stroke: #000000; stroke-opacity: 0.5"/>
     <use xlink:href="#m554acf19e2" x="359.293919" y="65.091459" style="fill-opacity: 0.5; stroke: #000000; stroke-opacity: 0.5"/>
     <use xlink:href="#m554acf19e2" x="361.610748" y="84.871514" style="fill-opacity: 0.5; stroke: #000000; stroke-opacity: 0.5"/>
     <use xlink:href="#m554acf19e2" x="339.857784" y="42.165282" style="fill-opacity: 0.5; stroke: #000000; stroke-opacity: 0.5"/>
     <use xlink:href="#m554acf19e2" x="270.160784" y="126.761791" style="fill-opacity: 0.5; stroke: #000000; stroke-opacity: 0.5"/>
     <use xlink:href="#m554acf19e2" x="241.531004" y="82.717175" style="fill-opacity: 0.5; stroke: #000000; stroke-opacity: 0.5"/>
     <use xlink:href="#m554acf19e2" x="322.68001" y="78.217455" style="fill-opacity: 0.5; stroke: #000000; stroke-opacity: 0.5"/>
     <use xlink:href="#m554acf19e2" x="288.912174" y="160.21967" style="fill-opacity: 0.5; stroke: #000000; stroke-opacity: 0.5"/>
     <use xlink:href="#m554acf19e2" x="244.901986" y="98.66769" style="fill-opacity: 0.5; stroke: #000000; stroke-opacity: 0.5"/>
     <use xlink:href="#m554acf19e2" x="296.524643" y="169.012382" style="fill-opacity: 0.5; stroke: #000000; stroke-opacity: 0.5"/>
     <use xlink:href="#m554acf19e2" x="232.775902" y="115.312434" style="fill-opacity: 0.5; stroke: #000000; stroke-opacity: 0.5"/>
     <use xlink:href="#m554acf19e2" x="353.820197" y="48.014635" style="fill-opacity: 0.5; stroke: #000000; stroke-opacity: 0.5"/>
     <use xlink:href="#m554acf19e2" x="263.819812" y="104.653526" style="fill-opacity: 0.5; stroke: #000000; stroke-opacity: 0.5"/>
     <use xlink:href="#m554acf19e2" x="319.676391" y="95.012952" style="fill-opacity: 0.5; stroke: #000000; stroke-opacity: 0.5"/>
     <use xlink:href="#m554acf19e2" x="271.142675" y="118.045806" style="fill-opacity: 0.5; stroke: #000000; stroke-opacity: 0.5"/>
     <use xlink:href="#m554acf19e2" x="299.968256" y="165.076976" style="fill-opacity: 0.5; stroke: #000000; stroke-opacity: 0.5"/>
     <use xlink:href="#m554acf19e2" x="303.654135" y="139.326204" style="fill-opacity: 0.5; stroke: #000000; stroke-opacity: 0.5"/>
     <use xlink:href="#m554acf19e2" x="253.592429" y="77.287034" style="fill-opacity: 0.5; stroke: #000000; stroke-opacity: 0.5"/>
     <use xlink:href="#m554acf19e2" x="362.157578" y="77.996252" style="fill-opacity: 0.5; stroke: #000000; stroke-opacity: 0.5"/>
     <use xlink:href="#m554acf19e2" x="335.255734" y="50.36579" style="fill-opacity: 0.5; stroke: #000000; stroke-opacity: 0.5"/>
     <use xlink:href="#m554acf19e2" x="357.995311" y="61.190843" style="fill-opacity: 0.5; stroke: #000000; stroke-opacity: 0.5"/>
     <use xlink:href="#m554acf19e2" x="351.815125" y="55.241071" style="fill-opacity: 0.5; stroke: #000000; stroke-opacity: 0.5"/>
     <use xlink:href="#m554acf19e2" x="310.736082" y="134.220731" style="fill-opacity: 0.5; stroke: #000000; stroke-opacity: 0.5"/>
     <use xlink:href="#m554acf19e2" x="355.556984" y="56.903587" style="fill-opacity: 0.5; stroke: #000000; stroke-opacity: 0.5"/>
     <use xlink:href="#m554acf19e2" x="240.261031" y="114.921671" style="fill-opacity: 0.5; stroke: #000000; stroke-opacity: 0.5"/>
     <use xlink:href="#m554acf19e2" x="255.132012" y="92.943137" style="fill-opacity: 0.5; stroke: #000000; stroke-opacity: 0.5"/>
     <use xlink:href="#m554acf19e2" x="234.275414" y="128.424835" style="fill-opacity: 0.5; stroke: #000000; stroke-opacity: 0.5"/>
     <use xlink:href="#m554acf19e2" x="273.02686" y="121.792909" style="fill-opacity: 0.5; stroke: #000000; stroke-opacity: 0.5"/>
     <use xlink:href="#m554acf19e2" x="281.790728" y="161.487968" style="fill-opacity: 0.5; stroke: #000000; stroke-opacity: 0.5"/>
     <use xlink:href="#m554acf19e2" x="265.558703" y="118.144226" style="fill-opacity: 0.5; stroke: #000000; stroke-opacity: 0.5"/>
     <use xlink:href="#m554acf19e2" x="342.671787" y="35.000345" style="fill-opacity: 0.5; stroke: #000000; stroke-opacity: 0.5"/>
     <use xlink:href="#m554acf19e2" x="277.374141" y="156.137156" style="fill-opacity: 0.5; stroke: #000000; stroke-opacity: 0.5"/>
     <use xlink:href="#m554acf19e2" x="266.884826" y="116.805605" style="fill-opacity: 0.5; stroke: #000000; stroke-opacity: 0.5"/>
     <use xlink:href="#m554acf19e2" x="303.098783" y="134.76059" style="fill-opacity: 0.5; stroke: #000000; stroke-opacity: 0.5"/>
     <use xlink:href="#m554acf19e2" x="247.514809" y="109.49558" style="fill-opacity: 0.5; stroke: #000000; stroke-opacity: 0.5"/>
     <use xlink:href="#m554acf19e2" x="338.999982" y="40.726564" style="fill-opacity: 0.5; stroke: #000000; stroke-opacity: 0.5"/>
     <use xlink:href="#m554acf19e2" x="238.332216" y="107.991601" style="fill-opacity: 0.5; stroke: #000000; stroke-opacity: 0.5"/>
     <use xlink:href="#m554acf19e2" x="364.551303" y="66.957069" style="fill-opacity: 0.5; stroke: #000000; stroke-opacity: 0.5"/>
     <use xlink:href="#m554acf19e2" x="334.85618" y="56.551277" style="fill-opacity: 0.5; stroke: #000000; stroke-opacity: 0.5"/>
     <use xlink:href="#m554acf19e2" x="255.510089" y="108.438762" style="fill-opacity: 0.5; stroke: #000000; stroke-opacity: 0.5"/>
     <use xlink:href="#m554acf19e2" x="228.782319" y="132.544579" style="fill-opacity: 0.5; stroke: #000000; stroke-opacity: 0.5"/>
     <use xlink:href="#m554acf19e2" x="340.83508" y="39.229521" style="fill-opacity: 0.5; stroke: #000000; stroke-opacity: 0.5"/>
     <use xlink:href="#m554acf19e2" x="325.810019" y="64.319816" style="fill-opacity: 0.5; stroke: #000000; stroke-opacity: 0.5"/>
     <use xlink:href="#m554acf19e2" x="328.874383" y="54.947407" style="fill-opacity: 0.5; stroke: #000000; stroke-opacity: 0.5"/>
     <use xlink:href="#m554acf19e2" x="334.721371" y="52.037784" style="fill-opacity: 0.5; stroke: #000000; stroke-opacity: 0.5"/>
     <use xlink:href="#m554acf19e2" x="238.262213" y="108.388387" style="fill-opacity: 0.5; stroke: #000000; stroke-opacity: 0.5"/>
     <use xlink:href="#m554acf19e2" x="277.611046" y="143.829259" style="fill-opacity: 0.5; stroke: #000000; stroke-opacity: 0.5"/>
     <use xlink:href="#m554acf19e2" x="244.048499" y="105.496502" style="fill-opacity: 0.5; stroke: #000000; stroke-opacity: 0.5"/>
     <use xlink:href="#m554acf19e2" x="347.426212" y="29.324438" style="fill-opacity: 0.5; stroke: #000000; stroke-opacity: 0.5"/>
     <use xlink:href="#m554acf19e2" x="314.249843" y="103.951087" style="fill-opacity: 0.5; stroke: #000000; stroke-opacity: 0.5"/>
     <use xlink:href="#m554acf19e2" x="273.797134" y="146.932284" style="fill-opacity: 0.5; stroke: #000000; stroke-opacity: 0.5"/>
     <use xlink:href="#m554acf19e2" x="236.811464" y="108.348531" style="fill-opacity: 0.5; stroke: #000000; stroke-opacity: 0.5"/>
     <use xlink:href="#m554acf19e2" x="271.041854" y="137.836732" style="fill-opacity: 0.5; stroke: #000000; stroke-opacity: 0.5"/>
     <use xlink:href="#m554acf19e2" x="273.006522" y="128.175799" style="fill-opacity: 0.5; stroke: #000000; stroke-opacity: 0.5"/>
     <use xlink:href="#m554acf19e2" x="328.957254" y="47.885535" style="fill-opacity: 0.5; stroke: #000000; stroke-opacity: 0.5"/>
     <use xlink:href="#m554acf19e2" x="316.222582" y="107.316264" style="fill-opacity: 0.5; stroke: #000000; stroke-opacity: 0.5"/>
     <use xlink:href="#m554acf19e2" x="350.761666" y="41.237622" style="fill-opacity: 0.5; stroke: #000000; stroke-opacity: 0.5"/>
     <use xlink:href="#m554acf19e2" x="293.347919" y="158.782676" style="fill-opacity: 0.5; stroke: #000000; stroke-opacity: 0.5"/>
     <use xlink:href="#m554acf19e2" x="244.563868" y="91.855535" style="fill-opacity: 0.5; stroke: #000000; stroke-opacity: 0.5"/>
     <use xlink:href="#m554acf19e2" x="326.693703" y="47.805503" style="fill-opacity: 0.5; stroke: #000000; stroke-opacity: 0.5"/>
     <use xlink:href="#m554acf19e2" x="333.270761" y="50.604772" style="fill-opacity: 0.5; stroke: #000000; stroke-opacity: 0.5"/>
     <use xlink:href="#m554acf19e2" x="305.669426" y="144.726931" style="fill-opacity: 0.5; stroke: #000000; stroke-opacity: 0.5"/>
     <use xlink:href="#m554acf19e2" x="334.679429" y="53.863738" style="fill-opacity: 0.5; stroke: #000000; stroke-opacity: 0.5"/>
     <use xlink:href="#m554acf19e2" x="296.333542" y="166.287037" style="fill-opacity: 0.5; stroke: #000000; stroke-opacity: 0.5"/>
     <use xlink:href="#m554acf19e2" x="300.336925" y="153.120065" style="fill-opacity: 0.5; stroke: #000000; stroke-opacity: 0.5"/>
     <use xlink:href="#m554acf19e2" x="287.167413" y="158.885596" style="fill-opacity: 0.5; stroke: #000000; stroke-opacity: 0.5"/>
     <use xlink:href="#m554acf19e2" x="231.535012" y="126.280999" style="fill-opacity: 0.5; stroke: #000000; stroke-opacity: 0.5"/>
     <use xlink:href="#m554acf19e2" x="242.944817" y="94.113494" style="fill-opacity: 0.5; stroke: #000000; stroke-opacity: 0.5"/>
    </g>
   </g>
   <g id="line2d_30">
    <path d="M 228.01835 131.380292 
L 230.240793 126.483127 
L 234.68568 115.931357 
L 238.019345 108.308605 
L 240.241789 103.787522 
L 241.908622 100.822448 
L 243.575454 98.291157 
L 245.242287 96.243148 
L 246.353509 95.166029 
L 247.46473 94.330595 
L 248.575952 93.744452 
L 249.687174 93.413571 
L 250.798395 93.342287 
L 251.909617 93.533239 
L 253.020839 93.987252 
L 254.132061 94.703192 
L 255.243282 95.677805 
L 256.354504 96.905567 
L 258.021337 99.203913 
L 259.688169 102.016591 
L 261.355002 105.294822 
L 263.577446 110.286144 
L 265.799889 115.835996 
L 269.133554 124.819214 
L 275.800885 142.994916 
L 278.578939 149.835606 
L 280.801383 154.703634 
L 282.468215 157.905374 
L 284.135048 160.653896 
L 285.801881 162.890698 
L 286.913102 164.07104 
L 288.024324 164.986304 
L 289.135546 165.624664 
L 290.246767 165.976629 
L 291.357989 166.035288 
L 292.469211 165.796436 
L 293.580433 165.258582 
L 294.691654 164.422824 
L 295.802876 163.292606 
L 296.914098 161.873372 
L 298.02532 160.172159 
L 299.692152 157.109773 
L 301.358985 153.462001 
L 303.025818 149.260818 
L 304.69265 144.538819 
L 306.915094 137.492168 
L 309.137537 129.675044 
L 311.915592 119.014282 
L 316.360479 100.784762 
L 320.249755 85.090033 
L 322.472198 76.856665 
L 324.694642 69.454921 
L 326.361474 64.536486 
L 328.028307 60.186552 
L 329.695139 56.395208 
L 331.361972 53.128469 
L 333.028805 50.338243 
L 334.695637 47.97407 
L 336.36247 45.994595 
L 338.029303 44.376753 
L 339.696135 43.121044 
L 340.807357 42.496301 
L 341.918579 42.055377 
L 343.0298 41.813539 
L 344.141022 41.787582 
L 345.252244 41.994317 
L 346.363466 42.449013 
L 347.474687 43.16391 
L 348.585909 44.146923 
L 349.697131 45.400634 
L 350.808353 46.921632 
L 352.475185 49.681505 
L 354.142018 52.961947 
L 356.364461 57.998804 
L 359.142516 65.014883 
L 366.365457 83.916053 
L 366.365457 83.916053 
" clip-path="url(#p932e39dfff)" style="fill: none; stroke: #000000; stroke-width: 2; stroke-linecap: square"/>
   </g>
   <g id="patch_6">
    <path d="M 221.100994 187.118438 
L 221.100994 20.798438 
" style="fill: none; stroke: #000000; stroke-width: 0.8; stroke-linejoin: miter; stroke-linecap: square"/>
   </g>
   <g id="patch_7">
    <path d="M 221.100994 187.118437 
L 373.282812 187.118437 
" style="fill: none; stroke: #000000; stroke-width: 0.8; stroke-linejoin: miter; stroke-linecap: square"/>
   </g>
   <g id="text_20">
    <!-- Predictive uncertainty -->
    <g transform="translate(242.237997 14.798438) scale(0.1 -0.1)">
     <defs>
      <path id="DejaVuSans-50" d="M 1259 4147 
L 1259 2394 
L 2053 2394 
Q 2494 2394 2734 2622 
Q 2975 2850 2975 3272 
Q 2975 3691 2734 3919 
Q 2494 4147 2053 4147 
L 1259 4147 
z
M 628 4666 
L 2053 4666 
Q 2838 4666 3239 4311 
Q 3641 3956 3641 3272 
Q 3641 2581 3239 2228 
Q 2838 1875 2053 1875 
L 1259 1875 
L 1259 0 
L 628 0 
L 628 4666 
z
" transform="scale(0.015625)"/>
      <path id="DejaVuSans-64" d="M 2906 2969 
L 2906 4863 
L 3481 4863 
L 3481 0 
L 2906 0 
L 2906 525 
Q 2725 213 2448 61 
Q 2172 -91 1784 -91 
Q 1150 -91 751 415 
Q 353 922 353 1747 
Q 353 2572 751 3078 
Q 1150 3584 1784 3584 
Q 2172 3584 2448 3432 
Q 2725 3281 2906 2969 
z
M 947 1747 
Q 947 1113 1208 752 
Q 1469 391 1925 391 
Q 2381 391 2643 752 
Q 2906 1113 2906 1747 
Q 2906 2381 2643 2742 
Q 2381 3103 1925 3103 
Q 1469 3103 1208 2742 
Q 947 2381 947 1747 
z
" transform="scale(0.015625)"/>
      <path id="DejaVuSans-76" d="M 191 3500 
L 800 3500 
L 1894 563 
L 2988 3500 
L 3597 3500 
L 2284 0 
L 1503 0 
L 191 3500 
z
" transform="scale(0.015625)"/>
     </defs>
     <use xlink:href="#DejaVuSans-50"/>
     <use xlink:href="#DejaVuSans-72" transform="translate(58.552734 0)"/>
     <use xlink:href="#DejaVuSans-65" transform="translate(97.416016 0)"/>
     <use xlink:href="#DejaVuSans-64" transform="translate(158.939453 0)"/>
     <use xlink:href="#DejaVuSans-69" transform="translate(222.416016 0)"/>
     <use xlink:href="#DejaVuSans-63" transform="translate(250.199219 0)"/>
     <use xlink:href="#DejaVuSans-74" transform="translate(305.179688 0)"/>
     <use xlink:href="#DejaVuSans-69" transform="translate(344.388672 0)"/>
     <use xlink:href="#DejaVuSans-76" transform="translate(372.171875 0)"/>
     <use xlink:href="#DejaVuSans-65" transform="translate(431.351562 0)"/>
     <use xlink:href="#DejaVuSans-20" transform="translate(492.875 0)"/>
     <use xlink:href="#DejaVuSans-75" transform="translate(524.662109 0)"/>
     <use xlink:href="#DejaVuSans-6e" transform="translate(588.041016 0)"/>
     <use xlink:href="#DejaVuSans-63" transform="translate(651.419922 0)"/>
     <use xlink:href="#DejaVuSans-65" transform="translate(706.400391 0)"/>
     <use xlink:href="#DejaVuSans-72" transform="translate(767.923828 0)"/>
     <use xlink:href="#DejaVuSans-74" transform="translate(809.037109 0)"/>
     <use xlink:href="#DejaVuSans-61" transform="translate(848.246094 0)"/>
     <use xlink:href="#DejaVuSans-69" transform="translate(909.525391 0)"/>
     <use xlink:href="#DejaVuSans-6e" transform="translate(937.308594 0)"/>
     <use xlink:href="#DejaVuSans-74" transform="translate(1000.6875 0)"/>
     <use xlink:href="#DejaVuSans-79" transform="translate(1039.896484 0)"/>
    </g>
   </g>
  </g>
 </g>
 <defs>
  <clipPath id="p962bc8027a">
   <rect x="38.482813" y="20.798438" width="152.181818" height="166.32"/>
  </clipPath>
  <clipPath id="p932e39dfff">
   <rect x="221.100994" y="20.798438" width="152.181818" height="166.32"/>
  </clipPath>
 </defs>
</svg>
