<?xml version="1.0" encoding="utf-8" standalone="no"?>
<!DOCTYPE svg PUBLIC "-//W3C//DTD SVG 1.1//EN"
  "http://www.w3.org/Graphics/SVG/1.1/DTD/svg11.dtd">
<svg xmlns:xlink="http://www.w3.org/1999/xlink" width="348.181875pt" height="180.72pt" viewBox="0 0 348.181875 180.72" xmlns="http://www.w3.org/2000/svg" version="1.1">
 <metadata>
  <rdf:RDF xmlns:dc="http://purl.org/dc/elements/1.1/" xmlns:cc="http://creativecommons.org/ns#" xmlns:rdf="http://www.w3.org/1999/02/22-rdf-syntax-ns#">
   <cc:Work>
    <dc:type rdf:resource="http://purl.org/dc/dcmitype/StillImage"/>
    <dc:date>2025-09-08T15:01:09.566326</dc:date>
    <dc:format>image/svg+xml</dc:format>
    <dc:creator>
     <cc:Agent>
      <dc:title>Matplotlib v3.10.3, https://matplotlib.org/</dc:title>
     </cc:Agent>
    </dc:creator>
   </cc:Work>
  </rdf:RDF>
 </metadata>
 <defs>
  <style type="text/css">*{stroke-linejoin: round; stroke-linecap: butt}</style>
 </defs>
 <g id="figure_1">
  <g id="patch_1">
   <path d="M 0 180.72 
L 348.181875 180.72 
L 348.181875 0 
L 0 0 
z
" style="fill: #ffffff"/>
  </g>
  <g id="axes_1">
   <g id="FillBetweenPolyCollection_1">
    <defs>
     <path id="m68c16d0280" d="M 17.345455 -106.801967 
L 17.345455 -60.780983 
L 18.365098 -60.999252 
L 19.384742 -61.282048 
L 20.404386 -61.63571 
L 21.424029 -62.066076 
L 22.443673 -62.578296 
L 23.463317 -63.176637 
L 24.48296 -63.864302 
L 25.502604 -64.643251 
L 26.522248 -65.514046 
L 27.541891 -66.475714 
L 28.561535 -67.525645 
L 29.581179 -68.659517 
L 30.600822 -69.87128 
L 31.620466 -71.153182 
L 32.64011 -72.495881 
L 33.659753 -73.888627 
L 34.679397 -75.319569 
L 35.699041 -76.776181 
L 36.718684 -78.245828 
L 37.738328 -79.716458 
L 38.757972 -81.177363 
L 39.777615 -82.619878 
L 40.797259 -84.037891 
L 41.816903 -85.427975 
L 42.836546 -86.789084 
L 43.85619 -88.121855 
L 44.875834 -89.427684 
L 45.895477 -90.707813 
L 46.915121 -91.962592 
L 47.934765 -93.19105 
L 48.954408 -94.39075 
L 49.974052 -95.557902 
L 50.993696 -96.687628 
L 52.013339 -97.774326 
L 53.032983 -98.812037 
L 54.052627 -99.79479 
L 55.07227 -100.716869 
L 56.091914 -101.572998 
L 57.111558 -102.358427 
L 58.131201 -103.068945 
L 59.150845 -103.700814 
L 60.170489 -104.250676 
L 61.190132 -104.715443 
L 62.209776 -105.092207 
L 63.22942 -105.37819 
L 64.249063 -105.570754 
L 65.268707 -105.667474 
L 66.288351 -105.66626 
L 67.307995 -105.565531 
L 68.327638 -105.3644 
L 69.347282 -105.062843 
L 70.366926 -104.661839 
L 71.386569 -104.163432 
L 72.406213 -103.570719 
L 73.425857 -102.887769 
L 74.4455 -102.119454 
L 75.465144 -101.271257 
L 76.484788 -100.349033 
L 77.504431 -99.358793 
L 78.524075 -98.306502 
L 79.543719 -97.197921 
L 80.563362 -96.03851 
L 81.583006 -94.833384 
L 82.60265 -93.587332 
L 83.622293 -92.304889 
L 84.641937 -90.990453 
L 85.661581 -89.648418 
L 86.681224 -88.283321 
L 87.700868 -86.899968 
L 88.720512 -85.503527 
L 89.740155 -84.099577 
L 90.759799 -82.694098 
L 91.779443 -81.29342 
L 92.799086 -79.904137 
L 93.81873 -78.53299 
L 94.838374 -77.186765 
L 95.858017 -75.872187 
L 96.877661 -74.595848 
L 97.897305 -73.364156 
L 98.916948 -72.183309 
L 99.936592 -71.0593 
L 100.956236 -69.997917 
L 101.975879 -69.004766 
L 102.995523 -68.085274 
L 104.015167 -67.244694 
L 105.03481 -66.488078 
L 106.054454 -65.820244 
L 107.074098 -65.245714 
L 108.093741 -64.768639 
L 109.113385 -64.392708 
L 110.133029 -64.121062 
L 111.152672 -63.956201 
L 112.172316 -63.899918 
L 113.19196 -63.953249 
L 114.211603 -64.116468 
L 115.231247 -64.389109 
L 116.250891 -64.770041 
L 117.270534 -65.257573 
L 118.290178 -65.849595 
L 119.309822 -66.543728 
L 120.329466 -67.337482 
L 121.349109 -68.228382 
L 122.368753 -69.214067 
L 123.388397 -70.292334 
L 124.40804 -71.461127 
L 125.427684 -72.718473 
L 126.447328 -74.062364 
L 127.466971 -75.490622 
L 128.486615 -77.000739 
L 129.506259 -78.589735 
L 130.525902 -80.254032 
L 131.545546 -81.989381 
L 132.56519 -83.790823 
L 133.584833 -85.65271 
L 134.604477 -87.56876 
L 135.624121 -89.532142 
L 136.643764 -91.535568 
L 137.663408 -93.571377 
L 138.683052 -95.631597 
L 139.702695 -97.707968 
L 140.722339 -99.791951 
L 141.741983 -101.874709 
L 142.761626 -103.947108 
L 143.78127 -105.999727 
L 144.800914 -108.02293 
L 145.820557 -110.006975 
L 146.840201 -111.942195 
L 147.859845 -113.819225 
L 148.879488 -115.62927 
L 149.899132 -117.364392 
L 150.918776 -119.017784 
L 151.938419 -120.584023 
L 152.958063 -122.059244 
L 153.977707 -123.441248 
L 154.99735 -124.729497 
L 156.016994 -125.925019 
L 157.036638 -127.0302 
L 158.056281 -128.048506 
L 159.075925 -128.984143 
L 160.095569 -129.841692 
L 161.115212 -130.625742 
L 162.134856 -131.34056 
L 163.1545 -131.989808 
L 164.174143 -132.576324 
L 165.193787 -133.101981 
L 166.213431 -133.567605 
L 167.233074 -133.972963 
L 168.252718 -134.316803 
L 169.272362 -134.596936 
L 170.292005 -134.810355 
L 171.311649 -134.953389 
L 172.331293 -135.021875 
L 173.350937 -135.011373 
L 174.37058 -134.917395 
L 175.390224 -134.735665 
L 176.409868 -134.462395 
L 177.429511 -134.094574 
L 178.449155 -133.630242 
L 179.468799 -133.06874 
L 180.488442 -132.410906 
L 181.508086 -131.65919 
L 182.52773 -130.81767 
L 183.547373 -129.89194 
L 184.567017 -128.888876 
L 185.586661 -127.816258 
L 186.606304 -126.682288 
L 187.625948 -125.495 
L 188.645592 -124.261625 
L 189.665235 -122.987943 
L 190.684879 -121.677707 
L 191.704523 -120.332209 
L 192.724166 -118.950123 
L 193.74381 -117.527693 
L 194.763454 -116.059377 
L 195.783097 -114.538898 
L 196.802741 -112.960571 
L 197.822385 -111.320603 
L 198.842028 -109.618061 
L 199.861672 -107.855292 
L 200.881316 -106.037757 
L 201.900959 -104.173463 
L 202.920603 -102.272197 
L 203.940247 -100.344781 
L 204.95989 -98.402454 
L 205.979534 -96.456407 
L 206.999178 -94.517474 
L 208.018821 -92.595928 
L 209.038465 -90.701361 
L 210.058109 -88.842602 
L 211.077752 -87.027675 
L 212.097396 -85.263766 
L 213.11704 -83.557206 
L 214.136683 -81.913456 
L 215.156327 -80.337108 
L 216.175971 -78.831883 
L 217.195614 -77.400653 
L 218.215258 -76.045454 
L 219.234902 -74.767526 
L 220.254545 -73.567351 
L 220.254545 -119.763675 
L 220.254545 -119.763675 
L 219.234902 -120.20786 
L 218.215258 -120.636264 
L 217.195614 -121.045261 
L 216.175971 -121.431932 
L 215.156327 -121.794251 
L 214.136683 -122.13128 
L 213.11704 -122.443334 
L 212.097396 -122.732129 
L 211.077752 -123.000896 
L 210.058109 -123.254458 
L 209.038465 -123.499259 
L 208.018821 -123.743349 
L 206.999178 -123.996302 
L 205.979534 -124.269077 
L 204.95989 -124.573791 
L 203.940247 -124.923406 
L 202.920603 -125.331289 
L 201.900959 -125.810633 
L 200.881316 -126.373703 
L 199.861672 -127.030911 
L 198.842028 -127.789764 
L 197.822385 -128.653822 
L 196.802741 -129.621868 
L 195.783097 -130.687543 
L 194.763454 -131.839622 
L 193.74381 -133.062909 
L 192.724166 -134.339552 
L 191.704523 -135.65047 
L 190.684879 -136.976594 
L 189.665235 -138.299786 
L 188.645592 -139.603389 
L 187.625948 -140.872484 
L 186.606304 -142.093944 
L 185.586661 -143.256358 
L 184.567017 -144.349912 
L 183.547373 -145.36626 
L 182.52773 -146.298407 
L 181.508086 -147.140643 
L 180.488442 -147.888505 
L 179.468799 -148.538774 
L 178.449155 -149.089498 
L 177.429511 -149.540011 
L 176.409868 -149.890934 
L 175.390224 -150.14414 
L 174.37058 -150.302658 
L 173.350937 -150.370517 
L 172.331293 -150.352515 
L 171.311649 -150.253947 
L 170.292005 -150.080272 
L 169.272362 -149.836783 
L 168.252718 -149.528273 
L 167.233074 -149.158742 
L 166.213431 -148.731165 
L 165.193787 -148.247338 
L 164.174143 -147.707807 
L 163.1545 -147.111889 
L 162.134856 -146.457776 
L 161.115212 -145.742693 
L 160.095569 -144.963115 
L 159.075925 -144.115003 
L 158.056281 -143.19405 
L 157.036638 -142.195929 
L 156.016994 -141.116521 
L 154.99735 -139.952132 
L 153.977707 -138.699701 
L 152.958063 -137.356991 
L 151.938419 -135.922775 
L 150.918776 -134.397014 
L 149.899132 -132.78102 
L 148.879488 -131.077589 
L 147.859845 -129.291102 
L 146.840201 -127.427562 
L 145.820557 -125.494572 
L 144.800914 -123.501226 
L 143.78127 -121.457927 
L 142.761626 -119.376124 
L 141.741983 -117.267975 
L 140.722339 -115.145978 
L 139.702695 -113.022559 
L 138.683052 -110.909688 
L 137.663408 -108.818523 
L 136.643764 -106.759135 
L 135.624121 -104.740335 
L 134.604477 -102.769602 
L 133.584833 -100.85314 
L 132.56519 -98.996019 
L 131.545546 -97.202396 
L 130.525902 -95.475771 
L 129.506259 -93.81925 
L 128.486615 -92.235778 
L 127.466971 -90.728326 
L 126.447328 -89.300008 
L 125.427684 -87.95413 
L 124.40804 -86.694174 
L 123.388397 -85.523725 
L 122.368753 -84.446364 
L 121.349109 -83.465535 
L 120.329466 -82.58442 
L 119.309822 -81.805828 
L 118.290178 -81.132101 
L 117.270534 -80.565064 
L 116.250891 -80.105993 
L 115.231247 -79.755607 
L 114.211603 -79.514077 
L 113.19196 -79.381038 
L 112.172316 -79.355607 
L 111.152672 -79.436385 
L 110.133029 -79.621474 
L 109.113385 -79.908474 
L 108.093741 -80.294497 
L 107.074098 -80.776181 
L 106.054454 -81.349715 
L 105.03481 -82.01088 
L 104.015167 -82.755107 
L 102.995523 -83.577549 
L 101.975879 -84.473162 
L 100.956236 -85.436799 
L 99.936592 -86.463302 
L 98.916948 -87.547593 
L 97.897305 -88.684744 
L 96.877661 -89.870027 
L 95.858017 -91.098938 
L 94.838374 -92.36718 
L 93.81873 -93.6706 
L 92.799086 -95.0051 
L 91.779443 -96.366497 
L 90.759799 -97.75037 
L 89.740155 -99.151893 
L 88.720512 -100.565685 
L 87.700868 -101.985695 
L 86.681224 -103.405147 
L 85.661581 -104.816549 
L 84.641937 -106.211796 
L 83.622293 -107.582324 
L 82.60265 -108.919345 
L 81.583006 -110.214096 
L 80.563362 -111.458121 
L 79.543719 -112.643521 
L 78.524075 -113.763176 
L 77.504431 -114.810912 
L 76.484788 -115.781593 
L 75.465144 -116.671143 
L 74.4455 -117.476495 
L 73.425857 -118.195472 
L 72.406213 -118.826615 
L 71.386569 -119.368987 
L 70.366926 -119.821972 
L 69.347282 -120.1851 
L 68.327638 -120.45792 
L 67.307995 -120.639941 
L 66.288351 -120.730641 
L 65.268707 -120.729536 
L 64.249063 -120.636304 
L 63.22942 -120.450916 
L 62.209776 -120.173779 
L 61.190132 -119.805842 
L 60.170489 -119.348673 
L 59.150845 -118.804485 
L 58.131201 -118.176125 
L 57.111558 -117.467037 
L 56.091914 -116.681212 
L 55.07227 -115.82315 
L 54.052627 -114.897864 
L 53.032983 -113.910926 
L 52.013339 -112.86859 
L 50.993696 -111.777974 
L 49.974052 -110.647305 
L 48.954408 -109.48619 
L 47.934765 -108.305892 
L 46.915121 -107.119544 
L 45.895477 -105.942242 
L 44.875834 -104.790939 
L 43.85619 -103.684064 
L 42.836546 -102.640817 
L 41.816903 -101.680162 
L 40.797259 -100.819618 
L 39.777615 -100.074054 
L 38.757972 -99.454721 
L 37.738328 -98.968696 
L 36.718684 -98.618804 
L 35.699041 -98.403935 
L 34.679397 -98.319617 
L 33.659753 -98.358683 
L 32.64011 -98.511924 
L 31.620466 -98.768665 
L 30.600822 -99.117254 
L 29.581179 -99.545471 
L 28.561535 -100.040859 
L 27.541891 -100.591016 
L 26.522248 -101.183837 
L 25.502604 -101.807717 
L 24.48296 -102.451738 
L 23.463317 -103.105802 
L 22.443673 -103.760755 
L 21.424029 -104.408463 
L 20.404386 -105.041865 
L 19.384742 -105.654994 
L 18.365098 -106.24297 
L 17.345455 -106.801967 
z
"/>
    </defs>
    <g clip-path="url(#p5f76e0376f)">
     <use xlink:href="#m68c16d0280" x="0" y="180.72" style="fill: #dc143c; fill-opacity: 0.2"/>
    </g>
   </g>
   <g id="FillBetweenPolyCollection_2">
    <defs>
     <path id="m24975a2b13" d="M 17.345455 -129.812458 
L 17.345455 -37.770492 
L 18.365098 -38.377393 
L 19.384742 -39.095576 
L 20.404386 -39.932633 
L 21.424029 -40.894883 
L 22.443673 -41.987066 
L 23.463317 -43.212054 
L 24.48296 -44.570584 
L 25.502604 -46.061017 
L 26.522248 -47.67915 
L 27.541891 -49.418063 
L 28.561535 -51.268038 
L 29.581179 -53.216541 
L 30.600822 -55.248292 
L 31.620466 -57.345441 
L 32.64011 -59.487859 
L 33.659753 -61.653599 
L 34.679397 -63.819545 
L 35.699041 -65.962304 
L 36.718684 -68.059339 
L 37.738328 -70.090339 
L 38.757972 -72.038683 
L 39.777615 -73.89279 
L 40.797259 -75.647028 
L 41.816903 -77.301882 
L 42.836546 -78.863218 
L 43.85619 -80.34075 
L 44.875834 -81.746057 
L 45.895477 -83.090598 
L 46.915121 -84.384116 
L 47.934765 -85.633629 
L 48.954408 -86.843031 
L 49.974052 -88.013201 
L 50.993696 -89.142456 
L 52.013339 -90.227194 
L 53.032983 -91.262592 
L 54.052627 -92.243253 
L 55.07227 -93.163729 
L 56.091914 -94.018891 
L 57.111558 -94.804122 
L 58.131201 -95.515355 
L 59.150845 -96.148978 
L 60.170489 -96.701678 
L 61.190132 -97.170244 
L 62.209776 -97.551421 
L 63.22942 -97.841826 
L 64.249063 -98.03798 
L 65.268707 -98.136443 
L 66.288351 -98.13407 
L 67.307995 -98.028326 
L 68.327638 -97.817639 
L 69.347282 -97.501715 
L 70.366926 -97.081773 
L 71.386569 -96.560654 
L 72.406213 -95.942772 
L 73.425857 -95.233917 
L 74.4455 -94.440934 
L 75.465144 -93.571314 
L 76.484788 -92.632753 
L 77.504431 -91.632733 
L 78.524075 -90.578164 
L 79.543719 -89.475121 
L 80.563362 -88.328705 
L 81.583006 -87.143028 
L 82.60265 -85.921325 
L 83.622293 -84.666172 
L 84.641937 -83.379782 
L 85.661581 -82.064353 
L 86.681224 -80.722408 
L 87.700868 -79.357104 
L 88.720512 -77.972448 
L 89.740155 -76.573419 
L 90.759799 -75.165962 
L 91.779443 -73.756882 
L 92.799086 -72.353655 
L 93.81873 -70.964186 
L 94.838374 -69.596558 
L 95.858017 -68.258812 
L 96.877661 -66.958759 
L 97.897305 -65.703862 
L 98.916948 -64.501167 
L 99.936592 -63.357299 
L 100.956236 -62.278476 
L 101.975879 -61.270568 
L 102.995523 -60.339137 
L 104.015167 -59.489488 
L 105.03481 -58.726678 
L 106.054454 -58.055509 
L 107.074098 -57.480481 
L 108.093741 -57.005709 
L 109.113385 -56.634825 
L 110.133029 -56.370856 
L 111.152672 -56.216109 
L 112.172316 -56.172073 
L 113.19196 -56.239355 
L 114.211603 -56.417664 
L 115.231247 -56.705861 
L 116.250891 -57.102065 
L 117.270534 -57.603827 
L 118.290178 -58.208342 
L 119.309822 -58.912679 
L 120.329466 -59.714013 
L 121.349109 -60.609805 
L 122.368753 -61.597918 
L 123.388397 -62.676638 
L 124.40804 -63.844604 
L 125.427684 -65.100644 
L 126.447328 -66.443542 
L 127.466971 -67.87177 
L 128.486615 -69.38322 
L 129.506259 -70.974977 
L 130.525902 -72.643163 
L 131.545546 -74.382873 
L 132.56519 -76.188225 
L 133.584833 -78.052495 
L 134.604477 -79.968339 
L 135.624121 -81.928045 
L 136.643764 -83.923784 
L 137.663408 -85.947804 
L 138.683052 -87.992551 
L 139.702695 -90.050673 
L 140.722339 -92.114938 
L 141.741983 -94.178077 
L 142.761626 -96.2326 
L 143.78127 -98.270627 
L 144.800914 -100.283782 
L 145.820557 -102.263176 
L 146.840201 -104.199511 
L 147.859845 -106.083286 
L 148.879488 -107.905111 
L 149.899132 -109.656077 
L 150.918776 -111.328169 
L 151.938419 -112.914647 
L 152.958063 -114.41037 
L 153.977707 -115.812021 
L 154.99735 -117.11818 
L 156.016994 -118.329269 
L 157.036638 -119.447336 
L 158.056281 -120.475734 
L 159.075925 -121.418714 
L 160.095569 -122.280981 
L 161.115212 -123.067267 
L 162.134856 -123.781952 
L 163.1545 -124.428767 
L 164.174143 -125.010583 
L 165.193787 -125.529302 
L 166.213431 -125.985824 
L 167.233074 -126.380073 
L 168.252718 -126.711068 
L 169.272362 -126.977012 
L 170.292005 -127.175397 
L 171.311649 -127.30311 
L 172.331293 -127.356555 
L 173.350937 -127.331802 
L 174.37058 -127.224764 
L 175.390224 -127.031428 
L 176.409868 -126.748126 
L 177.429511 -126.371856 
L 178.449155 -125.900614 
L 179.468799 -125.333723 
L 180.488442 -124.672106 
L 181.508086 -123.918464 
L 182.52773 -123.077301 
L 183.547373 -122.154781 
L 184.567017 -121.158358 
L 185.586661 -120.096208 
L 186.606304 -118.976459 
L 187.625948 -117.806257 
L 188.645592 -116.590743 
L 189.665235 -115.332022 
L 190.684879 -114.028263 
L 191.704523 -112.673079 
L 192.724166 -111.255409 
L 193.74381 -109.760086 
L 194.763454 -108.169254 
L 195.783097 -106.464576 
L 196.802741 -104.629923 
L 197.822385 -102.653993 
L 198.842028 -100.53221 
L 199.861672 -98.267483 
L 200.881316 -95.869785 
L 201.900959 -93.354878 
L 202.920603 -90.742651 
L 203.940247 -88.055469 
L 204.95989 -85.316786 
L 205.979534 -82.550073 
L 206.999178 -79.77806 
L 208.018821 -77.022218 
L 209.038465 -74.302412 
L 210.058109 -71.636673 
L 211.077752 -69.041064 
L 212.097396 -66.529584 
L 213.11704 -64.114142 
L 214.136683 -61.804544 
L 215.156327 -59.608536 
L 216.175971 -57.531859 
L 217.195614 -55.578349 
L 218.215258 -53.75005 
L 219.234902 -52.047359 
L 220.254545 -50.469189 
L 220.254545 -142.861838 
L 220.254545 -142.861838 
L 219.234902 -142.928027 
L 218.215258 -142.931668 
L 217.195614 -142.867566 
L 216.175971 -142.731956 
L 215.156327 -142.522823 
L 214.136683 -142.240192 
L 213.11704 -141.886398 
L 212.097396 -141.466311 
L 211.077752 -140.987507 
L 210.058109 -140.460386 
L 209.038465 -139.898208 
L 208.018821 -139.317059 
L 206.999178 -138.735716 
L 205.979534 -138.175411 
L 204.95989 -137.659459 
L 203.940247 -137.212718 
L 202.920603 -136.860834 
L 201.900959 -136.629218 
L 200.881316 -136.541676 
L 199.861672 -136.61872 
L 198.842028 -136.875616 
L 197.822385 -137.320432 
L 196.802741 -137.952516 
L 195.783097 -138.761866 
L 194.763454 -139.729745 
L 193.74381 -140.830517 
L 192.724166 -142.034266 
L 191.704523 -143.3096 
L 190.684879 -144.626038 
L 189.665235 -145.955708 
L 188.645592 -147.274271 
L 187.625948 -148.561227 
L 186.606304 -149.799772 
L 185.586661 -150.976408 
L 184.567017 -152.080431 
L 183.547373 -153.103419 
L 182.52773 -154.038775 
L 181.508086 -154.881369 
L 180.488442 -155.627304 
L 179.468799 -156.273791 
L 178.449155 -156.819126 
L 177.429511 -157.262729 
L 176.409868 -157.605203 
L 175.390224 -157.848377 
L 174.37058 -157.99529 
L 173.350937 -158.050088 
L 172.331293 -158.017835 
L 171.311649 -157.904225 
L 170.292005 -157.71523 
L 169.272362 -157.456706 
L 168.252718 -157.134008 
L 167.233074 -156.751631 
L 166.213431 -156.312946 
L 165.193787 -155.820017 
L 164.174143 -155.273548 
L 163.1545 -154.67293 
L 162.134856 -154.016384 
L 161.115212 -153.301169 
L 160.095569 -152.523827 
L 159.075925 -151.680433 
L 158.056281 -150.766822 
L 157.036638 -149.778794 
L 156.016994 -148.712271 
L 154.99735 -147.563449 
L 153.977707 -146.328928 
L 152.958063 -145.005865 
L 151.938419 -143.592151 
L 150.918776 -142.086629 
L 149.899132 -140.489334 
L 148.879488 -138.801749 
L 147.859845 -137.027041 
L 146.840201 -135.170246 
L 145.820557 -133.238371 
L 144.800914 -131.240374 
L 143.78127 -129.187027 
L 142.761626 -127.090631 
L 141.741983 -124.964608 
L 140.722339 -122.822991 
L 139.702695 -120.679855 
L 138.683052 -118.548734 
L 137.663408 -116.442096 
L 136.643764 -114.370919 
L 135.624121 -112.344431 
L 134.604477 -110.370023 
L 133.584833 -108.453355 
L 132.56519 -106.598617 
L 131.545546 -104.808904 
L 130.525902 -103.08664 
L 129.506259 -101.434007 
L 128.486615 -99.853297 
L 127.466971 -98.347178 
L 126.447328 -96.91883 
L 125.427684 -95.571959 
L 124.40804 -94.310697 
L 123.388397 -93.139421 
L 122.368753 -92.062513 
L 121.349109 -91.084111 
L 120.329466 -90.207889 
L 119.309822 -89.436877 
L 118.290178 -88.773354 
L 117.270534 -88.21881 
L 116.250891 -87.773969 
L 115.231247 -87.438855 
L 114.211603 -87.212881 
L 113.19196 -87.094933 
L 112.172316 -87.083451 
L 111.152672 -87.176478 
L 110.133029 -87.37168 
L 109.113385 -87.666357 
L 108.093741 -88.057427 
L 107.074098 -88.541415 
L 106.054454 -89.11445 
L 105.03481 -89.77228 
L 104.015167 -90.510314 
L 102.995523 -91.323686 
L 101.975879 -92.20736 
L 100.956236 -93.156239 
L 99.936592 -94.165303 
L 98.916948 -95.229735 
L 97.897305 -96.345038 
L 96.877661 -97.507116 
L 95.858017 -98.712314 
L 94.838374 -99.957387 
L 93.81873 -101.239405 
L 92.799086 -102.555581 
L 91.779443 -103.903035 
L 90.759799 -105.278506 
L 89.740155 -106.678051 
L 88.720512 -108.096764 
L 87.700868 -109.528559 
L 86.681224 -110.966059 
L 85.661581 -112.400615 
L 84.641937 -113.822467 
L 83.622293 -115.221042 
L 82.60265 -116.585351 
L 81.583006 -117.904452 
L 80.563362 -119.167926 
L 79.543719 -120.366321 
L 78.524075 -121.491514 
L 77.504431 -122.536972 
L 76.484788 -123.497873 
L 75.465144 -124.371086 
L 74.4455 -125.155015 
L 73.425857 -125.849324 
L 72.406213 -126.454563 
L 71.386569 -126.971765 
L 70.366926 -127.402039 
L 69.347282 -127.746229 
L 68.327638 -128.004681 
L 67.307995 -128.177146 
L 66.288351 -128.262831 
L 65.268707 -128.260568 
L 64.249063 -128.169079 
L 63.22942 -127.98728 
L 62.209776 -127.714565 
L 61.190132 -127.351042 
L 60.170489 -126.897672 
L 59.150845 -126.35632 
L 58.131201 -125.729715 
L 57.111558 -125.021342 
L 56.091914 -124.235318 
L 55.07227 -123.376291 
L 54.052627 -122.449401 
L 53.032983 -121.460371 
L 52.013339 -120.415722 
L 50.993696 -119.323147 
L 49.974052 -118.192006 
L 48.954408 -117.03391 
L 47.934765 -115.863313 
L 46.915121 -114.69802 
L 45.895477 -113.559457 
L 44.875834 -112.472566 
L 43.85619 -111.465168 
L 42.836546 -110.566683 
L 41.816903 -109.806255 
L 40.797259 -109.210481 
L 39.777615 -108.801142 
L 38.757972 -108.5934 
L 37.738328 -108.594815 
L 36.718684 -108.805293 
L 35.699041 -109.217812 
L 34.679397 -109.819641 
L 33.659753 -110.593711 
L 32.64011 -111.519946 
L 31.620466 -112.576406 
L 30.600822 -113.740242 
L 29.581179 -114.988448 
L 28.561535 -116.298466 
L 27.541891 -117.648667 
L 26.522248 -119.018732 
L 25.502604 -120.389951 
L 24.48296 -121.745456 
L 23.463317 -123.070385 
L 22.443673 -124.351985 
L 21.424029 -125.579656 
L 20.404386 -126.744942 
L 19.384742 -127.841466 
L 18.365098 -128.864829 
L 17.345455 -129.812458 
z
"/>
    </defs>
    <g clip-path="url(#p5f76e0376f)">
     <use xlink:href="#m24975a2b13" x="0" y="180.72" style="fill: #dc143c; fill-opacity: 0.2"/>
    </g>
   </g>
   <g id="FillBetweenPolyCollection_3">
    <defs>
     <path id="m023f9f2d0d" d="M 17.345455 -152.82295 
L 17.345455 -14.76 
L 18.365098 -15.755534 
L 19.384742 -16.909103 
L 20.404386 -18.229556 
L 21.424029 -19.72369 
L 22.443673 -21.395837 
L 23.463317 -23.247472 
L 24.48296 -25.276866 
L 25.502604 -27.478784 
L 26.522248 -29.844255 
L 27.541891 -32.360412 
L 28.561535 -35.010431 
L 29.581179 -37.773564 
L 30.600822 -40.625305 
L 31.620466 -43.5377 
L 32.64011 -46.479838 
L 33.659753 -49.418571 
L 34.679397 -52.319521 
L 35.699041 -55.148427 
L 36.718684 -57.872851 
L 37.738328 -60.46422 
L 38.757972 -62.900004 
L 39.777615 -65.165702 
L 40.797259 -67.256165 
L 41.816903 -69.175788 
L 42.836546 -70.937351 
L 43.85619 -72.559646 
L 44.875834 -74.064429 
L 45.895477 -75.473383 
L 46.915121 -76.80564 
L 47.934765 -78.076207 
L 48.954408 -79.295311 
L 49.974052 -80.4685 
L 50.993696 -81.597283 
L 52.013339 -82.680062 
L 53.032983 -83.713148 
L 54.052627 -84.691716 
L 55.07227 -85.610588 
L 56.091914 -86.464784 
L 57.111558 -87.249817 
L 58.131201 -87.961765 
L 59.150845 -88.597143 
L 60.170489 -89.152679 
L 61.190132 -89.625044 
L 62.209776 -90.010635 
L 63.22942 -90.305463 
L 64.249063 -90.505205 
L 65.268707 -90.605412 
L 66.288351 -90.60188 
L 67.307995 -90.491121 
L 68.327638 -90.270879 
L 69.347282 -89.940586 
L 70.366926 -89.501706 
L 71.386569 -88.957876 
L 72.406213 -88.314824 
L 73.425857 -87.580065 
L 74.4455 -86.762414 
L 75.465144 -85.871371 
L 76.484788 -84.916473 
L 77.504431 -83.906674 
L 78.524075 -82.849827 
L 79.543719 -81.752322 
L 80.563362 -80.6189 
L 81.583006 -79.452672 
L 82.60265 -78.255319 
L 83.622293 -77.027454 
L 84.641937 -75.769111 
L 85.661581 -74.480287 
L 86.681224 -73.161496 
L 87.700868 -71.81424 
L 88.720512 -70.44137 
L 89.740155 -69.047261 
L 90.759799 -67.637825 
L 91.779443 -66.220344 
L 92.799086 -64.803174 
L 93.81873 -63.395381 
L 94.838374 -62.006351 
L 95.858017 -60.645437 
L 96.877661 -59.32167 
L 97.897305 -58.043568 
L 98.916948 -56.819025 
L 99.936592 -55.655297 
L 100.956236 -54.559035 
L 101.975879 -53.536369 
L 102.995523 -52.593 
L 104.015167 -51.734281 
L 105.03481 -50.965277 
L 106.054454 -50.290774 
L 107.074098 -49.715247 
L 108.093741 -49.24278 
L 109.113385 -48.876942 
L 110.133029 -48.62065 
L 111.152672 -48.476017 
L 112.172316 -48.444229 
L 113.19196 -48.52546 
L 114.211603 -48.71886 
L 115.231247 -49.022612 
L 116.250891 -49.434089 
L 117.270534 -49.950082 
L 118.290178 -50.567088 
L 119.309822 -51.281629 
L 120.329466 -52.090544 
L 121.349109 -52.991229 
L 122.368753 -53.981769 
L 123.388397 -55.060942 
L 124.40804 -56.22808 
L 125.427684 -57.482815 
L 126.447328 -58.82472 
L 127.466971 -60.252917 
L 128.486615 -61.765701 
L 129.506259 -63.36022 
L 130.525902 -65.032294 
L 131.545546 -66.776366 
L 132.56519 -68.585627 
L 133.584833 -70.45228 
L 134.604477 -72.367918 
L 135.624121 -74.323949 
L 136.643764 -76.312 
L 137.663408 -78.324232 
L 138.683052 -80.353506 
L 139.702695 -82.393378 
L 140.722339 -84.437924 
L 141.741983 -86.481444 
L 142.761626 -88.518092 
L 143.78127 -90.541527 
L 144.800914 -92.544634 
L 145.820557 -94.519377 
L 146.840201 -96.456827 
L 147.859845 -98.347347 
L 148.879488 -100.180951 
L 149.899132 -101.947763 
L 150.918776 -103.638554 
L 151.938419 -105.24527 
L 152.958063 -106.761497 
L 153.977707 -108.182794 
L 154.99735 -109.506863 
L 156.016994 -110.733518 
L 157.036638 -111.864471 
L 158.056281 -112.902962 
L 159.075925 -113.853284 
L 160.095569 -114.720269 
L 161.115212 -115.508791 
L 162.134856 -116.223344 
L 163.1545 -116.867726 
L 164.174143 -117.444841 
L 165.193787 -117.956623 
L 166.213431 -118.404044 
L 167.233074 -118.787184 
L 168.252718 -119.105333 
L 169.272362 -119.357089 
L 170.292005 -119.540439 
L 171.311649 -119.652831 
L 172.331293 -119.691235 
L 173.350937 -119.65223 
L 174.37058 -119.532133 
L 175.390224 -119.32719 
L 176.409868 -119.033857 
L 177.429511 -118.649138 
L 178.449155 -118.170986 
L 179.468799 -117.598706 
L 180.488442 -116.933307 
L 181.508086 -116.177737 
L 182.52773 -115.336933 
L 183.547373 -114.417621 
L 184.567017 -113.427839 
L 185.586661 -112.376158 
L 186.606304 -111.270631 
L 187.625948 -110.117515 
L 188.645592 -108.91986 
L 189.665235 -107.6761 
L 190.684879 -106.378819 
L 191.704523 -105.013949 
L 192.724166 -103.560694 
L 193.74381 -101.992478 
L 194.763454 -100.279131 
L 195.783097 -98.390253 
L 196.802741 -96.299274 
L 197.822385 -93.987383 
L 198.842028 -91.446358 
L 199.861672 -88.679673 
L 200.881316 -85.701812 
L 201.900959 -82.536293 
L 202.920603 -79.213105 
L 203.940247 -75.766157 
L 204.95989 -72.231118 
L 205.979534 -68.643738 
L 206.999178 -65.038646 
L 208.018821 -61.448508 
L 209.038465 -57.903462 
L 210.058109 -54.430745 
L 211.077752 -51.054453 
L 212.097396 -47.795403 
L 213.11704 -44.671078 
L 214.136683 -41.695632 
L 215.156327 -38.879964 
L 216.175971 -36.231835 
L 217.195614 -33.756045 
L 218.215258 -31.454645 
L 219.234902 -29.327192 
L 220.254545 -27.371026 
L 220.254545 -165.96 
L 220.254545 -165.96 
L 219.234902 -165.648195 
L 218.215258 -165.227073 
L 217.195614 -164.68987 
L 216.175971 -164.03198 
L 215.156327 -163.251395 
L 214.136683 -162.349104 
L 213.11704 -161.329463 
L 212.097396 -160.200493 
L 211.077752 -158.974118 
L 210.058109 -157.666314 
L 209.038465 -156.297157 
L 208.018821 -154.890769 
L 206.999178 -153.47513 
L 205.979534 -152.081746 
L 204.95989 -150.745127 
L 203.940247 -149.50203 
L 202.920603 -148.39038 
L 201.900959 -147.447802 
L 200.881316 -146.709648 
L 199.861672 -146.206529 
L 198.842028 -145.961467 
L 197.822385 -145.987042 
L 196.802741 -146.283165 
L 195.783097 -146.836188 
L 194.763454 -147.619868 
L 193.74381 -148.598124 
L 192.724166 -149.728981 
L 191.704523 -150.96873 
L 190.684879 -152.275482 
L 189.665235 -153.61163 
L 188.645592 -154.945153 
L 187.625948 -156.249969 
L 186.606304 -157.5056 
L 185.586661 -158.696457 
L 184.567017 -159.810949 
L 183.547373 -160.840579 
L 182.52773 -161.779143 
L 181.508086 -162.622095 
L 180.488442 -163.366103 
L 179.468799 -164.008808 
L 178.449155 -164.548754 
L 177.429511 -164.985447 
L 176.409868 -165.319472 
L 175.390224 -165.552614 
L 174.37058 -165.687921 
L 173.350937 -165.72966 
L 172.331293 -165.683156 
L 171.311649 -165.554504 
L 170.292005 -165.350188 
L 169.272362 -165.07663 
L 168.252718 -164.739742 
L 167.233074 -164.344521 
L 166.213431 -163.894726 
L 165.193787 -163.392695 
L 164.174143 -162.839289 
L 163.1545 -162.233971 
L 162.134856 -161.574992 
L 161.115212 -160.859644 
L 160.095569 -160.084538 
L 159.075925 -159.245862 
L 158.056281 -158.339594 
L 157.036638 -157.361658 
L 156.016994 -156.308022 
L 154.99735 -155.174767 
L 153.977707 -153.958155 
L 152.958063 -152.654739 
L 151.938419 -151.261527 
L 150.918776 -149.776244 
L 149.899132 -148.197648 
L 148.879488 -146.525908 
L 147.859845 -144.762979 
L 146.840201 -142.91293 
L 145.820557 -140.982169 
L 144.800914 -138.979522 
L 143.78127 -136.916127 
L 142.761626 -134.805139 
L 141.741983 -132.661241 
L 140.722339 -130.500005 
L 139.702695 -128.33715 
L 138.683052 -126.187779 
L 137.663408 -124.065668 
L 136.643764 -121.982703 
L 135.624121 -119.948528 
L 134.604477 -117.970444 
L 133.584833 -116.05357 
L 132.56519 -114.201215 
L 131.545546 -112.415411 
L 130.525902 -110.697509 
L 129.506259 -109.048764 
L 128.486615 -107.470817 
L 127.466971 -105.966031 
L 126.447328 -104.537652 
L 125.427684 -103.189788 
L 124.40804 -101.927221 
L 123.388397 -100.755117 
L 122.368753 -99.678661 
L 121.349109 -98.702688 
L 120.329466 -97.831359 
L 119.309822 -97.067927 
L 118.290178 -96.414607 
L 117.270534 -95.872555 
L 116.250891 -95.441945 
L 115.231247 -95.122104 
L 114.211603 -94.911685 
L 113.19196 -94.808827 
L 112.172316 -94.811296 
L 111.152672 -94.91657 
L 110.133029 -95.121886 
L 109.113385 -95.42424 
L 108.093741 -95.820356 
L 107.074098 -96.306648 
L 106.054454 -96.879185 
L 105.03481 -97.533681 
L 104.015167 -98.26552 
L 102.995523 -99.069824 
L 101.975879 -99.941558 
L 100.956236 -100.87568 
L 99.936592 -101.867305 
L 98.916948 -102.911877 
L 97.897305 -104.005332 
L 96.877661 -105.144205 
L 95.858017 -106.325689 
L 94.838374 -107.547594 
L 93.81873 -108.80821 
L 92.799086 -110.106063 
L 91.779443 -111.439574 
L 90.759799 -112.806642 
L 89.740155 -114.204209 
L 88.720512 -115.627843 
L 87.700868 -117.071423 
L 86.681224 -118.526972 
L 85.661581 -119.98468 
L 84.641937 -121.433138 
L 83.622293 -122.85976 
L 82.60265 -124.251357 
L 81.583006 -125.594808 
L 80.563362 -126.877732 
L 79.543719 -128.08912 
L 78.524075 -129.219851 
L 77.504431 -130.263032 
L 76.484788 -131.214153 
L 75.465144 -132.071029 
L 74.4455 -132.833536 
L 73.425857 -133.503175 
L 72.406213 -134.08251 
L 71.386569 -134.574542 
L 70.366926 -134.982105 
L 69.347282 -135.307357 
L 68.327638 -135.551441 
L 67.307995 -135.714351 
L 66.288351 -135.795022 
L 65.268707 -135.791599 
L 64.249063 -135.701853 
L 63.22942 -135.523643 
L 62.209776 -135.255351 
L 61.190132 -134.896242 
L 60.170489 -134.44667 
L 59.150845 -133.908156 
L 58.131201 -133.283305 
L 57.111558 -132.575646 
L 56.091914 -131.789425 
L 55.07227 -130.929431 
L 54.052627 -130.000938 
L 53.032983 -129.009815 
L 52.013339 -127.962854 
L 50.993696 -126.86832 
L 49.974052 -125.736707 
L 48.954408 -124.581629 
L 47.934765 -123.420735 
L 46.915121 -122.276497 
L 45.895477 -121.176672 
L 44.875834 -120.154194 
L 43.85619 -119.246273 
L 42.836546 -118.49255 
L 41.816903 -117.932349 
L 40.797259 -117.601345 
L 39.777615 -117.52823 
L 38.757972 -117.73208 
L 37.738328 -118.220935 
L 36.718684 -118.991781 
L 35.699041 -120.031689 
L 34.679397 -121.319665 
L 33.659753 -122.82874 
L 32.64011 -124.527967 
L 31.620466 -126.384147 
L 30.600822 -128.363229 
L 29.581179 -130.431424 
L 28.561535 -132.556073 
L 27.541891 -134.706318 
L 26.522248 -136.853627 
L 25.502604 -138.972184 
L 24.48296 -141.039174 
L 23.463317 -143.034968 
L 22.443673 -144.943215 
L 21.424029 -146.750849 
L 20.404386 -148.448019 
L 19.384742 -150.027939 
L 18.365098 -151.486688 
L 17.345455 -152.82295 
z
"/>
    </defs>
    <g clip-path="url(#p5f76e0376f)">
     <use xlink:href="#m023f9f2d0d" x="0" y="180.72" style="fill: #dc143c; fill-opacity: 0.2"/>
    </g>
   </g>
   <g id="legend_1">
    <g id="patch_2">
     <path d="M 248.56 113.877188 
L 338.981875 113.877188 
Q 340.981875 113.877188 340.981875 111.877188 
L 340.981875 68.842813 
Q 340.981875 66.842813 338.981875 66.842813 
L 248.56 66.842813 
Q 246.56 66.842813 246.56 68.842813 
L 246.56 111.877188 
Q 246.56 113.877188 248.56 113.877188 
z
" style="fill: #ffffff; opacity: 0.8; stroke: #cccccc; stroke-linejoin: miter"/>
    </g>
    <g id="line2d_1">
     <path d="M 250.56 74.94125 
L 260.56 74.94125 
L 270.56 74.94125 
" style="fill: none; stroke: #dc143c; stroke-width: 2; stroke-linecap: square"/>
    </g>
    <g id="text_1">
     <!-- Prediction -->
     <g transform="translate(278.56 78.44125) scale(0.1 -0.1)">
      <defs>
       <path id="DejaVuSans-50" d="M 1259 4147 
L 1259 2394 
L 2053 2394 
Q 2494 2394 2734 2622 
Q 2975 2850 2975 3272 
Q 2975 3691 2734 3919 
Q 2494 4147 2053 4147 
L 1259 4147 
z
M 628 4666 
L 2053 4666 
Q 2838 4666 3239 4311 
Q 3641 3956 3641 3272 
Q 3641 2581 3239 2228 
Q 2838 1875 2053 1875 
L 1259 1875 
L 1259 0 
L 628 0 
L 628 4666 
z
" transform="scale(0.015625)"/>
       <path id="DejaVuSans-72" d="M 2631 2963 
Q 2534 3019 2420 3045 
Q 2306 3072 2169 3072 
Q 1681 3072 1420 2755 
Q 1159 2438 1159 1844 
L 1159 0 
L 581 0 
L 581 3500 
L 1159 3500 
L 1159 2956 
Q 1341 3275 1631 3429 
Q 1922 3584 2338 3584 
Q 2397 3584 2469 3576 
Q 2541 3569 2628 3553 
L 2631 2963 
z
" transform="scale(0.015625)"/>
       <path id="DejaVuSans-65" d="M 3597 1894 
L 3597 1613 
L 953 1613 
Q 991 1019 1311 708 
Q 1631 397 2203 397 
Q 2534 397 2845 478 
Q 3156 559 3463 722 
L 3463 178 
Q 3153 47 2828 -22 
Q 2503 -91 2169 -91 
Q 1331 -91 842 396 
Q 353 884 353 1716 
Q 353 2575 817 3079 
Q 1281 3584 2069 3584 
Q 2775 3584 3186 3129 
Q 3597 2675 3597 1894 
z
M 3022 2063 
Q 3016 2534 2758 2815 
Q 2500 3097 2075 3097 
Q 1594 3097 1305 2825 
Q 1016 2553 972 2059 
L 3022 2063 
z
" transform="scale(0.015625)"/>
       <path id="DejaVuSans-64" d="M 2906 2969 
L 2906 4863 
L 3481 4863 
L 3481 0 
L 2906 0 
L 2906 525 
Q 2725 213 2448 61 
Q 2172 -91 1784 -91 
Q 1150 -91 751 415 
Q 353 922 353 1747 
Q 353 2572 751 3078 
Q 1150 3584 1784 3584 
Q 2172 3584 2448 3432 
Q 2725 3281 2906 2969 
z
M 947 1747 
Q 947 1113 1208 752 
Q 1469 391 1925 391 
Q 2381 391 2643 752 
Q 2906 1113 2906 1747 
Q 2906 2381 2643 2742 
Q 2381 3103 1925 3103 
Q 1469 3103 1208 2742 
Q 947 2381 947 1747 
z
" transform="scale(0.015625)"/>
       <path id="DejaVuSans-69" d="M 603 3500 
L 1178 3500 
L 1178 0 
L 603 0 
L 603 3500 
z
M 603 4863 
L 1178 4863 
L 1178 4134 
L 603 4134 
L 603 4863 
z
" transform="scale(0.015625)"/>
       <path id="DejaVuSans-63" d="M 3122 3366 
L 3122 2828 
Q 2878 2963 2633 3030 
Q 2388 3097 2138 3097 
Q 1578 3097 1268 2742 
Q 959 2388 959 1747 
Q 959 1106 1268 751 
Q 1578 397 2138 397 
Q 2388 397 2633 464 
Q 2878 531 3122 666 
L 3122 134 
Q 2881 22 2623 -34 
Q 2366 -91 2075 -91 
Q 1284 -91 818 406 
Q 353 903 353 1747 
Q 353 2603 823 3093 
Q 1294 3584 2113 3584 
Q 2378 3584 2631 3529 
Q 2884 3475 3122 3366 
z
" transform="scale(0.015625)"/>
       <path id="DejaVuSans-74" d="M 1172 4494 
L 1172 3500 
L 2356 3500 
L 2356 3053 
L 1172 3053 
L 1172 1153 
Q 1172 725 1289 603 
Q 1406 481 1766 481 
L 2356 481 
L 2356 0 
L 1766 0 
Q 1100 0 847 248 
Q 594 497 594 1153 
L 594 3053 
L 172 3053 
L 172 3500 
L 594 3500 
L 594 4494 
L 1172 4494 
z
" transform="scale(0.015625)"/>
       <path id="DejaVuSans-6f" d="M 1959 3097 
Q 1497 3097 1228 2736 
Q 959 2375 959 1747 
Q 959 1119 1226 758 
Q 1494 397 1959 397 
Q 2419 397 2687 759 
Q 2956 1122 2956 1747 
Q 2956 2369 2687 2733 
Q 2419 3097 1959 3097 
z
M 1959 3584 
Q 2709 3584 3137 3096 
Q 3566 2609 3566 1747 
Q 3566 888 3137 398 
Q 2709 -91 1959 -91 
Q 1206 -91 779 398 
Q 353 888 353 1747 
Q 353 2609 779 3096 
Q 1206 3584 1959 3584 
z
" transform="scale(0.015625)"/>
       <path id="DejaVuSans-6e" d="M 3513 2113 
L 3513 0 
L 2938 0 
L 2938 2094 
Q 2938 2591 2744 2837 
Q 2550 3084 2163 3084 
Q 1697 3084 1428 2787 
Q 1159 2491 1159 1978 
L 1159 0 
L 581 0 
L 581 3500 
L 1159 3500 
L 1159 2956 
Q 1366 3272 1645 3428 
Q 1925 3584 2291 3584 
Q 2894 3584 3203 3211 
Q 3513 2838 3513 2113 
z
" transform="scale(0.015625)"/>
      </defs>
      <use xlink:href="#DejaVuSans-50"/>
      <use xlink:href="#DejaVuSans-72" transform="translate(58.552734 0)"/>
      <use xlink:href="#DejaVuSans-65" transform="translate(97.416016 0)"/>
      <use xlink:href="#DejaVuSans-64" transform="translate(158.939453 0)"/>
      <use xlink:href="#DejaVuSans-69" transform="translate(222.416016 0)"/>
      <use xlink:href="#DejaVuSans-63" transform="translate(250.199219 0)"/>
      <use xlink:href="#DejaVuSans-74" transform="translate(305.179688 0)"/>
      <use xlink:href="#DejaVuSans-69" transform="translate(344.388672 0)"/>
      <use xlink:href="#DejaVuSans-6f" transform="translate(372.171875 0)"/>
      <use xlink:href="#DejaVuSans-6e" transform="translate(433.353516 0)"/>
     </g>
    </g>
    <g id="patch_3">
     <path d="M 250.56 93.119375 
L 270.56 93.119375 
L 270.56 86.119375 
L 250.56 86.119375 
z
" style="fill: #dc143c; fill-opacity: 0.2"/>
    </g>
    <g id="text_2">
     <!-- Uncertainty -->
     <g transform="translate(278.56 93.119375) scale(0.1 -0.1)">
      <defs>
       <path id="DejaVuSans-55" d="M 556 4666 
L 1191 4666 
L 1191 1831 
Q 1191 1081 1462 751 
Q 1734 422 2344 422 
Q 2950 422 3222 751 
Q 3494 1081 3494 1831 
L 3494 4666 
L 4128 4666 
L 4128 1753 
Q 4128 841 3676 375 
Q 3225 -91 2344 -91 
Q 1459 -91 1007 375 
Q 556 841 556 1753 
L 556 4666 
z
" transform="scale(0.015625)"/>
       <path id="DejaVuSans-61" d="M 2194 1759 
Q 1497 1759 1228 1600 
Q 959 1441 959 1056 
Q 959 750 1161 570 
Q 1363 391 1709 391 
Q 2188 391 2477 730 
Q 2766 1069 2766 1631 
L 2766 1759 
L 2194 1759 
z
M 3341 1997 
L 3341 0 
L 2766 0 
L 2766 531 
Q 2569 213 2275 61 
Q 1981 -91 1556 -91 
Q 1019 -91 701 211 
Q 384 513 384 1019 
Q 384 1609 779 1909 
Q 1175 2209 1959 2209 
L 2766 2209 
L 2766 2266 
Q 2766 2663 2505 2880 
Q 2244 3097 1772 3097 
Q 1472 3097 1187 3025 
Q 903 2953 641 2809 
L 641 3341 
Q 956 3463 1253 3523 
Q 1550 3584 1831 3584 
Q 2591 3584 2966 3190 
Q 3341 2797 3341 1997 
z
" transform="scale(0.015625)"/>
       <path id="DejaVuSans-79" d="M 2059 -325 
Q 1816 -950 1584 -1140 
Q 1353 -1331 966 -1331 
L 506 -1331 
L 506 -850 
L 844 -850 
Q 1081 -850 1212 -737 
Q 1344 -625 1503 -206 
L 1606 56 
L 191 3500 
L 800 3500 
L 1894 763 
L 2988 3500 
L 3597 3500 
L 2059 -325 
z
" transform="scale(0.015625)"/>
      </defs>
      <use xlink:href="#DejaVuSans-55"/>
      <use xlink:href="#DejaVuSans-6e" transform="translate(73.193359 0)"/>
      <use xlink:href="#DejaVuSans-63" transform="translate(136.572266 0)"/>
      <use xlink:href="#DejaVuSans-65" transform="translate(191.552734 0)"/>
      <use xlink:href="#DejaVuSans-72" transform="translate(253.076172 0)"/>
      <use xlink:href="#DejaVuSans-74" transform="translate(294.189453 0)"/>
      <use xlink:href="#DejaVuSans-61" transform="translate(333.398438 0)"/>
      <use xlink:href="#DejaVuSans-69" transform="translate(394.677734 0)"/>
      <use xlink:href="#DejaVuSans-6e" transform="translate(422.460938 0)"/>
      <use xlink:href="#DejaVuSans-74" transform="translate(485.839844 0)"/>
      <use xlink:href="#DejaVuSans-79" transform="translate(525.048828 0)"/>
     </g>
    </g>
    <g id="line2d_2">
     <defs>
      <path id="meed73daca9" d="M 0 3 
C 0.795609 3 1.55874 2.683901 2.12132 2.12132 
C 2.683901 1.55874 3 0.795609 3 0 
C 3 -0.795609 2.683901 -1.55874 2.12132 -2.12132 
C 1.55874 -2.683901 0.795609 -3 0 -3 
C -0.795609 -3 -1.55874 -2.683901 -2.12132 -2.12132 
C -2.683901 -1.55874 -3 -0.795609 -3 0 
C -3 0.795609 -2.683901 1.55874 -2.12132 2.12132 
C -1.55874 2.683901 -0.795609 3 0 3 
z
" style="stroke: #000000; stroke-opacity: 0.5"/>
     </defs>
     <g>
      <use xlink:href="#meed73daca9" x="260.56" y="104.2975" style="fill-opacity: 0.5; stroke: #000000; stroke-opacity: 0.5"/>
     </g>
    </g>
    <g id="text_3">
     <!-- Data -->
     <g transform="translate(278.56 107.7975) scale(0.1 -0.1)">
      <defs>
       <path id="DejaVuSans-44" d="M 1259 4147 
L 1259 519 
L 2022 519 
Q 2988 519 3436 956 
Q 3884 1394 3884 2338 
Q 3884 3275 3436 3711 
Q 2988 4147 2022 4147 
L 1259 4147 
z
M 628 4666 
L 1925 4666 
Q 3281 4666 3915 4102 
Q 4550 3538 4550 2338 
Q 4550 1131 3912 565 
Q 3275 0 1925 0 
L 628 0 
L 628 4666 
z
" transform="scale(0.015625)"/>
      </defs>
      <use xlink:href="#DejaVuSans-44"/>
      <use xlink:href="#DejaVuSans-61" transform="translate(77.001953 0)"/>
      <use xlink:href="#DejaVuSans-74" transform="translate(138.28125 0)"/>
      <use xlink:href="#DejaVuSans-61" transform="translate(177.490234 0)"/>
     </g>
    </g>
   </g>
   <g id="line2d_3">
    <g clip-path="url(#p5f76e0376f)">
     <use xlink:href="#meed73daca9" x="99.449543" y="100.155353" style="fill-opacity: 0.5; stroke: #000000; stroke-opacity: 0.5"/>
     <use xlink:href="#meed73daca9" x="191.088781" y="52.709723" style="fill-opacity: 0.5; stroke: #000000; stroke-opacity: 0.5"/>
     <use xlink:href="#meed73daca9" x="156.301788" y="46.194039" style="fill-opacity: 0.5; stroke: #000000; stroke-opacity: 0.5"/>
     <use xlink:href="#meed73daca9" x="135.095077" y="92.77987" style="fill-opacity: 0.5; stroke: #000000; stroke-opacity: 0.5"/>
     <use xlink:href="#meed73daca9" x="64.694183" y="69.521497" style="fill-opacity: 0.5; stroke: #000000; stroke-opacity: 0.5"/>
     <use xlink:href="#meed73daca9" x="64.690347" y="66.738891" style="fill-opacity: 0.5; stroke: #000000; stroke-opacity: 0.5"/>
     <use xlink:href="#meed73daca9" x="49.117832" y="73.248869" style="fill-opacity: 0.5; stroke: #000000; stroke-opacity: 0.5"/>
     <use xlink:href="#meed73daca9" x="177.643172" y="42.672037" style="fill-opacity: 0.5; stroke: #000000; stroke-opacity: 0.5"/>
     <use xlink:href="#meed73daca9" x="135.485782" y="86.376769" style="fill-opacity: 0.5; stroke: #000000; stroke-opacity: 0.5"/>
     <use xlink:href="#meed73daca9" x="152.497148" y="54.254902" style="fill-opacity: 0.5; stroke: #000000; stroke-opacity: 0.5"/>
     <use xlink:href="#meed73daca9" x="43.15368" y="84.415283" style="fill-opacity: 0.5; stroke: #000000; stroke-opacity: 0.5"/>
     <use xlink:href="#meed73daca9" x="194.14179" y="52.416107" style="fill-opacity: 0.5; stroke: #000000; stroke-opacity: 0.5"/>
     <use xlink:href="#meed73daca9" x="172.277932" y="40.717284" style="fill-opacity: 0.5; stroke: #000000; stroke-opacity: 0.5"/>
     <use xlink:href="#meed73daca9" x="73.65183" y="68.552896" style="fill-opacity: 0.5; stroke: #000000; stroke-opacity: 0.5"/>
     <use xlink:href="#meed73daca9" x="68.798622" y="68.29741" style="fill-opacity: 0.5; stroke: #000000; stroke-opacity: 0.5"/>
     <use xlink:href="#meed73daca9" x="69.049845" y="64.159864" style="fill-opacity: 0.5; stroke: #000000; stroke-opacity: 0.5"/>
     <use xlink:href="#meed73daca9" x="88.268821" y="90.225603" style="fill-opacity: 0.5; stroke: #000000; stroke-opacity: 0.5"/>
     <use xlink:href="#meed73daca9" x="123.341118" y="102.559396" style="fill-opacity: 0.5; stroke: #000000; stroke-opacity: 0.5"/>
     <use xlink:href="#meed73daca9" x="108.579667" y="108.776713" style="fill-opacity: 0.5; stroke: #000000; stroke-opacity: 0.5"/>
     <use xlink:href="#meed73daca9" x="86.199116" y="91.186211" style="fill-opacity: 0.5; stroke: #000000; stroke-opacity: 0.5"/>
     <use xlink:href="#meed73daca9" x="137.193619" y="77.877781" style="fill-opacity: 0.5; stroke: #000000; stroke-opacity: 0.5"/>
     <use xlink:href="#meed73daca9" x="62.065953" y="67.813108" style="fill-opacity: 0.5; stroke: #000000; stroke-opacity: 0.5"/>
     <use xlink:href="#meed73daca9" x="86.344725" y="84.288961" style="fill-opacity: 0.5; stroke: #000000; stroke-opacity: 0.5"/>
     <use xlink:href="#meed73daca9" x="98.148807" y="100.337457" style="fill-opacity: 0.5; stroke: #000000; stroke-opacity: 0.5"/>
     <use xlink:href="#meed73daca9" x="112.416689" y="114.220888" style="fill-opacity: 0.5; stroke: #000000; stroke-opacity: 0.5"/>
     <use xlink:href="#meed73daca9" x="164.760271" y="41.334557" style="fill-opacity: 0.5; stroke: #000000; stroke-opacity: 0.5"/>
     <use xlink:href="#meed73daca9" x="71.637437" y="71.504918" style="fill-opacity: 0.5; stroke: #000000; stroke-opacity: 0.5"/>
     <use xlink:href="#meed73daca9" x="121.667618" y="106.565162" style="fill-opacity: 0.5; stroke: #000000; stroke-opacity: 0.5"/>
     <use xlink:href="#meed73daca9" x="134.101996" y="85.759969" style="fill-opacity: 0.5; stroke: #000000; stroke-opacity: 0.5"/>
     <use xlink:href="#meed73daca9" x="47.267597" y="80.920624" style="fill-opacity: 0.5; stroke: #000000; stroke-opacity: 0.5"/>
     <use xlink:href="#meed73daca9" x="136.508434" y="71.485503" style="fill-opacity: 0.5; stroke: #000000; stroke-opacity: 0.5"/>
     <use xlink:href="#meed73daca9" x="67.001248" y="67.602346" style="fill-opacity: 0.5; stroke: #000000; stroke-opacity: 0.5"/>
     <use xlink:href="#meed73daca9" x="50.226074" y="77.722787" style="fill-opacity: 0.5; stroke: #000000; stroke-opacity: 0.5"/>
     <use xlink:href="#meed73daca9" x="190.797919" y="51.357224" style="fill-opacity: 0.5; stroke: #000000; stroke-opacity: 0.5"/>
     <use xlink:href="#meed73daca9" x="193.461412" y="62.669148" style="fill-opacity: 0.5; stroke: #000000; stroke-opacity: 0.5"/>
     <use xlink:href="#meed73daca9" x="168.453582" y="38.246078" style="fill-opacity: 0.5; stroke: #000000; stroke-opacity: 0.5"/>
     <use xlink:href="#meed73daca9" x="88.327911" y="86.625586" style="fill-opacity: 0.5; stroke: #000000; stroke-opacity: 0.5"/>
     <use xlink:href="#meed73daca9" x="55.414296" y="61.437113" style="fill-opacity: 0.5; stroke: #000000; stroke-opacity: 0.5"/>
     <use xlink:href="#meed73daca9" x="148.705519" y="58.863789" style="fill-opacity: 0.5; stroke: #000000; stroke-opacity: 0.5"/>
     <use xlink:href="#meed73daca9" x="109.885047" y="105.759658" style="fill-opacity: 0.5; stroke: #000000; stroke-opacity: 0.5"/>
     <use xlink:href="#meed73daca9" x="59.289674" y="70.55898" style="fill-opacity: 0.5; stroke: #000000; stroke-opacity: 0.5"/>
     <use xlink:href="#meed73daca9" x="118.63656" y="110.788082" style="fill-opacity: 0.5; stroke: #000000; stroke-opacity: 0.5"/>
     <use xlink:href="#meed73daca9" x="45.34918" y="80.077866" style="fill-opacity: 0.5; stroke: #000000; stroke-opacity: 0.5"/>
     <use xlink:href="#meed73daca9" x="184.505171" y="41.591238" style="fill-opacity: 0.5; stroke: #000000; stroke-opacity: 0.5"/>
     <use xlink:href="#meed73daca9" x="81.038148" y="73.982192" style="fill-opacity: 0.5; stroke: #000000; stroke-opacity: 0.5"/>
     <use xlink:href="#meed73daca9" x="145.252474" y="68.468889" style="fill-opacity: 0.5; stroke: #000000; stroke-opacity: 0.5"/>
     <use xlink:href="#meed73daca9" x="89.456722" y="81.641041" style="fill-opacity: 0.5; stroke: #000000; stroke-opacity: 0.5"/>
     <use xlink:href="#meed73daca9" x="122.595436" y="108.53748" style="fill-opacity: 0.5; stroke: #000000; stroke-opacity: 0.5"/>
     <use xlink:href="#meed73daca9" x="126.832829" y="93.81099" style="fill-opacity: 0.5; stroke: #000000; stroke-opacity: 0.5"/>
     <use xlink:href="#meed73daca9" x="69.280456" y="58.331695" style="fill-opacity: 0.5; stroke: #000000; stroke-opacity: 0.5"/>
     <use xlink:href="#meed73daca9" x="194.090064" y="58.737287" style="fill-opacity: 0.5; stroke: #000000; stroke-opacity: 0.5"/>
     <use xlink:href="#meed73daca9" x="163.162932" y="42.935829" style="fill-opacity: 0.5; stroke: #000000; stroke-opacity: 0.5"/>
     <use xlink:href="#meed73daca9" x="189.305002" y="49.126518" style="fill-opacity: 0.5; stroke: #000000; stroke-opacity: 0.5"/>
     <use xlink:href="#meed73daca9" x="182.200083" y="45.723931" style="fill-opacity: 0.5; stroke: #000000; stroke-opacity: 0.5"/>
     <use xlink:href="#meed73daca9" x="134.974438" y="90.891245" style="fill-opacity: 0.5; stroke: #000000; stroke-opacity: 0.5"/>
     <use xlink:href="#meed73daca9" x="186.501831" y="46.6747" style="fill-opacity: 0.5; stroke: #000000; stroke-opacity: 0.5"/>
     <use xlink:href="#meed73daca9" x="53.954299" y="79.854394" style="fill-opacity: 0.5; stroke: #000000; stroke-opacity: 0.5"/>
     <use xlink:href="#meed73daca9" x="71.050405" y="67.285192" style="fill-opacity: 0.5; stroke: #000000; stroke-opacity: 0.5"/>
     <use xlink:href="#meed73daca9" x="47.073062" y="87.576656" style="fill-opacity: 0.5; stroke: #000000; stroke-opacity: 0.5"/>
     <use xlink:href="#meed73daca9" x="91.622835" y="83.783954" style="fill-opacity: 0.5; stroke: #000000; stroke-opacity: 0.5"/>
     <use xlink:href="#meed73daca9" x="101.698029" y="106.484979" style="fill-opacity: 0.5; stroke: #000000; stroke-opacity: 0.5"/>
     <use xlink:href="#meed73daca9" x="83.037228" y="81.697326" style="fill-opacity: 0.5; stroke: #000000; stroke-opacity: 0.5"/>
     <use xlink:href="#meed73daca9" x="171.688639" y="34.148555" style="fill-opacity: 0.5; stroke: #000000; stroke-opacity: 0.5"/>
     <use xlink:href="#meed73daca9" x="96.620593" y="103.424928" style="fill-opacity: 0.5; stroke: #000000; stroke-opacity: 0.5"/>
     <use xlink:href="#meed73daca9" x="84.561777" y="80.931788" style="fill-opacity: 0.5; stroke: #000000; stroke-opacity: 0.5"/>
     <use xlink:href="#meed73daca9" x="126.19438" y="91.199982" style="fill-opacity: 0.5; stroke: #000000; stroke-opacity: 0.5"/>
     <use xlink:href="#meed73daca9" x="62.293449" y="76.751292" style="fill-opacity: 0.5; stroke: #000000; stroke-opacity: 0.5"/>
     <use xlink:href="#meed73daca9" x="167.467427" y="37.423296" style="fill-opacity: 0.5; stroke: #000000; stroke-opacity: 0.5"/>
     <use xlink:href="#meed73daca9" x="51.736877" y="75.891188" style="fill-opacity: 0.5; stroke: #000000; stroke-opacity: 0.5"/>
     <use xlink:href="#meed73daca9" x="196.841958" y="52.424139" style="fill-opacity: 0.5; stroke: #000000; stroke-opacity: 0.5"/>
     <use xlink:href="#meed73daca9" x="162.703593" y="46.473218" style="fill-opacity: 0.5; stroke: #000000; stroke-opacity: 0.5"/>
     <use xlink:href="#meed73daca9" x="71.485053" y="76.146913" style="fill-opacity: 0.5; stroke: #000000; stroke-opacity: 0.5"/>
     <use xlink:href="#meed73daca9" x="40.758042" y="89.932678" style="fill-opacity: 0.5; stroke: #000000; stroke-opacity: 0.5"/>
     <use xlink:href="#meed73daca9" x="169.577108" y="36.567159" style="fill-opacity: 0.5; stroke: #000000; stroke-opacity: 0.5"/>
     <use xlink:href="#meed73daca9" x="152.303867" y="50.915933" style="fill-opacity: 0.5; stroke: #000000; stroke-opacity: 0.5"/>
     <use xlink:href="#meed73daca9" x="155.826748" y="45.555988" style="fill-opacity: 0.5; stroke: #000000; stroke-opacity: 0.5"/>
     <use xlink:href="#meed73daca9" x="162.548614" y="43.892018" style="fill-opacity: 0.5; stroke: #000000; stroke-opacity: 0.5"/>
     <use xlink:href="#meed73daca9" x="51.6564" y="76.118105" style="fill-opacity: 0.5; stroke: #000000; stroke-opacity: 0.5"/>
     <use xlink:href="#meed73daca9" x="96.892947" y="96.386221" style="fill-opacity: 0.5; stroke: #000000; stroke-opacity: 0.5"/>
     <use xlink:href="#meed73daca9" x="58.30848" y="74.464278" style="fill-opacity: 0.5; stroke: #000000; stroke-opacity: 0.5"/>
     <use xlink:href="#meed73daca9" x="177.154463" y="30.902587" style="fill-opacity: 0.5; stroke: #000000; stroke-opacity: 0.5"/>
     <use xlink:href="#meed73daca9" x="139.013958" y="73.580477" style="fill-opacity: 0.5; stroke: #000000; stroke-opacity: 0.5"/>
     <use xlink:href="#meed73daca9" x="92.508364" y="98.160796" style="fill-opacity: 0.5; stroke: #000000; stroke-opacity: 0.5"/>
     <use xlink:href="#meed73daca9" x="49.988577" y="76.095311" style="fill-opacity: 0.5; stroke: #000000; stroke-opacity: 0.5"/>
     <use xlink:href="#meed73daca9" x="89.340816" y="92.959183" style="fill-opacity: 0.5; stroke: #000000; stroke-opacity: 0.5"/>
     <use xlink:href="#meed73daca9" x="91.599454" y="87.434236" style="fill-opacity: 0.5; stroke: #000000; stroke-opacity: 0.5"/>
     <use xlink:href="#meed73daca9" x="155.922019" y="41.517407" style="fill-opacity: 0.5; stroke: #000000; stroke-opacity: 0.5"/>
     <use xlink:href="#meed73daca9" x="141.281875" y="75.504973" style="fill-opacity: 0.5; stroke: #000000; stroke-opacity: 0.5"/>
     <use xlink:href="#meed73daca9" x="180.988997" y="37.715563" style="fill-opacity: 0.5; stroke: #000000; stroke-opacity: 0.5"/>
     <use xlink:href="#meed73daca9" x="114.984507" y="104.937862" style="fill-opacity: 0.5; stroke: #000000; stroke-opacity: 0.5"/>
     <use xlink:href="#meed73daca9" x="58.900963" y="66.663208" style="fill-opacity: 0.5; stroke: #000000; stroke-opacity: 0.5"/>
     <use xlink:href="#meed73daca9" x="153.319776" y="41.471638" style="fill-opacity: 0.5; stroke: #000000; stroke-opacity: 0.5"/>
     <use xlink:href="#meed73daca9" x="160.88095" y="43.072499" style="fill-opacity: 0.5; stroke: #000000; stroke-opacity: 0.5"/>
     <use xlink:href="#meed73daca9" x="129.149665" y="96.899587" style="fill-opacity: 0.5; stroke: #000000; stroke-opacity: 0.5"/>
     <use xlink:href="#meed73daca9" x="162.500396" y="44.936254" style="fill-opacity: 0.5; stroke: #000000; stroke-opacity: 0.5"/>
     <use xlink:href="#meed73daca9" x="118.416865" y="109.229496" style="fill-opacity: 0.5; stroke: #000000; stroke-opacity: 0.5"/>
     <use xlink:href="#meed73daca9" x="123.019268" y="101.699498" style="fill-opacity: 0.5; stroke: #000000; stroke-opacity: 0.5"/>
     <use xlink:href="#meed73daca9" x="107.87922" y="104.99672" style="fill-opacity: 0.5; stroke: #000000; stroke-opacity: 0.5"/>
     <use xlink:href="#meed73daca9" x="43.922618" y="86.350628" style="fill-opacity: 0.5; stroke: #000000; stroke-opacity: 0.5"/>
     <use xlink:href="#meed73daca9" x="57.039656" y="67.954501" style="fill-opacity: 0.5; stroke: #000000; stroke-opacity: 0.5"/>
    </g>
   </g>
   <g id="line2d_4">
    <path d="M 17.345455 96.928525 
L 20.404386 97.381213 
L 23.463317 97.57878 
L 25.502604 97.494516 
L 27.541891 97.186635 
L 29.581179 96.617506 
L 31.620466 95.759076 
L 33.659753 94.596345 
L 35.699041 93.129942 
L 37.738328 91.377423 
L 39.777615 89.373034 
L 42.836546 86.005049 
L 52.013339 75.398542 
L 54.052627 73.373673 
L 56.091914 71.592895 
L 58.131201 70.097465 
L 60.170489 68.920325 
L 62.209776 68.087007 
L 64.249063 67.616471 
L 66.288351 67.521549 
L 68.327638 67.80884 
L 70.366926 68.478094 
L 72.406213 69.521333 
L 74.4455 70.922025 
L 76.484788 72.654687 
L 78.524075 74.685161 
L 80.563362 76.971684 
L 83.622293 80.776393 
L 87.700868 86.277168 
L 93.81873 94.618205 
L 96.877661 98.487062 
L 99.936592 101.958699 
L 101.975879 103.981036 
L 104.015167 105.720099 
L 106.054454 107.135021 
L 108.093741 108.188432 
L 110.133029 108.848732 
L 112.172316 109.092238 
L 114.211603 108.904728 
L 116.250891 108.281983 
L 118.290178 107.229152 
L 120.329466 105.759049 
L 122.368753 103.889785 
L 124.40804 101.642349 
L 126.447328 99.038814 
L 128.486615 96.101741 
L 130.525902 92.855098 
L 133.584833 87.467075 
L 136.643764 81.572649 
L 147.859845 59.164837 
L 149.899132 55.647294 
L 151.938419 52.466601 
L 153.977707 49.649526 
L 156.016994 47.19923 
L 158.056281 45.098722 
L 160.095569 43.317596 
L 162.134856 41.820832 
L 164.174143 40.577935 
L 166.213431 39.570615 
L 168.252718 38.797462 
L 170.292005 38.274686 
L 172.331293 38.032805 
L 174.37058 38.109973 
L 176.409868 38.543336 
L 178.449155 39.36013 
L 180.488442 40.570295 
L 182.52773 42.161962 
L 184.567017 44.100606 
L 186.606304 46.331884 
L 189.665235 50.076135 
L 201.900959 65.727952 
L 205.979534 70.357258 
L 210.058109 74.67147 
L 214.136683 78.697632 
L 218.215258 82.379141 
L 220.254545 84.054487 
L 220.254545 84.054487 
" clip-path="url(#p5f76e0376f)" style="fill: none; stroke: #dc143c; stroke-width: 2; stroke-linecap: square"/>
   </g>
  </g>
 </g>
 <defs>
  <clipPath id="p5f76e0376f">
   <rect x="7.2" y="7.2" width="223.2" height="166.32"/>
  </clipPath>
 </defs>
</svg>
