<?xml version="1.0" encoding="utf-8" standalone="no"?>
<!DOCTYPE svg PUBLIC "-//W3C//DTD SVG 1.1//EN"
  "http://www.w3.org/Graphics/SVG/1.1/DTD/svg11.dtd">
<svg xmlns:xlink="http://www.w3.org/1999/xlink" width="219.904688pt" height="207.578032pt" viewBox="0 0 219.904688 207.578032" xmlns="http://www.w3.org/2000/svg" version="1.1">
 <metadata>
  <rdf:RDF xmlns:dc="http://purl.org/dc/elements/1.1/" xmlns:cc="http://creativecommons.org/ns#" xmlns:rdf="http://www.w3.org/1999/02/22-rdf-syntax-ns#">
   <cc:Work>
    <dc:type rdf:resource="http://purl.org/dc/dcmitype/StillImage"/>
    <dc:date>2025-09-13T14:45:41.888914</dc:date>
    <dc:format>image/svg+xml</dc:format>
    <dc:creator>
     <cc:Agent>
      <dc:title>Matplotlib v3.10.3, https://matplotlib.org/</dc:title>
     </cc:Agent>
    </dc:creator>
   </cc:Work>
  </rdf:RDF>
 </metadata>
 <defs>
  <style type="text/css">*{stroke-linejoin: round; stroke-linecap: butt}</style>
 </defs>
 <g id="figure_1">
  <g id="patch_1">
   <path d="M 0 207.578032 
L 219.904688 207.578032 
L 219.904688 0 
L 0 0 
z
" style="fill: #ffffff"/>
  </g>
  <g id="axes_1">
   <g id="patch_2">
    <path d="M 45.304688 173.699907 
L 212.704688 173.699907 
L 212.704688 7.379907 
L 45.304688 7.379907 
z
" style="fill: #ffffff"/>
   </g>
   <g id="matplotlib.axis_1">
    <g id="xtick_1">
     <g id="line2d_1">
      <defs>
       <path id="me7223fcf35" d="M 0 0 
L 0 3.5 
" style="stroke: #000000; stroke-width: 0.8"/>
      </defs>
      <g>
       <use xlink:href="#me7223fcf35" x="52.913778" y="183.699907" style="stroke: #000000; stroke-width: 0.8"/>
      </g>
     </g>
     <g id="text_1">
      <!-- 0 -->
      <g transform="translate(49.732528 198.298345) scale(0.1 -0.1)">
       <defs>
        <path id="DejaVuSans-30" d="M 2034 4250 
Q 1547 4250 1301 3770 
Q 1056 3291 1056 2328 
Q 1056 1369 1301 889 
Q 1547 409 2034 409 
Q 2525 409 2770 889 
Q 3016 1369 3016 2328 
Q 3016 3291 2770 3770 
Q 2525 4250 2034 4250 
z
M 2034 4750 
Q 2819 4750 3233 4129 
Q 3647 3509 3647 2328 
Q 3647 1150 3233 529 
Q 2819 -91 2034 -91 
Q 1250 -91 836 529 
Q 422 1150 422 2328 
Q 422 3509 836 4129 
Q 1250 4750 2034 4750 
z
" transform="scale(0.015625)"/>
       </defs>
       <use xlink:href="#DejaVuSans-30"/>
      </g>
     </g>
    </g>
    <g id="xtick_2">
     <g id="line2d_2">
      <g>
       <use xlink:href="#me7223fcf35" x="103.641051" y="183.699907" style="stroke: #000000; stroke-width: 0.8"/>
      </g>
     </g>
     <g id="text_2">
      <!-- 2 -->
      <g transform="translate(100.459801 198.298345) scale(0.1 -0.1)">
       <defs>
        <path id="DejaVuSans-32" d="M 1228 531 
L 3431 531 
L 3431 0 
L 469 0 
L 469 531 
Q 828 903 1448 1529 
Q 2069 2156 2228 2338 
Q 2531 2678 2651 2914 
Q 2772 3150 2772 3378 
Q 2772 3750 2511 3984 
Q 2250 4219 1831 4219 
Q 1534 4219 1204 4116 
Q 875 4013 500 3803 
L 500 4441 
Q 881 4594 1212 4672 
Q 1544 4750 1819 4750 
Q 2544 4750 2975 4387 
Q 3406 4025 3406 3419 
Q 3406 3131 3298 2873 
Q 3191 2616 2906 2266 
Q 2828 2175 2409 1742 
Q 1991 1309 1228 531 
z
" transform="scale(0.015625)"/>
       </defs>
       <use xlink:href="#DejaVuSans-32"/>
      </g>
     </g>
    </g>
    <g id="xtick_3">
     <g id="line2d_3">
      <g>
       <use xlink:href="#me7223fcf35" x="154.368324" y="183.699907" style="stroke: #000000; stroke-width: 0.8"/>
      </g>
     </g>
     <g id="text_3">
      <!-- 4 -->
      <g transform="translate(151.187074 198.298345) scale(0.1 -0.1)">
       <defs>
        <path id="DejaVuSans-34" d="M 2419 4116 
L 825 1625 
L 2419 1625 
L 2419 4116 
z
M 2253 4666 
L 3047 4666 
L 3047 1625 
L 3713 1625 
L 3713 1100 
L 3047 1100 
L 3047 0 
L 2419 0 
L 2419 1100 
L 313 1100 
L 313 1709 
L 2253 4666 
z
" transform="scale(0.015625)"/>
       </defs>
       <use xlink:href="#DejaVuSans-34"/>
      </g>
     </g>
    </g>
    <g id="xtick_4">
     <g id="line2d_4">
      <g>
       <use xlink:href="#me7223fcf35" x="205.095597" y="183.699907" style="stroke: #000000; stroke-width: 0.8"/>
      </g>
     </g>
     <g id="text_4">
      <!-- 6 -->
      <g transform="translate(201.914347 198.298345) scale(0.1 -0.1)">
       <defs>
        <path id="DejaVuSans-36" d="M 2113 2584 
Q 1688 2584 1439 2293 
Q 1191 2003 1191 1497 
Q 1191 994 1439 701 
Q 1688 409 2113 409 
Q 2538 409 2786 701 
Q 3034 994 3034 1497 
Q 3034 2003 2786 2293 
Q 2538 2584 2113 2584 
z
M 3366 4563 
L 3366 3988 
Q 3128 4100 2886 4159 
Q 2644 4219 2406 4219 
Q 1781 4219 1451 3797 
Q 1122 3375 1075 2522 
Q 1259 2794 1537 2939 
Q 1816 3084 2150 3084 
Q 2853 3084 3261 2657 
Q 3669 2231 3669 1497 
Q 3669 778 3244 343 
Q 2819 -91 2113 -91 
Q 1303 -91 875 529 
Q 447 1150 447 2328 
Q 447 3434 972 4092 
Q 1497 4750 2381 4750 
Q 2619 4750 2861 4703 
Q 3103 4656 3366 4563 
z
" transform="scale(0.015625)"/>
       </defs>
       <use xlink:href="#DejaVuSans-36"/>
      </g>
     </g>
    </g>
   </g>
   <g id="matplotlib.axis_2">
    <g id="ytick_1">
     <g id="line2d_5">
      <defs>
       <path id="m058ea00657" d="M 0 0 
L -3.5 0 
" style="stroke: #000000; stroke-width: 0.8"/>
      </defs>
      <g>
       <use xlink:href="#m058ea00657" x="35.304688" y="147.885742" style="stroke: #000000; stroke-width: 0.8"/>
      </g>
     </g>
     <g id="text_5">
      <!-- −15 -->
      <g transform="translate(7.2 151.684961) scale(0.1 -0.1)">
       <defs>
        <path id="DejaVuSans-2212" d="M 678 2272 
L 4684 2272 
L 4684 1741 
L 678 1741 
L 678 2272 
z
" transform="scale(0.015625)"/>
        <path id="DejaVuSans-31" d="M 794 531 
L 1825 531 
L 1825 4091 
L 703 3866 
L 703 4441 
L 1819 4666 
L 2450 4666 
L 2450 531 
L 3481 531 
L 3481 0 
L 794 0 
L 794 531 
z
" transform="scale(0.015625)"/>
        <path id="DejaVuSans-35" d="M 691 4666 
L 3169 4666 
L 3169 4134 
L 1269 4134 
L 1269 2991 
Q 1406 3038 1543 3061 
Q 1681 3084 1819 3084 
Q 2600 3084 3056 2656 
Q 3513 2228 3513 1497 
Q 3513 744 3044 326 
Q 2575 -91 1722 -91 
Q 1428 -91 1123 -41 
Q 819 9 494 109 
L 494 744 
Q 775 591 1075 516 
Q 1375 441 1709 441 
Q 2250 441 2565 725 
Q 2881 1009 2881 1497 
Q 2881 1984 2565 2268 
Q 2250 2553 1709 2553 
Q 1456 2553 1204 2497 
Q 953 2441 691 2322 
L 691 4666 
z
" transform="scale(0.015625)"/>
       </defs>
       <use xlink:href="#DejaVuSans-2212"/>
       <use xlink:href="#DejaVuSans-31" transform="translate(83.789062 0)"/>
       <use xlink:href="#DejaVuSans-35" transform="translate(147.412109 0)"/>
      </g>
     </g>
    </g>
    <g id="ytick_2">
     <g id="line2d_6">
      <g>
       <use xlink:href="#m058ea00657" x="35.304688" y="120.508438" style="stroke: #000000; stroke-width: 0.8"/>
      </g>
     </g>
     <g id="text_6">
      <!-- −10 -->
      <g transform="translate(7.2 124.307656) scale(0.1 -0.1)">
       <use xlink:href="#DejaVuSans-2212"/>
       <use xlink:href="#DejaVuSans-31" transform="translate(83.789062 0)"/>
       <use xlink:href="#DejaVuSans-30" transform="translate(147.412109 0)"/>
      </g>
     </g>
    </g>
    <g id="ytick_3">
     <g id="line2d_7">
      <g>
       <use xlink:href="#m058ea00657" x="35.304688" y="93.131133" style="stroke: #000000; stroke-width: 0.8"/>
      </g>
     </g>
     <g id="text_7">
      <!-- −5 -->
      <g transform="translate(13.5625 96.930352) scale(0.1 -0.1)">
       <use xlink:href="#DejaVuSans-2212"/>
       <use xlink:href="#DejaVuSans-35" transform="translate(83.789062 0)"/>
      </g>
     </g>
    </g>
    <g id="ytick_4">
     <g id="line2d_8">
      <g>
       <use xlink:href="#m058ea00657" x="35.304688" y="65.753828" style="stroke: #000000; stroke-width: 0.8"/>
      </g>
     </g>
     <g id="text_8">
      <!-- 0 -->
      <g transform="translate(21.942187 69.553047) scale(0.1 -0.1)">
       <use xlink:href="#DejaVuSans-30"/>
      </g>
     </g>
    </g>
    <g id="ytick_5">
     <g id="line2d_9">
      <g>
       <use xlink:href="#m058ea00657" x="35.304688" y="38.376523" style="stroke: #000000; stroke-width: 0.8"/>
      </g>
     </g>
     <g id="text_9">
      <!-- 5 -->
      <g transform="translate(21.942187 42.175742) scale(0.1 -0.1)">
       <use xlink:href="#DejaVuSans-35"/>
      </g>
     </g>
    </g>
    <g id="ytick_6">
     <g id="line2d_10">
      <g>
       <use xlink:href="#m058ea00657" x="35.304688" y="10.999219" style="stroke: #000000; stroke-width: 0.8"/>
      </g>
     </g>
     <g id="text_10">
      <!-- 10 -->
      <g transform="translate(15.579687 14.798438) scale(0.1 -0.1)">
       <use xlink:href="#DejaVuSans-31"/>
       <use xlink:href="#DejaVuSans-30" transform="translate(63.623047 0)"/>
      </g>
     </g>
    </g>
   </g>
   <g id="line2d_11">
    <path d="M 52.913778 49.210302 
L 54.136122 50.162855 
L 58.414326 54.356259 
L 59.63667 55.073734 
L 62.69253 56.538127 
L 63.914874 57.672761 
L 65.74839 59.593791 
L 66.359562 60.020869 
L 66.970734 60.289221 
L 69.415421 60.973571 
L 70.026593 61.435701 
L 71.248937 62.792175 
L 72.471281 64.093087 
L 73.082453 64.429459 
L 73.693625 64.458696 
L 74.304797 64.185228 
L 75.527141 63.054652 
L 76.749485 61.912548 
L 77.971829 61.273238 
L 79.805345 60.661601 
L 81.027689 59.980286 
L 82.250033 59.266586 
L 82.861204 59.051949 
L 83.472376 59.009123 
L 84.083548 59.183411 
L 84.69472 59.592022 
L 85.305892 60.221558 
L 87.75058 63.538003 
L 88.361752 64.025965 
L 88.972924 64.229153 
L 89.584096 64.183291 
L 90.80644 63.868715 
L 91.417612 63.905994 
L 92.028784 64.188801 
L 93.8623 65.684677 
L 94.473472 65.850667 
L 95.084644 65.647955 
L 95.695816 65.08564 
L 96.91816 63.244701 
L 98.751675 60.261 
L 99.974019 58.769368 
L 100.585191 58.269451 
L 101.196363 57.973443 
L 101.807535 57.891834 
L 102.418707 58.013021 
L 103.641051 58.696547 
L 104.863395 59.706231 
L 106.085739 61.048293 
L 107.308083 63.017493 
L 109.752771 68.029409 
L 110.363943 68.829227 
L 110.975115 69.19103 
L 111.586287 69.072889 
L 112.197459 68.510961 
L 114.030974 65.7365 
L 114.642146 65.201398 
L 115.253318 65.21931 
L 115.86449 65.915372 
L 116.475662 67.295532 
L 117.698006 71.502786 
L 118.92035 75.690364 
L 119.531522 76.974394 
L 120.142694 77.426168 
L 120.753866 76.994024 
L 121.365038 75.763656 
L 122.587382 71.75698 
L 124.420898 65.321805 
L 125.643242 62.282473 
L 126.254414 61.241927 
L 126.865586 60.522967 
L 127.476758 60.112514 
L 128.08793 59.992392 
L 128.699102 60.125066 
L 129.310273 60.458178 
L 130.532617 61.521303 
L 134.199649 65.189382 
L 135.421993 65.979299 
L 137.255509 66.764244 
L 138.477853 67.384475 
L 139.700197 68.412428 
L 142.144885 70.887529 
L 142.756057 71.232912 
L 143.978401 71.54406 
L 145.200744 71.869401 
L 145.811916 72.242479 
L 147.03426 73.481827 
L 148.256604 74.885304 
L 148.867776 75.356829 
L 149.478948 75.54378 
L 150.09012 75.41614 
L 150.701292 75.014834 
L 153.14598 72.764036 
L 154.368324 72.235198 
L 155.590668 71.849634 
L 156.813012 71.229725 
L 158.646528 70.201317 
L 159.2577 70.065373 
L 159.868872 70.127901 
L 160.480043 70.419057 
L 161.091215 70.942774 
L 162.313559 72.534006 
L 163.535903 74.256568 
L 164.147075 74.877345 
L 164.758247 75.222584 
L 165.369419 75.290774 
L 167.202935 74.91888 
L 167.814107 75.076911 
L 168.425279 75.474571 
L 169.647623 76.546865 
L 170.258795 76.870333 
L 170.869967 76.85695 
L 171.481139 76.468544 
L 172.092311 75.752105 
L 173.925827 72.74698 
L 175.148171 70.896183 
L 176.370514 69.554921 
L 176.981686 69.153392 
L 177.592858 68.965328 
L 178.20403 68.989417 
L 178.815202 69.19808 
L 180.037546 69.986818 
L 181.25989 71.059951 
L 182.482234 72.532031 
L 183.704578 74.681973 
L 185.538094 78.556993 
L 186.149266 79.538844 
L 186.760438 80.130247 
L 187.37161 80.250525 
L 187.982782 79.900228 
L 188.593954 79.158916 
L 189.816298 77.212367 
L 190.42747 76.470021 
L 191.038641 76.190349 
L 191.649813 76.5391 
L 192.260985 77.584437 
L 192.872157 79.268529 
L 195.316845 87.488014 
L 195.928017 88.371929 
L 196.539189 88.379053 
L 197.150361 87.526743 
L 197.761533 85.968546 
L 198.983877 81.675194 
L 200.206221 77.332059 
L 201.428565 73.983072 
L 202.039737 72.782382 
L 202.650909 71.902055 
L 203.262081 71.339488 
L 203.873253 71.078592 
L 204.484425 71.09015 
L 205.095597 71.328741 
L 205.095597 71.328741 
" clip-path="url(#pdfe63d7404)" style="fill: none; stroke: #1f77b4; stroke-width: 1.5; stroke-linecap: square"/>
   </g>
   <g id="line2d_12">
    <path d="M 52.913778 70.358849 
L 53.52495 70.517259 
L 55.358466 70.53459 
L 55.969638 70.730337 
L 57.191982 71.544251 
L 59.025498 72.972953 
L 60.247842 73.842218 
L 61.470186 75.093 
L 63.914874 78.535104 
L 64.526046 78.956213 
L 65.137218 78.93385 
L 65.74839 78.410255 
L 66.359562 77.399753 
L 67.581905 74.340586 
L 68.804249 70.979469 
L 69.415421 69.572713 
L 70.026593 68.455625 
L 70.637765 67.634236 
L 71.248937 67.060205 
L 72.471281 66.304526 
L 73.693625 65.580303 
L 75.527141 64.130848 
L 77.360657 62.394323 
L 79.805345 59.894574 
L 81.027689 59.062673 
L 81.638861 58.883903 
L 82.250033 58.905348 
L 82.861204 59.155806 
L 83.472376 59.65988 
L 84.083548 60.435691 
L 85.305892 62.607548 
L 86.528236 64.743135 
L 87.139408 65.378874 
L 87.75058 65.574642 
L 88.361752 65.331495 
L 88.972924 64.743241 
L 90.80644 62.584132 
L 91.417612 62.219086 
L 92.028784 62.131401 
L 92.639956 62.283601 
L 93.8623 63.041306 
L 95.695816 64.59744 
L 96.91816 65.873443 
L 98.751675 68.248466 
L 99.974019 69.761506 
L 100.585191 70.315622 
L 101.196363 70.657168 
L 101.807535 70.74601 
L 102.418707 70.578079 
L 103.029879 70.175443 
L 104.252223 68.92366 
L 105.474567 67.645832 
L 106.085739 67.182254 
L 106.696911 66.880462 
L 107.919255 66.698989 
L 109.752771 66.682286 
L 110.975115 66.280799 
L 112.197459 65.52565 
L 115.253318 63.320165 
L 115.86449 62.681806 
L 116.475662 61.868248 
L 117.698006 59.621184 
L 118.92035 56.673742 
L 120.142694 53.6178 
L 120.753866 52.358248 
L 121.365038 51.459584 
L 121.97621 51.019845 
L 122.587382 51.091662 
L 123.198554 51.66363 
L 123.809726 52.673433 
L 125.03207 55.581951 
L 126.865586 60.302296 
L 127.476758 61.520507 
L 128.08793 62.432099 
L 128.699102 63.011972 
L 129.310273 63.290207 
L 130.532617 63.324377 
L 131.143789 63.321344 
L 131.754961 63.439155 
L 132.366133 63.714571 
L 133.588477 64.621555 
L 135.421993 66.00868 
L 136.644337 66.928686 
L 137.866681 68.327625 
L 139.700197 71.021751 
L 140.311369 71.621258 
L 140.922541 71.831799 
L 141.533713 71.562452 
L 142.144885 70.788234 
L 142.756057 69.56555 
L 143.978401 66.302086 
L 145.200744 63.067893 
L 145.811916 61.800598 
L 146.423088 60.837245 
L 147.03426 60.147766 
L 148.256604 59.297705 
L 150.09012 58.194663 
L 151.923636 56.683933 
L 153.757152 54.906769 
L 156.20184 52.463321 
L 156.813012 52.044401 
L 157.424184 51.776886 
L 158.035356 51.69445 
L 158.646528 51.825284 
L 159.2577 52.201359 
L 159.868872 52.84132 
L 160.480043 53.741993 
L 162.924731 57.939052 
L 163.535903 58.360982 
L 164.147075 58.331533 
L 164.758247 57.898956 
L 167.202935 55.194684 
L 167.814107 54.967954 
L 168.425279 55.007333 
L 169.036451 55.256132 
L 170.258795 56.10466 
L 172.092311 57.71925 
L 173.314655 59.064212 
L 176.370514 62.889194 
L 176.981686 63.342519 
L 177.592858 63.560282 
L 178.20403 63.51913 
L 178.815202 63.228006 
L 180.037546 62.093764 
L 181.25989 60.757828 
L 181.871062 60.220274 
L 182.482234 59.837772 
L 183.093406 59.615871 
L 184.31575 59.533207 
L 185.538094 59.542852 
L 186.760438 59.24717 
L 187.982782 58.559258 
L 191.038641 56.412942 
L 191.649813 55.845466 
L 192.260985 55.124773 
L 192.872157 54.211264 
L 194.094501 51.764404 
L 196.539189 45.776949 
L 197.150361 44.68381 
L 197.761533 44.003997 
L 198.372705 43.816589 
L 198.983877 44.143553 
L 199.595049 44.945228 
L 200.206221 46.138213 
L 201.428565 49.229228 
L 202.650909 52.422139 
L 203.262081 53.773932 
L 203.873253 54.844114 
L 204.484425 55.589302 
L 205.095597 56.010864 
L 205.095597 56.010864 
" clip-path="url(#pdfe63d7404)" style="fill: none; stroke: #ff7f0e; stroke-width: 1.5; stroke-linecap: square"/>
   </g>
   <g id="line2d_13">
    <path d="M 52.913778 44.18196 
L 54.136122 42.032371 
L 54.747294 41.491348 
L 55.358466 41.537936 
L 55.969638 42.248309 
L 56.58081 43.605545 
L 57.803154 47.762751 
L 59.63667 54.682343 
L 60.247842 56.489675 
L 60.859014 57.894305 
L 61.470186 58.869324 
L 62.081358 59.420869 
L 62.69253 59.576326 
L 63.303702 59.384518 
L 63.914874 58.935405 
L 65.74839 57.252375 
L 66.359562 56.934727 
L 66.970734 56.796233 
L 68.804249 56.730706 
L 69.415421 56.543805 
L 70.637765 55.799378 
L 71.860109 54.919449 
L 73.082453 54.366589 
L 73.693625 54.306428 
L 74.304797 54.437922 
L 74.915969 54.805735 
L 75.527141 55.451891 
L 76.138313 56.398245 
L 77.360657 59.08961 
L 78.583001 62.147951 
L 79.194173 63.434825 
L 79.805345 64.37389 
L 80.416517 64.896371 
L 81.027689 65.005252 
L 81.638861 64.779208 
L 84.69472 62.685842 
L 85.917064 62.12239 
L 87.139408 61.195591 
L 89.584096 58.83466 
L 90.195268 58.468687 
L 90.80644 58.250877 
L 91.417612 58.195182 
L 92.028784 58.323958 
L 92.639956 58.700463 
L 93.251128 59.387174 
L 93.8623 60.428999 
L 95.084644 63.4735 
L 96.306988 66.863197 
L 96.91816 68.177252 
L 97.529332 69.003755 
L 98.140503 69.261029 
L 98.751675 68.957715 
L 99.362847 68.17175 
L 100.585191 65.652772 
L 103.029879 59.905873 
L 103.641051 58.790553 
L 104.252223 57.916844 
L 104.863395 57.310567 
L 105.474567 56.983419 
L 106.085739 56.927744 
L 106.696911 57.132517 
L 107.308083 57.583315 
L 107.919255 58.265417 
L 109.141599 60.21146 
L 110.975115 63.496014 
L 111.586287 64.23446 
L 112.197459 64.643193 
L 112.808631 64.713009 
L 113.419803 64.513739 
L 114.642146 63.834727 
L 115.253318 63.64478 
L 115.86449 63.690994 
L 116.475662 63.992637 
L 117.698006 65.140724 
L 118.92035 66.408038 
L 121.365038 68.406342 
L 121.97621 69.14572 
L 122.587382 70.108297 
L 123.809726 72.605272 
L 125.03207 75.179387 
L 125.643242 76.129713 
L 126.254414 76.688287 
L 126.865586 76.778764 
L 127.476758 76.39219 
L 128.08793 75.586132 
L 130.532617 71.403062 
L 131.143789 71.140784 
L 131.754961 71.514381 
L 132.366133 72.557161 
L 132.977305 74.204104 
L 134.199649 78.670522 
L 135.421993 83.352605 
L 136.644337 86.950117 
L 137.255509 88.14144 
L 137.866681 88.903474 
L 138.477853 89.2509 
L 139.089025 89.225452 
L 139.700197 88.891793 
L 142.144885 86.775598 
L 142.756057 86.551202 
L 143.978401 86.493557 
L 145.200744 86.361354 
L 145.811916 86.103569 
L 147.03426 85.276429 
L 148.256604 84.443133 
L 148.867776 84.163074 
L 149.478948 84.021549 
L 150.09012 84.052862 
L 150.701292 84.296116 
L 151.312464 84.799228 
L 151.923636 85.592169 
L 152.534808 86.687541 
L 153.757152 89.569747 
L 154.979496 92.532705 
L 155.590668 93.660636 
L 156.20184 94.394463 
L 156.813012 94.705231 
L 157.424184 94.633132 
L 158.035356 94.284435 
L 159.868872 92.862705 
L 162.924731 91.178816 
L 165.980591 88.33978 
L 166.591763 88.047049 
L 167.202935 87.907973 
L 167.814107 87.939577 
L 168.425279 88.184876 
L 169.036451 88.705395 
L 169.647623 89.567628 
L 170.258795 90.789918 
L 171.481139 94.055122 
L 172.703483 97.278009 
L 173.314655 98.364387 
L 173.925827 98.91171 
L 174.536999 98.88164 
L 175.148171 98.32366 
L 175.759342 97.342468 
L 176.981686 94.621197 
L 178.815202 90.244427 
L 180.037546 88.027427 
L 180.648718 87.28429 
L 181.25989 86.818653 
L 181.871062 86.62802 
L 182.482234 86.705241 
L 183.093406 87.033277 
L 183.704578 87.60215 
L 184.31575 88.390527 
L 185.538094 90.487466 
L 186.760438 92.728308 
L 187.37161 93.609423 
L 187.982782 94.188265 
L 188.593954 94.423258 
L 189.205126 94.345037 
L 191.038641 93.421503 
L 191.649813 93.342177 
L 192.260985 93.516911 
L 192.872157 93.933051 
L 196.539189 97.313575 
L 197.761533 98.455946 
L 198.372705 99.304201 
L 199.595049 101.639462 
L 200.817393 104.296626 
L 201.428565 105.403258 
L 202.039737 106.17184 
L 202.650909 106.500855 
L 203.262081 106.347654 
L 203.873253 105.740573 
L 205.095597 103.593936 
L 205.095597 103.593936 
" clip-path="url(#pdfe63d7404)" style="fill: none; stroke: #2ca02c; stroke-width: 1.5; stroke-linecap: square"/>
   </g>
   <g id="line2d_14">
    <path d="M 52.913778 15.027904 
L 53.52495 14.939907 
L 54.136122 15.04989 
L 54.747294 15.429349 
L 55.358466 16.146197 
L 55.969638 17.259861 
L 56.58081 18.794442 
L 57.803154 22.897051 
L 59.025498 27.41029 
L 59.63667 29.356442 
L 60.247842 30.895955 
L 60.859014 31.950996 
L 61.470186 32.508174 
L 62.081358 32.617072 
L 62.69253 32.35971 
L 63.303702 31.832797 
L 64.526046 30.328449 
L 65.74839 28.783837 
L 66.359562 28.206868 
L 66.970734 27.879214 
L 67.581905 27.874987 
L 68.193077 28.248053 
L 68.804249 29.013818 
L 69.415421 30.148272 
L 70.637765 33.21888 
L 72.471281 38.13383 
L 73.693625 40.571708 
L 74.915969 42.174974 
L 76.749485 43.785696 
L 77.971829 44.940881 
L 79.805345 46.842039 
L 80.416517 47.240206 
L 81.027689 47.350076 
L 81.638861 47.090748 
L 82.250033 46.433698 
L 82.861204 45.426833 
L 84.69472 41.687406 
L 85.305892 40.764871 
L 85.917064 40.199937 
L 86.528236 40.021059 
L 87.139408 40.211717 
L 87.75058 40.739719 
L 88.361752 41.579335 
L 88.972924 42.711112 
L 90.195268 45.701847 
L 92.028784 50.614397 
L 92.639956 51.900506 
L 93.8623 53.724209 
L 95.084644 55.235212 
L 95.695816 56.25173 
L 96.306988 57.587164 
L 97.529332 61.207592 
L 99.362847 67.251516 
L 99.974019 68.805185 
L 100.585191 69.93454 
L 101.196363 70.598151 
L 101.807535 70.795164 
L 102.418707 70.561718 
L 103.029879 69.962063 
L 104.252223 68.025598 
L 105.474567 65.966894 
L 106.085739 65.283499 
L 106.696911 65.026409 
L 107.308083 65.286286 
L 107.919255 66.080891 
L 108.530427 67.35268 
L 109.752771 70.782302 
L 110.975115 74.319815 
L 112.197459 77.055742 
L 112.808631 78.018151 
L 113.419803 78.699841 
L 114.030974 79.101731 
L 114.642146 79.226473 
L 115.253318 79.097442 
L 116.475662 78.34813 
L 117.086834 77.948637 
L 117.698006 77.694577 
L 118.309178 77.687803 
L 118.92035 77.980233 
L 119.531522 78.580937 
L 120.142694 79.462763 
L 121.365038 81.890807 
L 124.420898 89.004282 
L 125.03207 89.972087 
L 125.643242 90.617335 
L 126.254414 90.934198 
L 126.865586 90.968374 
L 128.08793 90.537962 
L 129.310273 90.120501 
L 129.921445 90.124167 
L 130.532617 90.359715 
L 131.143789 90.898422 
L 131.754961 91.808201 
L 132.366133 93.132582 
L 132.977305 94.865999 
L 134.199649 99.20202 
L 135.421993 103.583706 
L 136.033165 105.341894 
L 136.644337 106.643867 
L 137.255509 107.447254 
L 137.866681 107.77234 
L 138.477853 107.686702 
L 139.089025 107.282499 
L 140.311369 105.892914 
L 142.144885 103.6276 
L 142.756057 103.16508 
L 143.367229 102.990806 
L 143.978401 103.169925 
L 144.589572 103.738926 
L 145.200744 104.696833 
L 146.423088 107.542014 
L 148.867776 113.98315 
L 150.09012 116.200858 
L 151.312464 117.637245 
L 154.368324 120.422731 
L 155.590668 121.725235 
L 156.20184 122.228022 
L 156.813012 122.494706 
L 157.424184 122.427493 
L 158.035356 121.967959 
L 158.646528 121.126393 
L 159.868872 118.686428 
L 161.091215 116.343204 
L 161.702387 115.591434 
L 162.313559 115.220195 
L 162.924731 115.229254 
L 163.535903 115.592788 
L 164.147075 116.280352 
L 164.758247 117.26765 
L 165.980591 120.040069 
L 168.425279 126.448184 
L 169.036451 127.598575 
L 170.258795 129.242472 
L 171.481139 130.865706 
L 172.092311 132.033493 
L 172.703483 133.54082 
L 173.925827 137.401953 
L 175.148171 141.501268 
L 175.759342 143.234166 
L 176.370514 144.584798 
L 176.981686 145.4845 
L 177.592858 145.91031 
L 178.20403 145.886698 
L 178.815202 145.461231 
L 179.426374 144.708288 
L 181.871062 140.735661 
L 182.482234 140.252076 
L 183.093406 140.246623 
L 183.704578 140.776283 
L 184.31575 141.820692 
L 185.538094 145.023312 
L 187.37161 150.255827 
L 188.593954 152.729109 
L 189.205126 153.551447 
L 189.816298 154.094204 
L 190.42747 154.354628 
L 191.038641 154.347713 
L 191.649813 154.111425 
L 193.483329 152.954064 
L 194.094501 152.813634 
L 194.705673 152.95137 
L 195.316845 153.400584 
L 195.928017 154.14725 
L 197.150361 156.375259 
L 198.983877 160.758587 
L 200.206221 163.571965 
L 200.817393 164.68352 
L 201.428565 165.495119 
L 202.039737 165.973022 
L 202.650909 166.139907 
L 203.262081 166.059706 
L 205.095597 165.342975 
L 205.095597 165.342975 
" clip-path="url(#pdfe63d7404)" style="fill: none; stroke: #d62728; stroke-width: 1.5; stroke-linecap: square"/>
   </g>
   <g id="patch_3">
    <path d="M 35.304688 173.699907 
L 35.304688 7.379907 
" style="fill: none; stroke: #000000; stroke-width: 0.8; stroke-linejoin: miter; stroke-linecap: square"/>
   </g>
   <g id="patch_4">
    <path d="M 45.304688 183.699907 
L 212.704688 183.699907 
" style="fill: none; stroke: #000000; stroke-width: 0.8; stroke-linejoin: miter; stroke-linecap: square"/>
   </g>
  </g>
 </g>
 <defs>
  <clipPath id="pdfe63d7404">
   <rect x="45.304688" y="7.379907" width="167.4" height="166.32"/>
  </clipPath>
 </defs>
</svg>
