<?xml version="1.0" encoding="utf-8" standalone="no"?>
<!DOCTYPE svg PUBLIC "-//W3C//DTD SVG 1.1//EN"
  "http://www.w3.org/Graphics/SVG/1.1/DTD/svg11.dtd">
<svg xmlns:xlink="http://www.w3.org/1999/xlink" width="348.181875pt" height="180.72pt" viewBox="0 0 348.181875 180.72" xmlns="http://www.w3.org/2000/svg" version="1.1">
 <metadata>
  <rdf:RDF xmlns:dc="http://purl.org/dc/elements/1.1/" xmlns:cc="http://creativecommons.org/ns#" xmlns:rdf="http://www.w3.org/1999/02/22-rdf-syntax-ns#">
   <cc:Work>
    <dc:type rdf:resource="http://purl.org/dc/dcmitype/StillImage"/>
    <dc:date>2025-09-13T08:42:26.281879</dc:date>
    <dc:format>image/svg+xml</dc:format>
    <dc:creator>
     <cc:Agent>
      <dc:title>Matplotlib v3.10.3, https://matplotlib.org/</dc:title>
     </cc:Agent>
    </dc:creator>
   </cc:Work>
  </rdf:RDF>
 </metadata>
 <defs>
  <style type="text/css">*{stroke-linejoin: round; stroke-linecap: butt}</style>
 </defs>
 <g id="figure_1">
  <g id="patch_1">
   <path d="M 0 180.72 
L 348.181875 180.72 
L 348.181875 0 
L 0 0 
z
" style="fill: #ffffff"/>
  </g>
  <g id="axes_1">
   <g id="FillBetweenPolyCollection_1">
    <defs>
     <path id="m431a2da02e" d="M 17.345455 -38.021396 
L 17.345455 -26.390698 
L 18.365098 -27.221632 
L 19.384742 -28.148358 
L 20.404386 -29.150865 
L 21.424029 -30.205718 
L 22.443673 -31.28707 
L 23.463317 -32.367912 
L 24.48296 -33.4215 
L 25.502604 -34.422879 
L 26.522248 -35.350413 
L 27.541891 -36.187213 
L 28.561535 -36.922348 
L 29.581179 -37.551746 
L 30.600822 -38.078683 
L 31.620466 -38.513802 
L 32.64011 -38.874622 
L 33.659753 -39.184531 
L 34.679397 -39.471311 
L 35.699041 -39.765261 
L 36.718684 -40.097026 
L 37.738328 -40.495276 
L 38.757972 -40.984438 
L 39.777615 -41.582919 
L 40.797259 -42.30265 
L 41.816903 -43.14998 
L 42.836546 -44.124757 
L 43.85619 -45.216961 
L 44.875834 -46.405845 
L 45.895477 -47.6624 
L 46.915121 -48.952727 
L 47.934765 -50.241237 
L 48.954408 -51.493524 
L 49.974052 -52.678848 
L 50.993696 -53.772166 
L 52.013339 -54.755617 
L 53.032983 -55.619394 
L 54.052627 -56.361931 
L 55.07227 -56.989374 
L 56.091914 -57.514378 
L 57.111558 -57.954328 
L 58.131201 -58.329156 
L 59.150845 -58.658964 
L 60.170489 -58.961693 
L 61.190132 -59.251056 
L 62.209776 -59.534947 
L 63.22942 -59.81447 
L 64.249063 -60.083695 
L 65.268707 -60.330152 
L 66.288351 -60.536034 
L 67.307995 -60.679965 
L 68.327638 -60.739189 
L 69.347282 -60.691919 
L 70.366926 -60.519639 
L 71.386569 -60.209071 
L 72.406213 -59.753626 
L 73.425857 -59.154134 
L 74.4455 -58.418815 
L 75.465144 -57.562487 
L 76.484788 -56.605127 
L 77.504431 -55.569965 
L 78.524075 -54.481303 
L 79.543719 -53.362325 
L 80.563362 -52.233092 
L 81.583006 -51.108971 
L 82.60265 -49.999632 
L 83.622293 -48.908727 
L 84.641937 -47.834256 
L 85.661581 -46.769582 
L 86.681224 -45.704942 
L 87.700868 -44.629293 
L 88.720512 -43.532251 
L 89.740155 -42.405918 
L 90.759799 -41.246382 
L 91.779443 -40.054713 
L 92.799086 -38.837351 
L 93.81873 -37.605838 
L 94.838374 -36.375931 
L 95.858017 -35.166209 
L 96.877661 -33.996328 
L 97.897305 -32.885142 
L 98.916948 -31.848888 
L 99.936592 -30.899667 
L 100.956236 -30.044369 
L 101.975879 -29.284191 
L 102.995523 -28.614804 
L 104.015167 -28.027176 
L 105.03481 -27.50896 
L 106.054454 -27.046309 
L 107.074098 -26.625919 
L 108.093741 -26.237071 
L 109.113385 -25.873437 
L 110.133029 -25.534434 
L 111.152672 -25.225966 
L 112.172316 -24.960431 
L 113.19196 -24.75597 
L 114.211603 -24.635031 
L 115.231247 -24.622377 
L 116.250891 -24.742741 
L 117.270534 -25.018367 
L 118.290178 -25.466677 
L 119.309822 -26.098305 
L 120.329466 -26.915679 
L 121.349109 -27.912327 
L 122.368753 -29.072951 
L 123.388397 -30.374308 
L 124.40804 -31.786791 
L 125.427684 -33.27661 
L 126.447328 -34.808354 
L 127.466971 -36.347751 
L 128.486615 -37.864367 
L 129.506259 -39.334027 
L 130.525902 -40.740747 
L 131.545546 -42.077986 
L 132.56519 -43.34912 
L 133.584833 -44.567066 
L 134.604477 -45.753083 
L 135.624121 -46.93483 
L 136.643764 -48.143833 
L 137.663408 -49.412541 
L 138.683052 -50.771218 
L 139.702695 -52.244913 
L 140.722339 -53.850785 
L 141.741983 -55.596023 
L 142.761626 -57.476557 
L 143.78127 -59.476704 
L 144.800914 -61.569783 
L 145.820557 -63.719677 
L 146.840201 -65.883229 
L 147.859845 -68.013272 
L 148.879488 -70.062062 
L 149.899132 -71.98482 
L 150.918776 -73.743088 
L 151.938419 -75.307601 
L 152.958063 -76.660426 
L 153.977707 -77.796171 
L 154.99735 -78.722139 
L 156.016994 -79.457433 
L 157.036638 -80.031082 
L 158.056281 -80.479368 
L 159.075925 -80.84261 
L 160.095569 -81.16169 
L 161.115212 -81.474648 
L 162.134856 -81.813627 
L 163.1545 -82.202447 
L 164.174143 -82.654986 
L 165.193787 -83.174487 
L 166.213431 -83.753806 
L 167.233074 -84.37654 
L 168.252718 -85.018883 
L 169.272362 -85.651993 
L 170.292005 -86.244631 
L 171.311649 -86.765783 
L 172.331293 -87.187007 
L 173.350937 -87.484305 
L 174.37058 -87.639351 
L 175.390224 -87.640032 
L 176.409868 -87.480316 
L 177.429511 -87.159584 
L 178.449155 -86.681584 
L 179.468799 -86.053254 
L 180.488442 -85.283622 
L 181.508086 -84.38301 
L 182.52773 -83.362671 
L 183.547373 -82.234956 
L 184.567017 -81.013996 
L 185.586661 -79.716844 
L 186.606304 -78.364944 
L 187.625948 -76.98575 
L 188.645592 -75.614273 
L 189.665235 -74.29432 
L 190.684879 -73.079186 
L 191.704523 -72.031514 
L 192.724166 -71.222084 
L 193.74381 -70.727279 
L 194.763454 -70.625094 
L 195.783097 -70.989812 
L 196.802741 -71.886574 
L 197.822385 -73.368413 
L 198.842028 -75.475029 
L 199.861672 -78.228966 
L 200.881316 -81.630386 
L 201.900959 -85.653694 
L 202.920603 -90.24633 
L 203.940247 -95.329239 
L 204.95989 -100.798803 
L 205.979534 -106.530125 
L 206.999178 -112.381515 
L 208.018821 -118.199923 
L 209.038465 -123.827018 
L 210.058109 -129.10558 
L 211.077752 -133.885821 
L 212.097396 -138.031313 
L 213.11704 -141.424198 
L 214.136683 -143.969424 
L 215.156327 -145.597842 
L 216.175971 -146.268022 
L 217.195614 -145.966796 
L 218.215258 -144.708545 
L 219.234902 -142.533372 
L 220.254545 -139.504301 
L 220.254545 -151.176557 
L 220.254545 -151.176557 
L 219.234902 -153.688349 
L 218.215258 -155.303764 
L 217.195614 -155.963398 
L 216.175971 -155.631984 
L 215.156327 -154.301118 
L 214.136683 -151.990972 
L 213.11704 -148.750819 
L 212.097396 -144.658282 
L 211.077752 -139.817251 
L 210.058109 -134.354511 
L 209.038465 -128.415205 
L 208.018821 -122.157334 
L 206.999178 -115.745553 
L 205.979534 -109.344604 
L 204.95989 -103.112737 
L 203.940247 -97.195496 
L 202.920603 -91.72024 
L 201.900959 -86.791705 
L 200.881316 -82.488889 
L 199.861672 -78.863412 
L 198.842028 -75.939389 
L 197.822385 -73.714534 
L 196.802741 -72.16173 
L 195.783097 -71.230916 
L 194.763454 -70.853953 
L 193.74381 -70.952986 
L 192.724166 -71.447191 
L 191.704523 -72.256539 
L 190.684879 -73.304505 
L 189.665235 -74.520468 
L 188.645592 -75.841661 
L 187.625948 -77.214395 
L 186.606304 -78.594444 
L 185.586661 -79.946576 
L 184.567017 -81.243388 
L 183.547373 -82.463703 
L 182.52773 -83.590814 
L 181.508086 -84.610869 
L 180.488442 -85.511622 
L 179.468799 -86.281735 
L 178.449155 -86.910672 
L 177.429511 -87.389147 
L 176.409868 -87.710023 
L 175.390224 -87.869457 
L 174.37058 -87.868083 
L 173.350937 -87.712029 
L 172.331293 -87.413536 
L 171.311649 -86.991042 
L 170.292005 -86.468625 
L 169.272362 -85.874767 
L 168.252718 -85.240514 
L 167.233074 -84.597149 
L 166.213431 -83.973576 
L 165.193787 -83.393686 
L 164.174143 -82.87395 
L 163.1545 -82.421531 
L 162.134856 -82.033134 
L 161.115212 -81.694755 
L 160.095569 -81.382406 
L 159.075925 -81.06378 
L 158.056281 -80.700736 
L 157.036638 -80.252391 
L 156.016994 -79.678541 
L 154.99735 -78.943112 
L 153.977707 -78.017331 
L 152.958063 -76.882325 
L 151.938419 -75.530922 
L 150.918776 -73.968511 
L 149.899132 -72.212861 
L 148.879488 -70.292949 
L 147.859845 -68.246873 
L 146.840201 -66.119043 
L 145.820557 -63.956882 
L 144.800914 -61.807335 
L 143.78127 -59.713467 
L 142.761626 -57.711446 
L 141.741983 -55.828157 
L 140.722339 -54.079621 
L 139.702695 -52.470342 
L 138.683052 -50.993606 
L 137.663408 -49.632685 
L 136.643764 -48.362829 
L 135.624121 -47.153872 
L 134.604477 -45.973229 
L 133.584833 -44.789043 
L 132.56519 -43.5732 
L 131.545546 -42.303968 
L 130.525902 -40.968032 
L 129.506259 -39.56177 
L 128.486615 -38.091655 
L 127.466971 -36.573799 
L 126.447328 -35.032661 
L 125.427684 -33.499062 
L 124.40804 -32.007688 
L 123.388397 -30.594293 
L 122.368753 -29.292871 
L 121.349109 -28.133037 
L 120.329466 -27.137858 
L 119.309822 -26.322316 
L 118.290178 -25.692513 
L 117.270534 -25.245679 
L 116.250891 -24.970956 
L 115.231247 -24.85085 
L 114.211603 -24.863224 
L 113.19196 -24.983594 
L 112.172316 -25.187529 
L 111.152672 -25.452905 
L 110.133029 -25.761795 
L 109.113385 -26.101842 
L 108.093741 -26.466985 
L 107.074098 -26.857495 
L 106.054454 -27.27932 
L 105.03481 -27.742832 
L 104.015167 -28.261106 
L 102.995523 -28.84793 
L 101.975879 -29.515773 
L 100.956236 -30.273926 
L 99.936592 -31.127046 
L 98.916948 -32.074251 
L 97.897305 -33.108868 
L 96.877661 -34.218875 
L 95.858017 -35.38797 
L 94.838374 -36.597138 
L 93.81873 -37.826532 
L 92.799086 -39.057419 
L 91.779443 -40.273978 
L 90.759799 -41.464718 
L 89.740155 -42.623358 
L 88.720512 -43.749069 
L 87.700868 -44.84604 
L 86.681224 -45.922415 
L 85.661581 -46.988742 
L 84.641937 -48.056088 
L 83.622293 -49.134066 
L 82.60265 -50.228999 
L 81.583006 -51.342438 
L 80.563362 -52.470222 
L 79.543719 -53.60218 
L 78.524075 -54.722544 
L 77.504431 -55.811018 
L 76.484788 -56.844406 
L 75.465144 -57.798628 
L 74.4455 -58.650895 
L 73.425857 -59.38182 
L 72.406213 -59.97722 
L 71.386569 -60.429416 
L 70.366926 -60.737903 
L 69.347282 -60.909317 
L 68.327638 -60.956715 
L 67.307995 -60.898227 
L 66.288351 -60.755217 
L 65.268707 -60.550101 
L 64.249063 -60.304058 
L 63.22942 -60.034867 
L 62.209776 -59.755098 
L 61.190132 -59.470851 
L 60.170489 -59.181193 
L 59.150845 -58.87835 
L 58.131201 -58.548644 
L 57.111558 -58.17409 
L 56.091914 -57.734474 
L 55.07227 -57.209722 
L 54.052627 -56.582321 
L 53.032983 -55.839542 
L 52.013339 -54.975266 
L 50.993696 -53.991225 
L 49.974052 -52.897527 
L 48.954408 -51.712401 
L 47.934765 -50.461173 
L 46.915121 -49.174571 
L 45.895477 -47.886584 
L 44.875834 -46.632139 
L 43.85619 -45.444966 
L 42.836546 -44.355999 
L 41.816903 -43.392566 
L 40.797259 -42.577616 
L 39.777615 -41.926799 
L 38.757972 -41.444353 
L 37.738328 -41.122787 
L 36.718684 -40.945605 
L 35.699041 -40.88974 
L 34.679397 -40.927467 
L 33.659753 -41.028299 
L 32.64011 -41.160985 
L 31.620466 -41.295487 
L 30.600822 -41.404781 
L 29.581179 -41.466372 
L 28.561535 -41.463404 
L 27.541891 -41.385339 
L 26.522248 -41.228172 
L 25.502604 -40.994209 
L 24.48296 -40.691458 
L 23.463317 -40.332718 
L 22.443673 -39.934433 
L 21.424029 -39.515428 
L 20.404386 -39.095611 
L 19.384742 -38.694724 
L 18.365098 -38.331235 
L 17.345455 -38.021396 
z
"/>
    </defs>
    <g clip-path="url(#pc6b302aef2)">
     <use xlink:href="#m431a2da02e" x="0" y="180.72" style="fill: #dc143c; fill-opacity: 0.2"/>
    </g>
   </g>
   <g id="FillBetweenPolyCollection_2">
    <defs>
     <path id="m16b1bede2d" d="M 17.345455 -43.836745 
L 17.345455 -20.575349 
L 18.365098 -21.66683 
L 19.384742 -22.875175 
L 20.404386 -24.178492 
L 21.424029 -25.550862 
L 22.443673 -26.963388 
L 23.463317 -28.385509 
L 24.48296 -29.786521 
L 25.502604 -31.137214 
L 26.522248 -32.411533 
L 27.541891 -33.58815 
L 28.561535 -34.65182 
L 29.581179 -35.594433 
L 30.600822 -36.415634 
L 31.620466 -37.12296 
L 32.64011 -37.731441 
L 33.659753 -38.262647 
L 34.679397 -38.743233 
L 35.699041 -39.203022 
L 36.718684 -39.672736 
L 37.738328 -40.18152 
L 38.757972 -40.754481 
L 39.777615 -41.410979 
L 40.797259 -42.165167 
L 41.816903 -43.028687 
L 42.836546 -44.009136 
L 43.85619 -45.102958 
L 44.875834 -46.292698 
L 45.895477 -47.550308 
L 46.915121 -48.841804 
L 47.934765 -50.131269 
L 48.954408 -51.384085 
L 49.974052 -52.569509 
L 50.993696 -53.662637 
L 52.013339 -54.645793 
L 53.032983 -55.50932 
L 54.052627 -56.251736 
L 55.07227 -56.8792 
L 56.091914 -57.40433 
L 57.111558 -57.844447 
L 58.131201 -58.219411 
L 59.150845 -58.549271 
L 60.170489 -58.851942 
L 61.190132 -59.141158 
L 62.209776 -59.424871 
L 63.22942 -59.704271 
L 64.249063 -59.973513 
L 65.268707 -60.220178 
L 66.288351 -60.426442 
L 67.307995 -60.570834 
L 68.327638 -60.630426 
L 69.347282 -60.583221 
L 70.366926 -60.410506 
L 71.386569 -60.098899 
L 72.406213 -59.641829 
L 73.425857 -59.040291 
L 74.4455 -58.302776 
L 75.465144 -57.444417 
L 76.484788 -56.485488 
L 77.504431 -55.449438 
L 78.524075 -54.360683 
L 79.543719 -53.242397 
L 80.563362 -52.114527 
L 81.583006 -50.992237 
L 82.60265 -49.884949 
L 83.622293 -48.796058 
L 84.641937 -47.72334 
L 85.661581 -46.660001 
L 86.681224 -45.596206 
L 87.700868 -44.52092 
L 88.720512 -43.423842 
L 89.740155 -42.297198 
L 90.759799 -41.137214 
L 91.779443 -39.945081 
L 92.799086 -38.727317 
L 93.81873 -37.49549 
L 94.838374 -36.265327 
L 95.858017 -35.055328 
L 96.877661 -33.885055 
L 97.897305 -32.773279 
L 98.916948 -31.736207 
L 99.936592 -30.785978 
L 100.956236 -29.929591 
L 101.975879 -29.1684 
L 102.995523 -28.498241 
L 104.015167 -27.910211 
L 105.03481 -27.392024 
L 106.054454 -26.929803 
L 107.074098 -26.510131 
L 108.093741 -26.122114 
L 109.113385 -25.759234 
L 110.133029 -25.420753 
L 111.152672 -25.112497 
L 112.172316 -24.846882 
L 113.19196 -24.642158 
L 114.211603 -24.520934 
L 115.231247 -24.50814 
L 116.250891 -24.628634 
L 117.270534 -24.904711 
L 118.290178 -25.35376 
L 119.309822 -25.986299 
L 120.329466 -26.80459 
L 121.349109 -27.801972 
L 122.368753 -28.962991 
L 123.388397 -30.264315 
L 124.40804 -31.676343 
L 125.427684 -33.165384 
L 126.447328 -34.696201 
L 127.466971 -36.234727 
L 128.486615 -37.750723 
L 129.506259 -39.220156 
L 130.525902 -40.627104 
L 131.545546 -41.964996 
L 132.56519 -43.23708 
L 133.584833 -44.456078 
L 134.604477 -45.643009 
L 135.624121 -46.825309 
L 136.643764 -48.034335 
L 137.663408 -49.30247 
L 138.683052 -50.660025 
L 139.702695 -52.132199 
L 140.722339 -53.736367 
L 141.741983 -55.479955 
L 142.761626 -57.359112 
L 143.78127 -59.358323 
L 144.800914 -61.451007 
L 145.820557 -63.601075 
L 146.840201 -65.765323 
L 147.859845 -67.896472 
L 148.879488 -69.946619 
L 149.899132 -71.8708 
L 150.918776 -73.630377 
L 151.938419 -75.19594 
L 152.958063 -76.549477 
L 153.977707 -77.685591 
L 154.99735 -78.611652 
L 156.016994 -79.346879 
L 157.036638 -79.920427 
L 158.056281 -80.368684 
L 159.075925 -80.732024 
L 160.095569 -81.051332 
L 161.115212 -81.364594 
L 162.134856 -81.703873 
L 163.1545 -82.092905 
L 164.174143 -82.545504 
L 165.193787 -83.064887 
L 166.213431 -83.64392 
L 167.233074 -84.266236 
L 168.252718 -84.908067 
L 169.272362 -85.540606 
L 170.292005 -86.132635 
L 171.311649 -86.653153 
L 172.331293 -87.073743 
L 173.350937 -87.370443 
L 174.37058 -87.524985 
L 175.390224 -87.525319 
L 176.409868 -87.365462 
L 177.429511 -87.044802 
L 178.449155 -86.56704 
L 179.468799 -85.939013 
L 180.488442 -85.169622 
L 181.508086 -84.26908 
L 182.52773 -83.248599 
L 183.547373 -82.120583 
L 184.567017 -80.8993 
L 185.586661 -79.601977 
L 186.606304 -78.250194 
L 187.625948 -76.871428 
L 188.645592 -75.500578 
L 189.665235 -74.181246 
L 190.684879 -72.966527 
L 191.704523 -71.919002 
L 192.724166 -71.10953 
L 193.74381 -70.614426 
L 194.763454 -70.510665 
L 195.783097 -70.86926 
L 196.802741 -71.748996 
L 197.822385 -73.195353 
L 198.842028 -75.242848 
L 199.861672 -77.911742 
L 200.881316 -81.201134 
L 201.900959 -85.084688 
L 202.920603 -89.509375 
L 203.940247 -94.396111 
L 204.95989 -99.641836 
L 205.979534 -105.122885 
L 206.999178 -110.699496 
L 208.018821 -116.221217 
L 209.038465 -121.532925 
L 210.058109 -126.481115 
L 211.077752 -130.920106 
L 212.097396 -134.717829 
L 213.11704 -137.760887 
L 214.136683 -139.958651 
L 215.156327 -141.246204 
L 216.175971 -141.586042 
L 217.195614 -140.968495 
L 218.215258 -139.410936 
L 219.234902 -136.955884 
L 220.254545 -133.668173 
L 220.254545 -157.012684 
L 220.254545 -157.012684 
L 219.234902 -159.265837 
L 218.215258 -160.601374 
L 217.195614 -160.961699 
L 216.175971 -160.313964 
L 215.156327 -158.652756 
L 214.136683 -156.001745 
L 213.11704 -152.414129 
L 212.097396 -147.971766 
L 211.077752 -142.782966 
L 210.058109 -136.978976 
L 209.038465 -130.709298 
L 208.018821 -124.136039 
L 206.999178 -117.427572 
L 205.979534 -110.751844 
L 204.95989 -104.269704 
L 203.940247 -98.128625 
L 202.920603 -92.457195 
L 201.900959 -87.36071 
L 200.881316 -82.918141 
L 199.861672 -79.180636 
L 198.842028 -76.171569 
L 197.822385 -73.887594 
L 196.802741 -72.299309 
L 195.783097 -71.351468 
L 194.763454 -70.968383 
L 193.74381 -71.065839 
L 192.724166 -71.559744 
L 191.704523 -72.369052 
L 190.684879 -73.417164 
L 189.665235 -74.633542 
L 188.645592 -75.955355 
L 187.625948 -77.328717 
L 186.606304 -78.709194 
L 185.586661 -80.061442 
L 184.567017 -81.358084 
L 183.547373 -82.578076 
L 182.52773 -83.704886 
L 181.508086 -84.724798 
L 180.488442 -85.625622 
L 179.468799 -86.395976 
L 178.449155 -87.025215 
L 177.429511 -87.503928 
L 176.409868 -87.824877 
L 175.390224 -87.984169 
L 174.37058 -87.982449 
L 173.350937 -87.825891 
L 172.331293 -87.5268 
L 171.311649 -87.103672 
L 170.292005 -86.580621 
L 169.272362 -85.986154 
L 168.252718 -85.35133 
L 167.233074 -84.707453 
L 166.213431 -84.083462 
L 165.193787 -83.503286 
L 164.174143 -82.983432 
L 163.1545 -82.531073 
L 162.134856 -82.142888 
L 161.115212 -81.804809 
L 160.095569 -81.492764 
L 159.075925 -81.174365 
L 158.056281 -80.811421 
L 157.036638 -80.363046 
L 156.016994 -79.789095 
L 154.99735 -79.053599 
L 153.977707 -78.127912 
L 152.958063 -76.993274 
L 151.938419 -75.642583 
L 150.918776 -74.081222 
L 149.899132 -72.326881 
L 148.879488 -70.408392 
L 147.859845 -68.363674 
L 146.840201 -66.23695 
L 145.820557 -64.075485 
L 144.800914 -61.926111 
L 143.78127 -59.831848 
L 142.761626 -57.82889 
L 141.741983 -55.944224 
L 140.722339 -54.194039 
L 139.702695 -52.583056 
L 138.683052 -51.104799 
L 137.663408 -49.742756 
L 136.643764 -48.472327 
L 135.624121 -47.263393 
L 134.604477 -46.083303 
L 133.584833 -44.900032 
L 132.56519 -43.68524 
L 131.545546 -42.416958 
L 130.525902 -41.081675 
L 129.506259 -39.675641 
L 128.486615 -38.2053 
L 127.466971 -36.686823 
L 126.447328 -35.144814 
L 125.427684 -33.610288 
L 124.40804 -32.118136 
L 123.388397 -30.704286 
L 122.368753 -29.402831 
L 121.349109 -28.243392 
L 120.329466 -27.248948 
L 119.309822 -26.434322 
L 118.290178 -25.80543 
L 117.270534 -25.359335 
L 116.250891 -25.085063 
L 115.231247 -24.965087 
L 114.211603 -24.977321 
L 113.19196 -25.097406 
L 112.172316 -25.301079 
L 111.152672 -25.566374 
L 110.133029 -25.875475 
L 109.113385 -26.216044 
L 108.093741 -26.581942 
L 107.074098 -26.973284 
L 106.054454 -27.395826 
L 105.03481 -27.859768 
L 104.015167 -28.37807 
L 102.995523 -28.964493 
L 101.975879 -29.631564 
L 100.956236 -30.388704 
L 99.936592 -31.240736 
L 98.916948 -32.186933 
L 97.897305 -33.220731 
L 96.877661 -34.330149 
L 95.858017 -35.49885 
L 94.838374 -36.707742 
L 93.81873 -37.936879 
L 92.799086 -39.167453 
L 91.779443 -40.383611 
L 90.759799 -41.573885 
L 89.740155 -42.732078 
L 88.720512 -43.857479 
L 87.700868 -44.954413 
L 86.681224 -46.031152 
L 85.661581 -47.098322 
L 84.641937 -48.167003 
L 83.622293 -49.246735 
L 82.60265 -50.343682 
L 81.583006 -51.459172 
L 80.563362 -52.588787 
L 79.543719 -53.722108 
L 78.524075 -54.843164 
L 77.504431 -55.931544 
L 76.484788 -56.964046 
L 75.465144 -57.916698 
L 74.4455 -58.766935 
L 73.425857 -59.495663 
L 72.406213 -60.089016 
L 71.386569 -60.539588 
L 70.366926 -60.847035 
L 69.347282 -61.018016 
L 68.327638 -61.065477 
L 67.307995 -61.007358 
L 66.288351 -60.864809 
L 65.268707 -60.660075 
L 64.249063 -60.414239 
L 63.22942 -60.145066 
L 62.209776 -59.865174 
L 61.190132 -59.580749 
L 60.170489 -59.290943 
L 59.150845 -58.988043 
L 58.131201 -58.658389 
L 57.111558 -58.283971 
L 56.091914 -57.844521 
L 55.07227 -57.319897 
L 54.052627 -56.692517 
L 53.032983 -55.949616 
L 52.013339 -55.08509 
L 50.993696 -54.100754 
L 49.974052 -53.006866 
L 48.954408 -51.82184 
L 47.934765 -50.571141 
L 46.915121 -49.285493 
L 45.895477 -47.998675 
L 44.875834 -46.745286 
L 43.85619 -45.558969 
L 42.836546 -44.47162 
L 41.816903 -43.513859 
L 40.797259 -42.715099 
L 39.777615 -42.098739 
L 38.757972 -41.67431 
L 37.738328 -41.436543 
L 36.718684 -41.369894 
L 35.699041 -41.451979 
L 34.679397 -41.655544 
L 33.659753 -41.950183 
L 32.64011 -42.304167 
L 31.620466 -42.686329 
L 30.600822 -43.06783 
L 29.581179 -43.423684 
L 28.561535 -43.733931 
L 27.541891 -43.984402 
L 26.522248 -44.167052 
L 25.502604 -44.279874 
L 24.48296 -44.326437 
L 23.463317 -44.315121 
L 22.443673 -44.258115 
L 21.424029 -44.170284 
L 20.404386 -44.067983 
L 19.384742 -43.967907 
L 18.365098 -43.886037 
L 17.345455 -43.836745 
z
"/>
    </defs>
    <g clip-path="url(#pc6b302aef2)">
     <use xlink:href="#m16b1bede2d" x="0" y="180.72" style="fill: #dc143c; fill-opacity: 0.2"/>
    </g>
   </g>
   <g id="FillBetweenPolyCollection_3">
    <defs>
     <path id="m0c1bfb7ff9" d="M 17.345455 -49.652095 
L 17.345455 -14.76 
L 18.365098 -16.112029 
L 19.384742 -17.601992 
L 20.404386 -19.206119 
L 21.424029 -20.896007 
L 22.443673 -22.639707 
L 23.463317 -24.403106 
L 24.48296 -26.151542 
L 25.502604 -27.851549 
L 26.522248 -29.472654 
L 27.541891 -30.989087 
L 28.561535 -32.381293 
L 29.581179 -33.63712 
L 30.600822 -34.752585 
L 31.620466 -35.732118 
L 32.64011 -36.588259 
L 33.659753 -37.340763 
L 34.679397 -38.015156 
L 35.699041 -38.640782 
L 36.718684 -39.248447 
L 37.738328 -39.867764 
L 38.757972 -40.524523 
L 39.777615 -41.239039 
L 40.797259 -42.027684 
L 41.816903 -42.907394 
L 42.836546 -43.893514 
L 43.85619 -44.988955 
L 44.875834 -46.179551 
L 45.895477 -47.438216 
L 46.915121 -48.730882 
L 47.934765 -50.021301 
L 48.954408 -51.274647 
L 49.974052 -52.46017 
L 50.993696 -53.553108 
L 52.013339 -54.535969 
L 53.032983 -55.399246 
L 54.052627 -56.14154 
L 55.07227 -56.769026 
L 56.091914 -57.294283 
L 57.111558 -57.734566 
L 58.131201 -58.109667 
L 59.150845 -58.439578 
L 60.170489 -58.742192 
L 61.190132 -59.03126 
L 62.209776 -59.314795 
L 63.22942 -59.594073 
L 64.249063 -59.863332 
L 65.268707 -60.110204 
L 66.288351 -60.31685 
L 67.307995 -60.461703 
L 68.327638 -60.521663 
L 69.347282 -60.474522 
L 70.366926 -60.301374 
L 71.386569 -59.988727 
L 72.406213 -59.530032 
L 73.425857 -58.926448 
L 74.4455 -58.186736 
L 75.465144 -57.326346 
L 76.484788 -56.365848 
L 77.504431 -55.328911 
L 78.524075 -54.240063 
L 79.543719 -53.12247 
L 80.563362 -51.995961 
L 81.583006 -50.875503 
L 82.60265 -49.770266 
L 83.622293 -48.683388 
L 84.641937 -47.612425 
L 85.661581 -46.550421 
L 86.681224 -45.487469 
L 87.700868 -44.412547 
L 88.720512 -43.315432 
L 89.740155 -42.188478 
L 90.759799 -41.028047 
L 91.779443 -39.835449 
L 92.799086 -38.617284 
L 93.81873 -37.385143 
L 94.838374 -36.154723 
L 95.858017 -34.944447 
L 96.877661 -33.773781 
L 97.897305 -32.661416 
L 98.916948 -31.623526 
L 99.936592 -30.672288 
L 100.956236 -29.814813 
L 101.975879 -29.052609 
L 102.995523 -28.381678 
L 104.015167 -27.793247 
L 105.03481 -27.275088 
L 106.054454 -26.813297 
L 107.074098 -26.394343 
L 108.093741 -26.007157 
L 109.113385 -25.645032 
L 110.133029 -25.307073 
L 111.152672 -24.999028 
L 112.172316 -24.733333 
L 113.19196 -24.528346 
L 114.211603 -24.406838 
L 115.231247 -24.393903 
L 116.250891 -24.514526 
L 117.270534 -24.791054 
L 118.290178 -25.240842 
L 119.309822 -25.874293 
L 120.329466 -26.6935 
L 121.349109 -27.691617 
L 122.368753 -28.853032 
L 123.388397 -30.154322 
L 124.40804 -31.565895 
L 125.427684 -33.054158 
L 126.447328 -34.584048 
L 127.466971 -36.121703 
L 128.486615 -37.637079 
L 129.506259 -39.106285 
L 130.525902 -40.513462 
L 131.545546 -41.852005 
L 132.56519 -43.125041 
L 133.584833 -44.345089 
L 134.604477 -45.532936 
L 135.624121 -46.715788 
L 136.643764 -47.924837 
L 137.663408 -49.192398 
L 138.683052 -50.548831 
L 139.702695 -52.019485 
L 140.722339 -53.62195 
L 141.741983 -55.363888 
L 142.761626 -57.241668 
L 143.78127 -59.239942 
L 144.800914 -61.332231 
L 145.820557 -63.482473 
L 146.840201 -65.647416 
L 147.859845 -67.779671 
L 148.879488 -69.831175 
L 149.899132 -71.75678 
L 150.918776 -73.517666 
L 151.938419 -75.084279 
L 152.958063 -76.438528 
L 153.977707 -77.57501 
L 154.99735 -78.501165 
L 156.016994 -79.236325 
L 157.036638 -79.809773 
L 158.056281 -80.258 
L 159.075925 -80.621439 
L 160.095569 -80.940974 
L 161.115212 -81.254541 
L 162.134856 -81.59412 
L 163.1545 -81.983363 
L 164.174143 -82.436022 
L 165.193787 -82.955287 
L 166.213431 -83.534035 
L 167.233074 -84.155932 
L 168.252718 -84.797251 
L 169.272362 -85.429219 
L 170.292005 -86.020638 
L 171.311649 -86.540524 
L 172.331293 -86.960479 
L 173.350937 -87.256581 
L 174.37058 -87.410619 
L 175.390224 -87.410606 
L 176.409868 -87.250608 
L 177.429511 -86.93002 
L 178.449155 -86.452497 
L 179.468799 -85.824772 
L 180.488442 -85.055622 
L 181.508086 -84.155151 
L 182.52773 -83.134528 
L 183.547373 -82.00621 
L 184.567017 -80.784604 
L 185.586661 -79.487111 
L 186.606304 -78.135444 
L 187.625948 -76.757106 
L 188.645592 -75.386884 
L 189.665235 -74.068172 
L 190.684879 -72.853868 
L 191.704523 -71.80649 
L 192.724166 -70.996977 
L 193.74381 -70.501572 
L 194.763454 -70.396236 
L 195.783097 -70.748707 
L 196.802741 -71.611417 
L 197.822385 -73.022293 
L 198.842028 -75.010668 
L 199.861672 -77.594519 
L 200.881316 -80.771883 
L 201.900959 -84.515682 
L 202.920603 -88.77242 
L 203.940247 -93.462982 
L 204.95989 -98.484869 
L 205.979534 -103.715646 
L 206.999178 -109.017478 
L 208.018821 -114.242512 
L 209.038465 -119.238831 
L 210.058109 -123.856649 
L 211.077752 -127.954391 
L 212.097396 -131.404345 
L 213.11704 -134.097577 
L 214.136683 -135.947877 
L 215.156327 -136.894566 
L 216.175971 -136.904061 
L 217.195614 -135.970193 
L 218.215258 -134.113326 
L 219.234902 -131.378396 
L 220.254545 -127.832045 
L 220.254545 -162.848812 
L 220.254545 -162.848812 
L 219.234902 -164.843325 
L 218.215258 -165.898983 
L 217.195614 -165.96 
L 216.175971 -164.995945 
L 215.156327 -163.004395 
L 214.136683 -160.012519 
L 213.11704 -156.077439 
L 212.097396 -151.28525 
L 211.077752 -145.748681 
L 210.058109 -139.603441 
L 209.038465 -133.003392 
L 208.018821 -126.114745 
L 206.999178 -119.10959 
L 205.979534 -112.159083 
L 204.95989 -105.426671 
L 203.940247 -99.061753 
L 202.920603 -93.194149 
L 201.900959 -87.929716 
L 200.881316 -83.347392 
L 199.861672 -79.497859 
L 198.842028 -76.40375 
L 197.822385 -74.060655 
L 196.802741 -72.436887 
L 195.783097 -71.47202 
L 194.763454 -71.082812 
L 193.74381 -71.178693 
L 192.724166 -71.672298 
L 191.704523 -72.481564 
L 190.684879 -73.529823 
L 189.665235 -74.746617 
L 188.645592 -76.069049 
L 187.625948 -77.44304 
L 186.606304 -78.823945 
L 185.586661 -80.176308 
L 184.567017 -81.47278 
L 183.547373 -82.692449 
L 182.52773 -83.818958 
L 181.508086 -84.838728 
L 180.488442 -85.739621 
L 179.468799 -86.510217 
L 178.449155 -87.139759 
L 177.429511 -87.61871 
L 176.409868 -87.939731 
L 175.390224 -88.098882 
L 174.37058 -88.096815 
L 173.350937 -87.939753 
L 172.331293 -87.640064 
L 171.311649 -87.216301 
L 170.292005 -86.692618 
L 169.272362 -86.097541 
L 168.252718 -85.462146 
L 167.233074 -84.817757 
L 166.213431 -84.193347 
L 165.193787 -83.612886 
L 164.174143 -83.092914 
L 163.1545 -82.640615 
L 162.134856 -82.252641 
L 161.115212 -81.914863 
L 160.095569 -81.603122 
L 159.075925 -81.28495 
L 158.056281 -80.922105 
L 157.036638 -80.473701 
L 156.016994 -79.899649 
L 154.99735 -79.164086 
L 153.977707 -78.238492 
L 152.958063 -77.104223 
L 151.938419 -75.754244 
L 150.918776 -74.193933 
L 149.899132 -72.440901 
L 148.879488 -70.523836 
L 147.859845 -68.480475 
L 146.840201 -66.354857 
L 145.820557 -64.194087 
L 144.800914 -62.044887 
L 143.78127 -59.950229 
L 142.761626 -57.946335 
L 141.741983 -56.060291 
L 140.722339 -54.308456 
L 139.702695 -52.69577 
L 138.683052 -51.215993 
L 137.663408 -49.852828 
L 136.643764 -48.581825 
L 135.624121 -47.372914 
L 134.604477 -46.193376 
L 133.584833 -45.011021 
L 132.56519 -43.79728 
L 131.545546 -42.529949 
L 130.525902 -41.195318 
L 129.506259 -39.789512 
L 128.486615 -38.318944 
L 127.466971 -36.799847 
L 126.447328 -35.256967 
L 125.427684 -33.721514 
L 124.40804 -32.228585 
L 123.388397 -30.814279 
L 122.368753 -29.512791 
L 121.349109 -28.353747 
L 120.329466 -27.360037 
L 119.309822 -26.546327 
L 118.290178 -25.918348 
L 117.270534 -25.472991 
L 116.250891 -25.19917 
L 115.231247 -25.079324 
L 114.211603 -25.091417 
L 113.19196 -25.211218 
L 112.172316 -25.414628 
L 111.152672 -25.679843 
L 110.133029 -25.989155 
L 109.113385 -26.330246 
L 108.093741 -26.696899 
L 107.074098 -27.089072 
L 106.054454 -27.512332 
L 105.03481 -27.976704 
L 104.015167 -28.495035 
L 102.995523 -29.081056 
L 101.975879 -29.747355 
L 100.956236 -30.503482 
L 99.936592 -31.354425 
L 98.916948 -32.299614 
L 97.897305 -33.332595 
L 96.877661 -34.441422 
L 95.858017 -35.609731 
L 94.838374 -36.818346 
L 93.81873 -38.047226 
L 92.799086 -39.277487 
L 91.779443 -40.493243 
L 90.759799 -41.683053 
L 89.740155 -42.840798 
L 88.720512 -43.965888 
L 87.700868 -45.062786 
L 86.681224 -46.139889 
L 85.661581 -47.207903 
L 84.641937 -48.277919 
L 83.622293 -49.359404 
L 82.60265 -50.458365 
L 81.583006 -51.575906 
L 80.563362 -52.707352 
L 79.543719 -53.842035 
L 78.524075 -54.963785 
L 77.504431 -56.052071 
L 76.484788 -57.083685 
L 75.465144 -58.034769 
L 74.4455 -58.882974 
L 73.425857 -59.609506 
L 72.406213 -60.200813 
L 71.386569 -60.64976 
L 70.366926 -60.956168 
L 69.347282 -61.126715 
L 68.327638 -61.17424 
L 67.307995 -61.116489 
L 66.288351 -60.974401 
L 65.268707 -60.77005 
L 64.249063 -60.524421 
L 63.22942 -60.255265 
L 62.209776 -59.97525 
L 61.190132 -59.690647 
L 60.170489 -59.400694 
L 59.150845 -59.097735 
L 58.131201 -58.768133 
L 57.111558 -58.393852 
L 56.091914 -57.954569 
L 55.07227 -57.430071 
L 54.052627 -56.802712 
L 53.032983 -56.05969 
L 52.013339 -55.194914 
L 50.993696 -54.210283 
L 49.974052 -53.116205 
L 48.954408 -51.931278 
L 47.934765 -50.681108 
L 46.915121 -49.396415 
L 45.895477 -48.110767 
L 44.875834 -46.858433 
L 43.85619 -45.672972 
L 42.836546 -44.587241 
L 41.816903 -43.635153 
L 40.797259 -42.852583 
L 39.777615 -42.270679 
L 38.757972 -41.904267 
L 37.738328 -41.750299 
L 36.718684 -41.794183 
L 35.699041 -42.014218 
L 34.679397 -42.383622 
L 33.659753 -42.872067 
L 32.64011 -43.447349 
L 31.620466 -44.077171 
L 30.600822 -44.730879 
L 29.581179 -45.380997 
L 28.561535 -46.004459 
L 27.541891 -46.583466 
L 26.522248 -47.105932 
L 25.502604 -47.565539 
L 24.48296 -47.961416 
L 23.463317 -48.297524 
L 22.443673 -48.581796 
L 21.424029 -48.825139 
L 20.404386 -49.040356 
L 19.384742 -49.24109 
L 18.365098 -49.440838 
L 17.345455 -49.652095 
z
"/>
    </defs>
    <g clip-path="url(#pc6b302aef2)">
     <use xlink:href="#m0c1bfb7ff9" x="0" y="180.72" style="fill: #dc143c; fill-opacity: 0.2"/>
    </g>
   </g>
   <g id="legend_1">
    <g id="patch_2">
     <path d="M 248.56 113.877188 
L 338.981875 113.877188 
Q 340.981875 113.877188 340.981875 111.877188 
L 340.981875 68.842813 
Q 340.981875 66.842813 338.981875 66.842813 
L 248.56 66.842813 
Q 246.56 66.842813 246.56 68.842813 
L 246.56 111.877188 
Q 246.56 113.877188 248.56 113.877188 
z
" style="fill: #ffffff; opacity: 0.8; stroke: #cccccc; stroke-linejoin: miter"/>
    </g>
    <g id="line2d_1">
     <path d="M 250.56 74.94125 
L 260.56 74.94125 
L 270.56 74.94125 
" style="fill: none; stroke: #dc143c; stroke-width: 2; stroke-linecap: square"/>
    </g>
    <g id="text_1">
     <!-- Prediction -->
     <g transform="translate(278.56 78.44125) scale(0.1 -0.1)">
      <defs>
       <path id="DejaVuSans-50" d="M 1259 4147 
L 1259 2394 
L 2053 2394 
Q 2494 2394 2734 2622 
Q 2975 2850 2975 3272 
Q 2975 3691 2734 3919 
Q 2494 4147 2053 4147 
L 1259 4147 
z
M 628 4666 
L 2053 4666 
Q 2838 4666 3239 4311 
Q 3641 3956 3641 3272 
Q 3641 2581 3239 2228 
Q 2838 1875 2053 1875 
L 1259 1875 
L 1259 0 
L 628 0 
L 628 4666 
z
" transform="scale(0.015625)"/>
       <path id="DejaVuSans-72" d="M 2631 2963 
Q 2534 3019 2420 3045 
Q 2306 3072 2169 3072 
Q 1681 3072 1420 2755 
Q 1159 2438 1159 1844 
L 1159 0 
L 581 0 
L 581 3500 
L 1159 3500 
L 1159 2956 
Q 1341 3275 1631 3429 
Q 1922 3584 2338 3584 
Q 2397 3584 2469 3576 
Q 2541 3569 2628 3553 
L 2631 2963 
z
" transform="scale(0.015625)"/>
       <path id="DejaVuSans-65" d="M 3597 1894 
L 3597 1613 
L 953 1613 
Q 991 1019 1311 708 
Q 1631 397 2203 397 
Q 2534 397 2845 478 
Q 3156 559 3463 722 
L 3463 178 
Q 3153 47 2828 -22 
Q 2503 -91 2169 -91 
Q 1331 -91 842 396 
Q 353 884 353 1716 
Q 353 2575 817 3079 
Q 1281 3584 2069 3584 
Q 2775 3584 3186 3129 
Q 3597 2675 3597 1894 
z
M 3022 2063 
Q 3016 2534 2758 2815 
Q 2500 3097 2075 3097 
Q 1594 3097 1305 2825 
Q 1016 2553 972 2059 
L 3022 2063 
z
" transform="scale(0.015625)"/>
       <path id="DejaVuSans-64" d="M 2906 2969 
L 2906 4863 
L 3481 4863 
L 3481 0 
L 2906 0 
L 2906 525 
Q 2725 213 2448 61 
Q 2172 -91 1784 -91 
Q 1150 -91 751 415 
Q 353 922 353 1747 
Q 353 2572 751 3078 
Q 1150 3584 1784 3584 
Q 2172 3584 2448 3432 
Q 2725 3281 2906 2969 
z
M 947 1747 
Q 947 1113 1208 752 
Q 1469 391 1925 391 
Q 2381 391 2643 752 
Q 2906 1113 2906 1747 
Q 2906 2381 2643 2742 
Q 2381 3103 1925 3103 
Q 1469 3103 1208 2742 
Q 947 2381 947 1747 
z
" transform="scale(0.015625)"/>
       <path id="DejaVuSans-69" d="M 603 3500 
L 1178 3500 
L 1178 0 
L 603 0 
L 603 3500 
z
M 603 4863 
L 1178 4863 
L 1178 4134 
L 603 4134 
L 603 4863 
z
" transform="scale(0.015625)"/>
       <path id="DejaVuSans-63" d="M 3122 3366 
L 3122 2828 
Q 2878 2963 2633 3030 
Q 2388 3097 2138 3097 
Q 1578 3097 1268 2742 
Q 959 2388 959 1747 
Q 959 1106 1268 751 
Q 1578 397 2138 397 
Q 2388 397 2633 464 
Q 2878 531 3122 666 
L 3122 134 
Q 2881 22 2623 -34 
Q 2366 -91 2075 -91 
Q 1284 -91 818 406 
Q 353 903 353 1747 
Q 353 2603 823 3093 
Q 1294 3584 2113 3584 
Q 2378 3584 2631 3529 
Q 2884 3475 3122 3366 
z
" transform="scale(0.015625)"/>
       <path id="DejaVuSans-74" d="M 1172 4494 
L 1172 3500 
L 2356 3500 
L 2356 3053 
L 1172 3053 
L 1172 1153 
Q 1172 725 1289 603 
Q 1406 481 1766 481 
L 2356 481 
L 2356 0 
L 1766 0 
Q 1100 0 847 248 
Q 594 497 594 1153 
L 594 3053 
L 172 3053 
L 172 3500 
L 594 3500 
L 594 4494 
L 1172 4494 
z
" transform="scale(0.015625)"/>
       <path id="DejaVuSans-6f" d="M 1959 3097 
Q 1497 3097 1228 2736 
Q 959 2375 959 1747 
Q 959 1119 1226 758 
Q 1494 397 1959 397 
Q 2419 397 2687 759 
Q 2956 1122 2956 1747 
Q 2956 2369 2687 2733 
Q 2419 3097 1959 3097 
z
M 1959 3584 
Q 2709 3584 3137 3096 
Q 3566 2609 3566 1747 
Q 3566 888 3137 398 
Q 2709 -91 1959 -91 
Q 1206 -91 779 398 
Q 353 888 353 1747 
Q 353 2609 779 3096 
Q 1206 3584 1959 3584 
z
" transform="scale(0.015625)"/>
       <path id="DejaVuSans-6e" d="M 3513 2113 
L 3513 0 
L 2938 0 
L 2938 2094 
Q 2938 2591 2744 2837 
Q 2550 3084 2163 3084 
Q 1697 3084 1428 2787 
Q 1159 2491 1159 1978 
L 1159 0 
L 581 0 
L 581 3500 
L 1159 3500 
L 1159 2956 
Q 1366 3272 1645 3428 
Q 1925 3584 2291 3584 
Q 2894 3584 3203 3211 
Q 3513 2838 3513 2113 
z
" transform="scale(0.015625)"/>
      </defs>
      <use xlink:href="#DejaVuSans-50"/>
      <use xlink:href="#DejaVuSans-72" transform="translate(58.552734 0)"/>
      <use xlink:href="#DejaVuSans-65" transform="translate(97.416016 0)"/>
      <use xlink:href="#DejaVuSans-64" transform="translate(158.939453 0)"/>
      <use xlink:href="#DejaVuSans-69" transform="translate(222.416016 0)"/>
      <use xlink:href="#DejaVuSans-63" transform="translate(250.199219 0)"/>
      <use xlink:href="#DejaVuSans-74" transform="translate(305.179688 0)"/>
      <use xlink:href="#DejaVuSans-69" transform="translate(344.388672 0)"/>
      <use xlink:href="#DejaVuSans-6f" transform="translate(372.171875 0)"/>
      <use xlink:href="#DejaVuSans-6e" transform="translate(433.353516 0)"/>
     </g>
    </g>
    <g id="patch_3">
     <path d="M 250.56 93.119375 
L 270.56 93.119375 
L 270.56 86.119375 
L 250.56 86.119375 
z
" style="fill: #dc143c; fill-opacity: 0.2"/>
    </g>
    <g id="text_2">
     <!-- Uncertainty -->
     <g transform="translate(278.56 93.119375) scale(0.1 -0.1)">
      <defs>
       <path id="DejaVuSans-55" d="M 556 4666 
L 1191 4666 
L 1191 1831 
Q 1191 1081 1462 751 
Q 1734 422 2344 422 
Q 2950 422 3222 751 
Q 3494 1081 3494 1831 
L 3494 4666 
L 4128 4666 
L 4128 1753 
Q 4128 841 3676 375 
Q 3225 -91 2344 -91 
Q 1459 -91 1007 375 
Q 556 841 556 1753 
L 556 4666 
z
" transform="scale(0.015625)"/>
       <path id="DejaVuSans-61" d="M 2194 1759 
Q 1497 1759 1228 1600 
Q 959 1441 959 1056 
Q 959 750 1161 570 
Q 1363 391 1709 391 
Q 2188 391 2477 730 
Q 2766 1069 2766 1631 
L 2766 1759 
L 2194 1759 
z
M 3341 1997 
L 3341 0 
L 2766 0 
L 2766 531 
Q 2569 213 2275 61 
Q 1981 -91 1556 -91 
Q 1019 -91 701 211 
Q 384 513 384 1019 
Q 384 1609 779 1909 
Q 1175 2209 1959 2209 
L 2766 2209 
L 2766 2266 
Q 2766 2663 2505 2880 
Q 2244 3097 1772 3097 
Q 1472 3097 1187 3025 
Q 903 2953 641 2809 
L 641 3341 
Q 956 3463 1253 3523 
Q 1550 3584 1831 3584 
Q 2591 3584 2966 3190 
Q 3341 2797 3341 1997 
z
" transform="scale(0.015625)"/>
       <path id="DejaVuSans-79" d="M 2059 -325 
Q 1816 -950 1584 -1140 
Q 1353 -1331 966 -1331 
L 506 -1331 
L 506 -850 
L 844 -850 
Q 1081 -850 1212 -737 
Q 1344 -625 1503 -206 
L 1606 56 
L 191 3500 
L 800 3500 
L 1894 763 
L 2988 3500 
L 3597 3500 
L 2059 -325 
z
" transform="scale(0.015625)"/>
      </defs>
      <use xlink:href="#DejaVuSans-55"/>
      <use xlink:href="#DejaVuSans-6e" transform="translate(73.193359 0)"/>
      <use xlink:href="#DejaVuSans-63" transform="translate(136.572266 0)"/>
      <use xlink:href="#DejaVuSans-65" transform="translate(191.552734 0)"/>
      <use xlink:href="#DejaVuSans-72" transform="translate(253.076172 0)"/>
      <use xlink:href="#DejaVuSans-74" transform="translate(294.189453 0)"/>
      <use xlink:href="#DejaVuSans-61" transform="translate(333.398438 0)"/>
      <use xlink:href="#DejaVuSans-69" transform="translate(394.677734 0)"/>
      <use xlink:href="#DejaVuSans-6e" transform="translate(422.460938 0)"/>
      <use xlink:href="#DejaVuSans-74" transform="translate(485.839844 0)"/>
      <use xlink:href="#DejaVuSans-79" transform="translate(525.048828 0)"/>
     </g>
    </g>
    <g id="line2d_2">
     <defs>
      <path id="m5e0f216f0b" d="M 0 3 
C 0.795609 3 1.55874 2.683901 2.12132 2.12132 
C 2.683901 1.55874 3 0.795609 3 0 
C 3 -0.795609 2.683901 -1.55874 2.12132 -2.12132 
C 1.55874 -2.683901 0.795609 -3 0 -3 
C -0.795609 -3 -1.55874 -2.683901 -2.12132 -2.12132 
C -2.683901 -1.55874 -3 -0.795609 -3 0 
C -3 0.795609 -2.683901 1.55874 -2.12132 2.12132 
C -1.55874 2.683901 -0.795609 3 0 3 
z
" style="stroke: #000000; stroke-opacity: 0.5"/>
     </defs>
     <g>
      <use xlink:href="#m5e0f216f0b" x="260.56" y="104.2975" style="fill-opacity: 0.5; stroke: #000000; stroke-opacity: 0.5"/>
     </g>
    </g>
    <g id="text_3">
     <!-- Data -->
     <g transform="translate(278.56 107.7975) scale(0.1 -0.1)">
      <defs>
       <path id="DejaVuSans-44" d="M 1259 4147 
L 1259 519 
L 2022 519 
Q 2988 519 3436 956 
Q 3884 1394 3884 2338 
Q 3884 3275 3436 3711 
Q 2988 4147 2022 4147 
L 1259 4147 
z
M 628 4666 
L 1925 4666 
Q 3281 4666 3915 4102 
Q 4550 3538 4550 2338 
Q 4550 1131 3912 565 
Q 3275 0 1925 0 
L 628 0 
L 628 4666 
z
" transform="scale(0.015625)"/>
      </defs>
      <use xlink:href="#DejaVuSans-44"/>
      <use xlink:href="#DejaVuSans-61" transform="translate(77.001953 0)"/>
      <use xlink:href="#DejaVuSans-74" transform="translate(138.28125 0)"/>
      <use xlink:href="#DejaVuSans-61" transform="translate(177.490234 0)"/>
     </g>
    </g>
   </g>
   <g id="line2d_3">
    <g clip-path="url(#pc6b302aef2)">
     <use xlink:href="#m5e0f216f0b" x="99.449543" y="147.89939" style="fill-opacity: 0.5; stroke: #000000; stroke-opacity: 0.5"/>
     <use xlink:href="#m5e0f216f0b" x="191.088781" y="107.163848" style="fill-opacity: 0.5; stroke: #000000; stroke-opacity: 0.5"/>
     <use xlink:href="#m5e0f216f0b" x="156.301788" y="101.569658" style="fill-opacity: 0.5; stroke: #000000; stroke-opacity: 0.5"/>
     <use xlink:href="#m5e0f216f0b" x="135.095077" y="141.566998" style="fill-opacity: 0.5; stroke: #000000; stroke-opacity: 0.5"/>
     <use xlink:href="#m5e0f216f0b" x="64.694183" y="121.597985" style="fill-opacity: 0.5; stroke: #000000; stroke-opacity: 0.5"/>
     <use xlink:href="#m5e0f216f0b" x="64.690347" y="119.208914" style="fill-opacity: 0.5; stroke: #000000; stroke-opacity: 0.5"/>
     <use xlink:href="#m5e0f216f0b" x="49.117832" y="124.798206" style="fill-opacity: 0.5; stroke: #000000; stroke-opacity: 0.5"/>
     <use xlink:href="#m5e0f216f0b" x="177.643172" y="98.545761" style="fill-opacity: 0.5; stroke: #000000; stroke-opacity: 0.5"/>
     <use xlink:href="#m5e0f216f0b" x="135.485782" y="136.069467" style="fill-opacity: 0.5; stroke: #000000; stroke-opacity: 0.5"/>
     <use xlink:href="#m5e0f216f0b" x="152.497148" y="108.490497" style="fill-opacity: 0.5; stroke: #000000; stroke-opacity: 0.5"/>
     <use xlink:href="#m5e0f216f0b" x="43.15368" y="134.385389" style="fill-opacity: 0.5; stroke: #000000; stroke-opacity: 0.5"/>
     <use xlink:href="#m5e0f216f0b" x="194.14179" y="106.911757" style="fill-opacity: 0.5; stroke: #000000; stroke-opacity: 0.5"/>
     <use xlink:href="#m5e0f216f0b" x="172.277932" y="96.867463" style="fill-opacity: 0.5; stroke: #000000; stroke-opacity: 0.5"/>
     <use xlink:href="#m5e0f216f0b" x="73.65183" y="120.76637" style="fill-opacity: 0.5; stroke: #000000; stroke-opacity: 0.5"/>
     <use xlink:href="#m5e0f216f0b" x="68.798622" y="120.547017" style="fill-opacity: 0.5; stroke: #000000; stroke-opacity: 0.5"/>
     <use xlink:href="#m5e0f216f0b" x="69.049845" y="116.994631" style="fill-opacity: 0.5; stroke: #000000; stroke-opacity: 0.5"/>
     <use xlink:href="#m5e0f216f0b" x="88.268821" y="139.373973" style="fill-opacity: 0.5; stroke: #000000; stroke-opacity: 0.5"/>
     <use xlink:href="#m5e0f216f0b" x="123.341118" y="149.963436" style="fill-opacity: 0.5; stroke: #000000; stroke-opacity: 0.5"/>
     <use xlink:href="#m5e0f216f0b" x="108.579667" y="155.301456" style="fill-opacity: 0.5; stroke: #000000; stroke-opacity: 0.5"/>
     <use xlink:href="#m5e0f216f0b" x="86.199116" y="140.198725" style="fill-opacity: 0.5; stroke: #000000; stroke-opacity: 0.5"/>
     <use xlink:href="#m5e0f216f0b" x="137.193619" y="128.772465" style="fill-opacity: 0.5; stroke: #000000; stroke-opacity: 0.5"/>
     <use xlink:href="#m5e0f216f0b" x="62.065953" y="120.131208" style="fill-opacity: 0.5; stroke: #000000; stroke-opacity: 0.5"/>
     <use xlink:href="#m5e0f216f0b" x="86.344725" y="134.276932" style="fill-opacity: 0.5; stroke: #000000; stroke-opacity: 0.5"/>
     <use xlink:href="#m5e0f216f0b" x="98.148807" y="148.055739" style="fill-opacity: 0.5; stroke: #000000; stroke-opacity: 0.5"/>
     <use xlink:href="#m5e0f216f0b" x="112.416689" y="159.975679" style="fill-opacity: 0.5; stroke: #000000; stroke-opacity: 0.5"/>
     <use xlink:href="#m5e0f216f0b" x="164.760271" y="97.397437" style="fill-opacity: 0.5; stroke: #000000; stroke-opacity: 0.5"/>
     <use xlink:href="#m5e0f216f0b" x="71.637437" y="123.300896" style="fill-opacity: 0.5; stroke: #000000; stroke-opacity: 0.5"/>
     <use xlink:href="#m5e0f216f0b" x="121.667618" y="153.402679" style="fill-opacity: 0.5; stroke: #000000; stroke-opacity: 0.5"/>
     <use xlink:href="#m5e0f216f0b" x="134.101996" y="135.539899" style="fill-opacity: 0.5; stroke: #000000; stroke-opacity: 0.5"/>
     <use xlink:href="#m5e0f216f0b" x="47.267597" y="131.384968" style="fill-opacity: 0.5; stroke: #000000; stroke-opacity: 0.5"/>
     <use xlink:href="#m5e0f216f0b" x="136.508434" y="123.284227" style="fill-opacity: 0.5; stroke: #000000; stroke-opacity: 0.5"/>
     <use xlink:href="#m5e0f216f0b" x="67.001248" y="119.950253" style="fill-opacity: 0.5; stroke: #000000; stroke-opacity: 0.5"/>
     <use xlink:href="#m5e0f216f0b" x="50.226074" y="128.639392" style="fill-opacity: 0.5; stroke: #000000; stroke-opacity: 0.5"/>
     <use xlink:href="#m5e0f216f0b" x="190.797919" y="106.002629" style="fill-opacity: 0.5; stroke: #000000; stroke-opacity: 0.5"/>
     <use xlink:href="#m5e0f216f0b" x="193.461412" y="115.714743" style="fill-opacity: 0.5; stroke: #000000; stroke-opacity: 0.5"/>
     <use xlink:href="#m5e0f216f0b" x="168.453582" y="94.745752" style="fill-opacity: 0.5; stroke: #000000; stroke-opacity: 0.5"/>
     <use xlink:href="#m5e0f216f0b" x="88.327911" y="136.283095" style="fill-opacity: 0.5; stroke: #000000; stroke-opacity: 0.5"/>
     <use xlink:href="#m5e0f216f0b" x="55.414296" y="114.656951" style="fill-opacity: 0.5; stroke: #000000; stroke-opacity: 0.5"/>
     <use xlink:href="#m5e0f216f0b" x="148.705519" y="112.447564" style="fill-opacity: 0.5; stroke: #000000; stroke-opacity: 0.5"/>
     <use xlink:href="#m5e0f216f0b" x="109.885047" y="152.711094" style="fill-opacity: 0.5; stroke: #000000; stroke-opacity: 0.5"/>
     <use xlink:href="#m5e0f216f0b" x="59.289674" y="122.48874" style="fill-opacity: 0.5; stroke: #000000; stroke-opacity: 0.5"/>
     <use xlink:href="#m5e0f216f0b" x="118.63656" y="157.028364" style="fill-opacity: 0.5; stroke: #000000; stroke-opacity: 0.5"/>
     <use xlink:href="#m5e0f216f0b" x="45.34918" y="130.661399" style="fill-opacity: 0.5; stroke: #000000; stroke-opacity: 0.5"/>
     <use xlink:href="#m5e0f216f0b" x="184.505171" y="97.617816" style="fill-opacity: 0.5; stroke: #000000; stroke-opacity: 0.5"/>
     <use xlink:href="#m5e0f216f0b" x="81.038148" y="125.427817" style="fill-opacity: 0.5; stroke: #000000; stroke-opacity: 0.5"/>
     <use xlink:href="#m5e0f216f0b" x="145.252474" y="120.694244" style="fill-opacity: 0.5; stroke: #000000; stroke-opacity: 0.5"/>
     <use xlink:href="#m5e0f216f0b" x="89.456722" y="132.003499" style="fill-opacity: 0.5; stroke: #000000; stroke-opacity: 0.5"/>
     <use xlink:href="#m5e0f216f0b" x="122.595436" y="155.096058" style="fill-opacity: 0.5; stroke: #000000; stroke-opacity: 0.5"/>
     <use xlink:href="#m5e0f216f0b" x="126.832829" y="142.45229" style="fill-opacity: 0.5; stroke: #000000; stroke-opacity: 0.5"/>
     <use xlink:href="#m5e0f216f0b" x="69.280456" y="111.990722" style="fill-opacity: 0.5; stroke: #000000; stroke-opacity: 0.5"/>
     <use xlink:href="#m5e0f216f0b" x="194.090064" y="112.338952" style="fill-opacity: 0.5; stroke: #000000; stroke-opacity: 0.5"/>
     <use xlink:href="#m5e0f216f0b" x="163.162932" y="98.772245" style="fill-opacity: 0.5; stroke: #000000; stroke-opacity: 0.5"/>
     <use xlink:href="#m5e0f216f0b" x="189.305002" y="104.087405" style="fill-opacity: 0.5; stroke: #000000; stroke-opacity: 0.5"/>
     <use xlink:href="#m5e0f216f0b" x="182.200083" y="101.166035" style="fill-opacity: 0.5; stroke: #000000; stroke-opacity: 0.5"/>
     <use xlink:href="#m5e0f216f0b" x="134.974438" y="139.945475" style="fill-opacity: 0.5; stroke: #000000; stroke-opacity: 0.5"/>
     <use xlink:href="#m5e0f216f0b" x="186.501831" y="101.982339" style="fill-opacity: 0.5; stroke: #000000; stroke-opacity: 0.5"/>
     <use xlink:href="#m5e0f216f0b" x="53.954299" y="130.469532" style="fill-opacity: 0.5; stroke: #000000; stroke-opacity: 0.5"/>
     <use xlink:href="#m5e0f216f0b" x="71.050405" y="119.677953" style="fill-opacity: 0.5; stroke: #000000; stroke-opacity: 0.5"/>
     <use xlink:href="#m5e0f216f0b" x="47.073062" y="137.099659" style="fill-opacity: 0.5; stroke: #000000; stroke-opacity: 0.5"/>
     <use xlink:href="#m5e0f216f0b" x="91.622835" y="133.843347" style="fill-opacity: 0.5; stroke: #000000; stroke-opacity: 0.5"/>
     <use xlink:href="#m5e0f216f0b" x="101.698029" y="153.333836" style="fill-opacity: 0.5; stroke: #000000; stroke-opacity: 0.5"/>
     <use xlink:href="#m5e0f216f0b" x="83.037228" y="132.051824" style="fill-opacity: 0.5; stroke: #000000; stroke-opacity: 0.5"/>
     <use xlink:href="#m5e0f216f0b" x="171.688639" y="91.227729" style="fill-opacity: 0.5; stroke: #000000; stroke-opacity: 0.5"/>
     <use xlink:href="#m5e0f216f0b" x="96.620593" y="150.706558" style="fill-opacity: 0.5; stroke: #000000; stroke-opacity: 0.5"/>
     <use xlink:href="#m5e0f216f0b" x="84.561777" y="131.394554" style="fill-opacity: 0.5; stroke: #000000; stroke-opacity: 0.5"/>
     <use xlink:href="#m5e0f216f0b" x="126.19438" y="140.210549" style="fill-opacity: 0.5; stroke: #000000; stroke-opacity: 0.5"/>
     <use xlink:href="#m5e0f216f0b" x="62.293449" y="127.805292" style="fill-opacity: 0.5; stroke: #000000; stroke-opacity: 0.5"/>
     <use xlink:href="#m5e0f216f0b" x="167.467427" y="94.039334" style="fill-opacity: 0.5; stroke: #000000; stroke-opacity: 0.5"/>
     <use xlink:href="#m5e0f216f0b" x="51.736877" y="127.06683" style="fill-opacity: 0.5; stroke: #000000; stroke-opacity: 0.5"/>
     <use xlink:href="#m5e0f216f0b" x="196.841958" y="106.918653" style="fill-opacity: 0.5; stroke: #000000; stroke-opacity: 0.5"/>
     <use xlink:href="#m5e0f216f0b" x="162.703593" y="101.809353" style="fill-opacity: 0.5; stroke: #000000; stroke-opacity: 0.5"/>
     <use xlink:href="#m5e0f216f0b" x="71.485053" y="127.286389" style="fill-opacity: 0.5; stroke: #000000; stroke-opacity: 0.5"/>
     <use xlink:href="#m5e0f216f0b" x="40.758042" y="139.122476" style="fill-opacity: 0.5; stroke: #000000; stroke-opacity: 0.5"/>
     <use xlink:href="#m5e0f216f0b" x="169.577108" y="93.304277" style="fill-opacity: 0.5; stroke: #000000; stroke-opacity: 0.5"/>
     <use xlink:href="#m5e0f216f0b" x="152.303867" y="105.623748" style="fill-opacity: 0.5; stroke: #000000; stroke-opacity: 0.5"/>
     <use xlink:href="#m5e0f216f0b" x="155.826748" y="101.021844" style="fill-opacity: 0.5; stroke: #000000; stroke-opacity: 0.5"/>
     <use xlink:href="#m5e0f216f0b" x="162.548614" y="99.593204" style="fill-opacity: 0.5; stroke: #000000; stroke-opacity: 0.5"/>
     <use xlink:href="#m5e0f216f0b" x="51.6564" y="127.261655" style="fill-opacity: 0.5; stroke: #000000; stroke-opacity: 0.5"/>
     <use xlink:href="#m5e0f216f0b" x="96.892947" y="144.663314" style="fill-opacity: 0.5; stroke: #000000; stroke-opacity: 0.5"/>
     <use xlink:href="#m5e0f216f0b" x="58.30848" y="125.841723" style="fill-opacity: 0.5; stroke: #000000; stroke-opacity: 0.5"/>
     <use xlink:href="#m5e0f216f0b" x="177.154463" y="88.440828" style="fill-opacity: 0.5; stroke: #000000; stroke-opacity: 0.5"/>
     <use xlink:href="#m5e0f216f0b" x="139.013958" y="125.082916" style="fill-opacity: 0.5; stroke: #000000; stroke-opacity: 0.5"/>
     <use xlink:href="#m5e0f216f0b" x="92.508364" y="146.186916" style="fill-opacity: 0.5; stroke: #000000; stroke-opacity: 0.5"/>
     <use xlink:href="#m5e0f216f0b" x="49.988577" y="127.242085" style="fill-opacity: 0.5; stroke: #000000; stroke-opacity: 0.5"/>
     <use xlink:href="#m5e0f216f0b" x="89.340816" y="141.720951" style="fill-opacity: 0.5; stroke: #000000; stroke-opacity: 0.5"/>
     <use xlink:href="#m5e0f216f0b" x="91.599454" y="136.977381" style="fill-opacity: 0.5; stroke: #000000; stroke-opacity: 0.5"/>
     <use xlink:href="#m5e0f216f0b" x="155.922019" y="97.554427" style="fill-opacity: 0.5; stroke: #000000; stroke-opacity: 0.5"/>
     <use xlink:href="#m5e0f216f0b" x="141.281875" y="126.735236" style="fill-opacity: 0.5; stroke: #000000; stroke-opacity: 0.5"/>
     <use xlink:href="#m5e0f216f0b" x="180.988997" y="94.290266" style="fill-opacity: 0.5; stroke: #000000; stroke-opacity: 0.5"/>
     <use xlink:href="#m5e0f216f0b" x="114.984507" y="152.005523" style="fill-opacity: 0.5; stroke: #000000; stroke-opacity: 0.5"/>
     <use xlink:href="#m5e0f216f0b" x="58.900963" y="119.143935" style="fill-opacity: 0.5; stroke: #000000; stroke-opacity: 0.5"/>
     <use xlink:href="#m5e0f216f0b" x="153.319776" y="97.515131" style="fill-opacity: 0.5; stroke: #000000; stroke-opacity: 0.5"/>
     <use xlink:href="#m5e0f216f0b" x="160.88095" y="98.889587" style="fill-opacity: 0.5; stroke: #000000; stroke-opacity: 0.5"/>
     <use xlink:href="#m5e0f216f0b" x="129.149665" y="145.104076" style="fill-opacity: 0.5; stroke: #000000; stroke-opacity: 0.5"/>
     <use xlink:href="#m5e0f216f0b" x="162.500396" y="100.489757" style="fill-opacity: 0.5; stroke: #000000; stroke-opacity: 0.5"/>
     <use xlink:href="#m5e0f216f0b" x="118.416865" y="155.690204" style="fill-opacity: 0.5; stroke: #000000; stroke-opacity: 0.5"/>
     <use xlink:href="#m5e0f216f0b" x="123.019268" y="149.22515" style="fill-opacity: 0.5; stroke: #000000; stroke-opacity: 0.5"/>
     <use xlink:href="#m5e0f216f0b" x="107.87922" y="152.056057" style="fill-opacity: 0.5; stroke: #000000; stroke-opacity: 0.5"/>
     <use xlink:href="#m5e0f216f0b" x="43.922618" y="136.047023" style="fill-opacity: 0.5; stroke: #000000; stroke-opacity: 0.5"/>
     <use xlink:href="#m5e0f216f0b" x="57.039656" y="120.252605" style="fill-opacity: 0.5; stroke: #000000; stroke-opacity: 0.5"/>
    </g>
   </g>
   <g id="line2d_4">
    <path d="M 17.345455 148.513953 
L 19.384742 147.298459 
L 26.522248 142.430707 
L 28.561535 141.527124 
L 30.600822 140.978268 
L 32.64011 140.702196 
L 35.699041 140.3925 
L 37.738328 139.910968 
L 38.757972 139.505605 
L 39.777615 138.965141 
L 40.797259 138.279867 
L 42.836546 136.479622 
L 44.875834 134.201008 
L 50.993696 126.838305 
L 53.032983 124.990532 
L 55.07227 123.620452 
L 57.111558 122.655791 
L 60.170489 121.648557 
L 65.268707 120.279873 
L 67.307995 119.930904 
L 69.347282 119.919382 
L 70.366926 120.091229 
L 71.386569 120.400756 
L 72.406213 120.854577 
L 73.425857 121.452023 
L 75.465144 123.039442 
L 77.504431 125.029509 
L 89.740155 138.205362 
L 93.81873 143.003815 
L 96.877661 146.612398 
L 98.916948 148.75843 
L 100.956236 150.560853 
L 102.995523 151.988633 
L 105.03481 153.094104 
L 108.093741 154.367972 
L 111.152672 155.380564 
L 113.19196 155.850218 
L 115.231247 155.983386 
L 116.250891 155.863152 
L 117.270534 155.587977 
L 118.290178 155.140405 
L 119.309822 154.50969 
L 120.329466 153.693231 
L 121.349109 152.697318 
L 123.388397 150.235699 
L 125.427684 147.332164 
L 130.525902 139.86561 
L 132.56519 137.25884 
L 138.683052 129.837588 
L 140.722339 126.754797 
L 142.761626 123.125999 
L 145.820557 116.88172 
L 148.879488 110.542494 
L 150.918776 106.8642 
L 151.938419 105.300738 
L 152.958063 103.948624 
L 153.977707 102.813249 
L 154.99735 101.887375 
L 156.016994 101.152013 
L 158.056281 100.129948 
L 161.115212 99.135298 
L 163.1545 98.408011 
L 165.193787 97.435914 
L 168.252718 95.590301 
L 170.292005 94.363372 
L 172.331293 93.419729 
L 173.350937 93.121833 
L 174.37058 92.966283 
L 175.390224 92.965256 
L 176.409868 93.12483 
L 177.429511 93.445635 
L 178.449155 93.923872 
L 179.468799 94.552506 
L 181.508086 96.223061 
L 183.547373 98.370671 
L 185.586661 100.88829 
L 190.684879 107.528154 
L 191.704523 108.575973 
L 192.724166 109.385363 
L 193.74381 109.879868 
L 194.763454 109.980476 
L 195.783097 109.609636 
L 196.802741 108.695848 
L 197.822385 107.178526 
L 198.842028 105.012791 
L 199.861672 102.173811 
L 200.881316 98.660363 
L 201.900959 94.497301 
L 203.940247 84.457632 
L 205.979534 72.782635 
L 209.038465 54.598888 
L 211.077752 43.868464 
L 212.097396 39.375202 
L 213.11704 35.632492 
L 214.136683 32.739802 
L 215.156327 30.77052 
L 216.175971 29.769997 
L 217.195614 29.754903 
L 218.215258 30.713845 
L 219.234902 32.609139 
L 220.254545 35.379571 
L 220.254545 35.379571 
" clip-path="url(#pc6b302aef2)" style="fill: none; stroke: #dc143c; stroke-width: 2; stroke-linecap: square"/>
   </g>
  </g>
 </g>
 <defs>
  <clipPath id="pc6b302aef2">
   <rect x="7.2" y="7.2" width="223.2" height="166.32"/>
  </clipPath>
 </defs>
</svg>
