<?xml version="1.0" encoding="utf-8" standalone="no"?>
<!DOCTYPE svg PUBLIC "-//W3C//DTD SVG 1.1//EN"
  "http://www.w3.org/Graphics/SVG/1.1/DTD/svg11.dtd">
<svg xmlns:xlink="http://www.w3.org/1999/xlink" width="357.267812pt" height="186.72pt" viewBox="0 0 357.267812 186.72" xmlns="http://www.w3.org/2000/svg" version="1.1">
 <metadata>
  <rdf:RDF xmlns:dc="http://purl.org/dc/elements/1.1/" xmlns:cc="http://creativecommons.org/ns#" xmlns:rdf="http://www.w3.org/1999/02/22-rdf-syntax-ns#">
   <cc:Work>
    <dc:type rdf:resource="http://purl.org/dc/dcmitype/StillImage"/>
    <dc:date>2025-09-13T14:56:51.837835</dc:date>
    <dc:format>image/svg+xml</dc:format>
    <dc:creator>
     <cc:Agent>
      <dc:title>Matplotlib v3.10.3, https://matplotlib.org/</dc:title>
     </cc:Agent>
    </dc:creator>
   </cc:Work>
  </rdf:RDF>
 </metadata>
 <defs>
  <style type="text/css">*{stroke-linejoin: round; stroke-linecap: butt}</style>
 </defs>
 <g id="figure_1">
  <g id="patch_1">
   <path d="M 0 186.72 
L 357.267812 186.72 
L 357.267812 0 
L 0 0 
z
" style="fill: #ffffff"/>
  </g>
  <g id="axes_1">
   <g id="FillBetweenPolyCollection_1">
    <defs>
     <path id="m0a971d3f66" d="M 17.345455 -114.394317 
L 17.345455 -66.077159 
L 18.365098 -67.075756 
L 19.384742 -68.111842 
L 20.404386 -69.184448 
L 21.424029 -70.292443 
L 22.443673 -71.43453 
L 23.463317 -72.609242 
L 24.48296 -73.814943 
L 25.502604 -75.049822 
L 26.522248 -76.311899 
L 27.541891 -77.599017 
L 28.561535 -78.90885 
L 29.581179 -80.238897 
L 30.600822 -81.586483 
L 31.620466 -82.948766 
L 32.64011 -84.322727 
L 33.659753 -85.705181 
L 34.679397 -87.092768 
L 35.699041 -88.481957 
L 36.718684 -89.869038 
L 37.738328 -91.250123 
L 38.757972 -92.621132 
L 39.777615 -93.977789 
L 40.797259 -95.315603 
L 41.816903 -96.629856 
L 42.836546 -97.915576 
L 43.85619 -99.167523 
L 44.875834 -100.380173 
L 45.895477 -101.547713 
L 46.915121 -102.66408 
L 47.934765 -103.723048 
L 48.954408 -104.718418 
L 49.974052 -105.644327 
L 50.993696 -106.495701 
L 52.013339 -107.268811 
L 53.032983 -107.961798 
L 54.052627 -108.574988 
L 55.07227 -109.110854 
L 56.091914 -109.573567 
L 57.111558 -109.968303 
L 58.131201 -110.300498 
L 59.150845 -110.575253 
L 60.170489 -110.796968 
L 61.190132 -110.969178 
L 62.209776 -111.094554 
L 63.22942 -111.174983 
L 64.249063 -111.21169 
L 65.268707 -111.205366 
L 66.288351 -111.156291 
L 67.307995 -111.064439 
L 68.327638 -110.929568 
L 69.347282 -110.751295 
L 70.366926 -110.529159 
L 71.386569 -110.262673 
L 72.406213 -109.951369 
L 73.425857 -109.594834 
L 74.4455 -109.192751 
L 75.465144 -108.744928 
L 76.484788 -108.25133 
L 77.504431 -107.712118 
L 78.524075 -107.127681 
L 79.543719 -106.49867 
L 80.563362 -105.826045 
L 81.583006 -105.111109 
L 82.60265 -104.355546 
L 83.622293 -103.56146 
L 84.641937 -102.731395 
L 85.661581 -101.868354 
L 86.681224 -100.975796 
L 87.700868 -100.057625 
L 88.720512 -99.11815 
L 89.740155 -98.162048 
L 90.759799 -97.194296 
L 91.779443 -96.220113 
L 92.799086 -95.244888 
L 93.81873 -94.27411 
L 94.838374 -93.313305 
L 95.858017 -92.367976 
L 96.877661 -91.443549 
L 97.897305 -90.545325 
L 98.916948 -89.678441 
L 99.936592 -88.847834 
L 100.956236 -88.058211 
L 101.975879 -87.314021 
L 102.995523 -86.619437 
L 104.015167 -85.978337 
L 105.03481 -85.394285 
L 106.054454 -84.870525 
L 107.074098 -84.409968 
L 108.093741 -84.015191 
L 109.113385 -83.688432 
L 110.133029 -83.431596 
L 111.152672 -83.246262 
L 112.172316 -83.133691 
L 113.19196 -83.094847 
L 114.211603 -83.130409 
L 115.231247 -83.240799 
L 116.250891 -83.4262 
L 117.270534 -83.686582 
L 118.290178 -84.021722 
L 119.309822 -84.431218 
L 120.329466 -84.914506 
L 121.349109 -85.470865 
L 122.368753 -86.099409 
L 123.388397 -86.799091 
L 124.40804 -87.568679 
L 125.427684 -88.406746 
L 126.447328 -89.311646 
L 127.466971 -90.281499 
L 128.486615 -91.314167 
L 129.506259 -92.407239 
L 130.525902 -93.55802 
L 131.545546 -94.763518 
L 132.56519 -96.020441 
L 133.584833 -97.325195 
L 134.604477 -98.673885 
L 135.624121 -100.062326 
L 136.643764 -101.486046 
L 137.663408 -102.940306 
L 138.683052 -104.420112 
L 139.702695 -105.920233 
L 140.722339 -107.435229 
L 141.741983 -108.959475 
L 142.761626 -110.487189 
L 143.78127 -112.012472 
L 144.800914 -113.529344 
L 145.820557 -115.031794 
L 146.840201 -116.513833 
L 147.859845 -117.969551 
L 148.879488 -119.393183 
L 149.899132 -120.779176 
L 150.918776 -122.122258 
L 151.938419 -123.417506 
L 152.958063 -124.660402 
L 153.977707 -125.846885 
L 154.99735 -126.973381 
L 156.016994 -128.036827 
L 157.036638 -129.034668 
L 158.056281 -129.964843 
L 159.075925 -130.825767 
L 160.095569 -131.616288 
L 161.115212 -132.335658 
L 162.134856 -132.983481 
L 163.1545 -133.559684 
L 164.174143 -134.064468 
L 165.193787 -134.498276 
L 166.213431 -134.861755 
L 167.233074 -135.15572 
L 168.252718 -135.381123 
L 169.272362 -135.53901 
L 170.292005 -135.630487 
L 171.311649 -135.656667 
L 172.331293 -135.618626 
L 173.350937 -135.517331 
L 174.37058 -135.353572 
L 175.390224 -135.127873 
L 176.409868 -134.840382 
L 177.429511 -134.490761 
L 178.449155 -134.07805 
L 179.468799 -133.600548 
L 180.488442 -133.055723 
L 181.508086 -132.440199 
L 182.52773 -131.749881 
L 183.547373 -130.980277 
L 184.567017 -130.127046 
L 185.586661 -129.186699 
L 186.606304 -128.1573 
L 187.625948 -127.038953 
L 188.645592 -125.833918 
L 189.665235 -124.546361 
L 190.684879 -123.181866 
L 191.704523 -121.746891 
L 192.724166 -120.248301 
L 193.74381 -118.693031 
L 194.763454 -117.087878 
L 195.783097 -115.439391 
L 196.802741 -113.753827 
L 197.822385 -112.037142 
L 198.842028 -110.295003 
L 199.861672 -108.532803 
L 200.881316 -106.755682 
L 201.900959 -104.96854 
L 202.920603 -103.176056 
L 203.940247 -101.382692 
L 204.95989 -99.592704 
L 205.979534 -97.810148 
L 206.999178 -96.038878 
L 208.018821 -94.282552 
L 209.038465 -92.544633 
L 210.058109 -90.828385 
L 211.077752 -89.136875 
L 212.097396 -87.472975 
L 213.11704 -85.839357 
L 214.136683 -84.238497 
L 215.156327 -82.672673 
L 216.175971 -81.143965 
L 217.195614 -79.654259 
L 218.215258 -78.205248 
L 219.234902 -76.798431 
L 220.254545 -75.435121 
L 220.254545 -122.19756 
L 220.254545 -122.19756 
L 219.234902 -122.209396 
L 218.215258 -122.244566 
L 217.195614 -122.303725 
L 216.175971 -122.387464 
L 215.156327 -122.496303 
L 214.136683 -122.630688 
L 213.11704 -122.790989 
L 212.097396 -122.977489 
L 211.077752 -123.190389 
L 210.058109 -123.429799 
L 209.038465 -123.695737 
L 208.018821 -123.988133 
L 206.999178 -124.306823 
L 205.979534 -124.651554 
L 204.95989 -125.021989 
L 203.940247 -125.417709 
L 202.920603 -125.838225 
L 201.900959 -126.282985 
L 200.881316 -126.751393 
L 199.861672 -127.242825 
L 198.842028 -127.756649 
L 197.822385 -128.29226 
L 196.802741 -128.849106 
L 195.783097 -129.426726 
L 194.763454 -130.024785 
L 193.74381 -130.643109 
L 192.724166 -131.28169 
L 191.704523 -131.940674 
L 190.684879 -132.620268 
L 189.665235 -133.320559 
L 188.645592 -134.041208 
L 187.625948 -134.781002 
L 186.606304 -135.537345 
L 185.586661 -136.305794 
L 184.567017 -137.079844 
L 183.547373 -137.851066 
L 182.52773 -138.609632 
L 181.508086 -139.345039 
L 180.488442 -140.046847 
L 179.468799 -140.705254 
L 178.449155 -141.311443 
L 177.429511 -141.857746 
L 176.409868 -142.337654 
L 175.390224 -142.745753 
L 174.37058 -143.077634 
L 173.350937 -143.329785 
L 172.331293 -143.499502 
L 171.311649 -143.584801 
L 170.292005 -143.584357 
L 169.272362 -143.497442 
L 168.252718 -143.323887 
L 167.233074 -143.06404 
L 166.213431 -142.718734 
L 165.193787 -142.289258 
L 164.174143 -141.777328 
L 163.1545 -141.18506 
L 162.134856 -140.514934 
L 161.115212 -139.769762 
L 160.095569 -138.952647 
L 159.075925 -138.06694 
L 158.056281 -137.116189 
L 157.036638 -136.10409 
L 156.016994 -135.034437 
L 154.99735 -133.911065 
L 153.977707 -132.737814 
L 152.958063 -131.518492 
L 151.938419 -130.256851 
L 150.918776 -128.956579 
L 149.899132 -127.62131 
L 148.879488 -126.254635 
L 147.859845 -124.860132 
L 146.840201 -123.441397 
L 145.820557 -122.002074 
L 144.800914 -120.545884 
L 143.78127 -119.076653 
L 142.761626 -117.598324 
L 141.741983 -116.114973 
L 140.722339 -114.63081 
L 139.702695 -113.150176 
L 138.683052 -111.677532 
L 137.663408 -110.21745 
L 136.643764 -108.774591 
L 135.624121 -107.353687 
L 134.604477 -105.959512 
L 133.584833 -104.596863 
L 132.56519 -103.270524 
L 131.545546 -101.985242 
L 130.525902 -100.74569 
L 129.506259 -99.556434 
L 128.486615 -98.421897 
L 127.466971 -97.346321 
L 126.447328 -96.333724 
L 125.427684 -95.387863 
L 124.40804 -94.512185 
L 123.388397 -93.709792 
L 122.368753 -92.983395 
L 121.349109 -92.335283 
L 120.329466 -91.767287 
L 119.309822 -91.280759 
L 118.290178 -90.876553 
L 117.270534 -90.555026 
L 116.250891 -90.316036 
L 115.231247 -90.158961 
L 114.211603 -90.082716 
L 113.19196 -90.085789 
L 112.172316 -90.166271 
L 111.152672 -90.321894 
L 110.133029 -90.550072 
L 109.113385 -90.847939 
L 108.093741 -91.212389 
L 107.074098 -91.64011 
L 106.054454 -92.127624 
L 105.03481 -92.671319 
L 104.015167 -93.267478 
L 102.995523 -93.912313 
L 101.975879 -94.601988 
L 100.956236 -95.332652 
L 99.936592 -96.100456 
L 98.916948 -96.90158 
L 97.897305 -97.732247 
L 96.877661 -98.588745 
L 95.858017 -99.467433 
L 94.838374 -100.364752 
L 93.81873 -101.277223 
L 92.799086 -102.201444 
L 91.779443 -103.134075 
L 90.759799 -104.071819 
L 89.740155 -105.011399 
L 88.720512 -105.949522 
L 87.700868 -106.882853 
L 86.681224 -107.807978 
L 85.661581 -108.721387 
L 84.641937 -109.61945 
L 83.622293 -110.498421 
L 82.60265 -111.354449 
L 81.583006 -112.1836 
L 80.563362 -112.981897 
L 79.543719 -113.745367 
L 78.524075 -114.470091 
L 77.504431 -115.152262 
L 76.484788 -115.788231 
L 75.465144 -116.374563 
L 74.4455 -116.908076 
L 73.425857 -117.385889 
L 72.406213 -117.805452 
L 71.386569 -118.164582 
L 70.366926 -118.461492 
L 69.347282 -118.694825 
L 68.327638 -118.863684 
L 67.307995 -118.967666 
L 66.288351 -119.006907 
L 65.268707 -118.982125 
L 64.249063 -118.894686 
L 63.22942 -118.746675 
L 62.209776 -118.540981 
L 61.190132 -118.281402 
L 60.170489 -117.97275 
L 59.150845 -117.620952 
L 58.131201 -117.233105 
L 57.111558 -116.817455 
L 56.091914 -116.383204 
L 55.07227 -115.940124 
L 54.052627 -115.49793 
L 53.032983 -115.065513 
L 52.013339 -114.650217 
L 50.993696 -114.25737 
L 49.974052 -113.890212 
L 48.954408 -113.550187 
L 47.934765 -113.237447 
L 46.915121 -112.951378 
L 45.895477 -112.69103 
L 44.875834 -112.455403 
L 43.85619 -112.243615 
L 42.836546 -112.05497 
L 41.816903 -111.888969 
L 40.797259 -111.745294 
L 39.777615 -111.62377 
L 38.757972 -111.524333 
L 37.738328 -111.446991 
L 36.718684 -111.391794 
L 35.699041 -111.358807 
L 34.679397 -111.348088 
L 33.659753 -111.359671 
L 32.64011 -111.393552 
L 31.620466 -111.449676 
L 30.600822 -111.527935 
L 29.581179 -111.628159 
L 28.561535 -111.750112 
L 27.541891 -111.893493 
L 26.522248 -112.057935 
L 25.502604 -112.243002 
L 24.48296 -112.448199 
L 23.463317 -112.672964 
L 22.443673 -112.916681 
L 21.424029 -113.178677 
L 20.404386 -113.458228 
L 19.384742 -113.754565 
L 18.365098 -114.066878 
L 17.345455 -114.394317 
z
"/>
    </defs>
    <g clip-path="url(#pb35c8e9ca5)">
     <use xlink:href="#m0a971d3f66" x="0" y="186.72" style="fill: #dc143c; fill-opacity: 0.2"/>
    </g>
   </g>
   <g id="FillBetweenPolyCollection_2">
    <defs>
     <path id="mb33f87006e" d="M 17.345455 -138.552897 
L 17.345455 -41.918579 
L 18.365098 -43.580196 
L 19.384742 -45.29048 
L 20.404386 -47.047557 
L 21.424029 -48.849326 
L 22.443673 -50.693454 
L 23.463317 -52.577381 
L 24.48296 -54.498314 
L 25.502604 -56.453232 
L 26.522248 -58.43888 
L 27.541891 -60.451779 
L 28.561535 -62.48822 
L 29.581179 -64.544266 
L 30.600822 -66.615758 
L 31.620466 -68.69831 
L 32.64011 -70.787315 
L 33.659753 -72.877936 
L 34.679397 -74.965109 
L 35.699041 -77.043532 
L 36.718684 -79.10766 
L 37.738328 -81.151689 
L 38.757972 -83.169531 
L 39.777615 -85.154798 
L 40.797259 -87.100758 
L 41.816903 -89.000299 
L 42.836546 -90.845878 
L 43.85619 -92.629477 
L 44.875834 -94.342557 
L 45.895477 -95.976054 
L 46.915121 -97.52043 
L 47.934765 -98.965849 
L 48.954408 -100.302534 
L 49.974052 -101.521384 
L 50.993696 -102.614866 
L 52.013339 -103.578109 
L 53.032983 -104.409941 
L 54.052627 -105.113518 
L 55.07227 -105.696218 
L 56.091914 -106.168748 
L 57.111558 -106.543727 
L 58.131201 -106.834194 
L 59.150845 -107.052404 
L 60.170489 -107.209076 
L 61.190132 -107.313066 
L 62.209776 -107.371341 
L 63.22942 -107.389138 
L 64.249063 -107.370192 
L 65.268707 -107.316986 
L 66.288351 -107.230983 
L 67.307995 -107.112825 
L 68.327638 -106.962509 
L 69.347282 -106.77953 
L 70.366926 -106.562993 
L 71.386569 -106.311719 
L 72.406213 -106.024327 
L 73.425857 -105.699307 
L 74.4455 -105.335089 
L 75.465144 -104.93011 
L 76.484788 -104.48288 
L 77.504431 -103.992047 
L 78.524075 -103.456475 
L 79.543719 -102.875322 
L 80.563362 -102.248119 
L 81.583006 -101.574863 
L 82.60265 -100.856095 
L 83.622293 -100.092979 
L 84.641937 -99.287368 
L 85.661581 -98.441837 
L 86.681224 -97.559705 
L 87.700868 -96.645011 
L 88.720512 -95.702464 
L 89.740155 -94.737372 
L 90.759799 -93.755534 
L 91.779443 -92.763132 
L 92.799086 -91.766609 
L 93.81873 -90.772553 
L 94.838374 -89.787581 
L 95.858017 -88.818247 
L 96.877661 -87.870951 
L 97.897305 -86.951864 
L 98.916948 -86.066872 
L 99.936592 -85.221523 
L 100.956236 -84.42099 
L 101.975879 -83.670037 
L 102.995523 -82.972999 
L 104.015167 -82.333766 
L 105.03481 -81.755768 
L 106.054454 -81.241975 
L 107.074098 -80.794898 
L 108.093741 -80.416592 
L 109.113385 -80.108678 
L 110.133029 -79.872358 
L 111.152672 -79.708446 
L 112.172316 -79.617401 
L 113.19196 -79.599375 
L 114.211603 -79.654255 
L 115.231247 -79.781718 
L 116.250891 -79.981282 
L 117.270534 -80.25236 
L 118.290178 -80.594306 
L 119.309822 -81.006447 
L 120.329466 -81.488116 
L 121.349109 -82.038655 
L 122.368753 -82.657417 
L 123.388397 -83.343741 
L 124.40804 -84.096926 
L 125.427684 -84.916187 
L 126.447328 -85.800607 
L 127.466971 -86.749088 
L 128.486615 -87.760302 
L 129.506259 -88.832642 
L 130.525902 -89.964185 
L 131.545546 -91.152656 
L 132.56519 -92.395399 
L 133.584833 -93.689361 
L 134.604477 -95.031072 
L 135.624121 -96.416646 
L 136.643764 -97.841774 
L 137.663408 -99.301735 
L 138.683052 -100.791401 
L 139.702695 -102.305261 
L 140.722339 -103.837439 
L 141.741983 -105.381726 
L 142.761626 -106.931622 
L 143.78127 -108.480381 
L 144.800914 -110.021073 
L 145.820557 -111.546654 
L 146.840201 -113.050051 
L 147.859845 -114.524261 
L 148.879488 -115.962458 
L 149.899132 -117.358109 
L 150.918776 -118.705098 
L 151.938419 -119.997834 
L 152.958063 -121.231357 
L 153.977707 -122.40142 
L 154.99735 -123.50454 
L 156.016994 -124.538023 
L 157.036638 -125.499956 
L 158.056281 -126.38917 
L 159.075925 -127.20518 
L 160.095569 -127.948109 
L 161.115212 -128.618605 
L 162.134856 -129.217755 
L 163.1545 -129.746997 
L 164.174143 -130.208039 
L 165.193787 -130.602786 
L 166.213431 -130.933265 
L 167.233074 -131.20156 
L 168.252718 -131.40974 
L 169.272362 -131.559794 
L 170.292005 -131.653552 
L 171.311649 -131.692601 
L 172.331293 -131.678188 
L 173.350937 -131.611104 
L 174.37058 -131.491542 
L 175.390224 -131.318933 
L 176.409868 -131.091747 
L 177.429511 -130.807268 
L 178.449155 -130.461353 
L 179.468799 -130.048195 
L 180.488442 -129.560161 
L 181.508086 -128.987779 
L 182.52773 -128.320005 
L 183.547373 -127.544883 
L 184.567017 -126.650648 
L 185.586661 -125.627152 
L 186.606304 -124.467278 
L 187.625948 -123.167928 
L 188.645592 -121.730273 
L 189.665235 -120.159262 
L 190.684879 -118.462665 
L 191.704523 -116.649999 
L 192.724166 -114.731606 
L 193.74381 -112.717992 
L 194.763454 -110.619424 
L 195.783097 -108.445724 
L 196.802741 -106.206188 
L 197.822385 -103.909584 
L 198.842028 -101.564181 
L 199.861672 -99.177793 
L 200.881316 -96.757826 
L 201.900959 -94.311317 
L 202.920603 -91.844971 
L 203.940247 -89.365183 
L 204.95989 -86.878062 
L 205.979534 -84.389444 
L 206.999178 -81.904905 
L 208.018821 -79.429762 
L 209.038465 -76.969081 
L 210.058109 -74.527678 
L 211.077752 -72.110118 
L 212.097396 -69.720718 
L 213.11704 -67.363542 
L 214.136683 -65.042402 
L 215.156327 -62.760858 
L 216.175971 -60.522215 
L 217.195614 -58.329526 
L 218.215258 -56.185589 
L 219.234902 -54.092949 
L 220.254545 -52.053901 
L 220.254545 -145.57878 
L 220.254545 -145.57878 
L 219.234902 -144.914878 
L 218.215258 -144.264225 
L 217.195614 -143.628458 
L 216.175971 -143.009213 
L 215.156327 -142.408118 
L 214.136683 -141.826784 
L 213.11704 -141.266805 
L 212.097396 -140.729747 
L 211.077752 -140.217146 
L 210.058109 -139.730506 
L 209.038465 -139.27129 
L 208.018821 -138.840923 
L 206.999178 -138.440795 
L 205.979534 -138.072257 
L 204.95989 -137.736631 
L 203.940247 -137.435218 
L 202.920603 -137.169309 
L 201.900959 -136.940208 
L 200.881316 -136.749249 
L 199.861672 -136.597835 
L 198.842028 -136.487472 
L 197.822385 -136.419819 
L 196.802741 -136.396746 
L 195.783097 -136.420393 
L 194.763454 -136.493239 
L 193.74381 -136.618148 
L 192.724166 -136.798385 
L 191.704523 -137.037566 
L 190.684879 -137.339469 
L 189.665235 -137.707659 
L 188.645592 -138.144853 
L 187.625948 -138.652027 
L 186.606304 -139.227367 
L 185.586661 -139.865342 
L 184.567017 -140.556242 
L 183.547373 -141.286461 
L 182.52773 -142.039507 
L 181.508086 -142.797459 
L 180.488442 -143.54241 
L 179.468799 -144.257606 
L 178.449155 -144.92814 
L 177.429511 -145.541239 
L 176.409868 -146.086289 
L 175.390224 -146.554693 
L 174.37058 -146.939664 
L 173.350937 -147.236013 
L 172.331293 -147.43994 
L 171.311649 -147.548868 
L 170.292005 -147.561292 
L 169.272362 -147.476658 
L 168.252718 -147.29527 
L 167.233074 -147.0182 
L 166.213431 -146.647223 
L 165.193787 -146.184748 
L 164.174143 -145.633758 
L 163.1545 -144.997748 
L 162.134856 -144.28066 
L 161.115212 -143.486815 
L 160.095569 -142.620827 
L 159.075925 -141.687526 
L 158.056281 -140.691862 
L 157.036638 -139.638802 
L 156.016994 -138.533241 
L 154.99735 -137.379907 
L 153.977707 -136.183279 
L 152.958063 -134.947537 
L 151.938419 -133.676523 
L 150.918776 -132.37374 
L 149.899132 -131.042377 
L 148.879488 -129.685361 
L 147.859845 -128.305423 
L 146.840201 -126.905179 
L 145.820557 -125.487214 
L 144.800914 -124.054154 
L 143.78127 -122.608743 
L 142.761626 -121.153891 
L 141.741983 -119.692722 
L 140.722339 -118.228601 
L 139.702695 -116.765147 
L 138.683052 -115.306242 
L 137.663408 -113.856022 
L 136.643764 -112.418864 
L 135.624121 -110.999367 
L 134.604477 -109.602325 
L 133.584833 -108.232696 
L 132.56519 -106.895565 
L 131.545546 -105.596104 
L 130.525902 -104.339524 
L 129.506259 -103.131031 
L 128.486615 -101.975762 
L 127.466971 -100.878732 
L 126.447328 -99.844764 
L 125.427684 -98.878421 
L 124.40804 -97.983938 
L 123.388397 -97.165142 
L 122.368753 -96.425388 
L 121.349109 -95.767493 
L 120.329466 -95.193678 
L 119.309822 -94.705529 
L 118.290178 -94.303969 
L 117.270534 -93.989248 
L 116.250891 -93.760954 
L 115.231247 -93.618042 
L 114.211603 -93.55887 
L 113.19196 -93.581261 
L 112.172316 -93.682561 
L 111.152672 -93.859711 
L 110.133029 -94.10931 
L 109.113385 -94.427693 
L 108.093741 -94.810987 
L 107.074098 -95.25518 
L 106.054454 -95.756174 
L 105.03481 -96.309836 
L 104.015167 -96.912049 
L 102.995523 -97.55875 
L 101.975879 -98.245972 
L 100.956236 -98.969873 
L 99.936592 -99.726768 
L 98.916948 -100.513149 
L 97.897305 -101.325708 
L 96.877661 -102.161343 
L 95.858017 -103.017161 
L 94.838374 -103.890476 
L 93.81873 -104.77878 
L 92.799086 -105.679722 
L 91.779443 -106.591056 
L 90.759799 -107.510581 
L 89.740155 -108.436075 
L 88.720512 -109.365208 
L 87.700868 -110.295467 
L 86.681224 -111.224069 
L 85.661581 -112.147903 
L 84.641937 -113.063477 
L 83.622293 -113.966902 
L 82.60265 -114.8539 
L 81.583006 -115.719845 
L 80.563362 -116.559822 
L 79.543719 -117.368715 
L 78.524075 -118.141297 
L 77.504431 -118.872334 
L 76.484788 -119.556682 
L 75.465144 -120.18938 
L 74.4455 -120.765739 
L 73.425857 -121.281417 
L 72.406213 -121.732494 
L 71.386569 -122.115536 
L 70.366926 -122.427658 
L 69.347282 -122.66659 
L 68.327638 -122.830742 
L 67.307995 -122.91928 
L 66.288351 -122.932214 
L 65.268707 -122.870504 
L 64.249063 -122.736184 
L 63.22942 -122.532521 
L 62.209776 -122.264195 
L 61.190132 -121.937514 
L 60.170489 -121.560642 
L 59.150845 -121.143801 
L 58.131201 -120.699409 
L 57.111558 -120.242031 
L 56.091914 -119.788023 
L 55.07227 -119.35476 
L 54.052627 -118.9594 
L 53.032983 -118.61737 
L 52.013339 -118.34092 
L 50.993696 -118.138205 
L 49.974052 -118.013155 
L 48.954408 -117.966071 
L 47.934765 -117.994646 
L 46.915121 -118.095028 
L 45.895477 -118.262689 
L 44.875834 -118.493018 
L 43.85619 -118.781661 
L 42.836546 -119.124667 
L 41.816903 -119.518526 
L 40.797259 -119.960139 
L 39.777615 -120.44676 
L 38.757972 -120.975933 
L 37.738328 -121.545425 
L 36.718684 -122.153171 
L 35.699041 -122.797232 
L 34.679397 -123.475748 
L 33.659753 -124.186917 
L 32.64011 -124.928964 
L 31.620466 -125.700131 
L 30.600822 -126.498661 
L 29.581179 -127.32279 
L 28.561535 -128.170743 
L 27.541891 -129.040731 
L 26.522248 -129.930953 
L 25.502604 -130.839593 
L 24.48296 -131.764827 
L 23.463317 -132.704825 
L 22.443673 -133.657756 
L 21.424029 -134.621793 
L 20.404386 -135.595118 
L 19.384742 -136.575927 
L 18.365098 -137.562439 
L 17.345455 -138.552897 
z
"/>
    </defs>
    <g clip-path="url(#pb35c8e9ca5)">
     <use xlink:href="#mb33f87006e" x="0" y="186.72" style="fill: #dc143c; fill-opacity: 0.2"/>
    </g>
   </g>
   <g id="FillBetweenPolyCollection_3">
    <defs>
     <path id="mf8af296c76" d="M 17.345455 -162.711476 
L 17.345455 -17.76 
L 18.365098 -20.084635 
L 19.384742 -22.469118 
L 20.404386 -24.910667 
L 21.424029 -27.406209 
L 22.443673 -29.952379 
L 23.463317 -32.54552 
L 24.48296 -35.181686 
L 25.502604 -37.856641 
L 26.522248 -40.565862 
L 27.541891 -43.304541 
L 28.561535 -46.067589 
L 29.581179 -48.849635 
L 30.600822 -51.645032 
L 31.620466 -54.447855 
L 32.64011 -57.251903 
L 33.659753 -60.050691 
L 34.679397 -62.837449 
L 35.699041 -65.605107 
L 36.718684 -68.346283 
L 37.738328 -71.053255 
L 38.757972 -73.717931 
L 39.777615 -76.331807 
L 40.797259 -78.885913 
L 41.816903 -81.370742 
L 42.836546 -83.776181 
L 43.85619 -86.091431 
L 44.875834 -88.304942 
L 45.895477 -90.404395 
L 46.915121 -92.376781 
L 47.934765 -94.20865 
L 48.954408 -95.88665 
L 49.974052 -97.398441 
L 50.993696 -98.734031 
L 52.013339 -99.887406 
L 53.032983 -100.858083 
L 54.052627 -101.652047 
L 55.07227 -102.281583 
L 56.091914 -102.763929 
L 57.111558 -103.119151 
L 58.131201 -103.36789 
L 59.150845 -103.529555 
L 60.170489 -103.621185 
L 61.190132 -103.656954 
L 62.209776 -103.648127 
L 63.22942 -103.603292 
L 64.249063 -103.528694 
L 65.268707 -103.428607 
L 66.288351 -103.305675 
L 67.307995 -103.161211 
L 68.327638 -102.995451 
L 69.347282 -102.807764 
L 70.366926 -102.596826 
L 71.386569 -102.360765 
L 72.406213 -102.097285 
L 73.425857 -101.803779 
L 74.4455 -101.477426 
L 75.465144 -101.115293 
L 76.484788 -100.714429 
L 77.504431 -100.271975 
L 78.524075 -99.78527 
L 79.543719 -99.251973 
L 80.563362 -98.670193 
L 81.583006 -98.038617 
L 82.60265 -97.356643 
L 83.622293 -96.624499 
L 84.641937 -95.84334 
L 85.661581 -95.015321 
L 86.681224 -94.143614 
L 87.700868 -93.232397 
L 88.720512 -92.286778 
L 89.740155 -91.312696 
L 90.759799 -90.316772 
L 91.779443 -89.306151 
L 92.799086 -88.288331 
L 93.81873 -87.270996 
L 94.838374 -86.261857 
L 95.858017 -85.268519 
L 96.877661 -84.298353 
L 97.897305 -83.358403 
L 98.916948 -82.455303 
L 99.936592 -81.595212 
L 100.956236 -80.783769 
L 101.975879 -80.026053 
L 102.995523 -79.326561 
L 104.015167 -78.689195 
L 105.03481 -78.117251 
L 106.054454 -77.613426 
L 107.074098 -77.179827 
L 108.093741 -76.817993 
L 109.113385 -76.528925 
L 110.133029 -76.31312 
L 111.152672 -76.170629 
L 112.172316 -76.101111 
L 113.19196 -76.103904 
L 114.211603 -76.178101 
L 115.231247 -76.322637 
L 116.250891 -76.536364 
L 117.270534 -76.818139 
L 118.290178 -77.16689 
L 119.309822 -77.581677 
L 120.329466 -78.061726 
L 121.349109 -78.606446 
L 122.368753 -79.215424 
L 123.388397 -79.88839 
L 124.40804 -80.625173 
L 125.427684 -81.425628 
L 126.447328 -82.289568 
L 127.466971 -83.216677 
L 128.486615 -84.206436 
L 129.506259 -85.258044 
L 130.525902 -86.37035 
L 131.545546 -87.541794 
L 132.56519 -88.770358 
L 133.584833 -90.053527 
L 134.604477 -91.388259 
L 135.624121 -92.770965 
L 136.643764 -94.197502 
L 137.663408 -95.663163 
L 138.683052 -97.162691 
L 139.702695 -98.69029 
L 140.722339 -100.239648 
L 141.741983 -101.803977 
L 142.761626 -103.376055 
L 143.78127 -104.948291 
L 144.800914 -106.512803 
L 145.820557 -108.061514 
L 146.840201 -109.586269 
L 147.859845 -111.078971 
L 148.879488 -112.531732 
L 149.899132 -113.937042 
L 150.918776 -115.287937 
L 151.938419 -116.578161 
L 152.958063 -117.802312 
L 153.977707 -118.955955 
L 154.99735 -120.035698 
L 156.016994 -121.039218 
L 157.036638 -121.965245 
L 158.056281 -122.813497 
L 159.075925 -123.584593 
L 160.095569 -124.279929 
L 161.115212 -124.901553 
L 162.134856 -125.452029 
L 163.1545 -125.934309 
L 164.174143 -126.351609 
L 165.193787 -126.707295 
L 166.213431 -127.004776 
L 167.233074 -127.2474 
L 168.252718 -127.438358 
L 169.272362 -127.580578 
L 170.292005 -127.676617 
L 171.311649 -127.728534 
L 172.331293 -127.73775 
L 173.350937 -127.704876 
L 174.37058 -127.629511 
L 175.390224 -127.509993 
L 176.409868 -127.343111 
L 177.429511 -127.123776 
L 178.449155 -126.844656 
L 179.468799 -126.495842 
L 180.488442 -126.064599 
L 181.508086 -125.53536 
L 182.52773 -124.89013 
L 183.547373 -124.109488 
L 184.567017 -123.174249 
L 185.586661 -122.067604 
L 186.606304 -120.777255 
L 187.625948 -119.296904 
L 188.645592 -117.626628 
L 189.665235 -115.772163 
L 190.684879 -113.743464 
L 191.704523 -111.553108 
L 192.724166 -109.214912 
L 193.74381 -106.742953 
L 194.763454 -104.15097 
L 195.783097 -101.452056 
L 196.802741 -98.658548 
L 197.822385 -95.782025 
L 198.842028 -92.833358 
L 199.861672 -89.822782 
L 200.881316 -86.75997 
L 201.900959 -83.654095 
L 202.920603 -80.513886 
L 203.940247 -77.347674 
L 204.95989 -74.163419 
L 205.979534 -70.968741 
L 206.999178 -67.770932 
L 208.018821 -64.576971 
L 209.038465 -61.393529 
L 210.058109 -58.226971 
L 211.077752 -55.083361 
L 212.097396 -51.968461 
L 213.11704 -48.887726 
L 214.136683 -45.846306 
L 215.156327 -42.849043 
L 216.175971 -39.900466 
L 217.195614 -37.004793 
L 218.215258 -34.16593 
L 219.234902 -31.387467 
L 220.254545 -28.672681 
L 220.254545 -168.96 
L 220.254545 -168.96 
L 219.234902 -167.62036 
L 218.215258 -166.283884 
L 217.195614 -164.953191 
L 216.175971 -163.630963 
L 215.156327 -162.319933 
L 214.136683 -161.022879 
L 213.11704 -159.74262 
L 212.097396 -158.482004 
L 211.077752 -157.243904 
L 210.058109 -156.031213 
L 209.038465 -154.846842 
L 208.018821 -153.693714 
L 206.999178 -152.574768 
L 205.979534 -151.492961 
L 204.95989 -150.451274 
L 203.940247 -149.452727 
L 202.920603 -148.500394 
L 201.900959 -147.59743 
L 200.881316 -146.747105 
L 199.861672 -145.952846 
L 198.842028 -145.218295 
L 197.822385 -144.547378 
L 196.802741 -143.944385 
L 195.783097 -143.414061 
L 194.763454 -142.961693 
L 193.74381 -142.593186 
L 192.724166 -142.31508 
L 191.704523 -142.134458 
L 190.684879 -142.05867 
L 189.665235 -142.094758 
L 188.645592 -142.248498 
L 187.625948 -142.523052 
L 186.606304 -142.917389 
L 185.586661 -143.42489 
L 184.567017 -144.032641 
L 183.547373 -144.721855 
L 182.52773 -145.469383 
L 181.508086 -146.249879 
L 180.488442 -147.037972 
L 179.468799 -147.809959 
L 178.449155 -148.544837 
L 177.429511 -149.224732 
L 176.409868 -149.834925 
L 175.390224 -150.363633 
L 174.37058 -150.801695 
L 173.350937 -151.14224 
L 172.331293 -151.380378 
L 171.311649 -151.512935 
L 170.292005 -151.538227 
L 169.272362 -151.455874 
L 168.252718 -151.266652 
L 167.233074 -150.97236 
L 166.213431 -150.575713 
L 165.193787 -150.080239 
L 164.174143 -149.490188 
L 163.1545 -148.810436 
L 162.134856 -148.046387 
L 161.115212 -147.203867 
L 160.095569 -146.289006 
L 159.075925 -145.308113 
L 158.056281 -144.267534 
L 157.036638 -143.173513 
L 156.016994 -142.032046 
L 154.99735 -140.848748 
L 153.977707 -139.628744 
L 152.958063 -138.376582 
L 151.938419 -137.096195 
L 150.918776 -135.7909 
L 149.899132 -134.463444 
L 148.879488 -133.116086 
L 147.859845 -131.750713 
L 146.840201 -130.368961 
L 145.820557 -128.972354 
L 144.800914 -127.562425 
L 143.78127 -126.140833 
L 142.761626 -124.709458 
L 141.741983 -123.270471 
L 140.722339 -121.826392 
L 139.702695 -120.380119 
L 138.683052 -118.934953 
L 137.663408 -117.494594 
L 136.643764 -116.063136 
L 135.624121 -114.645047 
L 134.604477 -113.245139 
L 133.584833 -111.86853 
L 132.56519 -110.520607 
L 131.545546 -109.206966 
L 130.525902 -107.933359 
L 129.506259 -106.705628 
L 128.486615 -105.529627 
L 127.466971 -104.411143 
L 126.447328 -103.355803 
L 125.427684 -102.36898 
L 124.40804 -101.455691 
L 123.388397 -100.620492 
L 122.368753 -99.867381 
L 121.349109 -99.199702 
L 120.329466 -98.620068 
L 119.309822 -98.130299 
L 118.290178 -97.731384 
L 117.270534 -97.423469 
L 116.250891 -97.205872 
L 115.231247 -97.077123 
L 114.211603 -97.035024 
L 113.19196 -97.076732 
L 112.172316 -97.198851 
L 111.152672 -97.397527 
L 110.133029 -97.668548 
L 109.113385 -98.007447 
L 108.093741 -98.409586 
L 107.074098 -98.870251 
L 106.054454 -99.384723 
L 105.03481 -99.948353 
L 104.015167 -100.55662 
L 102.995523 -101.205188 
L 101.975879 -101.889956 
L 100.956236 -102.607094 
L 99.936592 -103.353079 
L 98.916948 -104.124718 
L 97.897305 -104.919169 
L 96.877661 -105.733941 
L 95.858017 -106.56689 
L 94.838374 -107.416199 
L 93.81873 -108.280337 
L 92.799086 -109.158001 
L 91.779443 -110.048037 
L 90.759799 -110.949343 
L 89.740155 -111.86075 
L 88.720512 -112.780894 
L 87.700868 -113.708081 
L 86.681224 -114.64016 
L 85.661581 -115.57442 
L 84.641937 -116.507504 
L 83.622293 -117.435382 
L 82.60265 -118.353352 
L 81.583006 -119.256091 
L 80.563362 -120.137748 
L 79.543719 -120.992063 
L 78.524075 -121.812502 
L 77.504431 -122.592406 
L 76.484788 -123.325132 
L 75.465144 -124.004198 
L 74.4455 -124.623401 
L 73.425857 -125.176945 
L 72.406213 -125.659536 
L 71.386569 -126.06649 
L 70.366926 -126.393825 
L 69.347282 -126.638355 
L 68.327638 -126.7978 
L 67.307995 -126.870894 
L 66.288351 -126.857522 
L 65.268707 -126.758884 
L 64.249063 -126.577682 
L 63.22942 -126.318366 
L 62.209776 -125.987408 
L 61.190132 -125.593627 
L 60.170489 -125.148533 
L 59.150845 -124.66665 
L 58.131201 -124.165713 
L 57.111558 -123.666607 
L 56.091914 -123.192842 
L 55.07227 -122.769395 
L 54.052627 -122.420871 
L 53.032983 -122.169227 
L 52.013339 -122.031623 
L 50.993696 -122.01904 
L 49.974052 -122.136097 
L 48.954408 -122.381955 
L 47.934765 -122.751845 
L 46.915121 -123.238677 
L 45.895477 -123.834347 
L 44.875834 -124.530634 
L 43.85619 -125.319708 
L 42.836546 -126.194365 
L 41.816903 -127.148083 
L 40.797259 -128.174984 
L 39.777615 -129.269751 
L 38.757972 -130.427533 
L 37.738328 -131.643859 
L 36.718684 -132.914549 
L 35.699041 -134.235657 
L 34.679397 -135.603408 
L 33.659753 -137.014162 
L 32.64011 -138.464376 
L 31.620466 -139.950586 
L 30.600822 -141.469387 
L 29.581179 -143.017421 
L 28.561535 -144.591374 
L 27.541891 -146.187969 
L 26.522248 -147.803971 
L 25.502604 -149.436183 
L 24.48296 -151.081455 
L 23.463317 -152.736686 
L 22.443673 -154.398832 
L 21.424029 -156.06491 
L 20.404386 -157.732008 
L 19.384742 -159.397289 
L 18.365098 -161.057999 
L 17.345455 -162.711476 
z
"/>
    </defs>
    <g clip-path="url(#pb35c8e9ca5)">
     <use xlink:href="#mf8af296c76" x="0" y="186.72" style="fill: #dc143c; fill-opacity: 0.2"/>
    </g>
   </g>
   <g id="line2d_1">
    <defs>
     <path id="m7af3b42627" d="M 0 -3 
L -3 3 
L 3 3 
z
" style="stroke: #808080; stroke-linejoin: miter"/>
    </defs>
    <g>
     <use xlink:href="#m7af3b42627" x="55.784541" y="176.52" style="fill: #808080; stroke: #808080; stroke-linejoin: miter"/>
     <use xlink:href="#m7af3b42627" x="87.594102" y="176.52" style="fill: #808080; stroke: #808080; stroke-linejoin: miter"/>
     <use xlink:href="#m7af3b42627" x="119.403662" y="176.52" style="fill: #808080; stroke: #808080; stroke-linejoin: miter"/>
     <use xlink:href="#m7af3b42627" x="151.213222" y="176.52" style="fill: #808080; stroke: #808080; stroke-linejoin: miter"/>
     <use xlink:href="#m7af3b42627" x="183.022782" y="176.52" style="fill: #808080; stroke: #808080; stroke-linejoin: miter"/>
    </g>
   </g>
   <g id="line2d_2">
    <defs>
     <path id="m23943aa78b" d="M -0 3 
L 3 -3 
L -3 -3 
z
" style="stroke: #808080; stroke-linejoin: miter"/>
    </defs>
    <g>
     <use xlink:href="#m23943aa78b" x="55.784541" y="10.2" style="fill: #808080; stroke: #808080; stroke-linejoin: miter"/>
     <use xlink:href="#m23943aa78b" x="87.594102" y="10.2" style="fill: #808080; stroke: #808080; stroke-linejoin: miter"/>
     <use xlink:href="#m23943aa78b" x="119.403662" y="10.2" style="fill: #808080; stroke: #808080; stroke-linejoin: miter"/>
     <use xlink:href="#m23943aa78b" x="151.213222" y="10.2" style="fill: #808080; stroke: #808080; stroke-linejoin: miter"/>
     <use xlink:href="#m23943aa78b" x="183.022782" y="10.2" style="fill: #808080; stroke: #808080; stroke-linejoin: miter"/>
    </g>
   </g>
   <g id="line2d_3">
    <path d="M 55.784541 176.52 
L 55.784541 10.2 
" clip-path="url(#pb35c8e9ca5)" style="fill: none; stroke-dasharray: 3.7,1.6; stroke-dashoffset: 0; stroke: #808080"/>
   </g>
   <g id="line2d_4">
    <path d="M 87.594102 176.52 
L 87.594102 10.2 
" clip-path="url(#pb35c8e9ca5)" style="fill: none; stroke-dasharray: 3.7,1.6; stroke-dashoffset: 0; stroke: #808080"/>
   </g>
   <g id="line2d_5">
    <path d="M 119.403662 176.52 
L 119.403662 10.2 
" clip-path="url(#pb35c8e9ca5)" style="fill: none; stroke-dasharray: 3.7,1.6; stroke-dashoffset: 0; stroke: #808080"/>
   </g>
   <g id="line2d_6">
    <path d="M 151.213222 176.52 
L 151.213222 10.2 
" clip-path="url(#pb35c8e9ca5)" style="fill: none; stroke-dasharray: 3.7,1.6; stroke-dashoffset: 0; stroke: #808080"/>
   </g>
   <g id="line2d_7">
    <path d="M 183.022782 176.52 
L 183.022782 10.2 
" clip-path="url(#pb35c8e9ca5)" style="fill: none; stroke-dasharray: 3.7,1.6; stroke-dashoffset: 0; stroke: #808080"/>
   </g>
   <g id="legend_1">
    <g id="patch_2">
     <path d="M 248.56 124.21625 
L 348.067812 124.21625 
Q 350.067812 124.21625 350.067812 122.21625 
L 350.067812 64.50375 
Q 350.067812 62.50375 348.067812 62.50375 
L 248.56 62.50375 
Q 246.56 62.50375 246.56 64.50375 
L 246.56 122.21625 
Q 246.56 124.21625 248.56 124.21625 
z
" style="fill: #ffffff; opacity: 0.8; stroke: #cccccc; stroke-linejoin: miter"/>
    </g>
    <g id="line2d_8">
     <path d="M 250.56 70.602187 
L 260.56 70.602187 
L 270.56 70.602187 
" style="fill: none; stroke: #dc143c; stroke-width: 2; stroke-linecap: square"/>
    </g>
    <g id="text_1">
     <!-- Prediction -->
     <g transform="translate(278.56 74.102187) scale(0.1 -0.1)">
      <defs>
       <path id="DejaVuSans-50" d="M 1259 4147 
L 1259 2394 
L 2053 2394 
Q 2494 2394 2734 2622 
Q 2975 2850 2975 3272 
Q 2975 3691 2734 3919 
Q 2494 4147 2053 4147 
L 1259 4147 
z
M 628 4666 
L 2053 4666 
Q 2838 4666 3239 4311 
Q 3641 3956 3641 3272 
Q 3641 2581 3239 2228 
Q 2838 1875 2053 1875 
L 1259 1875 
L 1259 0 
L 628 0 
L 628 4666 
z
" transform="scale(0.015625)"/>
       <path id="DejaVuSans-72" d="M 2631 2963 
Q 2534 3019 2420 3045 
Q 2306 3072 2169 3072 
Q 1681 3072 1420 2755 
Q 1159 2438 1159 1844 
L 1159 0 
L 581 0 
L 581 3500 
L 1159 3500 
L 1159 2956 
Q 1341 3275 1631 3429 
Q 1922 3584 2338 3584 
Q 2397 3584 2469 3576 
Q 2541 3569 2628 3553 
L 2631 2963 
z
" transform="scale(0.015625)"/>
       <path id="DejaVuSans-65" d="M 3597 1894 
L 3597 1613 
L 953 1613 
Q 991 1019 1311 708 
Q 1631 397 2203 397 
Q 2534 397 2845 478 
Q 3156 559 3463 722 
L 3463 178 
Q 3153 47 2828 -22 
Q 2503 -91 2169 -91 
Q 1331 -91 842 396 
Q 353 884 353 1716 
Q 353 2575 817 3079 
Q 1281 3584 2069 3584 
Q 2775 3584 3186 3129 
Q 3597 2675 3597 1894 
z
M 3022 2063 
Q 3016 2534 2758 2815 
Q 2500 3097 2075 3097 
Q 1594 3097 1305 2825 
Q 1016 2553 972 2059 
L 3022 2063 
z
" transform="scale(0.015625)"/>
       <path id="DejaVuSans-64" d="M 2906 2969 
L 2906 4863 
L 3481 4863 
L 3481 0 
L 2906 0 
L 2906 525 
Q 2725 213 2448 61 
Q 2172 -91 1784 -91 
Q 1150 -91 751 415 
Q 353 922 353 1747 
Q 353 2572 751 3078 
Q 1150 3584 1784 3584 
Q 2172 3584 2448 3432 
Q 2725 3281 2906 2969 
z
M 947 1747 
Q 947 1113 1208 752 
Q 1469 391 1925 391 
Q 2381 391 2643 752 
Q 2906 1113 2906 1747 
Q 2906 2381 2643 2742 
Q 2381 3103 1925 3103 
Q 1469 3103 1208 2742 
Q 947 2381 947 1747 
z
" transform="scale(0.015625)"/>
       <path id="DejaVuSans-69" d="M 603 3500 
L 1178 3500 
L 1178 0 
L 603 0 
L 603 3500 
z
M 603 4863 
L 1178 4863 
L 1178 4134 
L 603 4134 
L 603 4863 
z
" transform="scale(0.015625)"/>
       <path id="DejaVuSans-63" d="M 3122 3366 
L 3122 2828 
Q 2878 2963 2633 3030 
Q 2388 3097 2138 3097 
Q 1578 3097 1268 2742 
Q 959 2388 959 1747 
Q 959 1106 1268 751 
Q 1578 397 2138 397 
Q 2388 397 2633 464 
Q 2878 531 3122 666 
L 3122 134 
Q 2881 22 2623 -34 
Q 2366 -91 2075 -91 
Q 1284 -91 818 406 
Q 353 903 353 1747 
Q 353 2603 823 3093 
Q 1294 3584 2113 3584 
Q 2378 3584 2631 3529 
Q 2884 3475 3122 3366 
z
" transform="scale(0.015625)"/>
       <path id="DejaVuSans-74" d="M 1172 4494 
L 1172 3500 
L 2356 3500 
L 2356 3053 
L 1172 3053 
L 1172 1153 
Q 1172 725 1289 603 
Q 1406 481 1766 481 
L 2356 481 
L 2356 0 
L 1766 0 
Q 1100 0 847 248 
Q 594 497 594 1153 
L 594 3053 
L 172 3053 
L 172 3500 
L 594 3500 
L 594 4494 
L 1172 4494 
z
" transform="scale(0.015625)"/>
       <path id="DejaVuSans-6f" d="M 1959 3097 
Q 1497 3097 1228 2736 
Q 959 2375 959 1747 
Q 959 1119 1226 758 
Q 1494 397 1959 397 
Q 2419 397 2687 759 
Q 2956 1122 2956 1747 
Q 2956 2369 2687 2733 
Q 2419 3097 1959 3097 
z
M 1959 3584 
Q 2709 3584 3137 3096 
Q 3566 2609 3566 1747 
Q 3566 888 3137 398 
Q 2709 -91 1959 -91 
Q 1206 -91 779 398 
Q 353 888 353 1747 
Q 353 2609 779 3096 
Q 1206 3584 1959 3584 
z
" transform="scale(0.015625)"/>
       <path id="DejaVuSans-6e" d="M 3513 2113 
L 3513 0 
L 2938 0 
L 2938 2094 
Q 2938 2591 2744 2837 
Q 2550 3084 2163 3084 
Q 1697 3084 1428 2787 
Q 1159 2491 1159 1978 
L 1159 0 
L 581 0 
L 581 3500 
L 1159 3500 
L 1159 2956 
Q 1366 3272 1645 3428 
Q 1925 3584 2291 3584 
Q 2894 3584 3203 3211 
Q 3513 2838 3513 2113 
z
" transform="scale(0.015625)"/>
      </defs>
      <use xlink:href="#DejaVuSans-50"/>
      <use xlink:href="#DejaVuSans-72" transform="translate(58.552734 0)"/>
      <use xlink:href="#DejaVuSans-65" transform="translate(97.416016 0)"/>
      <use xlink:href="#DejaVuSans-64" transform="translate(158.939453 0)"/>
      <use xlink:href="#DejaVuSans-69" transform="translate(222.416016 0)"/>
      <use xlink:href="#DejaVuSans-63" transform="translate(250.199219 0)"/>
      <use xlink:href="#DejaVuSans-74" transform="translate(305.179688 0)"/>
      <use xlink:href="#DejaVuSans-69" transform="translate(344.388672 0)"/>
      <use xlink:href="#DejaVuSans-6f" transform="translate(372.171875 0)"/>
      <use xlink:href="#DejaVuSans-6e" transform="translate(433.353516 0)"/>
     </g>
    </g>
    <g id="patch_3">
     <path d="M 250.56 88.780313 
L 270.56 88.780313 
L 270.56 81.780313 
L 250.56 81.780313 
z
" style="fill: #dc143c; fill-opacity: 0.2"/>
    </g>
    <g id="text_2">
     <!-- Uncertainty -->
     <g transform="translate(278.56 88.780313) scale(0.1 -0.1)">
      <defs>
       <path id="DejaVuSans-55" d="M 556 4666 
L 1191 4666 
L 1191 1831 
Q 1191 1081 1462 751 
Q 1734 422 2344 422 
Q 2950 422 3222 751 
Q 3494 1081 3494 1831 
L 3494 4666 
L 4128 4666 
L 4128 1753 
Q 4128 841 3676 375 
Q 3225 -91 2344 -91 
Q 1459 -91 1007 375 
Q 556 841 556 1753 
L 556 4666 
z
" transform="scale(0.015625)"/>
       <path id="DejaVuSans-61" d="M 2194 1759 
Q 1497 1759 1228 1600 
Q 959 1441 959 1056 
Q 959 750 1161 570 
Q 1363 391 1709 391 
Q 2188 391 2477 730 
Q 2766 1069 2766 1631 
L 2766 1759 
L 2194 1759 
z
M 3341 1997 
L 3341 0 
L 2766 0 
L 2766 531 
Q 2569 213 2275 61 
Q 1981 -91 1556 -91 
Q 1019 -91 701 211 
Q 384 513 384 1019 
Q 384 1609 779 1909 
Q 1175 2209 1959 2209 
L 2766 2209 
L 2766 2266 
Q 2766 2663 2505 2880 
Q 2244 3097 1772 3097 
Q 1472 3097 1187 3025 
Q 903 2953 641 2809 
L 641 3341 
Q 956 3463 1253 3523 
Q 1550 3584 1831 3584 
Q 2591 3584 2966 3190 
Q 3341 2797 3341 1997 
z
" transform="scale(0.015625)"/>
       <path id="DejaVuSans-79" d="M 2059 -325 
Q 1816 -950 1584 -1140 
Q 1353 -1331 966 -1331 
L 506 -1331 
L 506 -850 
L 844 -850 
Q 1081 -850 1212 -737 
Q 1344 -625 1503 -206 
L 1606 56 
L 191 3500 
L 800 3500 
L 1894 763 
L 2988 3500 
L 3597 3500 
L 2059 -325 
z
" transform="scale(0.015625)"/>
      </defs>
      <use xlink:href="#DejaVuSans-55"/>
      <use xlink:href="#DejaVuSans-6e" transform="translate(73.193359 0)"/>
      <use xlink:href="#DejaVuSans-63" transform="translate(136.572266 0)"/>
      <use xlink:href="#DejaVuSans-65" transform="translate(191.552734 0)"/>
      <use xlink:href="#DejaVuSans-72" transform="translate(253.076172 0)"/>
      <use xlink:href="#DejaVuSans-74" transform="translate(294.189453 0)"/>
      <use xlink:href="#DejaVuSans-61" transform="translate(333.398438 0)"/>
      <use xlink:href="#DejaVuSans-69" transform="translate(394.677734 0)"/>
      <use xlink:href="#DejaVuSans-6e" transform="translate(422.460938 0)"/>
      <use xlink:href="#DejaVuSans-74" transform="translate(485.839844 0)"/>
      <use xlink:href="#DejaVuSans-79" transform="translate(525.048828 0)"/>
     </g>
    </g>
    <g id="line2d_9">
     <defs>
      <path id="md39f41efc0" d="M 0 3 
C 0.795609 3 1.55874 2.683901 2.12132 2.12132 
C 2.683901 1.55874 3 0.795609 3 0 
C 3 -0.795609 2.683901 -1.55874 2.12132 -2.12132 
C 1.55874 -2.683901 0.795609 -3 0 -3 
C -0.795609 -3 -1.55874 -2.683901 -2.12132 -2.12132 
C -2.683901 -1.55874 -3 -0.795609 -3 0 
C -3 0.795609 -2.683901 1.55874 -2.12132 2.12132 
C -1.55874 2.683901 -0.795609 3 0 3 
z
" style="stroke: #000000; stroke-opacity: 0.5"/>
     </defs>
     <g>
      <use xlink:href="#md39f41efc0" x="260.56" y="99.958438" style="fill-opacity: 0.5; stroke: #000000; stroke-opacity: 0.5"/>
     </g>
    </g>
    <g id="text_3">
     <!-- Data -->
     <g transform="translate(278.56 103.458438) scale(0.1 -0.1)">
      <defs>
       <path id="DejaVuSans-44" d="M 1259 4147 
L 1259 519 
L 2022 519 
Q 2988 519 3436 956 
Q 3884 1394 3884 2338 
Q 3884 3275 3436 3711 
Q 2988 4147 2022 4147 
L 1259 4147 
z
M 628 4666 
L 1925 4666 
Q 3281 4666 3915 4102 
Q 4550 3538 4550 2338 
Q 4550 1131 3912 565 
Q 3275 0 1925 0 
L 628 0 
L 628 4666 
z
" transform="scale(0.015625)"/>
      </defs>
      <use xlink:href="#DejaVuSans-44"/>
      <use xlink:href="#DejaVuSans-61" transform="translate(77.001953 0)"/>
      <use xlink:href="#DejaVuSans-74" transform="translate(138.28125 0)"/>
      <use xlink:href="#DejaVuSans-61" transform="translate(177.490234 0)"/>
     </g>
    </g>
    <g id="line2d_10">
     <g>
      <use xlink:href="#m7af3b42627" x="260.56" y="114.636562" style="fill: #808080; stroke: #808080; stroke-linejoin: miter"/>
     </g>
    </g>
    <g id="text_4">
     <!-- Sparse Points -->
     <g transform="translate(278.56 118.136562) scale(0.1 -0.1)">
      <defs>
       <path id="DejaVuSans-53" d="M 3425 4513 
L 3425 3897 
Q 3066 4069 2747 4153 
Q 2428 4238 2131 4238 
Q 1616 4238 1336 4038 
Q 1056 3838 1056 3469 
Q 1056 3159 1242 3001 
Q 1428 2844 1947 2747 
L 2328 2669 
Q 3034 2534 3370 2195 
Q 3706 1856 3706 1288 
Q 3706 609 3251 259 
Q 2797 -91 1919 -91 
Q 1588 -91 1214 -16 
Q 841 59 441 206 
L 441 856 
Q 825 641 1194 531 
Q 1563 422 1919 422 
Q 2459 422 2753 634 
Q 3047 847 3047 1241 
Q 3047 1584 2836 1778 
Q 2625 1972 2144 2069 
L 1759 2144 
Q 1053 2284 737 2584 
Q 422 2884 422 3419 
Q 422 4038 858 4394 
Q 1294 4750 2059 4750 
Q 2388 4750 2728 4690 
Q 3069 4631 3425 4513 
z
" transform="scale(0.015625)"/>
       <path id="DejaVuSans-70" d="M 1159 525 
L 1159 -1331 
L 581 -1331 
L 581 3500 
L 1159 3500 
L 1159 2969 
Q 1341 3281 1617 3432 
Q 1894 3584 2278 3584 
Q 2916 3584 3314 3078 
Q 3713 2572 3713 1747 
Q 3713 922 3314 415 
Q 2916 -91 2278 -91 
Q 1894 -91 1617 61 
Q 1341 213 1159 525 
z
M 3116 1747 
Q 3116 2381 2855 2742 
Q 2594 3103 2138 3103 
Q 1681 3103 1420 2742 
Q 1159 2381 1159 1747 
Q 1159 1113 1420 752 
Q 1681 391 2138 391 
Q 2594 391 2855 752 
Q 3116 1113 3116 1747 
z
" transform="scale(0.015625)"/>
       <path id="DejaVuSans-73" d="M 2834 3397 
L 2834 2853 
Q 2591 2978 2328 3040 
Q 2066 3103 1784 3103 
Q 1356 3103 1142 2972 
Q 928 2841 928 2578 
Q 928 2378 1081 2264 
Q 1234 2150 1697 2047 
L 1894 2003 
Q 2506 1872 2764 1633 
Q 3022 1394 3022 966 
Q 3022 478 2636 193 
Q 2250 -91 1575 -91 
Q 1294 -91 989 -36 
Q 684 19 347 128 
L 347 722 
Q 666 556 975 473 
Q 1284 391 1588 391 
Q 1994 391 2212 530 
Q 2431 669 2431 922 
Q 2431 1156 2273 1281 
Q 2116 1406 1581 1522 
L 1381 1569 
Q 847 1681 609 1914 
Q 372 2147 372 2553 
Q 372 3047 722 3315 
Q 1072 3584 1716 3584 
Q 2034 3584 2315 3537 
Q 2597 3491 2834 3397 
z
" transform="scale(0.015625)"/>
       <path id="DejaVuSans-20" transform="scale(0.015625)"/>
      </defs>
      <use xlink:href="#DejaVuSans-53"/>
      <use xlink:href="#DejaVuSans-70" transform="translate(63.476562 0)"/>
      <use xlink:href="#DejaVuSans-61" transform="translate(126.953125 0)"/>
      <use xlink:href="#DejaVuSans-72" transform="translate(188.232422 0)"/>
      <use xlink:href="#DejaVuSans-73" transform="translate(229.345703 0)"/>
      <use xlink:href="#DejaVuSans-65" transform="translate(281.445312 0)"/>
      <use xlink:href="#DejaVuSans-20" transform="translate(342.96875 0)"/>
      <use xlink:href="#DejaVuSans-50" transform="translate(374.755859 0)"/>
      <use xlink:href="#DejaVuSans-6f" transform="translate(431.433594 0)"/>
      <use xlink:href="#DejaVuSans-69" transform="translate(492.615234 0)"/>
      <use xlink:href="#DejaVuSans-6e" transform="translate(520.398438 0)"/>
      <use xlink:href="#DejaVuSans-74" transform="translate(583.777344 0)"/>
      <use xlink:href="#DejaVuSans-73" transform="translate(622.986328 0)"/>
     </g>
    </g>
   </g>
   <g id="line2d_11">
    <g clip-path="url(#pb35c8e9ca5)">
     <use xlink:href="#md39f41efc0" x="99.449543" y="94.127534" style="fill-opacity: 0.5; stroke: #000000; stroke-opacity: 0.5"/>
     <use xlink:href="#md39f41efc0" x="191.088781" y="59.312838" style="fill-opacity: 0.5; stroke: #000000; stroke-opacity: 0.5"/>
     <use xlink:href="#md39f41efc0" x="156.301788" y="54.531754" style="fill-opacity: 0.5; stroke: #000000; stroke-opacity: 0.5"/>
     <use xlink:href="#md39f41efc0" x="135.095077" y="88.715545" style="fill-opacity: 0.5; stroke: #000000; stroke-opacity: 0.5"/>
     <use xlink:href="#md39f41efc0" x="64.694183" y="71.648996" style="fill-opacity: 0.5; stroke: #000000; stroke-opacity: 0.5"/>
     <use xlink:href="#md39f41efc0" x="64.690347" y="69.607173" style="fill-opacity: 0.5; stroke: #000000; stroke-opacity: 0.5"/>
     <use xlink:href="#md39f41efc0" x="49.117832" y="74.38407" style="fill-opacity: 0.5; stroke: #000000; stroke-opacity: 0.5"/>
     <use xlink:href="#md39f41efc0" x="177.643172" y="51.947376" style="fill-opacity: 0.5; stroke: #000000; stroke-opacity: 0.5"/>
     <use xlink:href="#md39f41efc0" x="135.485782" y="84.017072" style="fill-opacity: 0.5; stroke: #000000; stroke-opacity: 0.5"/>
     <use xlink:href="#md39f41efc0" x="152.497148" y="60.446661" style="fill-opacity: 0.5; stroke: #000000; stroke-opacity: 0.5"/>
     <use xlink:href="#md39f41efc0" x="43.15368" y="82.577772" style="fill-opacity: 0.5; stroke: #000000; stroke-opacity: 0.5"/>
     <use xlink:href="#md39f41efc0" x="194.14179" y="59.097388" style="fill-opacity: 0.5; stroke: #000000; stroke-opacity: 0.5"/>
     <use xlink:href="#md39f41efc0" x="172.277932" y="50.513015" style="fill-opacity: 0.5; stroke: #000000; stroke-opacity: 0.5"/>
     <use xlink:href="#md39f41efc0" x="73.65183" y="70.938255" style="fill-opacity: 0.5; stroke: #000000; stroke-opacity: 0.5"/>
     <use xlink:href="#md39f41efc0" x="68.798622" y="70.750785" style="fill-opacity: 0.5; stroke: #000000; stroke-opacity: 0.5"/>
     <use xlink:href="#md39f41efc0" x="69.049845" y="67.714732" style="fill-opacity: 0.5; stroke: #000000; stroke-opacity: 0.5"/>
     <use xlink:href="#md39f41efc0" x="88.268821" y="86.841273" style="fill-opacity: 0.5; stroke: #000000; stroke-opacity: 0.5"/>
     <use xlink:href="#md39f41efc0" x="123.341118" y="95.891575" style="fill-opacity: 0.5; stroke: #000000; stroke-opacity: 0.5"/>
     <use xlink:href="#md39f41efc0" x="108.579667" y="100.453722" style="fill-opacity: 0.5; stroke: #000000; stroke-opacity: 0.5"/>
     <use xlink:href="#md39f41efc0" x="86.199116" y="87.546148" style="fill-opacity: 0.5; stroke: #000000; stroke-opacity: 0.5"/>
     <use xlink:href="#md39f41efc0" x="137.193619" y="77.780677" style="fill-opacity: 0.5; stroke: #000000; stroke-opacity: 0.5"/>
     <use xlink:href="#md39f41efc0" x="62.065953" y="70.395413" style="fill-opacity: 0.5; stroke: #000000; stroke-opacity: 0.5"/>
     <use xlink:href="#md39f41efc0" x="86.344725" y="82.485079" style="fill-opacity: 0.5; stroke: #000000; stroke-opacity: 0.5"/>
     <use xlink:href="#md39f41efc0" x="98.148807" y="94.261158" style="fill-opacity: 0.5; stroke: #000000; stroke-opacity: 0.5"/>
     <use xlink:href="#md39f41efc0" x="112.416689" y="104.448554" style="fill-opacity: 0.5; stroke: #000000; stroke-opacity: 0.5"/>
     <use xlink:href="#md39f41efc0" x="164.760271" y="50.965959" style="fill-opacity: 0.5; stroke: #000000; stroke-opacity: 0.5"/>
     <use xlink:href="#md39f41efc0" x="71.637437" y="73.104392" style="fill-opacity: 0.5; stroke: #000000; stroke-opacity: 0.5"/>
     <use xlink:href="#md39f41efc0" x="121.667618" y="98.830929" style="fill-opacity: 0.5; stroke: #000000; stroke-opacity: 0.5"/>
     <use xlink:href="#md39f41efc0" x="134.101996" y="83.564476" style="fill-opacity: 0.5; stroke: #000000; stroke-opacity: 0.5"/>
     <use xlink:href="#md39f41efc0" x="47.267597" y="80.013457" style="fill-opacity: 0.5; stroke: #000000; stroke-opacity: 0.5"/>
     <use xlink:href="#md39f41efc0" x="136.508434" y="73.090146" style="fill-opacity: 0.5; stroke: #000000; stroke-opacity: 0.5"/>
     <use xlink:href="#md39f41efc0" x="67.001248" y="70.24076" style="fill-opacity: 0.5; stroke: #000000; stroke-opacity: 0.5"/>
     <use xlink:href="#md39f41efc0" x="50.226074" y="77.666946" style="fill-opacity: 0.5; stroke: #000000; stroke-opacity: 0.5"/>
     <use xlink:href="#md39f41efc0" x="190.797919" y="58.3204" style="fill-opacity: 0.5; stroke: #000000; stroke-opacity: 0.5"/>
     <use xlink:href="#md39f41efc0" x="193.461412" y="66.620873" style="fill-opacity: 0.5; stroke: #000000; stroke-opacity: 0.5"/>
     <use xlink:href="#md39f41efc0" x="168.453582" y="48.699692" style="fill-opacity: 0.5; stroke: #000000; stroke-opacity: 0.5"/>
     <use xlink:href="#md39f41efc0" x="88.327911" y="84.199649" style="fill-opacity: 0.5; stroke: #000000; stroke-opacity: 0.5"/>
     <use xlink:href="#md39f41efc0" x="55.414296" y="65.71683" style="fill-opacity: 0.5; stroke: #000000; stroke-opacity: 0.5"/>
     <use xlink:href="#md39f41efc0" x="148.705519" y="63.828574" style="fill-opacity: 0.5; stroke: #000000; stroke-opacity: 0.5"/>
     <use xlink:href="#md39f41efc0" x="109.885047" y="98.239865" style="fill-opacity: 0.5; stroke: #000000; stroke-opacity: 0.5"/>
     <use xlink:href="#md39f41efc0" x="59.289674" y="72.410281" style="fill-opacity: 0.5; stroke: #000000; stroke-opacity: 0.5"/>
     <use xlink:href="#md39f41efc0" x="118.63656" y="101.929626" style="fill-opacity: 0.5; stroke: #000000; stroke-opacity: 0.5"/>
     <use xlink:href="#md39f41efc0" x="45.34918" y="79.395057" style="fill-opacity: 0.5; stroke: #000000; stroke-opacity: 0.5"/>
     <use xlink:href="#md39f41efc0" x="184.505171" y="51.154306" style="fill-opacity: 0.5; stroke: #000000; stroke-opacity: 0.5"/>
     <use xlink:href="#md39f41efc0" x="81.038148" y="74.922169" style="fill-opacity: 0.5; stroke: #000000; stroke-opacity: 0.5"/>
     <use xlink:href="#md39f41efc0" x="145.252474" y="70.876612" style="fill-opacity: 0.5; stroke: #000000; stroke-opacity: 0.5"/>
     <use xlink:href="#md39f41efc0" x="89.456722" y="80.542086" style="fill-opacity: 0.5; stroke: #000000; stroke-opacity: 0.5"/>
     <use xlink:href="#md39f41efc0" x="122.595436" y="100.278178" style="fill-opacity: 0.5; stroke: #000000; stroke-opacity: 0.5"/>
     <use xlink:href="#md39f41efc0" x="126.832829" y="89.472161" style="fill-opacity: 0.5; stroke: #000000; stroke-opacity: 0.5"/>
     <use xlink:href="#md39f41efc0" x="69.280456" y="63.438133" style="fill-opacity: 0.5; stroke: #000000; stroke-opacity: 0.5"/>
     <use xlink:href="#md39f41efc0" x="194.090064" y="63.735749" style="fill-opacity: 0.5; stroke: #000000; stroke-opacity: 0.5"/>
     <use xlink:href="#md39f41efc0" x="163.162932" y="52.140941" style="fill-opacity: 0.5; stroke: #000000; stroke-opacity: 0.5"/>
     <use xlink:href="#md39f41efc0" x="189.305002" y="56.683551" style="fill-opacity: 0.5; stroke: #000000; stroke-opacity: 0.5"/>
     <use xlink:href="#md39f41efc0" x="182.200083" y="54.186797" style="fill-opacity: 0.5; stroke: #000000; stroke-opacity: 0.5"/>
     <use xlink:href="#md39f41efc0" x="134.974438" y="87.329708" style="fill-opacity: 0.5; stroke: #000000; stroke-opacity: 0.5"/>
     <use xlink:href="#md39f41efc0" x="186.501831" y="54.884453" style="fill-opacity: 0.5; stroke: #000000; stroke-opacity: 0.5"/>
     <use xlink:href="#md39f41efc0" x="53.954299" y="79.231078" style="fill-opacity: 0.5; stroke: #000000; stroke-opacity: 0.5"/>
     <use xlink:href="#md39f41efc0" x="71.050405" y="70.008038" style="fill-opacity: 0.5; stroke: #000000; stroke-opacity: 0.5"/>
     <use xlink:href="#md39f41efc0" x="47.073062" y="84.897526" style="fill-opacity: 0.5; stroke: #000000; stroke-opacity: 0.5"/>
     <use xlink:href="#md39f41efc0" x="91.622835" y="82.114514" style="fill-opacity: 0.5; stroke: #000000; stroke-opacity: 0.5"/>
     <use xlink:href="#md39f41efc0" x="101.698029" y="98.772092" style="fill-opacity: 0.5; stroke: #000000; stroke-opacity: 0.5"/>
     <use xlink:href="#md39f41efc0" x="83.037228" y="80.583386" style="fill-opacity: 0.5; stroke: #000000; stroke-opacity: 0.5"/>
     <use xlink:href="#md39f41efc0" x="171.688639" y="45.693008" style="fill-opacity: 0.5; stroke: #000000; stroke-opacity: 0.5"/>
     <use xlink:href="#md39f41efc0" x="96.620593" y="96.526685" style="fill-opacity: 0.5; stroke: #000000; stroke-opacity: 0.5"/>
     <use xlink:href="#md39f41efc0" x="84.561777" y="80.021649" style="fill-opacity: 0.5; stroke: #000000; stroke-opacity: 0.5"/>
     <use xlink:href="#md39f41efc0" x="126.19438" y="87.556254" style="fill-opacity: 0.5; stroke: #000000; stroke-opacity: 0.5"/>
     <use xlink:href="#md39f41efc0" x="62.293449" y="76.954081" style="fill-opacity: 0.5; stroke: #000000; stroke-opacity: 0.5"/>
     <use xlink:href="#md39f41efc0" x="167.467427" y="48.09595" style="fill-opacity: 0.5; stroke: #000000; stroke-opacity: 0.5"/>
     <use xlink:href="#md39f41efc0" x="51.736877" y="76.322954" style="fill-opacity: 0.5; stroke: #000000; stroke-opacity: 0.5"/>
     <use xlink:href="#md39f41efc0" x="196.841958" y="59.103282" style="fill-opacity: 0.5; stroke: #000000; stroke-opacity: 0.5"/>
     <use xlink:href="#md39f41efc0" x="162.703593" y="54.73661" style="fill-opacity: 0.5; stroke: #000000; stroke-opacity: 0.5"/>
     <use xlink:href="#md39f41efc0" x="71.485053" y="76.5106" style="fill-opacity: 0.5; stroke: #000000; stroke-opacity: 0.5"/>
     <use xlink:href="#md39f41efc0" x="40.758042" y="86.62633" style="fill-opacity: 0.5; stroke: #000000; stroke-opacity: 0.5"/>
     <use xlink:href="#md39f41efc0" x="169.577108" y="47.467733" style="fill-opacity: 0.5; stroke: #000000; stroke-opacity: 0.5"/>
     <use xlink:href="#md39f41efc0" x="152.303867" y="57.996589" style="fill-opacity: 0.5; stroke: #000000; stroke-opacity: 0.5"/>
     <use xlink:href="#md39f41efc0" x="155.826748" y="54.063564" style="fill-opacity: 0.5; stroke: #000000; stroke-opacity: 0.5"/>
     <use xlink:href="#md39f41efc0" x="162.548614" y="52.842574" style="fill-opacity: 0.5; stroke: #000000; stroke-opacity: 0.5"/>
     <use xlink:href="#md39f41efc0" x="51.6564" y="76.48946" style="fill-opacity: 0.5; stroke: #000000; stroke-opacity: 0.5"/>
     <use xlink:href="#md39f41efc0" x="96.892947" y="91.361817" style="fill-opacity: 0.5; stroke: #000000; stroke-opacity: 0.5"/>
     <use xlink:href="#md39f41efc0" x="58.30848" y="75.275914" style="fill-opacity: 0.5; stroke: #000000; stroke-opacity: 0.5"/>
     <use xlink:href="#md39f41efc0" x="177.154463" y="43.311178" style="fill-opacity: 0.5; stroke: #000000; stroke-opacity: 0.5"/>
     <use xlink:href="#md39f41efc0" x="139.013958" y="74.627398" style="fill-opacity: 0.5; stroke: #000000; stroke-opacity: 0.5"/>
     <use xlink:href="#md39f41efc0" x="92.508364" y="92.663966" style="fill-opacity: 0.5; stroke: #000000; stroke-opacity: 0.5"/>
     <use xlink:href="#md39f41efc0" x="49.988577" y="76.472735" style="fill-opacity: 0.5; stroke: #000000; stroke-opacity: 0.5"/>
     <use xlink:href="#md39f41efc0" x="89.340816" y="88.847121" style="fill-opacity: 0.5; stroke: #000000; stroke-opacity: 0.5"/>
     <use xlink:href="#md39f41efc0" x="91.599454" y="84.793021" style="fill-opacity: 0.5; stroke: #000000; stroke-opacity: 0.5"/>
     <use xlink:href="#md39f41efc0" x="155.922019" y="51.10013" style="fill-opacity: 0.5; stroke: #000000; stroke-opacity: 0.5"/>
     <use xlink:href="#md39f41efc0" x="141.281875" y="76.039556" style="fill-opacity: 0.5; stroke: #000000; stroke-opacity: 0.5"/>
     <use xlink:href="#md39f41efc0" x="180.988997" y="48.31041" style="fill-opacity: 0.5; stroke: #000000; stroke-opacity: 0.5"/>
     <use xlink:href="#md39f41efc0" x="114.984507" y="97.636847" style="fill-opacity: 0.5; stroke: #000000; stroke-opacity: 0.5"/>
     <use xlink:href="#md39f41efc0" x="58.900963" y="69.551638" style="fill-opacity: 0.5; stroke: #000000; stroke-opacity: 0.5"/>
     <use xlink:href="#md39f41efc0" x="153.319776" y="51.066546" style="fill-opacity: 0.5; stroke: #000000; stroke-opacity: 0.5"/>
     <use xlink:href="#md39f41efc0" x="160.88095" y="52.241227" style="fill-opacity: 0.5; stroke: #000000; stroke-opacity: 0.5"/>
     <use xlink:href="#md39f41efc0" x="129.149665" y="91.738514" style="fill-opacity: 0.5; stroke: #000000; stroke-opacity: 0.5"/>
     <use xlink:href="#md39f41efc0" x="162.500396" y="53.608815" style="fill-opacity: 0.5; stroke: #000000; stroke-opacity: 0.5"/>
     <use xlink:href="#md39f41efc0" x="118.416865" y="100.785966" style="fill-opacity: 0.5; stroke: #000000; stroke-opacity: 0.5"/>
     <use xlink:href="#md39f41efc0" x="123.019268" y="95.260597" style="fill-opacity: 0.5; stroke: #000000; stroke-opacity: 0.5"/>
     <use xlink:href="#md39f41efc0" x="107.87922" y="97.680036" style="fill-opacity: 0.5; stroke: #000000; stroke-opacity: 0.5"/>
     <use xlink:href="#md39f41efc0" x="43.922618" y="83.99789" style="fill-opacity: 0.5; stroke: #000000; stroke-opacity: 0.5"/>
     <use xlink:href="#md39f41efc0" x="57.039656" y="70.499165" style="fill-opacity: 0.5; stroke: #000000; stroke-opacity: 0.5"/>
    </g>
   </g>
   <g id="line2d_12">
    <path d="M 17.345455 96.484262 
L 20.404386 95.398662 
L 23.463317 94.078897 
L 26.522248 92.535083 
L 29.581179 90.786472 
L 33.659753 88.187574 
L 38.757972 84.647268 
L 46.915121 78.912271 
L 50.993696 76.343464 
L 54.052627 74.683541 
L 57.111558 73.327121 
L 59.150845 72.621898 
L 61.190132 72.09471 
L 63.22942 71.759171 
L 65.268707 71.626255 
L 67.307995 71.703948 
L 69.347282 71.99694 
L 71.386569 72.506373 
L 73.425857 73.229638 
L 75.465144 74.160255 
L 77.504431 75.28781 
L 80.563362 77.316029 
L 83.622293 79.690059 
L 87.700868 83.249761 
L 98.916948 93.42999 
L 101.975879 95.761996 
L 104.015167 97.097093 
L 106.054454 98.220925 
L 108.093741 99.10621 
L 110.133029 99.729166 
L 112.172316 100.070019 
L 114.211603 100.113438 
L 116.250891 99.848882 
L 118.290178 99.270863 
L 120.329466 98.379103 
L 122.368753 97.178598 
L 124.40804 95.679568 
L 126.447328 93.897315 
L 128.486615 91.851968 
L 130.525902 89.568145 
L 133.584833 85.758971 
L 136.643764 81.589681 
L 141.741983 74.182776 
L 147.859845 65.305158 
L 150.918776 61.180581 
L 153.977707 57.42765 
L 156.016994 55.184368 
L 158.056281 53.179484 
L 160.095569 51.435532 
L 162.134856 49.970792 
L 164.174143 48.799102 
L 166.213431 47.929756 
L 168.252718 47.367495 
L 170.292005 47.112578 
L 172.331293 47.160936 
L 174.37058 47.504397 
L 176.409868 48.130982 
L 178.449155 49.025254 
L 180.488442 50.168715 
L 182.52773 51.540244 
L 184.567017 53.116555 
L 187.625948 55.810022 
L 190.684879 58.818933 
L 194.763454 63.163668 
L 206.999178 76.54715 
L 211.077752 80.556368 
L 214.136683 83.285407 
L 217.195614 85.741008 
L 220.254545 87.90366 
L 220.254545 87.90366 
" clip-path="url(#pb35c8e9ca5)" style="fill: none; stroke: #dc143c; stroke-width: 2; stroke-linecap: square"/>
   </g>
  </g>
 </g>
 <defs>
  <clipPath id="pb35c8e9ca5">
   <rect x="7.2" y="10.2" width="223.2" height="166.32"/>
  </clipPath>
 </defs>
</svg>
