<?xml version="1.0" encoding="utf-8" standalone="no"?>
<!DOCTYPE svg PUBLIC "-//W3C//DTD SVG 1.1//EN"
  "http://www.w3.org/Graphics/SVG/1.1/DTD/svg11.dtd">
<svg xmlns:xlink="http://www.w3.org/1999/xlink" width="219.904688pt" height="207.398125pt" viewBox="0 0 219.904688 207.398125" xmlns="http://www.w3.org/2000/svg" version="1.1">
 <metadata>
  <rdf:RDF xmlns:dc="http://purl.org/dc/elements/1.1/" xmlns:cc="http://creativecommons.org/ns#" xmlns:rdf="http://www.w3.org/1999/02/22-rdf-syntax-ns#">
   <cc:Work>
    <dc:type rdf:resource="http://purl.org/dc/dcmitype/StillImage"/>
    <dc:date>2025-09-13T14:45:41.925237</dc:date>
    <dc:format>image/svg+xml</dc:format>
    <dc:creator>
     <cc:Agent>
      <dc:title>Matplotlib v3.10.3, https://matplotlib.org/</dc:title>
     </cc:Agent>
    </dc:creator>
   </cc:Work>
  </rdf:RDF>
 </metadata>
 <defs>
  <style type="text/css">*{stroke-linejoin: round; stroke-linecap: butt}</style>
 </defs>
 <g id="figure_1">
  <g id="patch_1">
   <path d="M 0 207.398125 
L 219.904688 207.398125 
L 219.904688 0 
L 0 0 
z
" style="fill: #ffffff"/>
  </g>
  <g id="axes_1">
   <g id="patch_2">
    <path d="M 45.304688 173.52 
L 212.704688 173.52 
L 212.704688 7.2 
L 45.304688 7.2 
z
" style="fill: #ffffff"/>
   </g>
   <g id="matplotlib.axis_1">
    <g id="xtick_1">
     <g id="line2d_1">
      <defs>
       <path id="m71a4bbfbab" d="M 0 0 
L 0 3.5 
" style="stroke: #000000; stroke-width: 0.8"/>
      </defs>
      <g>
       <use xlink:href="#m71a4bbfbab" x="52.913778" y="183.52" style="stroke: #000000; stroke-width: 0.8"/>
      </g>
     </g>
     <g id="text_1">
      <!-- 0 -->
      <g transform="translate(49.732528 198.118438) scale(0.1 -0.1)">
       <defs>
        <path id="DejaVuSans-30" d="M 2034 4250 
Q 1547 4250 1301 3770 
Q 1056 3291 1056 2328 
Q 1056 1369 1301 889 
Q 1547 409 2034 409 
Q 2525 409 2770 889 
Q 3016 1369 3016 2328 
Q 3016 3291 2770 3770 
Q 2525 4250 2034 4250 
z
M 2034 4750 
Q 2819 4750 3233 4129 
Q 3647 3509 3647 2328 
Q 3647 1150 3233 529 
Q 2819 -91 2034 -91 
Q 1250 -91 836 529 
Q 422 1150 422 2328 
Q 422 3509 836 4129 
Q 1250 4750 2034 4750 
z
" transform="scale(0.015625)"/>
       </defs>
       <use xlink:href="#DejaVuSans-30"/>
      </g>
     </g>
    </g>
    <g id="xtick_2">
     <g id="line2d_2">
      <g>
       <use xlink:href="#m71a4bbfbab" x="103.641051" y="183.52" style="stroke: #000000; stroke-width: 0.8"/>
      </g>
     </g>
     <g id="text_2">
      <!-- 2 -->
      <g transform="translate(100.459801 198.118438) scale(0.1 -0.1)">
       <defs>
        <path id="DejaVuSans-32" d="M 1228 531 
L 3431 531 
L 3431 0 
L 469 0 
L 469 531 
Q 828 903 1448 1529 
Q 2069 2156 2228 2338 
Q 2531 2678 2651 2914 
Q 2772 3150 2772 3378 
Q 2772 3750 2511 3984 
Q 2250 4219 1831 4219 
Q 1534 4219 1204 4116 
Q 875 4013 500 3803 
L 500 4441 
Q 881 4594 1212 4672 
Q 1544 4750 1819 4750 
Q 2544 4750 2975 4387 
Q 3406 4025 3406 3419 
Q 3406 3131 3298 2873 
Q 3191 2616 2906 2266 
Q 2828 2175 2409 1742 
Q 1991 1309 1228 531 
z
" transform="scale(0.015625)"/>
       </defs>
       <use xlink:href="#DejaVuSans-32"/>
      </g>
     </g>
    </g>
    <g id="xtick_3">
     <g id="line2d_3">
      <g>
       <use xlink:href="#m71a4bbfbab" x="154.368324" y="183.52" style="stroke: #000000; stroke-width: 0.8"/>
      </g>
     </g>
     <g id="text_3">
      <!-- 4 -->
      <g transform="translate(151.187074 198.118438) scale(0.1 -0.1)">
       <defs>
        <path id="DejaVuSans-34" d="M 2419 4116 
L 825 1625 
L 2419 1625 
L 2419 4116 
z
M 2253 4666 
L 3047 4666 
L 3047 1625 
L 3713 1625 
L 3713 1100 
L 3047 1100 
L 3047 0 
L 2419 0 
L 2419 1100 
L 313 1100 
L 313 1709 
L 2253 4666 
z
" transform="scale(0.015625)"/>
       </defs>
       <use xlink:href="#DejaVuSans-34"/>
      </g>
     </g>
    </g>
    <g id="xtick_4">
     <g id="line2d_4">
      <g>
       <use xlink:href="#m71a4bbfbab" x="205.095597" y="183.52" style="stroke: #000000; stroke-width: 0.8"/>
      </g>
     </g>
     <g id="text_4">
      <!-- 6 -->
      <g transform="translate(201.914347 198.118438) scale(0.1 -0.1)">
       <defs>
        <path id="DejaVuSans-36" d="M 2113 2584 
Q 1688 2584 1439 2293 
Q 1191 2003 1191 1497 
Q 1191 994 1439 701 
Q 1688 409 2113 409 
Q 2538 409 2786 701 
Q 3034 994 3034 1497 
Q 3034 2003 2786 2293 
Q 2538 2584 2113 2584 
z
M 3366 4563 
L 3366 3988 
Q 3128 4100 2886 4159 
Q 2644 4219 2406 4219 
Q 1781 4219 1451 3797 
Q 1122 3375 1075 2522 
Q 1259 2794 1537 2939 
Q 1816 3084 2150 3084 
Q 2853 3084 3261 2657 
Q 3669 2231 3669 1497 
Q 3669 778 3244 343 
Q 2819 -91 2113 -91 
Q 1303 -91 875 529 
Q 447 1150 447 2328 
Q 447 3434 972 4092 
Q 1497 4750 2381 4750 
Q 2619 4750 2861 4703 
Q 3103 4656 3366 4563 
z
" transform="scale(0.015625)"/>
       </defs>
       <use xlink:href="#DejaVuSans-36"/>
      </g>
     </g>
    </g>
   </g>
   <g id="matplotlib.axis_2">
    <g id="ytick_1">
     <g id="line2d_5">
      <defs>
       <path id="m95095c4c50" d="M 0 0 
L -3.5 0 
" style="stroke: #000000; stroke-width: 0.8"/>
      </defs>
      <g>
       <use xlink:href="#m95095c4c50" x="35.304688" y="149.249299" style="stroke: #000000; stroke-width: 0.8"/>
      </g>
     </g>
     <g id="text_5">
      <!-- −15 -->
      <g transform="translate(7.2 153.048518) scale(0.1 -0.1)">
       <defs>
        <path id="DejaVuSans-2212" d="M 678 2272 
L 4684 2272 
L 4684 1741 
L 678 1741 
L 678 2272 
z
" transform="scale(0.015625)"/>
        <path id="DejaVuSans-31" d="M 794 531 
L 1825 531 
L 1825 4091 
L 703 3866 
L 703 4441 
L 1819 4666 
L 2450 4666 
L 2450 531 
L 3481 531 
L 3481 0 
L 794 0 
L 794 531 
z
" transform="scale(0.015625)"/>
        <path id="DejaVuSans-35" d="M 691 4666 
L 3169 4666 
L 3169 4134 
L 1269 4134 
L 1269 2991 
Q 1406 3038 1543 3061 
Q 1681 3084 1819 3084 
Q 2600 3084 3056 2656 
Q 3513 2228 3513 1497 
Q 3513 744 3044 326 
Q 2575 -91 1722 -91 
Q 1428 -91 1123 -41 
Q 819 9 494 109 
L 494 744 
Q 775 591 1075 516 
Q 1375 441 1709 441 
Q 2250 441 2565 725 
Q 2881 1009 2881 1497 
Q 2881 1984 2565 2268 
Q 2250 2553 1709 2553 
Q 1456 2553 1204 2497 
Q 953 2441 691 2322 
L 691 4666 
z
" transform="scale(0.015625)"/>
       </defs>
       <use xlink:href="#DejaVuSans-2212"/>
       <use xlink:href="#DejaVuSans-31" transform="translate(83.789062 0)"/>
       <use xlink:href="#DejaVuSans-35" transform="translate(147.412109 0)"/>
      </g>
     </g>
    </g>
    <g id="ytick_2">
     <g id="line2d_6">
      <g>
       <use xlink:href="#m95095c4c50" x="35.304688" y="123.747693" style="stroke: #000000; stroke-width: 0.8"/>
      </g>
     </g>
     <g id="text_6">
      <!-- −10 -->
      <g transform="translate(7.2 127.546912) scale(0.1 -0.1)">
       <use xlink:href="#DejaVuSans-2212"/>
       <use xlink:href="#DejaVuSans-31" transform="translate(83.789062 0)"/>
       <use xlink:href="#DejaVuSans-30" transform="translate(147.412109 0)"/>
      </g>
     </g>
    </g>
    <g id="ytick_3">
     <g id="line2d_7">
      <g>
       <use xlink:href="#m95095c4c50" x="35.304688" y="98.246088" style="stroke: #000000; stroke-width: 0.8"/>
      </g>
     </g>
     <g id="text_7">
      <!-- −5 -->
      <g transform="translate(13.5625 102.045306) scale(0.1 -0.1)">
       <use xlink:href="#DejaVuSans-2212"/>
       <use xlink:href="#DejaVuSans-35" transform="translate(83.789062 0)"/>
      </g>
     </g>
    </g>
    <g id="ytick_4">
     <g id="line2d_8">
      <g>
       <use xlink:href="#m95095c4c50" x="35.304688" y="72.744482" style="stroke: #000000; stroke-width: 0.8"/>
      </g>
     </g>
     <g id="text_8">
      <!-- 0 -->
      <g transform="translate(21.942187 76.543701) scale(0.1 -0.1)">
       <use xlink:href="#DejaVuSans-30"/>
      </g>
     </g>
    </g>
    <g id="ytick_5">
     <g id="line2d_9">
      <g>
       <use xlink:href="#m95095c4c50" x="35.304688" y="47.242877" style="stroke: #000000; stroke-width: 0.8"/>
      </g>
     </g>
     <g id="text_9">
      <!-- 5 -->
      <g transform="translate(21.942187 51.042095) scale(0.1 -0.1)">
       <use xlink:href="#DejaVuSans-35"/>
      </g>
     </g>
    </g>
    <g id="ytick_6">
     <g id="line2d_10">
      <g>
       <use xlink:href="#m95095c4c50" x="35.304688" y="21.741271" style="stroke: #000000; stroke-width: 0.8"/>
      </g>
     </g>
     <g id="text_10">
      <!-- 10 -->
      <g transform="translate(15.579687 25.54049) scale(0.1 -0.1)">
       <use xlink:href="#DejaVuSans-31"/>
       <use xlink:href="#DejaVuSans-30" transform="translate(63.623047 0)"/>
      </g>
     </g>
    </g>
   </g>
   <g id="line2d_11">
    <path d="M 52.913778 57.544072 
L 53.52495 59.120557 
L 54.136122 61.55655 
L 55.358466 67.754099 
L 56.58081 74.054643 
L 57.191982 76.615116 
L 57.803154 78.486016 
L 58.414326 79.561183 
L 59.025498 79.863211 
L 59.63667 79.546712 
L 61.470186 77.323534 
L 62.081358 76.981397 
L 62.69253 77.159327 
L 63.303702 77.945127 
L 63.914874 79.312812 
L 65.74839 84.724499 
L 66.359562 85.914744 
L 66.970734 86.428762 
L 67.581905 86.30237 
L 68.804249 85.1839 
L 69.415421 84.906206 
L 70.026593 85.192649 
L 70.637765 86.11638 
L 72.471281 90.522719 
L 73.082453 91.259123 
L 73.693625 91.073499 
L 74.304797 89.885435 
L 74.915969 87.841774 
L 76.749485 80.09643 
L 77.360657 78.081133 
L 77.971829 76.557541 
L 79.194173 74.458419 
L 80.416517 72.455355 
L 82.250033 68.998228 
L 82.861204 68.15809 
L 83.472376 67.694027 
L 84.083548 67.691529 
L 84.69472 68.175767 
L 85.305892 69.106507 
L 86.528236 71.836167 
L 87.75058 74.416744 
L 88.361752 75.153963 
L 88.972924 75.393572 
L 89.584096 75.190093 
L 90.80644 74.238047 
L 91.417612 73.943534 
L 92.028784 73.945102 
L 93.8623 74.817711 
L 94.473472 74.803471 
L 95.084644 74.456545 
L 95.695816 73.82357 
L 97.529332 71.445681 
L 98.140503 70.863019 
L 98.751675 70.475426 
L 99.362847 70.288832 
L 99.974019 70.295744 
L 100.585191 70.47783 
L 101.807535 71.238675 
L 104.863395 73.635608 
L 107.308083 75.380721 
L 109.141599 76.850239 
L 109.752771 77.095477 
L 110.363943 77.040917 
L 110.975115 76.594262 
L 111.586287 75.712261 
L 112.197459 74.41685 
L 114.030974 69.525674 
L 114.642146 68.371827 
L 115.253318 67.895209 
L 115.86449 68.273751 
L 116.475662 69.534295 
L 117.698006 73.847484 
L 118.309178 76.023287 
L 118.92035 77.482443 
L 119.531522 77.755637 
L 120.142694 76.611826 
L 120.753866 74.153429 
L 122.587382 64.360265 
L 123.198554 62.62718 
L 123.809726 62.454996 
L 124.420898 63.838504 
L 125.03207 66.453601 
L 126.865586 76.197212 
L 127.476758 78.468143 
L 128.08793 79.854224 
L 128.699102 80.374296 
L 129.310273 80.148191 
L 129.921445 79.334916 
L 130.532617 78.075999 
L 131.754961 74.705957 
L 132.977305 71.072861 
L 133.588477 69.562914 
L 134.199649 68.462363 
L 134.810821 67.848186 
L 135.421993 67.705592 
L 136.033165 67.940486 
L 137.866681 69.186681 
L 138.477853 69.152891 
L 139.089025 68.618206 
L 139.700197 67.504107 
L 140.311369 65.837683 
L 142.144885 59.781394 
L 142.756057 58.447509 
L 143.367229 57.788501 
L 143.978401 57.714639 
L 144.589572 57.927865 
L 145.200744 58.009856 
L 145.811916 57.547069 
L 146.423088 56.26052 
L 147.03426 54.115209 
L 148.867776 46.004577 
L 149.478948 44.642082 
L 150.09012 44.762896 
L 150.701292 46.469219 
L 151.312464 49.51078 
L 153.14598 61.048427 
L 153.757152 64.029083 
L 154.979496 68.223602 
L 156.20184 72.179769 
L 157.424184 77.706671 
L 158.646528 83.718845 
L 159.2577 85.979662 
L 159.868872 87.216444 
L 160.480043 87.127217 
L 161.091215 85.550121 
L 161.702387 82.513287 
L 162.924731 73.384819 
L 164.147075 64.584344 
L 164.758247 62.168634 
L 165.369419 61.598854 
L 165.980591 62.630226 
L 167.202935 66.08703 
L 167.814107 66.491556 
L 168.425279 65.262372 
L 170.258795 57.93309 
L 170.869967 58.126702 
L 171.481139 61.026461 
L 172.092311 66.568184 
L 173.314655 82.993483 
L 175.148171 109.983899 
L 176.370514 124.190817 
L 176.981686 129.241146 
L 177.592858 132.636643 
L 178.20403 134.344441 
L 178.815202 134.528137 
L 179.426374 133.531982 
L 181.25989 128.404888 
L 181.871062 127.639552 
L 182.482234 127.901212 
L 183.093406 129.167128 
L 184.31575 132.960586 
L 184.926922 133.877173 
L 185.538094 132.818231 
L 186.149266 128.895692 
L 186.760438 121.545949 
L 187.37161 110.708988 
L 188.593954 81.368763 
L 189.816298 51.673204 
L 190.42747 41.373007 
L 191.038641 36.338153 
L 191.649813 37.502464 
L 192.260985 44.839086 
L 192.872157 57.174246 
L 194.094501 86.886149 
L 194.705673 97.868242 
L 195.316845 102.415191 
L 195.928017 99.06148 
L 196.539189 88.125157 
L 198.372705 37.016828 
L 198.983877 26.031894 
L 199.595049 22.472425 
L 200.206221 26.62698 
L 200.817393 37.155977 
L 203.262081 92.619661 
L 203.873253 99.855712 
L 204.484425 103.185055 
L 205.095597 103.144018 
L 205.095597 103.144018 
" clip-path="url(#pf35ed165ba)" style="fill: none; stroke: #1f77b4; stroke-width: 1.5; stroke-linecap: square"/>
   </g>
   <g id="line2d_12">
    <path d="M 52.913778 76.975636 
L 53.52495 78.048253 
L 54.136122 78.267785 
L 54.747294 78.340947 
L 55.358466 78.871217 
L 55.969638 80.207028 
L 56.58081 82.375696 
L 59.025498 92.955337 
L 60.859014 98.32449 
L 61.470186 100.69999 
L 62.69253 107.216923 
L 63.914874 113.92317 
L 64.526046 115.888678 
L 65.137218 116.159203 
L 65.74839 114.407029 
L 66.359562 110.607237 
L 66.970734 105.057813 
L 69.415421 77.967119 
L 70.026593 73.046293 
L 70.637765 69.460914 
L 71.248937 67.087329 
L 71.860109 65.626118 
L 72.471281 64.718784 
L 74.304797 62.52852 
L 75.527141 60.540946 
L 79.805345 52.977539 
L 80.416517 52.313573 
L 81.027689 51.991526 
L 81.638861 52.082801 
L 82.250033 52.634892 
L 82.861204 53.678459 
L 83.472376 55.229326 
L 84.083548 57.286524 
L 85.305892 62.521435 
L 86.528236 67.651253 
L 87.139408 69.410032 
L 87.75058 70.353179 
L 88.361752 70.480162 
L 88.972924 69.960977 
L 90.80644 67.460414 
L 91.417612 67.128995 
L 92.028784 67.199892 
L 92.639956 67.605388 
L 93.8623 68.967748 
L 95.695816 71.137583 
L 97.529332 72.95107 
L 98.751675 73.836305 
L 99.362847 74.102241 
L 99.974019 74.219496 
L 100.585191 74.180483 
L 101.807535 73.716899 
L 103.641051 72.744828 
L 104.863395 72.413925 
L 106.085739 72.427821 
L 109.141599 72.832413 
L 110.363943 72.715613 
L 111.586287 72.338099 
L 115.253318 70.765625 
L 115.86449 70.280213 
L 117.086834 68.812178 
L 118.309178 67.066655 
L 118.92035 66.454038 
L 119.531522 66.304496 
L 120.142694 66.841596 
L 120.753866 68.227474 
L 121.365038 70.498092 
L 122.587382 76.871689 
L 123.198554 80.118464 
L 123.809726 82.691961 
L 124.420898 84.142036 
L 125.03207 84.230232 
L 125.643242 83.001849 
L 126.254414 80.762942 
L 128.08793 72.854682 
L 128.699102 71.185648 
L 129.310273 70.240346 
L 129.921445 69.855478 
L 131.143789 69.476072 
L 131.754961 68.827977 
L 132.366133 67.617471 
L 132.977305 65.871272 
L 135.421993 57.564175 
L 136.644337 53.903126 
L 137.255509 51.622051 
L 137.866681 48.722752 
L 139.089025 41.088639 
L 140.311369 33.356261 
L 140.922541 30.93922 
L 141.533713 30.28646 
L 142.144885 31.761315 
L 142.756057 35.426877 
L 143.367229 41.010206 
L 146.423088 74.870468 
L 147.03426 78.856396 
L 147.645432 81.630655 
L 148.256604 83.544228 
L 150.09012 88.088903 
L 151.312464 92.326588 
L 152.534808 97.639576 
L 153.757152 103.797668 
L 156.813012 120.630452 
L 157.424184 122.800648 
L 158.035356 123.999818 
L 158.646528 124.007755 
L 159.2577 122.605418 
L 159.868872 119.583814 
L 160.480043 114.845573 
L 161.702387 101.193032 
L 162.924731 87.277186 
L 163.535903 82.940276 
L 164.147075 81.413664 
L 164.758247 82.784864 
L 165.369419 86.490437 
L 167.202935 100.652677 
L 167.814107 103.048959 
L 168.425279 103.554942 
L 169.036451 102.367455 
L 169.647623 99.913392 
L 170.869967 92.868402 
L 172.092311 84.20173 
L 173.314655 73.469756 
L 174.536999 60.345215 
L 175.759342 46.67839 
L 176.370514 40.845878 
L 176.981686 36.41834 
L 177.592858 33.842076 
L 178.20403 33.365818 
L 178.815202 34.98665 
L 179.426374 38.448243 
L 180.648718 48.898303 
L 181.871062 60.113745 
L 182.482234 64.814139 
L 183.093406 68.576472 
L 183.704578 71.336639 
L 184.31575 73.115542 
L 184.926922 73.960806 
L 185.538094 73.924446 
L 186.149266 73.08157 
L 186.760438 71.552292 
L 189.205126 63.442477 
L 191.038641 58.881904 
L 191.649813 56.487777 
L 192.260985 53.147128 
L 193.483329 44.140287 
L 194.094501 39.550872 
L 194.705673 36.09173 
L 195.316845 34.88281 
L 195.928017 37.020496 
L 196.539189 43.326883 
L 197.150361 54.022704 
L 198.372705 85.04997 
L 199.595049 115.142459 
L 200.206221 123.83789 
L 200.817393 126.275329 
L 201.428565 122.425275 
L 202.039737 113.49404 
L 203.873253 77.780028 
L 204.484425 69.41236 
L 205.095597 64.282001 
L 205.095597 64.282001 
" clip-path="url(#pf35ed165ba)" style="fill: none; stroke: #ff7f0e; stroke-width: 1.5; stroke-linecap: square"/>
   </g>
   <g id="line2d_13">
    <path d="M 52.913778 52.923965 
L 53.52495 45.463329 
L 54.136122 39.711762 
L 54.747294 36.690624 
L 55.358466 37.081206 
L 55.969638 41.052584 
L 56.58081 48.225878 
L 57.803154 68.598762 
L 59.025498 89.663802 
L 59.63667 98.189304 
L 60.247842 104.737691 
L 60.859014 109.189304 
L 61.470186 111.61628 
L 62.081358 112.196473 
L 62.69253 111.150084 
L 63.303702 108.723619 
L 63.914874 105.235879 
L 65.74839 92.891897 
L 66.359562 89.70734 
L 66.970734 87.420363 
L 67.581905 85.915976 
L 69.415421 82.562404 
L 70.026593 80.787372 
L 71.248937 76.157494 
L 72.471281 71.627737 
L 73.082453 69.92715 
L 73.693625 68.756566 
L 74.304797 68.192869 
L 74.915969 68.31921 
L 75.527141 69.223009 
L 76.138313 70.958418 
L 76.749485 73.50085 
L 77.971829 80.228586 
L 79.194173 86.686917 
L 79.805345 88.788864 
L 80.416517 89.788816 
L 81.027689 89.658751 
L 81.638861 88.571684 
L 82.861204 84.83096 
L 84.083548 81.131079 
L 85.305892 78.455313 
L 86.528236 76.075295 
L 89.584096 69.491362 
L 90.195268 68.698022 
L 90.80644 68.196945 
L 91.417612 67.980896 
L 92.028784 68.041939 
L 92.639956 68.406739 
L 93.251128 69.09585 
L 93.8623 70.1043 
L 96.306988 75.184636 
L 96.91816 75.870595 
L 97.529332 76.092673 
L 98.140503 75.877949 
L 98.751675 75.329888 
L 100.585191 73.109411 
L 101.196363 72.577669 
L 101.807535 72.268561 
L 102.418707 72.199657 
L 103.029879 72.36786 
L 103.641051 72.743985 
L 104.863395 73.902184 
L 106.085739 75.12123 
L 106.696911 75.591216 
L 107.308083 75.919384 
L 107.919255 76.099479 
L 108.530427 76.140457 
L 109.141599 76.059217 
L 109.752771 75.856032 
L 110.363943 75.499936 
L 110.975115 74.943264 
L 111.586287 74.121792 
L 112.197459 73.003356 
L 113.419803 70.009165 
L 114.642146 66.851194 
L 115.253318 65.626776 
L 115.86449 64.800802 
L 116.475662 64.391745 
L 117.086834 64.329411 
L 118.92035 64.80754 
L 120.142694 64.683284 
L 121.365038 64.49045 
L 121.97621 64.59723 
L 122.587382 64.880431 
L 123.809726 65.780716 
L 125.03207 66.859119 
L 125.643242 67.612784 
L 126.254414 68.763394 
L 126.865586 70.533055 
L 127.476758 73.092134 
L 128.08793 76.471234 
L 129.921445 88.805383 
L 130.532617 91.840778 
L 131.143789 93.296508 
L 131.754961 92.734852 
L 132.366133 90.006196 
L 132.977305 85.279597 
L 134.199649 71.814698 
L 135.421993 57.386869 
L 136.033165 51.262395 
L 136.644337 46.334249 
L 137.255509 42.750688 
L 137.866681 40.55044 
L 138.477853 39.71091 
L 139.089025 40.172362 
L 139.700197 41.808434 
L 140.311369 44.395488 
L 142.144885 53.848458 
L 142.756057 56.128253 
L 143.367229 57.621712 
L 143.978401 58.508677 
L 144.589572 59.175887 
L 145.200744 60.079268 
L 145.811916 61.566022 
L 146.423088 63.769615 
L 147.645432 69.734022 
L 148.867776 75.717536 
L 149.478948 78.009831 
L 150.09012 79.563022 
L 150.701292 80.169143 
L 151.312464 79.582613 
L 151.923636 77.534291 
L 152.534808 73.83716 
L 153.14598 68.486397 
L 154.368324 54.226715 
L 155.590668 40.205455 
L 156.20184 35.464674 
L 156.813012 33.040095 
L 157.424184 33.02871 
L 158.035356 35.091718 
L 159.2577 42.64279 
L 160.480043 50.21521 
L 162.313559 59.42723 
L 162.924731 63.308021 
L 164.147075 73.395166 
L 165.980591 89.45446 
L 166.591763 93.500083 
L 167.202935 96.543635 
L 167.814107 98.427658 
L 168.425279 98.867589 
L 169.036451 97.413378 
L 169.647623 93.573358 
L 170.258795 87.028721 
L 170.869967 77.903642 
L 172.703483 44.844669 
L 173.314655 36.960396 
L 173.925827 32.909819 
L 174.536999 33.270441 
L 175.148171 37.961226 
L 175.759342 46.377895 
L 176.981686 70.756884 
L 179.426374 125.195958 
L 180.037546 135.5209 
L 180.648718 143.213426 
L 181.25989 147.888871 
L 181.871062 149.445104 
L 182.482234 148.103595 
L 183.093406 144.361641 
L 183.704578 138.902997 
L 185.538094 118.294052 
L 186.760438 102.385088 
L 187.982782 81.494717 
L 190.42747 30.843954 
L 191.038641 22.113293 
L 191.649813 16.74552 
L 192.260985 14.76 
L 192.872157 15.56687 
L 193.483329 18.144734 
L 194.705673 24.179466 
L 195.316845 26.134087 
L 195.928017 27.196067 
L 197.150361 28.490355 
L 197.761533 29.816076 
L 198.372705 31.956554 
L 199.595049 37.91776 
L 201.428565 47.761143 
L 202.039737 52.370279 
L 202.650909 58.979426 
L 203.262081 68.354288 
L 203.873253 80.798882 
L 205.095597 112.386082 
L 205.095597 112.386082 
" clip-path="url(#pf35ed165ba)" style="fill: none; stroke: #2ca02c; stroke-width: 1.5; stroke-linecap: square"/>
   </g>
   <g id="line2d_14">
    <path d="M 52.913778 26.136834 
L 53.52495 23.469896 
L 54.136122 22.878615 
L 54.747294 24.556602 
L 55.358466 28.579896 
L 55.969638 34.908264 
L 56.58081 43.346713 
L 57.803154 64.525858 
L 59.025498 85.666211 
L 59.63667 93.768598 
L 60.247842 99.271809 
L 60.859014 101.917611 
L 61.470186 101.82376 
L 62.081358 99.404928 
L 62.69253 95.233407 
L 63.914874 83.966501 
L 65.74839 66.248438 
L 66.359562 61.377165 
L 66.970734 57.499975 
L 67.581905 54.88153 
L 68.193077 53.720138 
L 68.804249 54.09113 
L 69.415421 55.919311 
L 70.026593 58.972741 
L 71.248937 67.191834 
L 72.471281 75.236257 
L 73.082453 78.292141 
L 73.693625 80.485143 
L 74.304797 81.82269 
L 74.915969 82.425344 
L 75.527141 82.473691 
L 76.138313 82.181139 
L 77.360657 81.359262 
L 77.971829 81.108673 
L 79.805345 80.942292 
L 80.416517 80.545952 
L 81.027689 79.594127 
L 81.638861 77.897116 
L 82.250033 75.379567 
L 83.472376 68.395139 
L 84.69472 60.983496 
L 85.305892 58.054593 
L 85.917064 55.96614 
L 86.528236 54.774565 
L 87.139408 54.415763 
L 87.75058 54.767121 
L 88.361752 55.703234 
L 88.972924 57.115615 
L 90.195268 60.923107 
L 91.417612 65.019458 
L 92.028784 66.73029 
L 92.639956 68.047934 
L 93.251128 68.956137 
L 93.8623 69.539699 
L 95.695816 70.872837 
L 96.91816 72.433638 
L 98.140503 74.188255 
L 98.751675 74.835817 
L 99.362847 75.208732 
L 99.974019 75.27497 
L 100.585191 75.061704 
L 101.807535 74.09678 
L 103.029879 73.062218 
L 103.641051 72.744557 
L 104.252223 72.641398 
L 104.863395 72.777921 
L 105.474567 73.154627 
L 106.696911 74.462533 
L 108.530427 76.826053 
L 109.752771 77.923962 
L 110.363943 78.222316 
L 110.975115 78.359986 
L 112.197459 78.253448 
L 113.419803 77.760275 
L 114.030974 77.31923 
L 114.642146 76.675466 
L 115.253318 75.789134 
L 116.475662 73.42613 
L 117.698006 71.189603 
L 118.309178 70.559894 
L 118.92035 70.409013 
L 119.531522 70.741885 
L 120.142694 71.472899 
L 122.587382 75.404845 
L 124.420898 77.485011 
L 125.03207 78.51695 
L 125.643242 80.04135 
L 126.254414 82.178635 
L 127.476758 88.111475 
L 128.699102 94.645383 
L 129.310273 97.273325 
L 129.921445 99.04364 
L 130.532617 99.700893 
L 131.143789 99.047746 
L 131.754961 96.933986 
L 132.366133 93.278405 
L 132.977305 88.125995 
L 134.199649 74.499044 
L 135.421993 60.360271 
L 136.033165 54.860388 
L 136.644337 51.137981 
L 137.255509 49.440713 
L 137.866681 49.750779 
L 138.477853 51.839922 
L 139.089025 55.357065 
L 140.311369 65.160479 
L 142.756057 86.970279 
L 143.367229 91.016538 
L 143.978401 93.76717 
L 144.589572 94.917545 
L 145.200744 94.300696 
L 145.811916 91.92895 
L 146.423088 88.026136 
L 147.645432 77.395937 
L 148.867776 66.701484 
L 149.478948 62.511147 
L 150.09012 59.409037 
L 150.701292 57.408878 
L 151.312464 56.371577 
L 151.923636 56.054468 
L 153.757152 56.407816 
L 154.368324 56.137437 
L 155.590668 54.965581 
L 156.20184 54.752416 
L 156.813012 55.554977 
L 157.424184 58.032274 
L 158.035356 62.727696 
L 158.646528 69.900239 
L 159.868872 90.539478 
L 161.091215 113.798917 
L 161.702387 123.772749 
L 162.313559 131.638121 
L 162.924731 137.104121 
L 163.535903 140.174353 
L 164.147075 140.977246 
L 164.758247 139.634778 
L 165.369419 136.254006 
L 165.980591 131.021103 
L 167.202935 116.864672 
L 168.425279 103.126926 
L 169.036451 98.386544 
L 169.647623 95.414257 
L 170.258795 93.769383 
L 170.869967 92.513274 
L 171.481139 90.46841 
L 172.092311 86.564048 
L 172.703483 80.142216 
L 173.314655 71.148423 
L 175.759342 26.727339 
L 176.370514 19.615656 
L 176.981686 16.042913 
L 177.592858 16.364406 
L 178.20403 20.579621 
L 178.815202 28.390913 
L 179.426374 39.274105 
L 180.648718 67.278173 
L 182.482234 111.136326 
L 183.093406 122.75162 
L 183.704578 131.862757 
L 184.31575 138.21526 
L 184.926922 141.789205 
L 185.538094 142.77228 
L 186.149266 141.527875 
L 186.760438 138.563364 
L 187.982782 129.719583 
L 189.816298 113.909231 
L 191.038641 99.940209 
L 193.483329 65.642443 
L 194.094501 60.619522 
L 194.705673 58.618178 
L 195.316845 59.647525 
L 195.928017 63.178162 
L 197.150361 74.08109 
L 198.372705 84.174631 
L 198.983877 87.751906 
L 200.206221 93.259219 
L 200.817393 96.734877 
L 201.428565 101.87506 
L 202.039737 109.296231 
L 202.650909 119.12501 
L 205.095597 165.96 
L 205.095597 165.96 
" clip-path="url(#pf35ed165ba)" style="fill: none; stroke: #d62728; stroke-width: 1.5; stroke-linecap: square"/>
   </g>
   <g id="patch_3">
    <path d="M 35.304688 173.52 
L 35.304688 7.2 
" style="fill: none; stroke: #000000; stroke-width: 0.8; stroke-linejoin: miter; stroke-linecap: square"/>
   </g>
   <g id="patch_4">
    <path d="M 45.304688 183.52 
L 212.704688 183.52 
" style="fill: none; stroke: #000000; stroke-width: 0.8; stroke-linejoin: miter; stroke-linecap: square"/>
   </g>
  </g>
 </g>
 <defs>
  <clipPath id="pf35ed165ba">
   <rect x="45.304688" y="7.2" width="167.4" height="166.32"/>
  </clipPath>
 </defs>
</svg>
