<?xml version="1.0" encoding="utf-8" standalone="no"?>
<!DOCTYPE svg PUBLIC "-//W3C//DTD SVG 1.1//EN"
  "http://www.w3.org/Graphics/SVG/1.1/DTD/svg11.dtd">
<svg xmlns:xlink="http://www.w3.org/1999/xlink" width="348.181875pt" height="180.72pt" viewBox="0 0 348.181875 180.72" xmlns="http://www.w3.org/2000/svg" version="1.1">
 <metadata>
  <rdf:RDF xmlns:dc="http://purl.org/dc/elements/1.1/" xmlns:cc="http://creativecommons.org/ns#" xmlns:rdf="http://www.w3.org/1999/02/22-rdf-syntax-ns#">
   <cc:Work>
    <dc:type rdf:resource="http://purl.org/dc/dcmitype/StillImage"/>
    <dc:date>2025-09-13T14:56:51.761632</dc:date>
    <dc:format>image/svg+xml</dc:format>
    <dc:creator>
     <cc:Agent>
      <dc:title>Matplotlib v3.10.3, https://matplotlib.org/</dc:title>
     </cc:Agent>
    </dc:creator>
   </cc:Work>
  </rdf:RDF>
 </metadata>
 <defs>
  <style type="text/css">*{stroke-linejoin: round; stroke-linecap: butt}</style>
 </defs>
 <g id="figure_1">
  <g id="patch_1">
   <path d="M 0 180.72 
L 348.181875 180.72 
L 348.181875 0 
L 0 0 
z
" style="fill: #ffffff"/>
  </g>
  <g id="axes_1">
   <g id="FillBetweenPolyCollection_1">
    <defs>
     <path id="mb12f83d4f2" d="M 17.345455 -79.477896 
L 17.345455 -47.118948 
L 18.365098 -48.454699 
L 19.384742 -49.842294 
L 20.404386 -51.279748 
L 21.424029 -52.764815 
L 22.443673 -54.294983 
L 23.463317 -55.867478 
L 24.48296 -57.479265 
L 25.502604 -59.127055 
L 26.522248 -60.807312 
L 27.541891 -62.516272 
L 28.561535 -64.249962 
L 29.581179 -66.004225 
L 30.600822 -67.774758 
L 31.620466 -69.557157 
L 32.64011 -71.346963 
L 33.659753 -73.139729 
L 34.679397 -74.931077 
L 35.699041 -76.716763 
L 36.718684 -78.49273 
L 37.738328 -80.255154 
L 38.757972 -82.00046 
L 39.777615 -83.725318 
L 40.797259 -85.426614 
L 41.816903 -87.101388 
L 42.836546 -88.74677 
L 43.85619 -90.359893 
L 44.875834 -91.937818 
L 45.895477 -93.477474 
L 46.915121 -94.975602 
L 47.934765 -96.428736 
L 48.954408 -97.833193 
L 49.974052 -99.185087 
L 50.993696 -100.480357 
L 52.013339 -101.714804 
L 53.032983 -102.884143 
L 54.052627 -103.984055 
L 55.07227 -105.01024 
L 56.091914 -105.958476 
L 57.111558 -106.824671 
L 58.131201 -107.604917 
L 59.150845 -108.295542 
L 60.170489 -108.893151 
L 61.190132 -109.39467 
L 62.209776 -109.797384 
L 63.22942 -110.098969 
L 64.249063 -110.29752 
L 65.268707 -110.391575 
L 66.288351 -110.380131 
L 67.307995 -110.262662 
L 68.327638 -110.039128 
L 69.347282 -109.709979 
L 70.366926 -109.276159 
L 71.386569 -108.739106 
L 72.406213 -108.100747 
L 73.425857 -107.363488 
L 74.4455 -106.530209 
L 75.465144 -105.604252 
L 76.484788 -104.589404 
L 77.504431 -103.489883 
L 78.524075 -102.310326 
L 79.543719 -101.05576 
L 80.563362 -99.731593 
L 81.583006 -98.343584 
L 82.60265 -96.897828 
L 83.622293 -95.400726 
L 84.641937 -93.85896 
L 85.661581 -92.279473 
L 86.681224 -90.669434 
L 87.700868 -89.03621 
L 88.720512 -87.387341 
L 89.740155 -85.730501 
L 90.759799 -84.073469 
L 91.779443 -82.424096 
L 92.799086 -80.790266 
L 93.81873 -79.179862 
L 94.838374 -77.60073 
L 95.858017 -76.06064 
L 96.877661 -74.567249 
L 97.897305 -73.128061 
L 98.916948 -71.750395 
L 99.936592 -70.44134 
L 100.956236 -69.207726 
L 101.975879 -68.056084 
L 102.995523 -66.992615 
L 104.015167 -66.023156 
L 105.03481 -65.153151 
L 106.054454 -64.387624 
L 107.074098 -63.731153 
L 108.093741 -63.187844 
L 109.113385 -62.761318 
L 110.133029 -62.454687 
L 111.152672 -62.270544 
L 112.172316 -62.210951 
L 113.19196 -62.27743 
L 114.211603 -62.470959 
L 115.231247 -62.79197 
L 116.250891 -63.24035 
L 117.270534 -63.815445 
L 118.290178 -64.516067 
L 119.309822 -65.340501 
L 120.329466 -66.28652 
L 121.349109 -67.3514 
L 122.368753 -68.531931 
L 123.388397 -69.824442 
L 124.40804 -71.224816 
L 125.427684 -72.728517 
L 126.447328 -74.33061 
L 127.466971 -76.025787 
L 128.486615 -77.808396 
L 129.506259 -79.672465 
L 130.525902 -81.611732 
L 131.545546 -83.619675 
L 132.56519 -85.689543 
L 133.584833 -87.814381 
L 134.604477 -89.987069 
L 135.624121 -92.200348 
L 136.643764 -94.446853 
L 137.663408 -96.719146 
L 138.683052 -99.009744 
L 139.702695 -101.311154 
L 140.722339 -103.615901 
L 141.741983 -105.916562 
L 142.761626 -108.205789 
L 143.78127 -110.476347 
L 144.800914 -112.721132 
L 145.820557 -114.933206 
L 146.840201 -117.10582 
L 147.859845 -119.232435 
L 148.879488 -121.30675 
L 149.899132 -123.322724 
L 150.918776 -125.27459 
L 151.938419 -127.156883 
L 152.958063 -128.964447 
L 153.977707 -130.692461 
L 154.99735 -132.336445 
L 156.016994 -133.892279 
L 157.036638 -135.356209 
L 158.056281 -136.724859 
L 159.075925 -137.995242 
L 160.095569 -139.164761 
L 161.115212 -140.231219 
L 162.134856 -141.19282 
L 163.1545 -142.048174 
L 164.174143 -142.796294 
L 165.193787 -143.436599 
L 166.213431 -143.968905 
L 167.233074 -144.393428 
L 168.252718 -144.710771 
L 169.272362 -144.921916 
L 170.292005 -145.028215 
L 171.311649 -145.031372 
L 172.331293 -144.93343 
L 173.350937 -144.736751 
L 174.37058 -144.44399 
L 175.390224 -144.058075 
L 176.409868 -143.582179 
L 177.429511 -143.019687 
L 178.449155 -142.374162 
L 179.468799 -141.649314 
L 180.488442 -140.848957 
L 181.508086 -139.976968 
L 182.52773 -139.037247 
L 183.547373 -138.033669 
L 184.567017 -136.970036 
L 185.586661 -135.850032 
L 186.606304 -134.677174 
L 187.625948 -133.454764 
L 188.645592 -132.185852 
L 189.665235 -130.873194 
L 190.684879 -129.51923 
L 191.704523 -128.126071 
L 192.724166 -126.695507 
L 193.74381 -125.229031 
L 194.763454 -123.727898 
L 195.783097 -122.193195 
L 196.802741 -120.625941 
L 197.822385 -119.027189 
L 198.842028 -117.398135 
L 199.861672 -115.740215 
L 200.881316 -114.055166 
L 201.900959 -112.345073 
L 202.920603 -110.61237 
L 203.940247 -108.859813 
L 204.95989 -107.090434 
L 205.979534 -105.30748 
L 206.999178 -103.514342 
L 208.018821 -101.714493 
L 209.038465 -99.911429 
L 210.058109 -98.108617 
L 211.077752 -96.309459 
L 212.097396 -94.517259 
L 213.11704 -92.735199 
L 214.136683 -90.966326 
L 215.156327 -89.21354 
L 216.175971 -87.479587 
L 217.195614 -85.767053 
L 218.215258 -84.078368 
L 219.234902 -82.415797 
L 220.254545 -80.781451 
L 220.254545 -113.46278 
L 220.254545 -113.46278 
L 219.234902 -113.67791 
L 218.215258 -113.942524 
L 217.195614 -114.258163 
L 216.175971 -114.626234 
L 215.156327 -115.048001 
L 214.136683 -115.524573 
L 213.11704 -116.056895 
L 212.097396 -116.645731 
L 211.077752 -117.291654 
L 210.058109 -117.995031 
L 209.038465 -118.755996 
L 208.018821 -119.574428 
L 206.999178 -120.449919 
L 205.979534 -121.381733 
L 204.95989 -122.368755 
L 203.940247 -123.409439 
L 202.920603 -124.501746 
L 201.900959 -125.643082 
L 200.881316 -126.830244 
L 199.861672 -128.059383 
L 198.842028 -129.325991 
L 197.822385 -130.624914 
L 196.802741 -131.950412 
L 195.783097 -133.296241 
L 194.763454 -134.65577 
L 193.74381 -136.022103 
L 192.724166 -137.388212 
L 191.704523 -138.747056 
L 190.684879 -140.091683 
L 189.665235 -141.415309 
L 188.645592 -142.711375 
L 187.625948 -143.973587 
L 186.606304 -145.195933 
L 185.586661 -146.372694 
L 184.567017 -147.498438 
L 183.547373 -148.568018 
L 182.52773 -149.576558 
L 181.508086 -150.519447 
L 180.488442 -151.392326 
L 179.468799 -152.191079 
L 178.449155 -152.911827 
L 177.429511 -153.550924 
L 176.409868 -154.104953 
L 175.390224 -154.570726 
L 174.37058 -154.945287 
L 173.350937 -155.225913 
L 172.331293 -155.410124 
L 171.311649 -155.495686 
L 170.292005 -155.480625 
L 169.272362 -155.363232 
L 168.252718 -155.142078 
L 167.233074 -154.816026 
L 166.213431 -154.384241 
L 165.193787 -153.846206 
L 164.174143 -153.201733 
L 163.1545 -152.450975 
L 162.134856 -151.59444 
L 161.115212 -150.632998 
L 160.095569 -149.567891 
L 159.075925 -148.400744 
L 158.056281 -147.133563 
L 157.036638 -145.768749 
L 156.016994 -144.30909 
L 154.99735 -142.757767 
L 153.977707 -141.118345 
L 152.958063 -139.394775 
L 151.938419 -137.591381 
L 150.918776 -135.71285 
L 149.899132 -133.764225 
L 148.879488 -131.750883 
L 147.859845 -129.678523 
L 146.840201 -127.55315 
L 145.820557 -125.381046 
L 144.800914 -123.168755 
L 143.78127 -120.923055 
L 142.761626 -118.650933 
L 141.741983 -116.359557 
L 140.722339 -114.056247 
L 139.702695 -111.748446 
L 138.683052 -109.443684 
L 137.663408 -107.149554 
L 136.643764 -104.873668 
L 135.624121 -102.623632 
L 134.604477 -100.407007 
L 133.584833 -98.231275 
L 132.56519 -96.103806 
L 131.545546 -94.031819 
L 130.525902 -92.022353 
L 129.506259 -90.082229 
L 128.486615 -88.218019 
L 127.466971 -86.436013 
L 126.447328 -84.742191 
L 125.427684 -83.142187 
L 124.40804 -81.641271 
L 123.388397 -80.244313 
L 122.368753 -78.955768 
L 121.349109 -77.779648 
L 120.329466 -76.719506 
L 119.309822 -75.778415 
L 118.290178 -74.95896 
L 117.270534 -74.263218 
L 116.250891 -73.692753 
L 115.231247 -73.248609 
L 114.211603 -72.931303 
L 113.19196 -72.740824 
L 112.172316 -72.676634 
L 111.152672 -72.737671 
L 110.133029 -72.92235 
L 109.113385 -73.228576 
L 108.093741 -73.653751 
L 107.074098 -74.194786 
L 106.054454 -74.848113 
L 105.03481 -75.609704 
L 104.015167 -76.475086 
L 102.995523 -77.439362 
L 101.975879 -78.49723 
L 100.956236 -79.643009 
L 99.936592 -80.870662 
L 98.916948 -82.173823 
L 97.897305 -83.54582 
L 96.877661 -84.979713 
L 95.858017 -86.468318 
L 94.838374 -88.004239 
L 93.81873 -89.579906 
L 92.799086 -91.187606 
L 91.779443 -92.819519 
L 90.759799 -94.467757 
L 89.740155 -96.124398 
L 88.720512 -97.781528 
L 87.700868 -99.431277 
L 86.681224 -101.065858 
L 85.661581 -102.677606 
L 84.641937 -104.259016 
L 83.622293 -105.802778 
L 82.60265 -107.301817 
L 81.583006 -108.749324 
L 80.563362 -110.13879 
L 79.543719 -111.464035 
L 78.524075 -112.71924 
L 77.504431 -113.898966 
L 76.484788 -114.998184 
L 75.465144 -116.012287 
L 74.4455 -116.937113 
L 73.425857 -117.768953 
L 72.406213 -118.504563 
L 71.386569 -119.141171 
L 70.366926 -119.676479 
L 69.347282 -120.108665 
L 68.327638 -120.436382 
L 67.307995 -120.658753 
L 66.288351 -120.775364 
L 65.268707 -120.78626 
L 64.249063 -120.691933 
L 63.22942 -120.493317 
L 62.209776 -120.191775 
L 61.190132 -119.789095 
L 60.170489 -119.287475 
L 59.150845 -118.689524 
L 58.131201 -117.998248 
L 57.111558 -117.217051 
L 56.091914 -116.34973 
L 55.07227 -115.400469 
L 54.052627 -114.373847 
L 53.032983 -113.274831 
L 52.013339 -112.108781 
L 50.993696 -110.88145 
L 49.974052 -109.598982 
L 48.954408 -108.267912 
L 47.934765 -106.895153 
L 46.915121 -105.487983 
L 45.895477 -104.054011 
L 44.875834 -102.601138 
L 43.85619 -101.137494 
L 42.836546 -99.671358 
L 41.816903 -98.211058 
L 40.797259 -96.764855 
L 39.777615 -95.340819 
L 38.757972 -93.946701 
L 37.738328 -92.589819 
L 36.718684 -91.276958 
L 35.699041 -90.014302 
L 34.679397 -88.807393 
L 33.659753 -87.661117 
L 32.64011 -86.579718 
L 31.620466 -85.566827 
L 30.600822 -84.6255 
L 29.581179 -83.758264 
L 28.561535 -82.967156 
L 27.541891 -82.253765 
L 26.522248 -81.619267 
L 25.502604 -81.064449 
L 24.48296 -80.589737 
L 23.463317 -80.195217 
L 22.443673 -79.880649 
L 21.424029 -79.645485 
L 20.404386 -79.488883 
L 19.384742 -79.40972 
L 18.365098 -79.406605 
L 17.345455 -79.477896 
z
"/>
    </defs>
    <g clip-path="url(#pa901b2848b)">
     <use xlink:href="#mb12f83d4f2" x="0" y="180.72" style="fill: #dc143c; fill-opacity: 0.2"/>
    </g>
   </g>
   <g id="FillBetweenPolyCollection_2">
    <defs>
     <path id="m47575aa040" d="M 17.345455 -95.65737 
L 17.345455 -30.939474 
L 18.365098 -32.978747 
L 19.384742 -35.058581 
L 20.404386 -37.17518 
L 21.424029 -39.324479 
L 22.443673 -41.50215 
L 23.463317 -43.703609 
L 24.48296 -45.924029 
L 25.502604 -48.158358 
L 26.522248 -50.401334 
L 27.541891 -52.647525 
L 28.561535 -54.891365 
L 29.581179 -57.127205 
L 30.600822 -59.349387 
L 31.620466 -61.552322 
L 32.64011 -63.730586 
L 33.659753 -65.879036 
L 34.679397 -67.99292 
L 35.699041 -70.067993 
L 36.718684 -72.100616 
L 37.738328 -74.087822 
L 38.757972 -76.027339 
L 39.777615 -77.917568 
L 40.797259 -79.757493 
L 41.816903 -81.546554 
L 42.836546 -83.284476 
L 43.85619 -84.971092 
L 44.875834 -86.606159 
L 45.895477 -88.189205 
L 46.915121 -89.719411 
L 47.934765 -91.195527 
L 48.954408 -92.615834 
L 49.974052 -93.97814 
L 50.993696 -95.27981 
L 52.013339 -96.517815 
L 53.032983 -97.688799 
L 54.052627 -98.789159 
L 55.07227 -99.815125 
L 56.091914 -100.762849 
L 57.111558 -101.62848 
L 58.131201 -102.408252 
L 59.150845 -103.098551 
L 60.170489 -103.695989 
L 61.190132 -104.197457 
L 62.209776 -104.600188 
L 63.22942 -104.901795 
L 64.249063 -105.100314 
L 65.268707 -105.194232 
L 66.288351 -105.182514 
L 67.307995 -105.064617 
L 68.327638 -104.8405 
L 69.347282 -104.510635 
L 70.366926 -104.075999 
L 71.386569 -103.538074 
L 72.406213 -102.898839 
L 73.425857 -102.160755 
L 74.4455 -101.326757 
L 75.465144 -100.400234 
L 76.484788 -99.385013 
L 77.504431 -98.285342 
L 78.524075 -97.105868 
L 79.543719 -95.851622 
L 80.563362 -94.527994 
L 81.583006 -93.140714 
L 82.60265 -91.695834 
L 83.622293 -90.199699 
L 84.641937 -88.658933 
L 85.661581 -87.080407 
L 86.681224 -85.471221 
L 87.700868 -83.838677 
L 88.720512 -82.190247 
L 89.740155 -80.533552 
L 90.759799 -78.876326 
L 91.779443 -77.226385 
L 92.799086 -75.591596 
L 93.81873 -73.97984 
L 94.838374 -72.398976 
L 95.858017 -70.856801 
L 96.877661 -69.361016 
L 97.897305 -67.919182 
L 98.916948 -66.538681 
L 99.936592 -65.226679 
L 100.956236 -63.990085 
L 101.975879 -62.835512 
L 102.995523 -61.769242 
L 104.015167 -60.797191 
L 105.03481 -59.924875 
L 106.054454 -59.15738 
L 107.074098 -58.499336 
L 108.093741 -57.95489 
L 109.113385 -57.527689 
L 110.133029 -57.220855 
L 111.152672 -57.036981 
L 112.172316 -56.978109 
L 113.19196 -57.045733 
L 114.211603 -57.240787 
L 115.231247 -57.56365 
L 116.250891 -58.014149 
L 117.270534 -58.591559 
L 118.290178 -59.29462 
L 119.309822 -60.121543 
L 120.329466 -61.070028 
L 121.349109 -62.137276 
L 122.368753 -63.320013 
L 123.388397 -64.614506 
L 124.40804 -66.016589 
L 125.427684 -67.521682 
L 126.447328 -69.124819 
L 127.466971 -70.820674 
L 128.486615 -72.603584 
L 129.506259 -74.467582 
L 130.525902 -76.406421 
L 131.545546 -78.413603 
L 132.56519 -80.482411 
L 133.584833 -82.605934 
L 134.604477 -84.7771 
L 135.624121 -86.988706 
L 136.643764 -89.233446 
L 137.663408 -91.503942 
L 138.683052 -93.792773 
L 139.702695 -96.092508 
L 140.722339 -98.395728 
L 141.741983 -100.695064 
L 142.761626 -102.983218 
L 143.78127 -105.252993 
L 144.800914 -107.497321 
L 145.820557 -109.709287 
L 146.840201 -111.882155 
L 147.859845 -114.00939 
L 148.879488 -116.084684 
L 149.899132 -118.101973 
L 150.918776 -120.05546 
L 151.938419 -121.939633 
L 152.958063 -123.749283 
L 153.977707 -125.479519 
L 154.99735 -127.125785 
L 156.016994 -128.683873 
L 157.036638 -130.149938 
L 158.056281 -131.520507 
L 159.075925 -132.792491 
L 160.095569 -133.963196 
L 161.115212 -135.030329 
L 162.134856 -135.99201 
L 163.1545 -136.846774 
L 164.174143 -137.593575 
L 165.193787 -138.231795 
L 166.213431 -138.761237 
L 167.233074 -139.18213 
L 168.252718 -139.495117 
L 169.272362 -139.701258 
L 170.292005 -139.80201 
L 171.311649 -139.799215 
L 172.331293 -139.695084 
L 173.350937 -139.49217 
L 174.37058 -139.193341 
L 175.390224 -138.80175 
L 176.409868 -138.320793 
L 177.429511 -137.754068 
L 178.449155 -137.10533 
L 179.468799 -136.378432 
L 180.488442 -135.577272 
L 181.508086 -134.705729 
L 182.52773 -133.767592 
L 183.547373 -132.766495 
L 184.567017 -131.705835 
L 185.586661 -130.588701 
L 186.606304 -129.417794 
L 187.625948 -128.195353 
L 188.645592 -126.923091 
L 189.665235 -125.602137 
L 190.684879 -124.233003 
L 191.704523 -122.815579 
L 192.724166 -121.349154 
L 193.74381 -119.832495 
L 194.763454 -118.263962 
L 195.783097 -116.641672 
L 196.802741 -114.963705 
L 197.822385 -113.228326 
L 198.842028 -111.434208 
L 199.861672 -109.58063 
L 200.881316 -107.667627 
L 201.900959 -105.696069 
L 202.920603 -103.667682 
L 203.940247 -101.585 
L 204.95989 -99.451274 
L 205.979534 -97.270354 
L 206.999178 -95.046553 
L 208.018821 -92.784526 
L 209.038465 -90.489145 
L 210.058109 -88.16541 
L 211.077752 -85.818362 
L 212.097396 -83.453023 
L 213.11704 -81.074351 
L 214.136683 -78.687203 
L 215.156327 -76.29631 
L 216.175971 -73.906264 
L 217.195614 -71.521499 
L 218.215258 -69.146289 
L 219.234902 -66.784741 
L 220.254545 -64.440787 
L 220.254545 -129.803445 
L 220.254545 -129.803445 
L 219.234902 -129.308966 
L 218.215258 -128.874602 
L 217.195614 -128.503717 
L 216.175971 -128.199557 
L 215.156327 -127.965231 
L 214.136683 -127.803697 
L 213.11704 -127.717743 
L 212.097396 -127.709966 
L 211.077752 -127.782752 
L 210.058109 -127.938238 
L 209.038465 -128.178279 
L 208.018821 -128.504395 
L 206.999178 -128.917708 
L 205.979534 -129.418859 
L 204.95989 -130.007915 
L 203.940247 -130.684252 
L 202.920603 -131.446434 
L 201.900959 -132.292086 
L 200.881316 -133.217783 
L 199.861672 -134.218968 
L 198.842028 -135.289918 
L 197.822385 -136.423776 
L 196.802741 -137.612647 
L 195.783097 -138.847765 
L 194.763454 -140.119706 
L 193.74381 -141.418639 
L 192.724166 -142.734565 
L 191.704523 -144.057549 
L 190.684879 -145.37791 
L 189.665235 -146.686366 
L 188.645592 -147.974137 
L 187.625948 -149.232998 
L 186.606304 -150.455313 
L 185.586661 -151.634025 
L 184.567017 -152.762639 
L 183.547373 -153.835192 
L 182.52773 -154.846213 
L 181.508086 -155.790687 
L 180.488442 -156.664011 
L 179.468799 -157.461962 
L 178.449155 -158.18066 
L 177.429511 -158.816543 
L 176.409868 -159.36634 
L 175.390224 -159.827052 
L 174.37058 -160.195935 
L 173.350937 -160.470494 
L 172.331293 -160.64847 
L 171.311649 -160.727843 
L 170.292005 -160.70683 
L 169.272362 -160.58389 
L 168.252718 -160.357732 
L 167.233074 -160.027325 
L 166.213431 -159.591909 
L 165.193787 -159.051009 
L 164.174143 -158.404452 
L 163.1545 -157.652376 
L 162.134856 -156.79525 
L 161.115212 -155.833888 
L 160.095569 -154.769457 
L 159.075925 -153.603495 
L 158.056281 -152.337916 
L 157.036638 -150.97502 
L 156.016994 -149.517496 
L 154.99735 -147.968427 
L 153.977707 -146.331287 
L 152.958063 -144.609939 
L 151.938419 -142.80863 
L 150.918776 -140.931981 
L 149.899132 -138.984975 
L 148.879488 -136.972949 
L 147.859845 -134.901568 
L 146.840201 -132.776815 
L 145.820557 -130.604966 
L 144.800914 -128.392566 
L 143.78127 -126.146409 
L 142.761626 -123.873504 
L 141.741983 -121.581054 
L 140.722339 -119.27642 
L 139.702695 -116.967092 
L 138.683052 -114.660655 
L 137.663408 -112.364758 
L 136.643764 -110.087075 
L 135.624121 -107.835274 
L 134.604477 -105.616976 
L 133.584833 -103.439723 
L 132.56519 -101.310938 
L 131.545546 -99.237891 
L 130.525902 -97.227664 
L 129.506259 -95.287112 
L 128.486615 -93.422831 
L 127.466971 -91.641127 
L 126.447328 -89.947981 
L 125.427684 -88.349022 
L 124.40804 -86.849498 
L 123.388397 -85.454249 
L 122.368753 -84.167687 
L 121.349109 -82.993773 
L 120.329466 -81.935999 
L 119.309822 -80.997373 
L 118.290178 -80.180407 
L 117.270534 -79.487104 
L 116.250891 -78.918954 
L 115.231247 -78.476928 
L 114.211603 -78.161475 
L 113.19196 -77.972521 
L 112.172316 -77.909476 
L 111.152672 -77.971234 
L 110.133029 -78.156181 
L 109.113385 -78.462205 
L 108.093741 -78.886705 
L 107.074098 -79.426603 
L 106.054454 -80.078358 
L 105.03481 -80.837981 
L 104.015167 -81.701051 
L 102.995523 -82.662735 
L 101.975879 -83.717802 
L 100.956236 -84.860651 
L 99.936592 -86.085324 
L 98.916948 -87.385536 
L 97.897305 -88.7547 
L 96.877661 -90.185946 
L 95.858017 -91.672156 
L 94.838374 -93.205993 
L 93.81873 -94.779928 
L 92.799086 -96.386276 
L 91.779443 -98.01723 
L 90.759799 -99.6649 
L 89.740155 -101.321346 
L 88.720512 -102.978622 
L 87.700868 -104.628811 
L 86.681224 -106.264071 
L 85.661581 -107.876673 
L 84.641937 -109.459044 
L 83.622293 -111.003805 
L 82.60265 -112.503812 
L 81.583006 -113.952194 
L 80.563362 -115.342389 
L 79.543719 -116.668173 
L 78.524075 -117.923697 
L 77.504431 -119.103508 
L 76.484788 -120.202574 
L 75.465144 -121.216305 
L 74.4455 -122.140565 
L 73.425857 -122.971686 
L 72.406213 -123.706472 
L 71.386569 -124.342203 
L 70.366926 -124.876639 
L 69.347282 -125.308008 
L 68.327638 -125.635009 
L 67.307995 -125.856798 
L 66.288351 -125.972981 
L 65.268707 -125.983602 
L 64.249063 -125.889139 
L 63.22942 -125.690491 
L 62.209776 -125.388971 
L 61.190132 -124.986307 
L 60.170489 -124.484638 
L 59.150845 -123.886515 
L 58.131201 -123.194914 
L 57.111558 -122.413242 
L 56.091914 -121.545357 
L 55.07227 -120.595584 
L 54.052627 -119.568744 
L 53.032983 -118.470176 
L 52.013339 -117.30577 
L 50.993696 -116.081996 
L 49.974052 -114.805929 
L 48.954408 -113.485271 
L 47.934765 -112.128362 
L 46.915121 -110.744173 
L 45.895477 -109.342279 
L 44.875834 -107.932798 
L 43.85619 -106.526295 
L 42.836546 -105.133652 
L 41.816903 -103.765893 
L 40.797259 -102.433976 
L 39.777615 -101.148569 
L 38.757972 -99.919822 
L 37.738328 -98.757151 
L 36.718684 -97.669072 
L 35.699041 -96.663072 
L 34.679397 -95.745551 
L 33.659753 -94.92181 
L 32.64011 -94.196095 
L 31.620466 -93.571662 
L 30.600822 -93.050871 
L 29.581179 -92.635283 
L 28.561535 -92.325753 
L 27.541891 -92.122512 
L 26.522248 -92.025244 
L 25.502604 -92.033146 
L 24.48296 -92.144973 
L 23.463317 -92.359086 
L 22.443673 -92.673482 
L 21.424029 -93.085821 
L 20.404386 -93.593451 
L 19.384742 -94.193433 
L 18.365098 -94.882558 
L 17.345455 -95.65737 
z
"/>
    </defs>
    <g clip-path="url(#pa901b2848b)">
     <use xlink:href="#m47575aa040" x="0" y="180.72" style="fill: #dc143c; fill-opacity: 0.2"/>
    </g>
   </g>
   <g id="FillBetweenPolyCollection_3">
    <defs>
     <path id="mf341c6b203" d="M 17.345455 -111.836844 
L 17.345455 -14.76 
L 18.365098 -17.502794 
L 19.384742 -20.274868 
L 20.404386 -23.070613 
L 21.424029 -25.884144 
L 22.443673 -28.709316 
L 23.463317 -31.539739 
L 24.48296 -34.368793 
L 25.502604 -37.189661 
L 26.522248 -39.995356 
L 27.541891 -42.778779 
L 28.561535 -45.532768 
L 29.581179 -48.250186 
L 30.600822 -50.924016 
L 31.620466 -53.547487 
L 32.64011 -56.114209 
L 33.659753 -58.618342 
L 34.679397 -61.054762 
L 35.699041 -63.419224 
L 36.718684 -65.708503 
L 37.738328 -67.920489 
L 38.757972 -70.054219 
L 39.777615 -72.109818 
L 40.797259 -74.088372 
L 41.816903 -75.991719 
L 42.836546 -77.822183 
L 43.85619 -79.582292 
L 44.875834 -81.274499 
L 45.895477 -82.900937 
L 46.915121 -84.463221 
L 47.934765 -85.962319 
L 48.954408 -87.398475 
L 49.974052 -88.771193 
L 50.993696 -90.079264 
L 52.013339 -91.320826 
L 53.032983 -92.493454 
L 54.052627 -93.594262 
L 55.07227 -94.620011 
L 56.091914 -95.567222 
L 57.111558 -96.43229 
L 58.131201 -97.211586 
L 59.150845 -97.90156 
L 60.170489 -98.498826 
L 61.190132 -99.000245 
L 62.209776 -99.402993 
L 63.22942 -99.704622 
L 64.249063 -99.903108 
L 65.268707 -99.99689 
L 66.288351 -99.984898 
L 67.307995 -99.866571 
L 68.327638 -99.641873 
L 69.347282 -99.311292 
L 70.366926 -98.875839 
L 71.386569 -98.337042 
L 72.406213 -97.69693 
L 73.425857 -96.958022 
L 74.4455 -96.123305 
L 75.465144 -95.196216 
L 76.484788 -94.180623 
L 77.504431 -93.080801 
L 78.524075 -91.901411 
L 79.543719 -90.647484 
L 80.563362 -89.324395 
L 81.583006 -87.937844 
L 82.60265 -86.493839 
L 83.622293 -84.998673 
L 84.641937 -83.458905 
L 85.661581 -81.88134 
L 86.681224 -80.273009 
L 87.700868 -78.641143 
L 88.720512 -76.993154 
L 89.740155 -75.336604 
L 90.759799 -73.679182 
L 91.779443 -72.028673 
L 92.799086 -70.392926 
L 93.81873 -68.779818 
L 94.838374 -67.197221 
L 95.858017 -65.652963 
L 96.877661 -64.154784 
L 97.897305 -62.710302 
L 98.916948 -61.326967 
L 99.936592 -60.012018 
L 100.956236 -58.772443 
L 101.975879 -57.614939 
L 102.995523 -56.545869 
L 104.015167 -55.571226 
L 105.03481 -54.696598 
L 106.054454 -53.927136 
L 107.074098 -53.267519 
L 108.093741 -52.721937 
L 109.113385 -52.29406 
L 110.133029 -51.987024 
L 111.152672 -51.803417 
L 112.172316 -51.745267 
L 113.19196 -51.814035 
L 114.211603 -52.010615 
L 115.231247 -52.335331 
L 116.250891 -52.787947 
L 117.270534 -53.367673 
L 118.290178 -54.073173 
L 119.309822 -54.902586 
L 120.329466 -55.853535 
L 121.349109 -56.923152 
L 122.368753 -58.108094 
L 123.388397 -59.404571 
L 124.40804 -60.808362 
L 125.427684 -62.314847 
L 126.447328 -63.919029 
L 127.466971 -65.61556 
L 128.486615 -67.398772 
L 129.506259 -69.2627 
L 130.525902 -71.20111 
L 131.545546 -73.207531 
L 132.56519 -75.275279 
L 133.584833 -77.397486 
L 134.604477 -79.567131 
L 135.624121 -81.777064 
L 136.643764 -84.020039 
L 137.663408 -86.288738 
L 138.683052 -88.575803 
L 139.702695 -90.873862 
L 140.722339 -93.175555 
L 141.741983 -95.473567 
L 142.761626 -97.760646 
L 143.78127 -100.029639 
L 144.800914 -102.273509 
L 145.820557 -104.485367 
L 146.840201 -106.658489 
L 147.859845 -108.786346 
L 148.879488 -110.862618 
L 149.899132 -112.881223 
L 150.918776 -114.83633 
L 151.938419 -116.722384 
L 152.958063 -118.534119 
L 153.977707 -120.266576 
L 154.99735 -121.915124 
L 156.016994 -123.475467 
L 157.036638 -124.943668 
L 158.056281 -126.316155 
L 159.075925 -127.58974 
L 160.095569 -128.76163 
L 161.115212 -129.829439 
L 162.134856 -130.7912 
L 163.1545 -131.645373 
L 164.174143 -132.390856 
L 165.193787 -133.026992 
L 166.213431 -133.55357 
L 167.233074 -133.970831 
L 168.252718 -134.279464 
L 169.272362 -134.480601 
L 170.292005 -134.575805 
L 171.311649 -134.567058 
L 172.331293 -134.456737 
L 173.350937 -134.247588 
L 174.37058 -133.942692 
L 175.390224 -133.545424 
L 176.409868 -133.059406 
L 177.429511 -132.488449 
L 178.449155 -131.836497 
L 179.468799 -131.10755 
L 180.488442 -130.305588 
L 181.508086 -129.434489 
L 182.52773 -128.497937 
L 183.547373 -127.49932 
L 184.567017 -126.441634 
L 185.586661 -125.32737 
L 186.606304 -124.158414 
L 187.625948 -122.935942 
L 188.645592 -121.660329 
L 189.665235 -120.331079 
L 190.684879 -118.946777 
L 191.704523 -117.505086 
L 192.724166 -116.002801 
L 193.74381 -114.435959 
L 194.763454 -112.800026 
L 195.783097 -111.090149 
L 196.802741 -109.30147 
L 197.822385 -107.429463 
L 198.842028 -105.47028 
L 199.861672 -103.421046 
L 200.881316 -101.280088 
L 201.900959 -99.047065 
L 202.920603 -96.722994 
L 203.940247 -94.310187 
L 204.95989 -91.812114 
L 205.979534 -89.233227 
L 206.999178 -86.578765 
L 208.018821 -83.854558 
L 209.038465 -81.066862 
L 210.058109 -78.222203 
L 211.077752 -75.327264 
L 212.097396 -72.388787 
L 213.11704 -69.413503 
L 214.136683 -66.408079 
L 215.156327 -63.37908 
L 216.175971 -60.33294 
L 217.195614 -57.275944 
L 218.215258 -54.214211 
L 219.234902 -51.153685 
L 220.254545 -48.100122 
L 220.254545 -146.14411 
L 220.254545 -146.14411 
L 219.234902 -144.940023 
L 218.215258 -143.80668 
L 217.195614 -142.749272 
L 216.175971 -141.77288 
L 215.156327 -140.882461 
L 214.136683 -140.082821 
L 213.11704 -139.378591 
L 212.097396 -138.774202 
L 211.077752 -138.27385 
L 210.058109 -137.881445 
L 209.038465 -137.600563 
L 208.018821 -137.434363 
L 206.999178 -137.385496 
L 205.979534 -137.455985 
L 204.95989 -137.647075 
L 203.940247 -137.959065 
L 202.920603 -138.391122 
L 201.900959 -138.94109 
L 200.881316 -139.605321 
L 199.861672 -140.378552 
L 198.842028 -141.253846 
L 197.822385 -142.222639 
L 196.802741 -143.274883 
L 195.783097 -144.399288 
L 194.763454 -145.583642 
L 193.74381 -146.815175 
L 192.724166 -148.080918 
L 191.704523 -149.368042 
L 190.684879 -150.664137 
L 189.665235 -151.957424 
L 188.645592 -153.236898 
L 187.625948 -154.49241 
L 186.606304 -155.714693 
L 185.586661 -156.895356 
L 184.567017 -158.02684 
L 183.547373 -159.102366 
L 182.52773 -160.115869 
L 181.508086 -161.061927 
L 180.488442 -161.935696 
L 179.468799 -162.732844 
L 178.449155 -163.449492 
L 177.429511 -164.082162 
L 176.409868 -164.627727 
L 175.390224 -165.083377 
L 174.37058 -165.446584 
L 173.350937 -165.715075 
L 172.331293 -165.886817 
L 171.311649 -165.96 
L 170.292005 -165.933035 
L 169.272362 -165.804547 
L 168.252718 -165.573385 
L 167.233074 -165.238623 
L 166.213431 -164.799576 
L 165.193787 -164.255813 
L 164.174143 -163.607171 
L 163.1545 -162.853776 
L 162.134856 -161.99606 
L 161.115212 -161.034777 
L 160.095569 -159.971022 
L 159.075925 -158.806246 
L 158.056281 -157.542268 
L 157.036638 -156.18129 
L 156.016994 -154.725902 
L 154.99735 -153.179088 
L 153.977707 -151.544229 
L 152.958063 -149.825103 
L 151.938419 -148.025879 
L 150.918776 -146.151111 
L 149.899132 -144.205726 
L 148.879488 -142.195015 
L 147.859845 -140.124612 
L 146.840201 -138.00048 
L 145.820557 -135.828885 
L 144.800914 -133.616377 
L 143.78127 -131.369763 
L 142.761626 -129.096076 
L 141.741983 -126.802552 
L 140.722339 -124.496593 
L 139.702695 -122.185737 
L 138.683052 -119.877625 
L 137.663408 -117.579961 
L 136.643764 -115.300482 
L 135.624121 -113.046916 
L 134.604477 -110.826945 
L 133.584833 -108.64817 
L 132.56519 -106.51807 
L 131.545546 -104.443963 
L 130.525902 -102.432975 
L 129.506259 -100.491994 
L 128.486615 -98.627642 
L 127.466971 -96.84624 
L 126.447328 -95.153772 
L 125.427684 -93.555857 
L 124.40804 -92.057725 
L 123.388397 -90.664184 
L 122.368753 -89.379605 
L 121.349109 -88.207897 
L 120.329466 -87.152491 
L 119.309822 -86.21633 
L 118.290178 -85.401853 
L 117.270534 -84.71099 
L 116.250891 -84.145155 
L 115.231247 -83.705248 
L 114.211603 -83.391647 
L 113.19196 -83.204218 
L 112.172316 -83.142318 
L 111.152672 -83.204797 
L 110.133029 -83.390012 
L 109.113385 -83.695834 
L 108.093741 -84.119659 
L 107.074098 -84.65842 
L 106.054454 -85.308602 
L 105.03481 -86.066257 
L 104.015167 -86.927016 
L 102.995523 -87.886108 
L 101.975879 -88.938375 
L 100.956236 -90.078292 
L 99.936592 -91.299985 
L 98.916948 -92.59725 
L 97.897305 -93.963579 
L 96.877661 -95.392178 
L 95.858017 -96.875995 
L 94.838374 -98.407748 
L 93.81873 -99.97995 
L 92.799086 -101.584946 
L 91.779443 -103.214942 
L 90.759799 -104.862044 
L 89.740155 -106.518295 
L 88.720512 -108.175715 
L 87.700868 -109.826344 
L 86.681224 -111.462283 
L 85.661581 -113.075739 
L 84.641937 -114.659072 
L 83.622293 -116.204831 
L 82.60265 -117.705806 
L 81.583006 -119.155064 
L 80.563362 -120.545988 
L 79.543719 -121.872311 
L 78.524075 -123.128154 
L 77.504431 -124.308049 
L 76.484788 -125.406964 
L 75.465144 -126.420323 
L 74.4455 -127.344018 
L 73.425857 -128.174419 
L 72.406213 -128.90838 
L 71.386569 -129.543235 
L 70.366926 -130.076798 
L 69.347282 -130.507351 
L 68.327638 -130.833637 
L 67.307995 -131.054844 
L 66.288351 -131.170597 
L 65.268707 -131.180945 
L 64.249063 -131.086346 
L 63.22942 -130.887665 
L 62.209776 -130.586167 
L 61.190132 -130.18352 
L 60.170489 -129.6818 
L 59.150845 -129.083506 
L 58.131201 -128.391579 
L 57.111558 -127.609432 
L 56.091914 -126.740984 
L 55.07227 -125.790699 
L 54.052627 -124.76364 
L 53.032983 -123.66552 
L 52.013339 -122.502759 
L 50.993696 -121.282543 
L 49.974052 -120.012876 
L 48.954408 -118.70263 
L 47.934765 -117.36157 
L 46.915121 -116.000364 
L 45.895477 -114.630548 
L 44.875834 -113.264457 
L 43.85619 -111.915095 
L 42.836546 -110.595946 
L 41.816903 -109.320727 
L 40.797259 -108.103097 
L 39.777615 -106.95632 
L 38.757972 -105.892943 
L 37.738328 -104.924484 
L 36.718684 -104.061186 
L 35.699041 -103.311841 
L 34.679397 -102.683708 
L 33.659753 -102.182504 
L 32.64011 -101.812472 
L 31.620466 -101.576497 
L 30.600822 -101.476242 
L 29.581179 -101.512303 
L 28.561535 -101.68435 
L 27.541891 -101.991259 
L 26.522248 -102.431222 
L 25.502604 -103.001843 
L 24.48296 -103.700209 
L 23.463317 -104.522956 
L 22.443673 -105.466315 
L 21.424029 -106.526156 
L 20.404386 -107.698019 
L 19.384742 -108.977146 
L 18.365098 -110.358511 
L 17.345455 -111.836844 
z
"/>
    </defs>
    <g clip-path="url(#pa901b2848b)">
     <use xlink:href="#mf341c6b203" x="0" y="180.72" style="fill: #dc143c; fill-opacity: 0.2"/>
    </g>
   </g>
   <g id="legend_1">
    <g id="patch_2">
     <path d="M 248.56 113.877188 
L 338.981875 113.877188 
Q 340.981875 113.877188 340.981875 111.877188 
L 340.981875 68.842813 
Q 340.981875 66.842813 338.981875 66.842813 
L 248.56 66.842813 
Q 246.56 66.842813 246.56 68.842813 
L 246.56 111.877188 
Q 246.56 113.877188 248.56 113.877188 
z
" style="fill: #ffffff; opacity: 0.8; stroke: #cccccc; stroke-linejoin: miter"/>
    </g>
    <g id="line2d_1">
     <path d="M 250.56 74.94125 
L 260.56 74.94125 
L 270.56 74.94125 
" style="fill: none; stroke: #dc143c; stroke-width: 2; stroke-linecap: square"/>
    </g>
    <g id="text_1">
     <!-- Prediction -->
     <g transform="translate(278.56 78.44125) scale(0.1 -0.1)">
      <defs>
       <path id="DejaVuSans-50" d="M 1259 4147 
L 1259 2394 
L 2053 2394 
Q 2494 2394 2734 2622 
Q 2975 2850 2975 3272 
Q 2975 3691 2734 3919 
Q 2494 4147 2053 4147 
L 1259 4147 
z
M 628 4666 
L 2053 4666 
Q 2838 4666 3239 4311 
Q 3641 3956 3641 3272 
Q 3641 2581 3239 2228 
Q 2838 1875 2053 1875 
L 1259 1875 
L 1259 0 
L 628 0 
L 628 4666 
z
" transform="scale(0.015625)"/>
       <path id="DejaVuSans-72" d="M 2631 2963 
Q 2534 3019 2420 3045 
Q 2306 3072 2169 3072 
Q 1681 3072 1420 2755 
Q 1159 2438 1159 1844 
L 1159 0 
L 581 0 
L 581 3500 
L 1159 3500 
L 1159 2956 
Q 1341 3275 1631 3429 
Q 1922 3584 2338 3584 
Q 2397 3584 2469 3576 
Q 2541 3569 2628 3553 
L 2631 2963 
z
" transform="scale(0.015625)"/>
       <path id="DejaVuSans-65" d="M 3597 1894 
L 3597 1613 
L 953 1613 
Q 991 1019 1311 708 
Q 1631 397 2203 397 
Q 2534 397 2845 478 
Q 3156 559 3463 722 
L 3463 178 
Q 3153 47 2828 -22 
Q 2503 -91 2169 -91 
Q 1331 -91 842 396 
Q 353 884 353 1716 
Q 353 2575 817 3079 
Q 1281 3584 2069 3584 
Q 2775 3584 3186 3129 
Q 3597 2675 3597 1894 
z
M 3022 2063 
Q 3016 2534 2758 2815 
Q 2500 3097 2075 3097 
Q 1594 3097 1305 2825 
Q 1016 2553 972 2059 
L 3022 2063 
z
" transform="scale(0.015625)"/>
       <path id="DejaVuSans-64" d="M 2906 2969 
L 2906 4863 
L 3481 4863 
L 3481 0 
L 2906 0 
L 2906 525 
Q 2725 213 2448 61 
Q 2172 -91 1784 -91 
Q 1150 -91 751 415 
Q 353 922 353 1747 
Q 353 2572 751 3078 
Q 1150 3584 1784 3584 
Q 2172 3584 2448 3432 
Q 2725 3281 2906 2969 
z
M 947 1747 
Q 947 1113 1208 752 
Q 1469 391 1925 391 
Q 2381 391 2643 752 
Q 2906 1113 2906 1747 
Q 2906 2381 2643 2742 
Q 2381 3103 1925 3103 
Q 1469 3103 1208 2742 
Q 947 2381 947 1747 
z
" transform="scale(0.015625)"/>
       <path id="DejaVuSans-69" d="M 603 3500 
L 1178 3500 
L 1178 0 
L 603 0 
L 603 3500 
z
M 603 4863 
L 1178 4863 
L 1178 4134 
L 603 4134 
L 603 4863 
z
" transform="scale(0.015625)"/>
       <path id="DejaVuSans-63" d="M 3122 3366 
L 3122 2828 
Q 2878 2963 2633 3030 
Q 2388 3097 2138 3097 
Q 1578 3097 1268 2742 
Q 959 2388 959 1747 
Q 959 1106 1268 751 
Q 1578 397 2138 397 
Q 2388 397 2633 464 
Q 2878 531 3122 666 
L 3122 134 
Q 2881 22 2623 -34 
Q 2366 -91 2075 -91 
Q 1284 -91 818 406 
Q 353 903 353 1747 
Q 353 2603 823 3093 
Q 1294 3584 2113 3584 
Q 2378 3584 2631 3529 
Q 2884 3475 3122 3366 
z
" transform="scale(0.015625)"/>
       <path id="DejaVuSans-74" d="M 1172 4494 
L 1172 3500 
L 2356 3500 
L 2356 3053 
L 1172 3053 
L 1172 1153 
Q 1172 725 1289 603 
Q 1406 481 1766 481 
L 2356 481 
L 2356 0 
L 1766 0 
Q 1100 0 847 248 
Q 594 497 594 1153 
L 594 3053 
L 172 3053 
L 172 3500 
L 594 3500 
L 594 4494 
L 1172 4494 
z
" transform="scale(0.015625)"/>
       <path id="DejaVuSans-6f" d="M 1959 3097 
Q 1497 3097 1228 2736 
Q 959 2375 959 1747 
Q 959 1119 1226 758 
Q 1494 397 1959 397 
Q 2419 397 2687 759 
Q 2956 1122 2956 1747 
Q 2956 2369 2687 2733 
Q 2419 3097 1959 3097 
z
M 1959 3584 
Q 2709 3584 3137 3096 
Q 3566 2609 3566 1747 
Q 3566 888 3137 398 
Q 2709 -91 1959 -91 
Q 1206 -91 779 398 
Q 353 888 353 1747 
Q 353 2609 779 3096 
Q 1206 3584 1959 3584 
z
" transform="scale(0.015625)"/>
       <path id="DejaVuSans-6e" d="M 3513 2113 
L 3513 0 
L 2938 0 
L 2938 2094 
Q 2938 2591 2744 2837 
Q 2550 3084 2163 3084 
Q 1697 3084 1428 2787 
Q 1159 2491 1159 1978 
L 1159 0 
L 581 0 
L 581 3500 
L 1159 3500 
L 1159 2956 
Q 1366 3272 1645 3428 
Q 1925 3584 2291 3584 
Q 2894 3584 3203 3211 
Q 3513 2838 3513 2113 
z
" transform="scale(0.015625)"/>
      </defs>
      <use xlink:href="#DejaVuSans-50"/>
      <use xlink:href="#DejaVuSans-72" transform="translate(58.552734 0)"/>
      <use xlink:href="#DejaVuSans-65" transform="translate(97.416016 0)"/>
      <use xlink:href="#DejaVuSans-64" transform="translate(158.939453 0)"/>
      <use xlink:href="#DejaVuSans-69" transform="translate(222.416016 0)"/>
      <use xlink:href="#DejaVuSans-63" transform="translate(250.199219 0)"/>
      <use xlink:href="#DejaVuSans-74" transform="translate(305.179688 0)"/>
      <use xlink:href="#DejaVuSans-69" transform="translate(344.388672 0)"/>
      <use xlink:href="#DejaVuSans-6f" transform="translate(372.171875 0)"/>
      <use xlink:href="#DejaVuSans-6e" transform="translate(433.353516 0)"/>
     </g>
    </g>
    <g id="patch_3">
     <path d="M 250.56 93.119375 
L 270.56 93.119375 
L 270.56 86.119375 
L 250.56 86.119375 
z
" style="fill: #dc143c; fill-opacity: 0.2"/>
    </g>
    <g id="text_2">
     <!-- Uncertainty -->
     <g transform="translate(278.56 93.119375) scale(0.1 -0.1)">
      <defs>
       <path id="DejaVuSans-55" d="M 556 4666 
L 1191 4666 
L 1191 1831 
Q 1191 1081 1462 751 
Q 1734 422 2344 422 
Q 2950 422 3222 751 
Q 3494 1081 3494 1831 
L 3494 4666 
L 4128 4666 
L 4128 1753 
Q 4128 841 3676 375 
Q 3225 -91 2344 -91 
Q 1459 -91 1007 375 
Q 556 841 556 1753 
L 556 4666 
z
" transform="scale(0.015625)"/>
       <path id="DejaVuSans-61" d="M 2194 1759 
Q 1497 1759 1228 1600 
Q 959 1441 959 1056 
Q 959 750 1161 570 
Q 1363 391 1709 391 
Q 2188 391 2477 730 
Q 2766 1069 2766 1631 
L 2766 1759 
L 2194 1759 
z
M 3341 1997 
L 3341 0 
L 2766 0 
L 2766 531 
Q 2569 213 2275 61 
Q 1981 -91 1556 -91 
Q 1019 -91 701 211 
Q 384 513 384 1019 
Q 384 1609 779 1909 
Q 1175 2209 1959 2209 
L 2766 2209 
L 2766 2266 
Q 2766 2663 2505 2880 
Q 2244 3097 1772 3097 
Q 1472 3097 1187 3025 
Q 903 2953 641 2809 
L 641 3341 
Q 956 3463 1253 3523 
Q 1550 3584 1831 3584 
Q 2591 3584 2966 3190 
Q 3341 2797 3341 1997 
z
" transform="scale(0.015625)"/>
       <path id="DejaVuSans-79" d="M 2059 -325 
Q 1816 -950 1584 -1140 
Q 1353 -1331 966 -1331 
L 506 -1331 
L 506 -850 
L 844 -850 
Q 1081 -850 1212 -737 
Q 1344 -625 1503 -206 
L 1606 56 
L 191 3500 
L 800 3500 
L 1894 763 
L 2988 3500 
L 3597 3500 
L 2059 -325 
z
" transform="scale(0.015625)"/>
      </defs>
      <use xlink:href="#DejaVuSans-55"/>
      <use xlink:href="#DejaVuSans-6e" transform="translate(73.193359 0)"/>
      <use xlink:href="#DejaVuSans-63" transform="translate(136.572266 0)"/>
      <use xlink:href="#DejaVuSans-65" transform="translate(191.552734 0)"/>
      <use xlink:href="#DejaVuSans-72" transform="translate(253.076172 0)"/>
      <use xlink:href="#DejaVuSans-74" transform="translate(294.189453 0)"/>
      <use xlink:href="#DejaVuSans-61" transform="translate(333.398438 0)"/>
      <use xlink:href="#DejaVuSans-69" transform="translate(394.677734 0)"/>
      <use xlink:href="#DejaVuSans-6e" transform="translate(422.460938 0)"/>
      <use xlink:href="#DejaVuSans-74" transform="translate(485.839844 0)"/>
      <use xlink:href="#DejaVuSans-79" transform="translate(525.048828 0)"/>
     </g>
    </g>
    <g id="line2d_2">
     <defs>
      <path id="m4a49377a95" d="M 0 3 
C 0.795609 3 1.55874 2.683901 2.12132 2.12132 
C 2.683901 1.55874 3 0.795609 3 0 
C 3 -0.795609 2.683901 -1.55874 2.12132 -2.12132 
C 1.55874 -2.683901 0.795609 -3 0 -3 
C -0.795609 -3 -1.55874 -2.683901 -2.12132 -2.12132 
C -2.683901 -1.55874 -3 -0.795609 -3 0 
C -3 0.795609 -2.683901 1.55874 -2.12132 2.12132 
C -1.55874 2.683901 -0.795609 3 0 3 
z
" style="stroke: #000000; stroke-opacity: 0.5"/>
     </defs>
     <g>
      <use xlink:href="#m4a49377a95" x="260.56" y="104.2975" style="fill-opacity: 0.5; stroke: #000000; stroke-opacity: 0.5"/>
     </g>
    </g>
    <g id="text_3">
     <!-- Data -->
     <g transform="translate(278.56 107.7975) scale(0.1 -0.1)">
      <defs>
       <path id="DejaVuSans-44" d="M 1259 4147 
L 1259 519 
L 2022 519 
Q 2988 519 3436 956 
Q 3884 1394 3884 2338 
Q 3884 3275 3436 3711 
Q 2988 4147 2022 4147 
L 1259 4147 
z
M 628 4666 
L 1925 4666 
Q 3281 4666 3915 4102 
Q 4550 3538 4550 2338 
Q 4550 1131 3912 565 
Q 3275 0 1925 0 
L 628 0 
L 628 4666 
z
" transform="scale(0.015625)"/>
      </defs>
      <use xlink:href="#DejaVuSans-44"/>
      <use xlink:href="#DejaVuSans-61" transform="translate(77.001953 0)"/>
      <use xlink:href="#DejaVuSans-74" transform="translate(138.28125 0)"/>
      <use xlink:href="#DejaVuSans-61" transform="translate(177.490234 0)"/>
     </g>
    </g>
   </g>
   <g id="line2d_3">
    <g clip-path="url(#pa901b2848b)">
     <use xlink:href="#m4a49377a95" x="99.449543" y="102.760929" style="fill-opacity: 0.5; stroke: #000000; stroke-opacity: 0.5"/>
     <use xlink:href="#m4a49377a95" x="191.088781" y="47.831721" style="fill-opacity: 0.5; stroke: #000000; stroke-opacity: 0.5"/>
     <use xlink:href="#m4a49377a95" x="156.301788" y="40.288321" style="fill-opacity: 0.5; stroke: #000000; stroke-opacity: 0.5"/>
     <use xlink:href="#m4a49377a95" x="135.095077" y="94.222114" style="fill-opacity: 0.5; stroke: #000000; stroke-opacity: 0.5"/>
     <use xlink:href="#m4a49377a95" x="64.694183" y="67.295208" style="fill-opacity: 0.5; stroke: #000000; stroke-opacity: 0.5"/>
     <use xlink:href="#m4a49377a95" x="64.690347" y="64.073703" style="fill-opacity: 0.5; stroke: #000000; stroke-opacity: 0.5"/>
     <use xlink:href="#m4a49377a95" x="49.117832" y="71.610497" style="fill-opacity: 0.5; stroke: #000000; stroke-opacity: 0.5"/>
     <use xlink:href="#m4a49377a95" x="177.643172" y="36.210795" style="fill-opacity: 0.5; stroke: #000000; stroke-opacity: 0.5"/>
     <use xlink:href="#m4a49377a95" x="135.485782" y="86.809054" style="fill-opacity: 0.5; stroke: #000000; stroke-opacity: 0.5"/>
     <use xlink:href="#m4a49377a95" x="152.497148" y="49.62062" style="fill-opacity: 0.5; stroke: #000000; stroke-opacity: 0.5"/>
     <use xlink:href="#m4a49377a95" x="43.15368" y="84.538185" style="fill-opacity: 0.5; stroke: #000000; stroke-opacity: 0.5"/>
     <use xlink:href="#m4a49377a95" x="194.14179" y="47.491793" style="fill-opacity: 0.5; stroke: #000000; stroke-opacity: 0.5"/>
     <use xlink:href="#m4a49377a95" x="172.277932" y="33.947719" style="fill-opacity: 0.5; stroke: #000000; stroke-opacity: 0.5"/>
     <use xlink:href="#m4a49377a95" x="73.65183" y="66.17383" style="fill-opacity: 0.5; stroke: #000000; stroke-opacity: 0.5"/>
     <use xlink:href="#m4a49377a95" x="68.798622" y="65.878047" style="fill-opacity: 0.5; stroke: #000000; stroke-opacity: 0.5"/>
     <use xlink:href="#m4a49377a95" x="69.049845" y="61.087887" style="fill-opacity: 0.5; stroke: #000000; stroke-opacity: 0.5"/>
     <use xlink:href="#m4a49377a95" x="88.268821" y="91.264963" style="fill-opacity: 0.5; stroke: #000000; stroke-opacity: 0.5"/>
     <use xlink:href="#m4a49377a95" x="123.341118" y="105.54416" style="fill-opacity: 0.5; stroke: #000000; stroke-opacity: 0.5"/>
     <use xlink:href="#m4a49377a95" x="108.579667" y="112.742131" style="fill-opacity: 0.5; stroke: #000000; stroke-opacity: 0.5"/>
     <use xlink:href="#m4a49377a95" x="86.199116" y="92.377087" style="fill-opacity: 0.5; stroke: #000000; stroke-opacity: 0.5"/>
     <use xlink:href="#m4a49377a95" x="137.193619" y="76.969525" style="fill-opacity: 0.5; stroke: #000000; stroke-opacity: 0.5"/>
     <use xlink:href="#m4a49377a95" x="62.065953" y="65.317356" style="fill-opacity: 0.5; stroke: #000000; stroke-opacity: 0.5"/>
     <use xlink:href="#m4a49377a95" x="86.344725" y="84.391937" style="fill-opacity: 0.5; stroke: #000000; stroke-opacity: 0.5"/>
     <use xlink:href="#m4a49377a95" x="98.148807" y="102.971756" style="fill-opacity: 0.5; stroke: #000000; stroke-opacity: 0.5"/>
     <use xlink:href="#m4a49377a95" x="112.416689" y="119.045013" style="fill-opacity: 0.5; stroke: #000000; stroke-opacity: 0.5"/>
     <use xlink:href="#m4a49377a95" x="164.760271" y="34.662355" style="fill-opacity: 0.5; stroke: #000000; stroke-opacity: 0.5"/>
     <use xlink:href="#m4a49377a95" x="71.637437" y="69.591472" style="fill-opacity: 0.5; stroke: #000000; stroke-opacity: 0.5"/>
     <use xlink:href="#m4a49377a95" x="121.667618" y="110.181753" style="fill-opacity: 0.5; stroke: #000000; stroke-opacity: 0.5"/>
     <use xlink:href="#m4a49377a95" x="134.101996" y="86.094966" style="fill-opacity: 0.5; stroke: #000000; stroke-opacity: 0.5"/>
     <use xlink:href="#m4a49377a95" x="47.267597" y="80.492314" style="fill-opacity: 0.5; stroke: #000000; stroke-opacity: 0.5"/>
     <use xlink:href="#m4a49377a95" x="136.508434" y="69.568995" style="fill-opacity: 0.5; stroke: #000000; stroke-opacity: 0.5"/>
     <use xlink:href="#m4a49377a95" x="67.001248" y="65.07335" style="fill-opacity: 0.5; stroke: #000000; stroke-opacity: 0.5"/>
     <use xlink:href="#m4a49377a95" x="50.226074" y="76.790084" style="fill-opacity: 0.5; stroke: #000000; stroke-opacity: 0.5"/>
     <use xlink:href="#m4a49377a95" x="190.797919" y="46.265892" style="fill-opacity: 0.5; stroke: #000000; stroke-opacity: 0.5"/>
     <use xlink:href="#m4a49377a95" x="193.461412" y="59.362041" style="fill-opacity: 0.5; stroke: #000000; stroke-opacity: 0.5"/>
     <use xlink:href="#m4a49377a95" x="168.453582" y="31.086731" style="fill-opacity: 0.5; stroke: #000000; stroke-opacity: 0.5"/>
     <use xlink:href="#m4a49377a95" x="88.327911" y="87.097117" style="fill-opacity: 0.5; stroke: #000000; stroke-opacity: 0.5"/>
     <use xlink:href="#m4a49377a95" x="55.414296" y="57.935678" style="fill-opacity: 0.5; stroke: #000000; stroke-opacity: 0.5"/>
     <use xlink:href="#m4a49377a95" x="148.705519" y="54.956464" style="fill-opacity: 0.5; stroke: #000000; stroke-opacity: 0.5"/>
     <use xlink:href="#m4a49377a95" x="109.885047" y="109.249197" style="fill-opacity: 0.5; stroke: #000000; stroke-opacity: 0.5"/>
     <use xlink:href="#m4a49377a95" x="59.289674" y="68.496333" style="fill-opacity: 0.5; stroke: #000000; stroke-opacity: 0.5"/>
     <use xlink:href="#m4a49377a95" x="118.63656" y="115.070752" style="fill-opacity: 0.5; stroke: #000000; stroke-opacity: 0.5"/>
     <use xlink:href="#m4a49377a95" x="45.34918" y="79.516628" style="fill-opacity: 0.5; stroke: #000000; stroke-opacity: 0.5"/>
     <use xlink:href="#m4a49377a95" x="184.505171" y="34.959521" style="fill-opacity: 0.5; stroke: #000000; stroke-opacity: 0.5"/>
     <use xlink:href="#m4a49377a95" x="81.038148" y="72.459486" style="fill-opacity: 0.5; stroke: #000000; stroke-opacity: 0.5"/>
     <use xlink:href="#m4a49377a95" x="145.252474" y="66.076572" style="fill-opacity: 0.5; stroke: #000000; stroke-opacity: 0.5"/>
     <use xlink:href="#m4a49377a95" x="89.456722" y="81.326362" style="fill-opacity: 0.5; stroke: #000000; stroke-opacity: 0.5"/>
     <use xlink:href="#m4a49377a95" x="122.595436" y="112.465164" style="fill-opacity: 0.5; stroke: #000000; stroke-opacity: 0.5"/>
     <use xlink:href="#m4a49377a95" x="126.832829" y="95.415872" style="fill-opacity: 0.5; stroke: #000000; stroke-opacity: 0.5"/>
     <use xlink:href="#m4a49377a95" x="69.280456" y="54.340443" style="fill-opacity: 0.5; stroke: #000000; stroke-opacity: 0.5"/>
     <use xlink:href="#m4a49377a95" x="194.090064" y="54.810009" style="fill-opacity: 0.5; stroke: #000000; stroke-opacity: 0.5"/>
     <use xlink:href="#m4a49377a95" x="163.162932" y="36.516194" style="fill-opacity: 0.5; stroke: #000000; stroke-opacity: 0.5"/>
     <use xlink:href="#m4a49377a95" x="189.305002" y="43.683338" style="fill-opacity: 0.5; stroke: #000000; stroke-opacity: 0.5"/>
     <use xlink:href="#m4a49377a95" x="182.200083" y="39.744062" style="fill-opacity: 0.5; stroke: #000000; stroke-opacity: 0.5"/>
     <use xlink:href="#m4a49377a95" x="134.974438" y="92.035596" style="fill-opacity: 0.5; stroke: #000000; stroke-opacity: 0.5"/>
     <use xlink:href="#m4a49377a95" x="186.501831" y="40.844795" style="fill-opacity: 0.5; stroke: #000000; stroke-opacity: 0.5"/>
     <use xlink:href="#m4a49377a95" x="53.954299" y="79.257908" style="fill-opacity: 0.5; stroke: #000000; stroke-opacity: 0.5"/>
     <use xlink:href="#m4a49377a95" x="71.050405" y="64.706171" style="fill-opacity: 0.5; stroke: #000000; stroke-opacity: 0.5"/>
     <use xlink:href="#m4a49377a95" x="47.073062" y="88.198199" style="fill-opacity: 0.5; stroke: #000000; stroke-opacity: 0.5"/>
     <use xlink:href="#m4a49377a95" x="91.622835" y="83.807276" style="fill-opacity: 0.5; stroke: #000000; stroke-opacity: 0.5"/>
     <use xlink:href="#m4a49377a95" x="101.698029" y="110.088923" style="fill-opacity: 0.5; stroke: #000000; stroke-opacity: 0.5"/>
     <use xlink:href="#m4a49377a95" x="83.037228" y="81.391525" style="fill-opacity: 0.5; stroke: #000000; stroke-opacity: 0.5"/>
     <use xlink:href="#m4a49377a95" x="171.688639" y="26.342908" style="fill-opacity: 0.5; stroke: #000000; stroke-opacity: 0.5"/>
     <use xlink:href="#m4a49377a95" x="96.620593" y="106.546211" style="fill-opacity: 0.5; stroke: #000000; stroke-opacity: 0.5"/>
     <use xlink:href="#m4a49377a95" x="84.561777" y="80.505239" style="fill-opacity: 0.5; stroke: #000000; stroke-opacity: 0.5"/>
     <use xlink:href="#m4a49377a95" x="126.19438" y="92.393031" style="fill-opacity: 0.5; stroke: #000000; stroke-opacity: 0.5"/>
     <use xlink:href="#m4a49377a95" x="62.293449" y="75.665355" style="fill-opacity: 0.5; stroke: #000000; stroke-opacity: 0.5"/>
     <use xlink:href="#m4a49377a95" x="167.467427" y="30.134172" style="fill-opacity: 0.5; stroke: #000000; stroke-opacity: 0.5"/>
     <use xlink:href="#m4a49377a95" x="51.736877" y="74.669588" style="fill-opacity: 0.5; stroke: #000000; stroke-opacity: 0.5"/>
     <use xlink:href="#m4a49377a95" x="196.841958" y="47.501091" style="fill-opacity: 0.5; stroke: #000000; stroke-opacity: 0.5"/>
     <use xlink:href="#m4a49377a95" x="162.703593" y="40.611535" style="fill-opacity: 0.5; stroke: #000000; stroke-opacity: 0.5"/>
     <use xlink:href="#m4a49377a95" x="71.485053" y="74.965648" style="fill-opacity: 0.5; stroke: #000000; stroke-opacity: 0.5"/>
     <use xlink:href="#m4a49377a95" x="40.758042" y="90.925835" style="fill-opacity: 0.5; stroke: #000000; stroke-opacity: 0.5"/>
     <use xlink:href="#m4a49377a95" x="169.577108" y="29.142997" style="fill-opacity: 0.5; stroke: #000000; stroke-opacity: 0.5"/>
     <use xlink:href="#m4a49377a95" x="152.303867" y="45.754996" style="fill-opacity: 0.5; stroke: #000000; stroke-opacity: 0.5"/>
     <use xlink:href="#m4a49377a95" x="155.826748" y="39.54963" style="fill-opacity: 0.5; stroke: #000000; stroke-opacity: 0.5"/>
     <use xlink:href="#m4a49377a95" x="162.548614" y="37.623203" style="fill-opacity: 0.5; stroke: #000000; stroke-opacity: 0.5"/>
     <use xlink:href="#m4a49377a95" x="51.6564" y="74.932295" style="fill-opacity: 0.5; stroke: #000000; stroke-opacity: 0.5"/>
     <use xlink:href="#m4a49377a95" x="96.892947" y="98.397293" style="fill-opacity: 0.5; stroke: #000000; stroke-opacity: 0.5"/>
     <use xlink:href="#m4a49377a95" x="58.30848" y="73.017611" style="fill-opacity: 0.5; stroke: #000000; stroke-opacity: 0.5"/>
     <use xlink:href="#m4a49377a95" x="177.154463" y="22.584954" style="fill-opacity: 0.5; stroke: #000000; stroke-opacity: 0.5"/>
     <use xlink:href="#m4a49377a95" x="139.013958" y="71.994409" style="fill-opacity: 0.5; stroke: #000000; stroke-opacity: 0.5"/>
     <use xlink:href="#m4a49377a95" x="92.508364" y="100.451771" style="fill-opacity: 0.5; stroke: #000000; stroke-opacity: 0.5"/>
     <use xlink:href="#m4a49377a95" x="49.988577" y="74.905907" style="fill-opacity: 0.5; stroke: #000000; stroke-opacity: 0.5"/>
     <use xlink:href="#m4a49377a95" x="89.340816" y="94.429709" style="fill-opacity: 0.5; stroke: #000000; stroke-opacity: 0.5"/>
     <use xlink:href="#m4a49377a95" x="91.599454" y="88.033316" style="fill-opacity: 0.5; stroke: #000000; stroke-opacity: 0.5"/>
     <use xlink:href="#m4a49377a95" x="155.922019" y="34.874045" style="fill-opacity: 0.5; stroke: #000000; stroke-opacity: 0.5"/>
     <use xlink:href="#m4a49377a95" x="141.281875" y="74.222455" style="fill-opacity: 0.5; stroke: #000000; stroke-opacity: 0.5"/>
     <use xlink:href="#m4a49377a95" x="180.988997" y="30.472538" style="fill-opacity: 0.5; stroke: #000000; stroke-opacity: 0.5"/>
     <use xlink:href="#m4a49377a95" x="114.984507" y="108.29778" style="fill-opacity: 0.5; stroke: #000000; stroke-opacity: 0.5"/>
     <use xlink:href="#m4a49377a95" x="58.900963" y="63.986082" style="fill-opacity: 0.5; stroke: #000000; stroke-opacity: 0.5"/>
     <use xlink:href="#m4a49377a95" x="153.319776" y="34.821058" style="fill-opacity: 0.5; stroke: #000000; stroke-opacity: 0.5"/>
     <use xlink:href="#m4a49377a95" x="160.88095" y="36.674421" style="fill-opacity: 0.5; stroke: #000000; stroke-opacity: 0.5"/>
     <use xlink:href="#m4a49377a95" x="129.149665" y="98.991631" style="fill-opacity: 0.5; stroke: #000000; stroke-opacity: 0.5"/>
     <use xlink:href="#m4a49377a95" x="162.500396" y="38.832146" style="fill-opacity: 0.5; stroke: #000000; stroke-opacity: 0.5"/>
     <use xlink:href="#m4a49377a95" x="118.416865" y="113.266332" style="fill-opacity: 0.5; stroke: #000000; stroke-opacity: 0.5"/>
     <use xlink:href="#m4a49377a95" x="123.019268" y="104.54863" style="fill-opacity: 0.5; stroke: #000000; stroke-opacity: 0.5"/>
     <use xlink:href="#m4a49377a95" x="107.87922" y="108.365922" style="fill-opacity: 0.5; stroke: #000000; stroke-opacity: 0.5"/>
     <use xlink:href="#m4a49377a95" x="43.922618" y="86.77879" style="fill-opacity: 0.5; stroke: #000000; stroke-opacity: 0.5"/>
     <use xlink:href="#m4a49377a95" x="57.039656" y="65.481051" style="fill-opacity: 0.5; stroke: #000000; stroke-opacity: 0.5"/>
    </g>
   </g>
   <g id="line2d_4">
    <path d="M 17.345455 117.421578 
L 19.384742 116.093993 
L 21.424029 114.51485 
L 23.463317 112.688653 
L 25.502604 110.624248 
L 28.561535 107.111441 
L 31.620466 103.158008 
L 34.679397 98.850765 
L 39.777615 91.186931 
L 45.895477 81.954258 
L 48.954408 77.669448 
L 52.013339 73.808208 
L 54.052627 71.541049 
L 56.091914 69.565897 
L 58.131201 67.918417 
L 60.170489 66.629687 
L 62.209776 65.72542 
L 64.249063 65.225273 
L 66.288351 65.142253 
L 68.327638 65.482245 
L 70.366926 66.243681 
L 72.406213 67.417345 
L 74.4455 68.986339 
L 76.484788 70.926206 
L 78.524075 73.205217 
L 80.563362 75.784809 
L 83.622293 80.118248 
L 87.700868 86.486256 
L 94.838374 97.917515 
L 97.897305 102.383059 
L 99.936592 105.063999 
L 101.975879 107.443343 
L 104.015167 109.470879 
L 106.054454 111.102131 
L 108.093741 112.299202 
L 110.133029 113.031482 
L 111.152672 113.215893 
L 112.172316 113.276207 
L 113.19196 113.210873 
L 114.211603 113.018869 
L 115.231247 112.699711 
L 116.250891 112.253449 
L 118.290178 110.982487 
L 120.329466 109.216987 
L 122.368753 106.97615 
L 124.40804 104.286957 
L 126.447328 101.1836 
L 128.486615 97.706793 
L 131.545546 91.894253 
L 134.604477 85.522962 
L 139.702695 74.1902 
L 145.820557 60.562874 
L 148.879488 54.191184 
L 151.938419 48.345868 
L 153.977707 44.814597 
L 156.016994 41.619315 
L 158.056281 38.790789 
L 160.095569 36.353674 
L 162.134856 34.32637 
L 164.174143 32.720986 
L 166.213431 31.543427 
L 168.252718 30.793575 
L 170.292005 30.46558 
L 172.331293 30.548223 
L 174.37058 31.025362 
L 176.409868 31.876434 
L 178.449155 33.077005 
L 180.488442 34.599358 
L 182.52773 36.413097 
L 184.567017 38.485763 
L 187.625948 42.005824 
L 190.684879 45.914543 
L 194.763454 51.528166 
L 206.999178 68.737869 
L 211.077752 73.919443 
L 214.136683 77.47455 
L 217.195614 80.707392 
L 220.254545 83.597884 
L 220.254545 83.597884 
" clip-path="url(#pa901b2848b)" style="fill: none; stroke: #dc143c; stroke-width: 2; stroke-linecap: square"/>
   </g>
  </g>
 </g>
 <defs>
  <clipPath id="pa901b2848b">
   <rect x="7.2" y="7.2" width="223.2" height="166.32"/>
  </clipPath>
 </defs>
</svg>
