<?xml version="1.0" encoding="utf-8" standalone="no"?>
<!DOCTYPE svg PUBLIC "-//W3C//DTD SVG 1.1//EN"
  "http://www.w3.org/Graphics/SVG/1.1/DTD/svg11.dtd">
<svg xmlns:xlink="http://www.w3.org/1999/xlink" width="207.065909pt" height="141.958125pt" viewBox="0 0 207.065909 141.958125" xmlns="http://www.w3.org/2000/svg" version="1.1">
 <metadata>
  <rdf:RDF xmlns:dc="http://purl.org/dc/elements/1.1/" xmlns:cc="http://creativecommons.org/ns#" xmlns:rdf="http://www.w3.org/1999/02/22-rdf-syntax-ns#">
   <cc:Work>
    <dc:type rdf:resource="http://purl.org/dc/dcmitype/StillImage"/>
    <dc:date>2025-09-12T16:53:39.427037</dc:date>
    <dc:format>image/svg+xml</dc:format>
    <dc:creator>
     <cc:Agent>
      <dc:title>Matplotlib v3.10.3, https://matplotlib.org/</dc:title>
     </cc:Agent>
    </dc:creator>
   </cc:Work>
  </rdf:RDF>
 </metadata>
 <defs>
  <style type="text/css">*{stroke-linejoin: round; stroke-linecap: butt}</style>
 </defs>
 <g id="figure_1">
  <g id="patch_1">
   <path d="M 0 141.958125 
L 207.065909 141.958125 
L 207.065909 0 
L 0 0 
z
" style="fill: #ffffff"/>
  </g>
  <g id="axes_1">
   <g id="patch_2">
    <path d="M 28.942187 118.08 
L 196.342187 118.08 
L 196.342187 7.2 
L 28.942187 7.2 
z
" style="fill: #ffffff"/>
   </g>
   <g id="matplotlib.axis_1">
    <g id="xtick_1">
     <g id="line2d_1">
      <defs>
       <path id="m98fb1b40cc" d="M 0 0 
L 0 3.5 
" style="stroke: #000000; stroke-width: 0.8"/>
      </defs>
      <g>
       <use xlink:href="#m98fb1b40cc" x="36.551278" y="118.08" style="stroke: #000000; stroke-width: 0.8"/>
      </g>
     </g>
     <g id="text_1">
      <!-- 0.0 -->
      <g transform="translate(28.599716 132.678438) scale(0.1 -0.1)">
       <defs>
        <path id="DejaVuSans-30" d="M 2034 4250 
Q 1547 4250 1301 3770 
Q 1056 3291 1056 2328 
Q 1056 1369 1301 889 
Q 1547 409 2034 409 
Q 2525 409 2770 889 
Q 3016 1369 3016 2328 
Q 3016 3291 2770 3770 
Q 2525 4250 2034 4250 
z
M 2034 4750 
Q 2819 4750 3233 4129 
Q 3647 3509 3647 2328 
Q 3647 1150 3233 529 
Q 2819 -91 2034 -91 
Q 1250 -91 836 529 
Q 422 1150 422 2328 
Q 422 3509 836 4129 
Q 1250 4750 2034 4750 
z
" transform="scale(0.015625)"/>
        <path id="DejaVuSans-2e" d="M 684 794 
L 1344 794 
L 1344 0 
L 684 0 
L 684 794 
z
" transform="scale(0.015625)"/>
       </defs>
       <use xlink:href="#DejaVuSans-30"/>
       <use xlink:href="#DejaVuSans-2e" transform="translate(63.623047 0)"/>
       <use xlink:href="#DejaVuSans-30" transform="translate(95.410156 0)"/>
      </g>
     </g>
    </g>
    <g id="xtick_2">
     <g id="line2d_2">
      <g>
       <use xlink:href="#m98fb1b40cc" x="74.596733" y="118.08" style="stroke: #000000; stroke-width: 0.8"/>
      </g>
     </g>
     <g id="text_2">
      <!-- 2.5 -->
      <g transform="translate(66.64517 132.678438) scale(0.1 -0.1)">
       <defs>
        <path id="DejaVuSans-32" d="M 1228 531 
L 3431 531 
L 3431 0 
L 469 0 
L 469 531 
Q 828 903 1448 1529 
Q 2069 2156 2228 2338 
Q 2531 2678 2651 2914 
Q 2772 3150 2772 3378 
Q 2772 3750 2511 3984 
Q 2250 4219 1831 4219 
Q 1534 4219 1204 4116 
Q 875 4013 500 3803 
L 500 4441 
Q 881 4594 1212 4672 
Q 1544 4750 1819 4750 
Q 2544 4750 2975 4387 
Q 3406 4025 3406 3419 
Q 3406 3131 3298 2873 
Q 3191 2616 2906 2266 
Q 2828 2175 2409 1742 
Q 1991 1309 1228 531 
z
" transform="scale(0.015625)"/>
        <path id="DejaVuSans-35" d="M 691 4666 
L 3169 4666 
L 3169 4134 
L 1269 4134 
L 1269 2991 
Q 1406 3038 1543 3061 
Q 1681 3084 1819 3084 
Q 2600 3084 3056 2656 
Q 3513 2228 3513 1497 
Q 3513 744 3044 326 
Q 2575 -91 1722 -91 
Q 1428 -91 1123 -41 
Q 819 9 494 109 
L 494 744 
Q 775 591 1075 516 
Q 1375 441 1709 441 
Q 2250 441 2565 725 
Q 2881 1009 2881 1497 
Q 2881 1984 2565 2268 
Q 2250 2553 1709 2553 
Q 1456 2553 1204 2497 
Q 953 2441 691 2322 
L 691 4666 
z
" transform="scale(0.015625)"/>
       </defs>
       <use xlink:href="#DejaVuSans-32"/>
       <use xlink:href="#DejaVuSans-2e" transform="translate(63.623047 0)"/>
       <use xlink:href="#DejaVuSans-35" transform="translate(95.410156 0)"/>
      </g>
     </g>
    </g>
    <g id="xtick_3">
     <g id="line2d_3">
      <g>
       <use xlink:href="#m98fb1b40cc" x="112.642188" y="118.08" style="stroke: #000000; stroke-width: 0.8"/>
      </g>
     </g>
     <g id="text_3">
      <!-- 5.0 -->
      <g transform="translate(104.690625 132.678438) scale(0.1 -0.1)">
       <use xlink:href="#DejaVuSans-35"/>
       <use xlink:href="#DejaVuSans-2e" transform="translate(63.623047 0)"/>
       <use xlink:href="#DejaVuSans-30" transform="translate(95.410156 0)"/>
      </g>
     </g>
    </g>
    <g id="xtick_4">
     <g id="line2d_4">
      <g>
       <use xlink:href="#m98fb1b40cc" x="150.687642" y="118.08" style="stroke: #000000; stroke-width: 0.8"/>
      </g>
     </g>
     <g id="text_4">
      <!-- 7.5 -->
      <g transform="translate(142.73608 132.678438) scale(0.1 -0.1)">
       <defs>
        <path id="DejaVuSans-37" d="M 525 4666 
L 3525 4666 
L 3525 4397 
L 1831 0 
L 1172 0 
L 2766 4134 
L 525 4134 
L 525 4666 
z
" transform="scale(0.015625)"/>
       </defs>
       <use xlink:href="#DejaVuSans-37"/>
       <use xlink:href="#DejaVuSans-2e" transform="translate(63.623047 0)"/>
       <use xlink:href="#DejaVuSans-35" transform="translate(95.410156 0)"/>
      </g>
     </g>
    </g>
    <g id="xtick_5">
     <g id="line2d_5">
      <g>
       <use xlink:href="#m98fb1b40cc" x="188.733097" y="118.08" style="stroke: #000000; stroke-width: 0.8"/>
      </g>
     </g>
     <g id="text_5">
      <!-- 10.0 -->
      <g transform="translate(177.600284 132.678438) scale(0.1 -0.1)">
       <defs>
        <path id="DejaVuSans-31" d="M 794 531 
L 1825 531 
L 1825 4091 
L 703 3866 
L 703 4441 
L 1819 4666 
L 2450 4666 
L 2450 531 
L 3481 531 
L 3481 0 
L 794 0 
L 794 531 
z
" transform="scale(0.015625)"/>
       </defs>
       <use xlink:href="#DejaVuSans-31"/>
       <use xlink:href="#DejaVuSans-30" transform="translate(63.623047 0)"/>
       <use xlink:href="#DejaVuSans-2e" transform="translate(127.246094 0)"/>
       <use xlink:href="#DejaVuSans-30" transform="translate(159.033203 0)"/>
      </g>
     </g>
    </g>
   </g>
   <g id="matplotlib.axis_2">
    <g id="ytick_1">
     <g id="line2d_6">
      <defs>
       <path id="m008d923ca3" d="M 0 0 
L -3.5 0 
" style="stroke: #000000; stroke-width: 0.8"/>
      </defs>
      <g>
       <use xlink:href="#m008d923ca3" x="28.942187" y="108.865405" style="stroke: #000000; stroke-width: 0.8"/>
      </g>
     </g>
     <g id="text_6">
      <!-- −2 -->
      <g transform="translate(7.2 112.664623) scale(0.1 -0.1)">
       <defs>
        <path id="DejaVuSans-2212" d="M 678 2272 
L 4684 2272 
L 4684 1741 
L 678 1741 
L 678 2272 
z
" transform="scale(0.015625)"/>
       </defs>
       <use xlink:href="#DejaVuSans-2212"/>
       <use xlink:href="#DejaVuSans-32" transform="translate(83.789062 0)"/>
      </g>
     </g>
    </g>
    <g id="ytick_2">
     <g id="line2d_7">
      <g>
       <use xlink:href="#m008d923ca3" x="28.942187" y="86.413806" style="stroke: #000000; stroke-width: 0.8"/>
      </g>
     </g>
     <g id="text_7">
      <!-- −1 -->
      <g transform="translate(7.2 90.213025) scale(0.1 -0.1)">
       <use xlink:href="#DejaVuSans-2212"/>
       <use xlink:href="#DejaVuSans-31" transform="translate(83.789062 0)"/>
      </g>
     </g>
    </g>
    <g id="ytick_3">
     <g id="line2d_8">
      <g>
       <use xlink:href="#m008d923ca3" x="28.942187" y="63.962208" style="stroke: #000000; stroke-width: 0.8"/>
      </g>
     </g>
     <g id="text_8">
      <!-- 0 -->
      <g transform="translate(15.579687 67.761427) scale(0.1 -0.1)">
       <use xlink:href="#DejaVuSans-30"/>
      </g>
     </g>
    </g>
    <g id="ytick_4">
     <g id="line2d_9">
      <g>
       <use xlink:href="#m008d923ca3" x="28.942187" y="41.51061" style="stroke: #000000; stroke-width: 0.8"/>
      </g>
     </g>
     <g id="text_9">
      <!-- 1 -->
      <g transform="translate(15.579687 45.309828) scale(0.1 -0.1)">
       <use xlink:href="#DejaVuSans-31"/>
      </g>
     </g>
    </g>
    <g id="ytick_5">
     <g id="line2d_10">
      <g>
       <use xlink:href="#m008d923ca3" x="28.942187" y="19.059011" style="stroke: #000000; stroke-width: 0.8"/>
      </g>
     </g>
     <g id="text_10">
      <!-- 2 -->
      <g transform="translate(15.579687 22.85823) scale(0.1 -0.1)">
       <use xlink:href="#DejaVuSans-32"/>
      </g>
     </g>
    </g>
   </g>
   <g id="line2d_11">
    <path d="M 36.551278 52.810181 
L 38.384794 48.545237 
L 41.440654 40.660256 
L 43.885342 34.429134 
L 45.718858 30.302198 
L 46.941202 27.980139 
L 48.163546 26.08843 
L 49.38589 24.701695 
L 49.997062 24.209508 
L 50.608234 23.863051 
L 51.219405 23.66016 
L 51.830577 23.601972 
L 52.441749 23.694633 
L 53.052921 23.932813 
L 53.664093 24.321752 
L 54.886437 25.518629 
L 56.108781 27.255247 
L 57.331125 29.481278 
L 58.553469 32.125497 
L 60.386985 36.723059 
L 62.831673 43.593691 
L 67.109876 55.885312 
L 68.943392 60.658416 
L 70.776908 64.878383 
L 72.610424 68.424493 
L 73.832768 70.363714 
L 75.055112 71.941861 
L 76.277456 73.133169 
L 77.4998 73.931853 
L 78.722144 74.335352 
L 79.944488 74.331349 
L 81.166832 73.934698 
L 82.389175 73.143094 
L 83.611519 71.987878 
L 84.833863 70.475207 
L 86.056207 68.648886 
L 87.889723 65.391938 
L 89.723239 61.649104 
L 92.779099 54.764233 
L 97.057303 45.051217 
L 99.50199 40.102882 
L 101.335506 36.875578 
L 103.169022 34.149375 
L 104.391366 32.637776 
L 105.61371 31.38241 
L 106.836054 30.383437 
L 108.058398 29.645148 
L 109.280742 29.168969 
L 110.503086 28.93872 
L 111.72543 28.954279 
L 112.947773 29.19307 
L 114.170117 29.635498 
L 116.003633 30.64604 
L 117.837149 31.975694 
L 120.281837 34.078501 
L 124.560041 37.835381 
L 126.393557 39.197682 
L 128.227072 40.316422 
L 130.060588 41.172814 
L 132.505276 42.014657 
L 135.561136 42.971818 
L 137.394652 43.797904 
L 138.616996 44.563637 
L 139.83934 45.564832 
L 141.061684 46.826795 
L 142.284028 48.370601 
L 143.506372 50.223081 
L 144.728715 52.365746 
L 146.562231 56.083427 
L 149.006919 61.747004 
L 153.896295 73.573494 
L 155.729811 77.403626 
L 156.952155 79.581085 
L 158.174499 81.386127 
L 159.396842 82.7606 
L 160.619186 83.674534 
L 161.230358 83.94767 
L 161.84153 84.092753 
L 162.452702 84.107078 
L 163.063874 83.99063 
L 163.675046 83.737221 
L 164.89739 82.850498 
L 166.119734 81.438763 
L 167.342078 79.542507 
L 168.564422 77.187515 
L 169.786766 74.406487 
L 171.620282 69.596985 
L 174.06497 62.3234 
L 178.954345 47.295425 
L 180.787861 42.377892 
L 182.010205 39.524936 
L 183.232549 37.09094 
L 184.454893 35.123699 
L 185.677237 33.665536 
L 186.899581 32.728786 
L 187.510753 32.469666 
L 188.121925 32.335377 
L 188.733097 32.339965 
L 188.733097 32.339965 
" clip-path="url(#pe5cab369c3)" style="fill: none; stroke: #1f77b4; stroke-width: 1.5; stroke-linecap: square"/>
   </g>
   <g id="line2d_12">
    <path d="M 36.551278 67.066462 
L 37.773622 67.438393 
L 39.607138 67.730105 
L 43.27417 68.186703 
L 45.107686 68.733383 
L 46.33003 69.311096 
L 47.552374 70.080584 
L 48.774718 71.053677 
L 50.608234 72.852347 
L 52.441749 74.970559 
L 57.942297 81.49398 
L 59.164641 82.608691 
L 60.386985 83.476808 
L 61.609329 84.070278 
L 62.831673 84.364754 
L 64.054017 84.337824 
L 65.276361 84.010775 
L 66.498704 83.382819 
L 67.721048 82.495665 
L 69.554564 80.7737 
L 71.999252 78.024931 
L 75.055112 74.568969 
L 76.888628 72.850787 
L 78.110972 71.954711 
L 79.333316 71.299906 
L 80.55566 70.923751 
L 81.778003 70.825634 
L 83.000347 71.008388 
L 84.222691 71.463793 
L 85.445035 72.170627 
L 86.667379 73.099227 
L 88.500895 74.809305 
L 90.945583 77.467031 
L 95.834959 82.930806 
L 98.890818 86.006401 
L 103.780194 90.840132 
L 105.61371 92.90548 
L 107.447226 95.226048 
L 109.891914 98.715282 
L 116.614805 108.882666 
L 118.448321 110.983175 
L 119.670665 112.026182 
L 120.893009 112.732744 
L 122.115353 113.039393 
L 123.337697 112.930718 
L 123.948869 112.718623 
L 125.171213 111.943908 
L 126.393557 110.740348 
L 127.615901 109.099785 
L 128.838244 107.055337 
L 130.060588 104.639924 
L 131.894104 100.423619 
L 133.72762 95.643104 
L 136.78348 86.986006 
L 140.450512 76.679382 
L 142.284028 72.085259 
L 144.117543 68.154922 
L 145.339887 66.00936 
L 146.562231 64.311162 
L 147.784575 63.122216 
L 148.395747 62.7289 
L 149.006919 62.477013 
L 149.618091 62.3739 
L 150.229263 62.419805 
L 150.840435 62.61309 
L 151.451607 62.965064 
L 152.673951 64.128335 
L 153.896295 65.893759 
L 155.118639 68.224352 
L 156.340983 71.085202 
L 158.174499 76.183404 
L 160.619186 84.002669 
L 164.286218 96.013631 
L 166.119734 101.235325 
L 167.342078 104.182562 
L 168.564422 106.606546 
L 169.786766 108.44958 
L 171.00911 109.679842 
L 171.620282 110.064664 
L 172.231454 110.28835 
L 172.842626 110.362988 
L 173.453798 110.295484 
L 174.06497 110.088962 
L 175.287313 109.273496 
L 176.509657 107.986493 
L 177.732001 106.302329 
L 179.565517 103.234626 
L 182.010205 98.546601 
L 185.677237 91.443597 
L 187.510753 88.231814 
L 188.733097 86.295908 
L 188.733097 86.295908 
" clip-path="url(#pe5cab369c3)" style="fill: none; stroke: #ff7f0e; stroke-width: 1.5; stroke-linecap: square"/>
   </g>
   <g id="line2d_13">
    <path d="M 36.551278 49.420565 
L 37.773622 49.912926 
L 38.995966 50.613047 
L 40.21831 51.521583 
L 41.440654 52.660899 
L 42.662998 54.019684 
L 44.496514 56.500575 
L 46.33003 59.51019 
L 48.163546 63.011177 
L 50.608234 68.32065 
L 58.553469 86.689365 
L 60.386985 90.101291 
L 61.609329 92.016666 
L 62.831673 93.611092 
L 64.054017 94.853661 
L 65.276361 95.718669 
L 66.498704 96.204405 
L 67.721048 96.30917 
L 68.943392 96.037674 
L 70.165736 95.395167 
L 71.38808 94.417577 
L 72.610424 93.109546 
L 73.832768 91.518859 
L 75.666284 88.655016 
L 77.4998 85.316993 
L 79.944488 80.282168 
L 83.000347 73.338601 
L 87.278551 62.921616 
L 92.167927 51.098925 
L 94.612615 45.812601 
L 96.446131 42.366457 
L 98.279646 39.475387 
L 99.50199 37.880172 
L 100.724334 36.553574 
L 101.946678 35.470551 
L 103.780194 34.235406 
L 106.224882 33.030388 
L 108.66957 31.863061 
L 110.503086 30.710114 
L 111.72543 29.714048 
L 113.558945 27.809481 
L 115.392461 25.427321 
L 117.837149 21.72005 
L 120.893009 16.995588 
L 122.726525 14.633624 
L 123.948869 13.439949 
L 125.171213 12.625663 
L 126.393557 12.251277 
L 127.004729 12.24 
L 127.615901 12.355662 
L 128.227072 12.59352 
L 129.449416 13.439181 
L 130.67176 14.761968 
L 131.894104 16.528185 
L 133.116448 18.681337 
L 134.949964 22.51743 
L 137.394652 28.335775 
L 141.672856 38.741843 
L 143.506372 42.686167 
L 145.339887 46.073988 
L 146.562231 47.970299 
L 147.784575 49.562823 
L 149.006919 50.844252 
L 150.229263 51.825528 
L 151.451607 52.535321 
L 152.673951 52.993893 
L 153.896295 53.270743 
L 155.729811 53.438577 
L 158.785671 53.630277 
L 160.008014 53.877639 
L 161.230358 54.304748 
L 162.452702 54.97866 
L 163.675046 55.918777 
L 164.89739 57.143338 
L 166.119734 58.669583 
L 167.342078 60.454841 
L 169.175594 63.550922 
L 172.231454 69.298911 
L 174.676141 73.771271 
L 176.509657 76.671119 
L 177.732001 78.291402 
L 178.954345 79.605852 
L 180.176689 80.611807 
L 181.399033 81.302411 
L 182.621377 81.690789 
L 183.843721 81.811506 
L 185.066065 81.702507 
L 186.899581 81.195146 
L 188.733097 80.431309 
L 188.733097 80.431309 
" clip-path="url(#pe5cab369c3)" style="fill: none; stroke: #2ca02c; stroke-width: 1.5; stroke-linecap: square"/>
   </g>
   <g id="patch_3">
    <path d="M 28.942187 118.08 
L 28.942187 7.2 
" style="fill: none; stroke: #000000; stroke-width: 0.8; stroke-linejoin: miter; stroke-linecap: square"/>
   </g>
   <g id="patch_4">
    <path d="M 28.942188 118.08 
L 196.342188 118.08 
" style="fill: none; stroke: #000000; stroke-width: 0.8; stroke-linejoin: miter; stroke-linecap: square"/>
   </g>
  </g>
 </g>
 <defs>
  <clipPath id="pe5cab369c3">
   <rect x="28.942187" y="7.2" width="167.4" height="110.88"/>
  </clipPath>
 </defs>
</svg>
