<?xml version="1.0" encoding="utf-8" standalone="no"?>
<!DOCTYPE svg PUBLIC "-//W3C//DTD SVG 1.1//EN"
  "http://www.w3.org/Graphics/SVG/1.1/DTD/svg11.dtd">
<svg xmlns:xlink="http://www.w3.org/1999/xlink" width="213.542188pt" height="207.398125pt" viewBox="0 0 213.542188 207.398125" xmlns="http://www.w3.org/2000/svg" version="1.1">
 <metadata>
  <rdf:RDF xmlns:dc="http://purl.org/dc/elements/1.1/" xmlns:cc="http://creativecommons.org/ns#" xmlns:rdf="http://www.w3.org/1999/02/22-rdf-syntax-ns#">
   <cc:Work>
    <dc:type rdf:resource="http://purl.org/dc/dcmitype/StillImage"/>
    <dc:date>2025-09-13T14:45:41.851121</dc:date>
    <dc:format>image/svg+xml</dc:format>
    <dc:creator>
     <cc:Agent>
      <dc:title>Matplotlib v3.10.3, https://matplotlib.org/</dc:title>
     </cc:Agent>
    </dc:creator>
   </cc:Work>
  </rdf:RDF>
 </metadata>
 <defs>
  <style type="text/css">*{stroke-linejoin: round; stroke-linecap: butt}</style>
 </defs>
 <g id="figure_1">
  <g id="patch_1">
   <path d="M 0 207.398125 
L 213.542188 207.398125 
L 213.542188 0 
L 0 0 
z
" style="fill: #ffffff"/>
  </g>
  <g id="axes_1">
   <g id="patch_2">
    <path d="M 38.942188 173.52 
L 206.342187 173.52 
L 206.342187 7.2 
L 38.942188 7.2 
z
" style="fill: #ffffff"/>
   </g>
   <g id="matplotlib.axis_1">
    <g id="xtick_1">
     <g id="line2d_1">
      <defs>
       <path id="m8fe04c5fe6" d="M 0 0 
L 0 3.5 
" style="stroke: #000000; stroke-width: 0.8"/>
      </defs>
      <g>
       <use xlink:href="#m8fe04c5fe6" x="46.551278" y="183.52" style="stroke: #000000; stroke-width: 0.8"/>
      </g>
     </g>
     <g id="text_1">
      <!-- 0 -->
      <g transform="translate(43.370028 198.118438) scale(0.1 -0.1)">
       <defs>
        <path id="DejaVuSans-30" d="M 2034 4250 
Q 1547 4250 1301 3770 
Q 1056 3291 1056 2328 
Q 1056 1369 1301 889 
Q 1547 409 2034 409 
Q 2525 409 2770 889 
Q 3016 1369 3016 2328 
Q 3016 3291 2770 3770 
Q 2525 4250 2034 4250 
z
M 2034 4750 
Q 2819 4750 3233 4129 
Q 3647 3509 3647 2328 
Q 3647 1150 3233 529 
Q 2819 -91 2034 -91 
Q 1250 -91 836 529 
Q 422 1150 422 2328 
Q 422 3509 836 4129 
Q 1250 4750 2034 4750 
z
" transform="scale(0.015625)"/>
       </defs>
       <use xlink:href="#DejaVuSans-30"/>
      </g>
     </g>
    </g>
    <g id="xtick_2">
     <g id="line2d_2">
      <g>
       <use xlink:href="#m8fe04c5fe6" x="97.278551" y="183.52" style="stroke: #000000; stroke-width: 0.8"/>
      </g>
     </g>
     <g id="text_2">
      <!-- 2 -->
      <g transform="translate(94.097301 198.118438) scale(0.1 -0.1)">
       <defs>
        <path id="DejaVuSans-32" d="M 1228 531 
L 3431 531 
L 3431 0 
L 469 0 
L 469 531 
Q 828 903 1448 1529 
Q 2069 2156 2228 2338 
Q 2531 2678 2651 2914 
Q 2772 3150 2772 3378 
Q 2772 3750 2511 3984 
Q 2250 4219 1831 4219 
Q 1534 4219 1204 4116 
Q 875 4013 500 3803 
L 500 4441 
Q 881 4594 1212 4672 
Q 1544 4750 1819 4750 
Q 2544 4750 2975 4387 
Q 3406 4025 3406 3419 
Q 3406 3131 3298 2873 
Q 3191 2616 2906 2266 
Q 2828 2175 2409 1742 
Q 1991 1309 1228 531 
z
" transform="scale(0.015625)"/>
       </defs>
       <use xlink:href="#DejaVuSans-32"/>
      </g>
     </g>
    </g>
    <g id="xtick_3">
     <g id="line2d_3">
      <g>
       <use xlink:href="#m8fe04c5fe6" x="148.005824" y="183.52" style="stroke: #000000; stroke-width: 0.8"/>
      </g>
     </g>
     <g id="text_3">
      <!-- 4 -->
      <g transform="translate(144.824574 198.118438) scale(0.1 -0.1)">
       <defs>
        <path id="DejaVuSans-34" d="M 2419 4116 
L 825 1625 
L 2419 1625 
L 2419 4116 
z
M 2253 4666 
L 3047 4666 
L 3047 1625 
L 3713 1625 
L 3713 1100 
L 3047 1100 
L 3047 0 
L 2419 0 
L 2419 1100 
L 313 1100 
L 313 1709 
L 2253 4666 
z
" transform="scale(0.015625)"/>
       </defs>
       <use xlink:href="#DejaVuSans-34"/>
      </g>
     </g>
    </g>
    <g id="xtick_4">
     <g id="line2d_4">
      <g>
       <use xlink:href="#m8fe04c5fe6" x="198.733097" y="183.52" style="stroke: #000000; stroke-width: 0.8"/>
      </g>
     </g>
     <g id="text_4">
      <!-- 6 -->
      <g transform="translate(195.551847 198.118438) scale(0.1 -0.1)">
       <defs>
        <path id="DejaVuSans-36" d="M 2113 2584 
Q 1688 2584 1439 2293 
Q 1191 2003 1191 1497 
Q 1191 994 1439 701 
Q 1688 409 2113 409 
Q 2538 409 2786 701 
Q 3034 994 3034 1497 
Q 3034 2003 2786 2293 
Q 2538 2584 2113 2584 
z
M 3366 4563 
L 3366 3988 
Q 3128 4100 2886 4159 
Q 2644 4219 2406 4219 
Q 1781 4219 1451 3797 
Q 1122 3375 1075 2522 
Q 1259 2794 1537 2939 
Q 1816 3084 2150 3084 
Q 2853 3084 3261 2657 
Q 3669 2231 3669 1497 
Q 3669 778 3244 343 
Q 2819 -91 2113 -91 
Q 1303 -91 875 529 
Q 447 1150 447 2328 
Q 447 3434 972 4092 
Q 1497 4750 2381 4750 
Q 2619 4750 2861 4703 
Q 3103 4656 3366 4563 
z
" transform="scale(0.015625)"/>
       </defs>
       <use xlink:href="#DejaVuSans-36"/>
      </g>
     </g>
    </g>
   </g>
   <g id="matplotlib.axis_2">
    <g id="ytick_1">
     <g id="line2d_5">
      <defs>
       <path id="md6cc36d09b" d="M 0 0 
L -3.5 0 
" style="stroke: #000000; stroke-width: 0.8"/>
      </defs>
      <g>
       <use xlink:href="#md6cc36d09b" x="28.942188" y="163.678156" style="stroke: #000000; stroke-width: 0.8"/>
      </g>
     </g>
     <g id="text_5">
      <!-- −2 -->
      <g transform="translate(7.2 167.477374) scale(0.1 -0.1)">
       <defs>
        <path id="DejaVuSans-2212" d="M 678 2272 
L 4684 2272 
L 4684 1741 
L 678 1741 
L 678 2272 
z
" transform="scale(0.015625)"/>
       </defs>
       <use xlink:href="#DejaVuSans-2212"/>
       <use xlink:href="#DejaVuSans-32" transform="translate(83.789062 0)"/>
      </g>
     </g>
    </g>
    <g id="ytick_2">
     <g id="line2d_6">
      <g>
       <use xlink:href="#md6cc36d09b" x="28.942188" y="128.396894" style="stroke: #000000; stroke-width: 0.8"/>
      </g>
     </g>
     <g id="text_6">
      <!-- −1 -->
      <g transform="translate(7.2 132.196112) scale(0.1 -0.1)">
       <defs>
        <path id="DejaVuSans-31" d="M 794 531 
L 1825 531 
L 1825 4091 
L 703 3866 
L 703 4441 
L 1819 4666 
L 2450 4666 
L 2450 531 
L 3481 531 
L 3481 0 
L 794 0 
L 794 531 
z
" transform="scale(0.015625)"/>
       </defs>
       <use xlink:href="#DejaVuSans-2212"/>
       <use xlink:href="#DejaVuSans-31" transform="translate(83.789062 0)"/>
      </g>
     </g>
    </g>
    <g id="ytick_3">
     <g id="line2d_7">
      <g>
       <use xlink:href="#md6cc36d09b" x="28.942188" y="93.115632" style="stroke: #000000; stroke-width: 0.8"/>
      </g>
     </g>
     <g id="text_7">
      <!-- 0 -->
      <g transform="translate(15.579688 96.914851) scale(0.1 -0.1)">
       <use xlink:href="#DejaVuSans-30"/>
      </g>
     </g>
    </g>
    <g id="ytick_4">
     <g id="line2d_8">
      <g>
       <use xlink:href="#md6cc36d09b" x="28.942188" y="57.83437" style="stroke: #000000; stroke-width: 0.8"/>
      </g>
     </g>
     <g id="text_8">
      <!-- 1 -->
      <g transform="translate(15.579688 61.633589) scale(0.1 -0.1)">
       <use xlink:href="#DejaVuSans-31"/>
      </g>
     </g>
    </g>
    <g id="ytick_5">
     <g id="line2d_9">
      <g>
       <use xlink:href="#md6cc36d09b" x="28.942188" y="22.553108" style="stroke: #000000; stroke-width: 0.8"/>
      </g>
     </g>
     <g id="text_9">
      <!-- 2 -->
      <g transform="translate(15.579688 26.352327) scale(0.1 -0.1)">
       <use xlink:href="#DejaVuSans-32"/>
      </g>
     </g>
    </g>
   </g>
   <g id="line2d_10">
    <path d="M 46.551278 40.541525 
L 47.773622 41.238864 
L 48.995966 41.557937 
L 49.607138 41.563993 
L 50.21831 41.438068 
L 50.829482 41.182445 
L 51.440654 40.79479 
L 52.662998 39.572761 
L 53.885342 37.753666 
L 55.107686 35.386279 
L 56.33003 32.537283 
L 58.774718 25.991126 
L 60.608234 21.14361 
L 61.830577 18.375436 
L 63.052921 16.264507 
L 63.664093 15.524101 
L 64.275265 15.021885 
L 64.886437 14.784188 
L 65.497609 14.80666 
L 66.108781 15.126691 
L 66.719953 15.746408 
L 67.331125 16.653135 
L 67.942297 17.872785 
L 68.553469 19.377073 
L 69.775813 23.270691 
L 70.998157 28.206957 
L 72.220501 34.052257 
L 74.054017 44.125283 
L 77.721048 66.361436 
L 80.165736 80.503087 
L 81.999252 89.703985 
L 83.221596 94.863071 
L 84.44394 99.098919 
L 85.666284 102.302016 
L 86.277456 103.481798 
L 86.888628 104.380164 
L 87.4998 104.974049 
L 88.110972 105.271156 
L 88.722144 105.270416 
L 89.333316 104.960659 
L 89.944488 104.34298 
L 90.55566 103.436407 
L 91.166832 102.225129 
L 91.778003 100.758217 
L 93.000347 96.994501 
L 94.222691 92.294036 
L 95.445035 86.834591 
L 97.278551 77.634786 
L 101.556755 55.555366 
L 103.390271 47.541848 
L 104.612615 43.077852 
L 105.834959 39.388518 
L 107.057303 36.512382 
L 108.279646 34.428054 
L 109.50199 33.074467 
L 110.113162 32.644187 
L 110.724334 32.363106 
L 111.335506 32.213751 
L 112.55785 32.294203 
L 113.780194 32.7805 
L 115.002538 33.55945 
L 116.224882 34.561757 
L 118.66957 36.93131 
L 121.114258 39.314964 
L 122.336602 40.323706 
L 123.558945 41.092378 
L 124.781289 41.516837 
L 125.392461 41.577894 
L 126.003633 41.522855 
L 126.614805 41.330744 
L 127.225977 41.012433 
L 128.448321 39.935989 
L 129.670665 38.268074 
L 130.893009 36.02379 
L 132.115353 33.285437 
L 133.948869 28.512905 
L 137.004729 20.40142 
L 138.227072 17.78048 
L 139.449416 15.870727 
L 140.060588 15.241616 
L 140.67176 14.865039 
L 141.282932 14.76 
L 141.894104 14.924001 
L 142.505276 15.394202 
L 143.116448 16.164621 
L 143.72762 17.223765 
L 144.338792 18.594607 
L 145.561136 22.189244 
L 146.78348 26.876898 
L 148.005824 32.512328 
L 149.83934 42.361477 
L 152.8952 60.763914 
L 155.951059 78.825089 
L 157.784575 88.282507 
L 159.006919 93.655003 
L 160.229263 98.13197 
L 161.451607 101.605907 
L 162.062779 102.934345 
L 162.673951 103.971046 
L 163.285123 104.713385 
L 163.896295 105.163556 
L 164.507467 105.314271 
L 165.118639 105.150616 
L 165.729811 104.687487 
L 166.340983 103.929442 
L 166.952155 102.868738 
L 167.563327 101.52571 
L 168.785671 98.026686 
L 170.008014 93.548191 
L 171.230358 88.264599 
L 173.063874 79.224085 
L 177.95325 54.118988 
L 179.786766 46.355845 
L 181.00911 42.068682 
L 182.231454 38.593674 
L 183.453798 35.924214 
L 184.676141 34.023662 
L 185.898485 32.839619 
L 186.509657 32.48116 
L 187.120829 32.276563 
L 187.732001 32.195051 
L 188.954345 32.384827 
L 190.176689 32.941707 
L 191.399033 33.789575 
L 193.232549 35.416029 
L 198.121925 40.086903 
L 198.733097 40.541175 
L 198.733097 40.541175 
" clip-path="url(#pe479d7c0c2)" style="fill: none; stroke: #000000; stroke-width: 1.5; stroke-linecap: square"/>
   </g>
   <g id="line2d_11">
    <path d="M 46.551278 75.59093 
L 47.16245 76.651868 
L 47.773622 77.223389 
L 48.384794 76.661702 
L 48.995966 74.628454 
L 49.607138 71.203477 
L 50.829482 61.799616 
L 52.051826 52.435925 
L 52.662998 48.742863 
L 53.27417 46.027198 
L 53.885342 44.460941 
L 54.496514 44.303744 
L 55.107686 45.910292 
L 55.718858 49.69963 
L 56.33003 56.091444 
L 56.941202 65.300133 
L 57.552374 77.244011 
L 58.774718 107.049917 
L 59.997062 137.413953 
L 60.608234 149.640419 
L 61.219405 158.624097 
L 61.830577 163.993412 
L 62.441749 165.96 
L 63.052921 165.16335 
L 63.664093 162.537635 
L 65.497609 152.313629 
L 67.942297 141.115388 
L 69.164641 132.23064 
L 70.386985 122.975885 
L 70.998157 120.066033 
L 71.609329 119.141499 
L 72.220501 120.326845 
L 72.831673 123.231304 
L 74.665189 134.463268 
L 75.276361 136.871451 
L 75.887533 138.257507 
L 76.498704 138.84037 
L 77.109876 138.872128 
L 77.721048 138.579363 
L 78.33222 138.098769 
L 78.943392 137.459809 
L 79.554564 136.601263 
L 80.165736 135.354462 
L 80.776908 133.501038 
L 81.38808 130.792075 
L 81.999252 127.039969 
L 82.610424 122.173647 
L 83.832768 109.840673 
L 85.055112 97.126087 
L 85.666284 92.220895 
L 86.277456 89.01319 
L 86.888628 87.742649 
L 87.4998 88.216624 
L 89.333316 93.100338 
L 89.944488 93.065437 
L 90.55566 91.27452 
L 91.166832 87.644557 
L 92.389175 76.519103 
L 93.611519 64.783151 
L 94.222691 60.55423 
L 94.833863 58.256875 
L 95.445035 58.279148 
L 96.056207 60.781516 
L 96.667379 65.593475 
L 97.889723 80.038983 
L 99.112067 95.545898 
L 99.723239 101.71511 
L 100.334411 106.177259 
L 100.945583 108.77687 
L 101.556755 109.609895 
L 102.167927 108.884356 
L 102.779099 106.902031 
L 103.390271 103.978998 
L 105.223787 93.662412 
L 105.834959 91.440892 
L 106.446131 90.653293 
L 107.057303 91.533206 
L 107.668474 94.066757 
L 108.279646 97.987546 
L 109.50199 108.431171 
L 111.946678 131.105111 
L 112.55785 135.293773 
L 113.169022 137.959282 
L 113.780194 138.75427 
L 114.391366 137.562015 
L 115.002538 134.574999 
L 115.61371 130.119301 
L 116.836054 118.337096 
L 119.891914 83.915612 
L 120.503086 79.147199 
L 121.114258 76.118023 
L 121.72543 74.908291 
L 122.336602 75.133822 
L 123.558945 77.050268 
L 124.170117 77.116153 
L 124.781289 75.830797 
L 125.392461 73.076236 
L 126.003633 69.08225 
L 128.448321 50.485211 
L 129.059493 47.24923 
L 129.670665 45.08731 
L 130.281837 44.186833 
L 130.893009 44.856674 
L 131.504181 47.510564 
L 132.115353 52.553395 
L 132.726525 60.331629 
L 133.337697 70.953922 
L 134.560041 99.154869 
L 136.393557 143.89508 
L 137.004729 154.571371 
L 137.615901 161.759864 
L 138.227072 165.37202 
L 138.838244 165.849088 
L 139.449416 164.016599 
L 140.67176 157.238079 
L 141.894104 150.89888 
L 143.72762 142.855625 
L 144.338792 139.164555 
L 146.78348 121.295639 
L 147.394652 119.335242 
L 148.005824 119.480255 
L 148.616996 121.595457 
L 149.83934 129.13465 
L 150.450512 132.884626 
L 151.061684 135.800338 
L 151.672856 137.683325 
L 152.284028 138.635353 
L 152.8952 138.906353 
L 153.506372 138.750321 
L 154.117543 138.357463 
L 154.728715 137.795912 
L 155.339887 137.066441 
L 155.951059 136.026853 
L 156.562231 134.515485 
L 157.173403 132.270242 
L 157.784575 129.058552 
L 158.395747 124.741713 
L 159.618091 113.135375 
L 160.840435 100.064367 
L 161.451607 94.488085 
L 162.062779 90.38779 
L 162.673951 88.144969 
L 163.285123 87.78772 
L 163.896295 88.931348 
L 165.118639 92.565715 
L 165.729811 93.289944 
L 166.340983 92.407087 
L 166.952155 89.671403 
L 167.563327 85.245783 
L 170.008014 62.45346 
L 170.619186 59.12724 
L 171.230358 57.967164 
L 171.84153 59.230895 
L 172.452702 62.9195 
L 173.063874 68.729841 
L 176.119734 104.171037 
L 176.730906 107.704725 
L 177.342078 109.402968 
L 177.95325 109.421042 
L 178.564422 108.036979 
L 179.175594 105.537302 
L 181.620282 92.404646 
L 182.231454 90.84352 
L 182.842626 90.884206 
L 183.453798 92.609752 
L 184.06497 95.874253 
L 185.287313 105.61521 
L 188.343173 133.356924 
L 188.954345 136.84368 
L 189.565517 138.596467 
L 190.176689 138.399064 
L 190.787861 136.282436 
L 191.399033 132.50326 
L 192.621377 121.548035 
L 194.454893 100.691764 
L 195.677237 86.858909 
L 196.288409 81.331235 
L 196.899581 77.404919 
L 197.510753 75.303966 
L 198.121925 74.867486 
L 198.733097 75.585526 
L 198.733097 75.585526 
" clip-path="url(#pe479d7c0c2)" style="fill: none; stroke: #ff0000; stroke-width: 1.5; stroke-linecap: square"/>
   </g>
   <g id="patch_3">
    <path d="M 28.942188 173.52 
L 28.942188 7.2 
" style="fill: none; stroke: #000000; stroke-width: 0.8; stroke-linejoin: miter; stroke-linecap: square"/>
   </g>
   <g id="patch_4">
    <path d="M 38.942188 183.52 
L 206.342187 183.52 
" style="fill: none; stroke: #000000; stroke-width: 0.8; stroke-linejoin: miter; stroke-linecap: square"/>
   </g>
  </g>
 </g>
 <defs>
  <clipPath id="pe479d7c0c2">
   <rect x="38.942188" y="7.2" width="167.4" height="166.32"/>
  </clipPath>
 </defs>
</svg>
